<?xml version="1.0" encoding="utf-8"?>
<!-- Generator: Adobe Illustrator 24.3.0, SVG Export Plug-In . SVG Version: 6.00 Build 0)  -->
<svg version="1.1" id="Calque_1" xmlns="http://www.w3.org/2000/svg" xmlns:xlink="http://www.w3.org/1999/xlink" x="0px" y="0px"
	 viewBox="0 0 94.9 95.3" style="enable-background:new 0 0 94.9 95.3;" xml:space="preserve">
<style type="text/css">
	.st0{fill:#AC4B1C;}
	.st1{display:none;}
	.st2{display:inline;}
</style>
<g id="Calque_2_1_">
</g>
<g id="Calque_3">
	<g>
		<path class="st0" d="M57.2,47.7c0.3,0,0.6-0.1,0.9-0.2c0.9-0.5,1.2-1.6,0.7-2.5l-4.4-7.6c-0.5-0.9-1.6-1.2-2.5-0.7
			s-1.2,1.6-0.7,2.5l4.4,7.6C56,47.4,56.6,47.7,57.2,47.7z"/>
		<path class="st0" d="M30,64c0.3,0.6,0.9,0.9,1.6,0.9c0.3,0,0.6-0.1,0.9-0.2c0.9-0.5,1.2-1.6,0.7-2.5l-4.4-7.6
			c-0.5-0.9-1.6-1.2-2.5-0.7s-1.2,1.6-0.7,2.5L30,64z"/>
		<path class="st0" d="M58.8,77.7l-4.3-7.6c-0.5-0.9-1.6-1.2-2.5-0.7s-1.2,1.6-0.7,2.5l4.3,7.6c0.3,0.6,0.9,0.9,1.6,0.9
			c0.3,0,0.6-0.1,0.9-0.2C59,79.6,59.3,78.5,58.8,77.7z"/>
		<path class="st0" d="M29.2,31.5c0.3,0.6,0.9,0.9,1.6,0.9c0.3,0,0.6-0.1,0.9-0.2c0.9-0.5,1.2-1.6,0.7-2.5L28,22.1
			c-0.5-0.9-1.6-1.2-2.5-0.7s-1.2,1.6-0.7,2.5L29.2,31.5z"/>
		<path class="st0" d="M55.7,16.3c0.3,0.6,0.9,0.9,1.6,0.9c0.3,0,0.6-0.1,0.9-0.2c0.9-0.5,1.2-1.6,0.7-2.5l-4.4-7.6
			C54,6,52.9,5.7,52,6.2s-1.2,1.6-0.7,2.5L55.7,16.3z"/>
		<path class="st0" d="M77.8,23.9l4.4,7.6c0.3,0.6,0.9,0.9,1.6,0.9c0.3,0,0.6-0.1,0.9-0.2c0.9-0.5,1.2-1.6,0.7-2.5L81,22.1
			c-0.5-0.9-1.6-1.2-2.5-0.7C77.6,22,77.3,23.1,77.8,23.9z"/>
		<path class="st0" d="M88.8,54.4l-3.9-6.7l3.9-6.7l4.4-7.6c0.3-0.6,0.3-1.2,0-1.8L88.8,24l-4.4-7.6c-0.3-0.6-0.9-0.9-1.6-0.9H66.2
			L57.9,0.9c-0.4-0.6-1-0.9-1.6-0.9H38.6C38,0,37.4,0.3,37,0.9l-4.4,7.6l-3.9,6.8H12.1c-0.6,0-1.2,0.3-1.6,0.9L1.8,31.5
			c-0.3,0.6-0.3,1.2,0,1.8l8.3,14.4L1.8,62c-0.3,0.6-0.3,1.2,0,1.8l8.8,15.3c0.3,0.6,0.9,0.9,1.6,0.9h16.6l3.9,6.7l4.4,7.6
			c0.3,0.6,0.9,0.9,1.6,0.9h17.7c0.6,0,1.2-0.3,1.6-0.9L66.2,80h16.6c0.6,0,1.2-0.3,1.6-0.9l4.4-7.6l4.4-7.6c0.3-0.6,0.3-1.2,0-1.8
			L88.8,54.4z M89.5,32.4l-3.9,6.7l-3.9,6.7H66.2l-7.8-13.5l7.8-13.5h15.6L89.5,32.4z M39.7,61.1l-7.8-13.5l4-6.9l3.8-6.6h15.6
			L63,47.7l-7.8,13.5H39.7V61.1z M39.7,3.6h15.6l7.8,13.5l-7.8,13.5H39.7l-7.8-13.5L39.7,3.6z M13.2,18.9h15.6l7.8,13.5l-7.8,13.5
			H13.2L5.4,32.4L13.2,18.9z M5.4,62.9l7.8-13.5h15.6l7.8,13.5l-7.8,13.5H13.2L5.4,62.9z M55.3,91.7H39.7l-7.8-13.5l7.8-13.5h15.6
			l7.8,13.5L55.3,91.7z M81.8,76.4H66.2l-7.8-13.5l7.8-13.5h15.6l7.8,13.5L81.8,76.4z"/>
		<path class="st0" d="M78.5,52c-0.9,0.5-1.2,1.6-0.7,2.5l4.4,7.6c0.3,0.6,0.9,0.9,1.6,0.9c0.3,0,0.6-0.1,0.9-0.2
			c0.9-0.5,1.2-1.6,0.7-2.5L81,52.7C80.4,51.8,79.3,51.5,78.5,52z"/>
	</g>
</g>
<g id="Calque_1_1_" class="st1">
	<path class="st2" d="M94,24.2L89.8,20c-0.9-0.9-2.4-1.1-3.6-0.5l-10,5.5c-0.6-1.3-1.5-2.6-2.6-3.7s-2.4-1.9-3.7-2.6l5.5-10
		c0.6-1.2,0.4-2.6-0.5-3.6l-4.2-4.2c-1.2-1.2-3.1-1.2-4.2,0c-1.2,1.2-1.2,3.1,0,4.2l2.6,2.6l-5.2,9.4c-3.6,0-7.1,1.3-9.8,4
		c-2.2,2.2-3.4,4.8-3.8,7.6c-9.3-5.6-23.9-13-35.5-10.5c-5.1,1.1-9.2,4-12,8.6c-4.4,7.1-2.9,12-0.8,14.7c2.8,4,8.6,6.4,15.3,7.9
		c-8.1,11-14,26.9-11.8,35.1l-3.6,7c-0.6,1.2,0.7,2.5,1.9,1.9l6.9-3.6c1.2,0.4,2.6,0.5,4,0.5c4.6,0,9.8-1.6,13.3-2.8
		c6.4-2.3,12.7-5.7,17.8-9.5c1.5,6.7,3.9,12.4,7.8,15.3c1.5,1.1,3.5,2,6.2,2c2.4,0,5.2-0.8,8.6-2.8c4.6-2.8,7.5-6.9,8.6-12
		c2.4-11.8-5-26.4-10.9-35.7c2.8-0.4,5.5-1.7,7.6-3.8c2.7-2.7,4.1-6.3,4-9.8l9.4-5.2l2.6,2.6c1.2,1.2,3.1,1.2,4.2,0
		C95.2,27.3,95.2,25.4,94,24.2z M6.8,38c-0.5-0.7-2.1-2.9,1.1-8.1c2-3.2,4.7-5.1,8.2-5.9c1.2-0.2,2.4-0.4,3.7-0.4
		c10.9,0,24.7,8.5,30.6,12.5c0.7,0.5,0.8,1.1,0.9,1.4c0,0.3,0,1-0.5,1.6l-2.1,2.4c-2,2.3-4.9,3.7-8,3.7C22.7,45.5,10.1,42.7,6.8,38z
		 M11.5,83.6c-1-1-0.9-4.4,0.1-8.8l8.6,8.7C15,84.7,12.1,84.2,11.5,83.6z M28.5,80.8L14.3,66.7c0.7-1.6,1.4-3.2,2.2-4.8l16.7,16.7
		C31.7,79.4,30.1,80.1,28.5,80.8z M40.1,74.6L20.5,54.9c1-1.4,1.9-2.7,3-4l20.6,20.6C42.9,72.6,41.6,73.6,40.1,74.6z M34.7,51.2
		c1.5,0,3,0.1,4.5,0.1c0.5,0,0.9,0,1.4,0c1.2,0,2.5-0.2,3.7-0.4c-0.3,1.2-0.4,2.4-0.4,3.7c0,1.9,0,3.9,0.1,5.9L34.7,51.2z
		 M71.1,79.1c-0.8,3.5-2.7,6.2-5.9,8.2c-5.2,3.2-7.4,1.6-8.1,1c-4.7-3.4-7.4-16-7.3-33.8c0-3.1,1.4-6,3.7-8l2.4-2.1
		c0.5-0.4,1-0.5,1.4-0.5c0.1,0,0.2,0,0.3,0c0.3,0,1,0.2,1.4,0.9C63.4,51.4,73.5,67.8,71.1,79.1z"/>
</g>
</svg>
