<?xml version="1.0" encoding="utf-8"?>
<!-- Generator: Adobe Illustrator 24.3.0, SVG Export Plug-In . SVG Version: 6.00 Build 0)  -->
<svg version="1.1" id="Calque_3" xmlns="http://www.w3.org/2000/svg" xmlns:xlink="http://www.w3.org/1999/xlink" x="0px" y="0px"
	 viewBox="0 0 932.2 204.6" style="enable-background:new 0 0 932.2 204.6;" xml:space="preserve">
<style type="text/css">
	.st0{fill:#AC4B1C;}
	.st1{enable-background:new    ;}
</style>
<g>
	<path class="st0" d="M100.2,141.3c-0.8,0-1.5-0.6-2.5-3.6c-1.6-4-2.5-8.5-3.1-12.4c-0.8-5.5-1-10.1-0.7-14.7c0-0.7,0-1.4,0.5-2.1
		c0.9-1.4,1.9-1.3,2.4-1.2c1.3,0.3,1.7,1.4,2.1,2.4c0.2,0.8,0.5,1.6,0.6,2.4c0.4-0.4,0.9-0.8,1.3-1.1c0.5-0.4,0.9-0.7,1.2-1
		c5.1-5.9,11.5-12.5,19.7-16.9c3.1-1.9,6.1-2.3,8.2-1c1.3,0.8,2.4,2.3,2.8,4.1c0.3,1.1,0.2,2.3,0.2,3.5c0,0.4,0,0.8,0,1.1
		c-0.2,3.6-0.5,7.8-1.6,11.8c-1.4,4.4-3.5,7.9-6.2,10.3c-3.4,2.9-7.6,4.3-11.7,5.7l-0.4,0.1c-2,0.7-4.1,1.3-6.1,2
		c-1.8,0.6-3.6,1.1-5.4,1.7c0,1.3,0,2.7-0.1,4c0,0.1,0,0.2,0,0.5c0.1,2.2,0.1,3.4-0.5,4.1C100.9,141.2,100.6,141.3,100.2,141.3z
		 M96.4,109c-0.2,0-0.5,0.3-0.6,0.5c-0.2,0.3-0.2,0.6-0.2,1.2c-0.3,4.5-0.1,9,0.7,14.4c0.6,3.8,1.5,8.1,3,12.1
		c0.2,0.7,0.5,1.3,0.6,1.7c0-0.5,0-1.1,0-1.8c0-0.3,0-0.5,0-0.6c0.2-4.9,0-9.6-0.5-14.4l-0.5-3.5c-0.1-0.4-0.2-1-0.3-1.6
		c-0.1-0.6-0.3-1.2-0.3-1.6c-0.1-0.4,0-0.9,0.1-1.3c-0.3-1.3-0.5-2.5-0.9-3.8C97.1,109.5,96.9,109.1,96.4,109
		C96.5,109,96.5,109,96.4,109z M99.9,115c0.1,0.4,0.2,1,0.3,1.5c0.1,0.6,0.3,1.2,0.3,1.7l0.5,3.6c0.3,2.9,0.5,5.9,0.6,8.8
		c1.6-0.5,3.3-1.1,4.9-1.6c2-0.6,4-1.3,6-2l0.4-0.1c3.9-1.3,7.9-2.6,11.1-5.3c2.5-2.2,4.4-5.4,5.7-9.5c1-3.8,1.3-7.9,1.5-11.4
		c0-0.4,0-0.8,0-1.1c0-1.1,0.1-2.1-0.2-3c-0.3-1.4-1-2.5-2-3c-2.1-1.3-4.9,0.1-6.5,1c-8,4.3-14.2,10.7-19.2,16.5
		c-0.4,0.4-0.9,0.8-1.4,1.3c-0.7,0.6-1.6,1.2-1.9,1.9c0,0.2,0.1,0.5,0.1,0.7L99.9,115z"/>
</g>
<g>
	<path class="st0" d="M96.3,133l-2.3-0.1c-5.3-0.1-10.8-0.3-16.2-1.3c-7.1-1.4-12.7-4.2-16.8-8.2c-3.5-3.5-6.1-8.1-7.4-13.3
		c-0.6-2.3-0.9-4.2-0.7-5.9c0.1-1.6,0.7-3.9,2.5-5.6c2.2-2.2,5.8-3,9.4-1.9c3,0.9,5.7,2.7,8.2,4.4c8.7,5.8,15.4,10.1,21.8,13.9
		l-0.9,1.5c-6.3-3.8-13.1-8.1-21.8-14c-2.6-1.7-5-3.3-7.8-4.1c-2.3-0.7-5.5-0.6-7.7,1.5c-1.1,1.1-1.8,2.7-2,4.6
		c-0.1,1.5,0.1,3.2,0.7,5.3c1.2,4.9,3.6,9.3,6.9,12.6c3.8,3.8,9.2,6.4,15.9,7.8c5.3,1,10.7,1.2,15.9,1.3l2.3,0.1L96.3,133z"/>
</g>
<g>
	<path class="st0" d="M110.1,142.7c-4-0.2-7.9-2.2-10.1-5.3l1.4-1c1.9,2.7,5.2,4.4,8.7,4.6c3.3,0,6.8-1.6,8.8-4.1
		c0.3-0.3,0.5-0.6,0.5-0.8c0.1-0.6-0.4-1.1-1.3-1.7c-1.9-1.3-4.6-3-5.2-5.8l1.7-0.4c0.5,2.1,2.6,3.6,4.4,4.7
		c1.5,0.9,2.3,2.1,2.1,3.2c0,0.8-0.6,1.5-0.9,1.8C118,140.8,114,142.7,110.1,142.7z"/>
</g>
<g>
	<path class="st0" d="M85.8,147c-0.1,0-0.3,0-0.4,0c-1.9-0.2-3.6-1.3-5.1-2.4l-0.6-0.5c-0.7-0.6-1.5-1.1-2.1-1.9
		c-0.9-1.4-1.2-2.6-1-3.9c0.3-1.7,1.6-2.9,2.8-3.9c1.1-0.9,2.1-1.8,2.1-2.9l1.7,0.1c-0.1,1.9-1.5,3-2.7,4.1c-1,0.9-2,1.7-2.2,2.8
		c-0.1,0.9,0.1,1.7,0.7,2.6c0.4,0.5,1.1,1,1.8,1.5l0.6,0.5c1.3,1,2.7,1.9,4.1,2c1.8,0.1,3.6-0.9,5.8-3.3c0.3-0.3,0.6-0.6,0.8-0.9
		c1.5-1.7,3-3.4,5.4-4.1l0.4,1.6c-1.9,0.5-3.2,2-4.5,3.6c-0.3,0.3-0.6,0.7-0.9,1C91,144.8,88.7,147,85.8,147z"/>
</g>
<g>
	<path class="st0" d="M93.6,108.5c-1-4.4-3.3-8.6-6.9-12c-1.6-1.6-3-2.3-4.4-2.2l-0.1-1.7c1.9-0.2,3.8,0.7,5.8,2.6
		c3.8,3.6,6.4,8.1,7.4,12.9L93.6,108.5z"/>
</g>
<g>
	<path class="st0" d="M98.3,109.2l-1.6-0.4c0.7-2.5,0.3-5.1-0.2-7.4C95.8,98.7,95,96.2,94,94c-1.4-3.7-2.7-6.9-4.8-9.7l1.4-1
		c2.2,2.9,3.6,6.3,5.1,10.1c1,2.3,1.9,4.8,2.6,7.6C98.7,103.5,99.1,106.4,98.3,109.2z"/>
</g>
<g class="st1">
	<path class="st0" d="M42.3,155.1h3.1v14.5h-3.1V155.1z"/>
	<path class="st0" d="M50.3,165.6c0.1,1.3,1.4,1.9,2.8,1.9c1.1,0,1.9-0.1,2.8-0.4l0.4,2.1c-1,0.4-2.3,0.6-3.6,0.6
		c-3.4,0-5.3-2-5.3-5.1c0-2.5,1.6-5.3,5-5.3c3.2,0,4.5,2.5,4.5,5c0,0.5-0.1,1-0.1,1.2H50.3z M54,163.4c0-0.8-0.3-2-1.8-2
		c-1.3,0-1.8,1.2-1.9,2H54z"/>
	<path class="st0" d="M58.7,166.8c0.6,0.3,1.8,0.8,2.7,0.8s1.3-0.3,1.3-0.8s-0.3-0.8-1.5-1.1c-2.1-0.7-2.9-1.8-2.8-3
		c0-1.9,1.6-3.3,4.1-3.3c1.2,0,2.2,0.3,2.8,0.6l-0.6,2.1c-0.4-0.2-1.3-0.6-2.2-0.6c-0.8,0-1.2,0.3-1.2,0.8s0.4,0.7,1.6,1.1
		c1.9,0.7,2.7,1.6,2.7,3.1c0,1.9-1.5,3.2-4.3,3.2c-1.3,0-2.5-0.3-3.2-0.7L58.7,166.8z"/>
	<path class="st0" d="M71.7,162.9c0-1.3,0-2.4-0.1-3.4h2.7l0.1,1.4l0,0c0.7-1.1,1.9-1.6,3.3-1.6c2.2,0,4.1,1.9,4.1,5.1
		c0,3.6-2.3,5.4-4.5,5.4c-1.2,0-2.1-0.5-2.6-1.1l0,0v5h-3.1L71.7,162.9L71.7,162.9z M74.8,165.3c0,0.2,0,0.5,0.1,0.7
		c0.2,0.8,0.9,1.5,1.8,1.5c1.3,0,2.1-1.1,2.1-2.8c0-1.6-0.7-2.8-2.1-2.8c-0.9,0-1.7,0.7-1.9,1.6c0,0.2-0.1,0.4-0.1,0.6L74.8,165.3
		L74.8,165.3z"/>
	<path class="st0" d="M89.6,169.6l-0.2-1h-0.1c-0.7,0.8-1.7,1.2-2.9,1.2c-2,0-3.2-1.5-3.2-3.1c0-2.6,2.3-3.8,5.9-3.8v-0.1
		c0-0.5-0.3-1.3-1.8-1.3c-1,0-2.1,0.3-2.8,0.8l-0.6-2c0.7-0.4,2.1-0.9,3.9-0.9c3.3,0,4.4,2,4.4,4.3v3.5c0,1,0,1.9,0.1,2.4
		L89.6,169.6L89.6,169.6z M89.2,164.8c-1.6,0-2.9,0.4-2.9,1.6c0,0.8,0.5,1.2,1.2,1.2c0.8,0,1.4-0.5,1.6-1.1c0-0.2,0.1-0.3,0.1-0.5
		C89.2,166,89.2,164.8,89.2,164.8z"/>
	<path class="st0" d="M94.7,162.9c0-1.3,0-2.4-0.1-3.4h2.7l0.1,1.4l0,0c0.7-1.1,1.9-1.6,3.3-1.6c2.2,0,4.1,1.9,4.1,5.1
		c0,3.6-2.3,5.4-4.5,5.4c-1.2,0-2.1-0.5-2.6-1.1l0,0v5h-3.1L94.7,162.9L94.7,162.9z M97.8,165.3c0,0.2,0,0.5,0.1,0.7
		c0.2,0.8,0.9,1.5,1.8,1.5c1.3,0,2.1-1.1,2.1-2.8c0-1.6-0.7-2.8-2.1-2.8c-0.9,0-1.7,0.7-1.9,1.6c0,0.2-0.1,0.4-0.1,0.6L97.8,165.3
		L97.8,165.3z"/>
	<path class="st0" d="M110.1,156.8c0,0.9-0.7,1.6-1.7,1.6s-1.6-0.7-1.6-1.6c0-0.9,0.6-1.6,1.6-1.6S110.1,155.9,110.1,156.8z
		 M106.9,169.6v-10h3.1v10H106.9z"/>
	<path class="st0" d="M112.5,155.1h3.1v14.5h-3.1V155.1z"/>
	<path class="st0" d="M118.2,155.1h3.1v14.5h-3.1V155.1z"/>
	<path class="st0" d="M133.6,164.5c0,3.7-2.6,5.3-5.3,5.3c-2.9,0-5.2-1.9-5.2-5.1c0-3.2,2.1-5.3,5.3-5.3
		C131.6,159.3,133.6,161.4,133.6,164.5z M126.4,164.6c0,1.7,0.7,3,2,3c1.2,0,2-1.2,2-3c0-1.5-0.6-3-2-3S126.4,163.1,126.4,164.6z"/>
	<path class="st0" d="M135.6,162.8c0-1.2,0-2.3-0.1-3.2h2.7l0.1,1.4h0.1c0.4-0.6,1.4-1.6,3.1-1.6c2,0,3.6,1.3,3.6,4.3v5.9H142V164
		c0-1.3-0.4-2.2-1.6-2.2c-0.9,0-1.4,0.6-1.6,1.2c-0.1,0.2-0.1,0.5-0.1,0.8v5.8h-3.1L135.6,162.8L135.6,162.8z"/>
	<path class="st0" d="M147.5,166.8c0.6,0.3,1.8,0.8,2.7,0.8s1.3-0.3,1.3-0.8s-0.3-0.8-1.5-1.1c-2.1-0.7-2.9-1.8-2.8-3
		c0-1.9,1.6-3.3,4.1-3.3c1.2,0,2.2,0.3,2.8,0.6l-0.6,2.1c-0.4-0.2-1.3-0.6-2.2-0.6c-0.8,0-1.2,0.3-1.2,0.8s0.4,0.7,1.6,1.1
		c1.9,0.7,2.7,1.6,2.7,3.1c0,1.9-1.5,3.2-4.3,3.2c-1.3,0-2.5-0.3-3.2-0.7L147.5,166.8z"/>
</g>
<g class="st1">
	<path class="st0" d="M185.6,115.5h3.1V130h-3.1V115.5z"/>
	<path class="st0" d="M193.6,126c0.1,1.3,1.4,1.9,2.8,1.9c1.1,0,1.9-0.1,2.8-0.4l0.4,2.1c-1,0.4-2.3,0.6-3.6,0.6
		c-3.4,0-5.3-2-5.3-5.1c0-2.5,1.6-5.3,5-5.3c3.2,0,4.5,2.5,4.5,5c0,0.5-0.1,1-0.1,1.2C200.1,126,193.6,126,193.6,126z M197.2,123.8
		c0-0.8-0.3-2-1.8-2c-1.3,0-1.8,1.2-1.9,2H197.2z"/>
	<path class="st0" d="M202,127.2c0.6,0.3,1.8,0.8,2.7,0.8s1.3-0.3,1.3-0.8s-0.3-0.8-1.5-1.1c-2.1-0.7-2.9-1.8-2.8-3
		c0-1.9,1.6-3.3,4.1-3.3c1.2,0,2.2,0.3,2.8,0.6l-0.6,2.1c-0.4-0.2-1.3-0.6-2.2-0.6c-0.8,0-1.2,0.3-1.2,0.8s0.4,0.7,1.6,1.1
		c1.9,0.7,2.7,1.6,2.7,3.1c0,1.9-1.5,3.2-4.3,3.2c-1.3,0-2.5-0.3-3.2-0.7L202,127.2z"/>
	<path class="st0" d="M222.5,129.7c-0.6,0.2-1.6,0.4-2.8,0.4c-3.2,0-5.3-2-5.3-5.1c0-2.9,2-5.3,5.7-5.3c0.8,0,1.7,0.1,2.4,0.4
		l-0.5,2.3c-0.4-0.2-0.9-0.3-1.7-0.3c-1.6,0-2.7,1.2-2.7,2.8c0,1.8,1.2,2.8,2.7,2.8c0.7,0,1.3-0.1,1.8-0.3L222.5,129.7z"/>
	<path class="st0" d="M233.8,124.9c0,3.7-2.6,5.3-5.3,5.3c-2.9,0-5.2-1.9-5.2-5.1c0-3.2,2.1-5.3,5.3-5.3
		C231.8,119.7,233.8,121.8,233.8,124.9z M226.6,125c0,1.7,0.7,3,2,3c1.2,0,2-1.2,2-3c0-1.5-0.6-3-2-3
		C227.2,122,226.6,123.5,226.6,125z"/>
	<path class="st0" d="M235.8,115.5h3.1V130h-3.1V115.5z"/>
	<path class="st0" d="M243.8,126c0.1,1.3,1.4,1.9,2.8,1.9c1.1,0,1.9-0.1,2.8-0.4l0.4,2.1c-1,0.4-2.3,0.6-3.6,0.6
		c-3.4,0-5.3-2-5.3-5.1c0-2.5,1.6-5.3,5-5.3c3.2,0,4.5,2.5,4.5,5c0,0.5-0.1,1-0.1,1.2C250.3,126,243.8,126,243.8,126z M247.4,123.8
		c0-0.8-0.3-2-1.8-2c-1.3,0-1.8,1.2-1.9,2H247.4z M249.1,115.6l-2.5,3.1h-2.1l1.8-3.1H249.1z"/>
	<path class="st0" d="M262,124.9c0,3.7-2.6,5.3-5.3,5.3c-2.9,0-5.2-1.9-5.2-5.1c0-3.2,2.1-5.3,5.3-5.3
		C260,119.7,262,121.8,262,124.9z M254.8,125c0,1.7,0.7,3,2,3c1.2,0,2-1.2,2-3c0-1.5-0.6-3-2-3C255.3,122,254.8,123.5,254.8,125z"/>
	<path class="st0" d="M263.9,123.3c0-1.3,0-2.4-0.1-3.4h2.7l0.1,1.4l0,0c0.7-1.1,1.9-1.6,3.3-1.6c2.2,0,4.1,1.9,4.1,5.1
		c0,3.6-2.3,5.4-4.5,5.4c-1.2,0-2.1-0.5-2.6-1.1l0,0v5h-3.1v-10.8H263.9z M267.1,125.7c0,0.2,0,0.5,0.1,0.7c0.2,0.8,0.9,1.5,1.8,1.5
		c1.3,0,2.1-1.1,2.1-2.8c0-1.6-0.7-2.8-2.1-2.8c-0.9,0-1.7,0.7-1.9,1.6c0,0.2-0.1,0.4-0.1,0.6v1.2H267.1z"/>
	<path class="st0" d="M279.6,117.1v2.9h2.2v2.3h-2.2v3.6c0,1.2,0.3,1.8,1.2,1.8c0.4,0,0.7,0,0.9-0.1v2.3c-0.4,0.2-1.1,0.3-2,0.3
		c-1,0-1.8-0.3-2.3-0.9c-0.6-0.6-0.9-1.6-0.9-3v-4.1h-1.3V120h1.3v-2.2L279.6,117.1z"/>
	<path class="st0" d="M285.9,126c0.1,1.3,1.4,1.9,2.8,1.9c1.1,0,1.9-0.1,2.8-0.4l0.4,2.1c-1,0.4-2.3,0.6-3.6,0.6
		c-3.4,0-5.3-2-5.3-5.1c0-2.5,1.6-5.3,5-5.3c3.2,0,4.5,2.5,4.5,5c0,0.5-0.1,1-0.1,1.2C292.4,126,285.9,126,285.9,126z M287.6,115.6
		l1.8,3.1h-2.1l-2.5-3.1H287.6z M289.6,123.8c0-0.8-0.3-2-1.8-2c-1.3,0-1.8,1.2-1.9,2H289.6z"/>
	<path class="st0" d="M294.3,123.3c0-1.5,0-2.4-0.1-3.3h2.7l0.1,1.8h0.1c0.5-1.4,1.7-2.1,2.7-2.1c0.3,0,0.4,0,0.7,0v2.9
		c-0.2,0-0.5-0.1-0.8-0.1c-1.1,0-1.9,0.6-2.1,1.6c0,0.2-0.1,0.4-0.1,0.7v5.1h-3.1v-6.6H294.3z"/>
	<path class="st0" d="M304.3,126c0.1,1.3,1.4,1.9,2.8,1.9c1.1,0,1.9-0.1,2.8-0.4l0.4,2.1c-1,0.4-2.3,0.6-3.6,0.6
		c-3.4,0-5.3-2-5.3-5.1c0-2.5,1.6-5.3,5-5.3c3.2,0,4.5,2.5,4.5,5c0,0.5-0.1,1-0.1,1.2C310.8,126,304.3,126,304.3,126z M308,123.8
		c0-0.8-0.3-2-1.8-2c-1.3,0-1.8,1.2-1.9,2H308z"/>
	<path class="st0" d="M312.7,127.2c0.6,0.3,1.8,0.8,2.7,0.8c0.9,0,1.3-0.3,1.3-0.8s-0.3-0.8-1.5-1.1c-2.1-0.7-2.9-1.8-2.8-3
		c0-1.9,1.6-3.3,4.1-3.3c1.2,0,2.2,0.3,2.8,0.6l-0.6,2.1c-0.4-0.2-1.3-0.6-2.2-0.6c-0.8,0-1.2,0.3-1.2,0.8s0.4,0.7,1.6,1.1
		c1.9,0.7,2.7,1.6,2.7,3.1c0,1.9-1.5,3.2-4.3,3.2c-1.3,0-2.5-0.3-3.2-0.7L312.7,127.2z"/>
</g>
<g class="st1">
	<path class="st0" d="M355.6,155.1h3.1v14.5h-3.1V155.1z"/>
	<path class="st0" d="M363.7,165.6c0.1,1.3,1.4,1.9,2.8,1.9c1.1,0,1.9-0.1,2.8-0.4l0.4,2.1c-1,0.4-2.3,0.6-3.6,0.6
		c-3.4,0-5.3-2-5.3-5.1c0-2.5,1.6-5.3,5-5.3c3.2,0,4.5,2.5,4.5,5c0,0.5-0.1,1-0.1,1.2H363.7z M367.3,163.4c0-0.8-0.3-2-1.8-2
		c-1.3,0-1.8,1.2-1.9,2H367.3z"/>
	<path class="st0" d="M372,166.8c0.6,0.3,1.8,0.8,2.7,0.8c0.9,0,1.3-0.3,1.3-0.8s-0.3-0.8-1.5-1.1c-2.1-0.7-2.9-1.8-2.8-3
		c0-1.9,1.6-3.3,4.1-3.3c1.2,0,2.2,0.3,2.8,0.6l-0.6,2.1c-0.4-0.2-1.3-0.6-2.2-0.6c-0.8,0-1.2,0.3-1.2,0.8s0.4,0.7,1.6,1.1
		c1.9,0.7,2.7,1.6,2.7,3.1c0,1.9-1.5,3.2-4.3,3.2c-1.3,0-2.5-0.3-3.2-0.7L372,166.8z"/>
	<path class="st0" d="M390.7,169.6l-0.2-1h-0.1c-0.7,0.8-1.7,1.2-2.9,1.2c-2,0-3.2-1.5-3.2-3.1c0-2.6,2.3-3.8,5.9-3.8v-0.1
		c0-0.5-0.3-1.3-1.8-1.3c-1,0-2.1,0.3-2.8,0.8l-0.6-2c0.7-0.4,2.1-0.9,3.9-0.9c3.3,0,4.4,2,4.4,4.3v3.5c0,1,0,1.9,0.1,2.4
		L390.7,169.6L390.7,169.6z M390.4,164.8c-1.6,0-2.9,0.4-2.9,1.6c0,0.8,0.5,1.2,1.2,1.2c0.8,0,1.4-0.5,1.6-1.1
		c0-0.2,0.1-0.3,0.1-0.5L390.4,164.8L390.4,164.8z"/>
	<path class="st0" d="M395.8,169.6c0-0.7,0.1-1.9,0.1-3v-11.5h3.1v5.7l0,0c0.6-0.9,1.6-1.4,3-1.4c2.4,0,4.1,2,4.1,5
		c0,3.6-2.3,5.4-4.6,5.4c-1.2,0-2.3-0.4-3-1.6l0,0l-0.1,1.4L395.8,169.6L395.8,169.6z M398.9,165.3c0,0.2,0,0.4,0.1,0.6
		c0.2,0.8,0.9,1.5,1.8,1.5c1.3,0,2.1-1,2.1-2.8c0-1.6-0.7-2.8-2.1-2.8c-0.8,0-1.6,0.6-1.8,1.5c0,0.2-0.1,0.4-0.1,0.6V165.3z"/>
	<path class="st0" d="M410.5,165.6c0.1,1.3,1.4,1.9,2.8,1.9c1.1,0,1.9-0.1,2.8-0.4l0.4,2.1c-1,0.4-2.3,0.6-3.6,0.6
		c-3.4,0-5.3-2-5.3-5.1c0-2.5,1.6-5.3,5-5.3c3.2,0,4.5,2.5,4.5,5c0,0.5-0.1,1-0.1,1.2H410.5z M414.2,163.4c0-0.8-0.3-2-1.8-2
		c-1.3,0-1.8,1.2-1.9,2H414.2z"/>
	<path class="st0" d="M422.1,156.8c0,0.9-0.7,1.6-1.7,1.6s-1.6-0.7-1.6-1.6c0-0.9,0.6-1.6,1.6-1.6
		C421.5,155.2,422.1,155.9,422.1,156.8z M418.9,169.6v-10h3.1v10H418.9z"/>
	<path class="st0" d="M424.5,155.1h3.1v14.5h-3.1V155.1z"/>
	<path class="st0" d="M430.1,155.1h3.1v14.5h-3.1V155.1z"/>
	<path class="st0" d="M438.1,165.6c0.1,1.3,1.4,1.9,2.8,1.9c1.1,0,1.9-0.1,2.8-0.4l0.4,2.1c-1,0.4-2.3,0.6-3.6,0.6
		c-3.4,0-5.3-2-5.3-5.1c0-2.5,1.6-5.3,5-5.3c3.2,0,4.5,2.5,4.5,5c0,0.5-0.1,1-0.1,1.2H438.1z M441.8,163.4c0-0.8-0.3-2-1.8-2
		c-1.3,0-1.8,1.2-1.9,2H441.8z"/>
	<path class="st0" d="M446.5,166.8c0.6,0.3,1.8,0.8,2.7,0.8c0.9,0,1.3-0.3,1.3-0.8s-0.3-0.8-1.5-1.1c-2.1-0.7-2.9-1.8-2.8-3
		c0-1.9,1.6-3.3,4.1-3.3c1.2,0,2.2,0.3,2.8,0.6l-0.6,2.1c-0.4-0.2-1.3-0.6-2.2-0.6c-0.8,0-1.2,0.3-1.2,0.8s0.4,0.7,1.6,1.1
		c1.9,0.7,2.7,1.6,2.7,3.1c0,1.9-1.5,3.2-4.3,3.2c-1.3,0-2.5-0.3-3.2-0.7L446.5,166.8z"/>
</g>
<g class="st1">
	<path class="st0" d="M500.7,155.3h3.1v14.5h-3.1V155.3z"/>
	<path class="st0" d="M508.7,165.8c0.1,1.3,1.4,1.9,2.8,1.9c1.1,0,1.9-0.1,2.8-0.4l0.4,2.1c-1,0.4-2.3,0.6-3.6,0.6
		c-3.4,0-5.3-2-5.3-5.1c0-2.5,1.6-5.3,5-5.3c3.2,0,4.5,2.5,4.5,5c0,0.5-0.1,1-0.1,1.2H508.7z M512.4,163.7c0-0.8-0.3-2-1.8-2
		c-1.3,0-1.8,1.2-1.9,2H512.4z"/>
	<path class="st0" d="M517.1,167.1c0.6,0.3,1.8,0.8,2.7,0.8s1.3-0.3,1.3-0.8s-0.3-0.8-1.5-1.1c-2.1-0.7-2.9-1.8-2.8-3
		c0-1.9,1.6-3.3,4.1-3.3c1.2,0,2.2,0.3,2.8,0.6l-0.6,2.1c-0.5-0.2-1.3-0.6-2.2-0.6c-0.8,0-1.2,0.3-1.2,0.8s0.4,0.7,1.6,1.1
		c1.9,0.7,2.7,1.6,2.7,3.1c0,1.9-1.5,3.2-4.3,3.2c-1.3,0-2.5-0.3-3.2-0.7L517.1,167.1z"/>
	<path class="st0" d="M530.1,167.1c0.6,0.3,1.8,0.8,2.7,0.8s1.3-0.3,1.3-0.8s-0.3-0.8-1.5-1.1c-2.1-0.7-2.9-1.8-2.8-3
		c0-1.9,1.6-3.3,4.1-3.3c1.2,0,2.2,0.3,2.8,0.6l-0.6,2.1c-0.5-0.2-1.3-0.6-2.2-0.6c-0.8,0-1.2,0.3-1.2,0.8s0.4,0.7,1.6,1.1
		c1.9,0.7,2.7,1.6,2.7,3.1c0,1.9-1.5,3.2-4.3,3.2c-1.3,0-2.5-0.3-3.2-0.7L530.1,167.1z"/>
	<path class="st0" d="M541.3,159.8l1.5,4.9c0.2,0.6,0.4,1.3,0.5,1.9h0.1c0.1-0.5,0.3-1.3,0.4-1.9l1.2-4.9h3.3l-2.3,6.6
		c-1.4,4-2.4,5.6-3.5,6.6c-1.1,0.9-2.2,1.3-3,1.4l-0.7-2.6c0.4-0.1,0.9-0.2,1.3-0.5c0.5-0.2,1-0.7,1.3-1.2c0.1-0.1,0.2-0.3,0.2-0.4
		c0-0.1,0-0.3-0.1-0.5l-3.7-9.1h3.5V159.8z"/>
	<path class="st0" d="M549.7,163.1c0-1.5,0-2.4-0.1-3.3h2.7l0.1,1.8h0.1c0.5-1.4,1.7-2.1,2.7-2.1c0.3,0,0.4,0,0.7,0v2.9
		c-0.2,0-0.5-0.1-0.8-0.1c-1.1,0-1.9,0.6-2.1,1.6c0,0.2-0.1,0.4-0.1,0.7v5.1h-3.1v-6.6H549.7z"/>
	<path class="st0" d="M557.4,163.1c0-1.3,0-2.4-0.1-3.4h2.7l0.1,1.4l0,0c0.7-1.1,1.9-1.6,3.3-1.6c2.2,0,4.1,1.9,4.1,5.1
		c0,3.6-2.3,5.4-4.5,5.4c-1.2,0-2.1-0.5-2.6-1.1l0,0v5h-3.1L557.4,163.1L557.4,163.1z M560.5,165.5c0,0.2,0,0.5,0.1,0.7
		c0.2,0.8,0.9,1.5,1.8,1.5c1.3,0,2.1-1.1,2.1-2.8c0-1.6-0.7-2.8-2.1-2.8c-0.9,0-1.7,0.7-1.9,1.6c0,0.2-0.1,0.4-0.1,0.6v1.2H560.5z"
		/>
	<path class="st0" d="M569.7,155.3h3.1v5.7l0,0c0.3-0.4,0.7-0.8,1.2-1c0.4-0.2,1-0.4,1.6-0.4c2,0,3.5,1.4,3.5,4.4v5.8H576v-5.5
		c0-1.3-0.5-2.2-1.6-2.2c-0.8,0-1.3,0.5-1.6,1.1c-0.1,0.2-0.1,0.5-0.1,0.7v5.9h-3.1L569.7,155.3L569.7,155.3z"/>
	<path class="st0" d="M584,165.8c0.1,1.3,1.4,1.9,2.8,1.9c1.1,0,1.9-0.1,2.8-0.4l0.4,2.1c-1,0.4-2.3,0.6-3.6,0.6
		c-3.4,0-5.3-2-5.3-5.1c0-2.5,1.6-5.3,5-5.3c3.2,0,4.5,2.5,4.5,5c0,0.5-0.1,1-0.1,1.2H584z M587.7,163.7c0-0.8-0.3-2-1.8-2
		c-1.3,0-1.8,1.2-1.9,2H587.7z"/>
	<path class="st0" d="M592.4,167.1c0.6,0.3,1.8,0.8,2.7,0.8s1.3-0.3,1.3-0.8s-0.3-0.8-1.5-1.1c-2.1-0.7-2.9-1.8-2.8-3
		c0-1.9,1.6-3.3,4.1-3.3c1.2,0,2.2,0.3,2.8,0.6l-0.6,2.1c-0.5-0.2-1.3-0.6-2.2-0.6c-0.8,0-1.2,0.3-1.2,0.8s0.4,0.7,1.6,1.1
		c1.9,0.7,2.7,1.6,2.7,3.1c0,1.9-1.5,3.2-4.3,3.2c-1.3,0-2.5-0.3-3.2-0.7L592.4,167.1z"/>
</g>
<g class="st1">
	<path class="st0" d="M804,155.1h3.1v14.5H804V155.1z"/>
	<path class="st0" d="M812,165.6c0.1,1.3,1.4,1.9,2.8,1.9c1.1,0,1.9-0.1,2.8-0.4l0.4,2.1c-1,0.4-2.3,0.6-3.6,0.6
		c-3.4,0-5.3-2-5.3-5.1c0-2.5,1.6-5.3,5-5.3c3.2,0,4.5,2.5,4.5,5c0,0.5-0.1,1-0.1,1.2H812z M815.7,163.4c0-0.8-0.3-2-1.8-2
		c-1.3,0-1.8,1.2-1.9,2H815.7z"/>
	<path class="st0" d="M820.4,166.8c0.6,0.3,1.8,0.8,2.7,0.8s1.3-0.3,1.3-0.8s-0.3-0.8-1.5-1.1c-2.1-0.7-2.9-1.8-2.8-3
		c0-1.9,1.6-3.3,4.1-3.3c1.2,0,2.2,0.3,2.8,0.6l-0.6,2.1c-0.5-0.2-1.3-0.6-2.2-0.6c-0.8,0-1.2,0.3-1.2,0.8s0.4,0.7,1.6,1.1
		c1.9,0.7,2.7,1.6,2.7,3.1c0,1.9-1.5,3.2-4.3,3.2c-1.3,0-2.5-0.3-3.2-0.7L820.4,166.8z"/>
	<path class="st0" d="M842.9,159.6c0,0.6-0.1,1.5-0.1,3v5.6c0,1.9-0.4,3.5-1.5,4.5c-1.1,0.9-2.6,1.2-4.1,1.2c-1.3,0-2.7-0.3-3.6-0.8
		l0.6-2.3c0.6,0.4,1.7,0.8,2.9,0.8c1.5,0,2.6-0.8,2.6-2.6v-0.7l0,0c-0.6,0.8-1.6,1.3-2.7,1.3c-2.5,0-4.2-2-4.2-4.9
		c0-3.2,2.1-5.2,4.5-5.2c1.4,0,2.2,0.6,2.7,1.4l0,0l0.1-1.2h2.8V159.6z M839.8,163.6c0-0.2,0-0.4-0.1-0.6c-0.2-0.8-0.8-1.4-1.7-1.4
		c-1.1,0-2,1-2,2.8c0,1.5,0.7,2.7,2,2.7c0.8,0,1.4-0.5,1.6-1.3c0.1-0.2,0.1-0.6,0.1-0.8v-1.4H839.8z"/>
	<path class="st0" d="M854.8,166.4c0,1.3,0,2.4,0.1,3.2h-2.7l-0.1-1.4H852c-0.4,0.6-1.3,1.6-3.1,1.6c-2,0-3.5-1.3-3.5-4.3v-5.9h3.1
		v5.4c0,1.4,0.5,2.3,1.6,2.3c0.9,0,1.3-0.6,1.6-1.1c0.1-0.2,0.1-0.4,0.1-0.7v-5.9h3.1L854.8,166.4L854.8,166.4z"/>
	<path class="st0" d="M859.7,165.6c0.1,1.3,1.4,1.9,2.8,1.9c1.1,0,1.9-0.1,2.8-0.4l0.4,2.1c-1,0.4-2.3,0.6-3.6,0.6
		c-3.4,0-5.3-2-5.3-5.1c0-2.5,1.6-5.3,5-5.3c3.2,0,4.5,2.5,4.5,5c0,0.5-0.1,1-0.1,1.2H859.7z M862.7,155.2l2,3.1h-2l-1-1.8l0,0
		l-1,1.8h-2l2-3.1H862.7z M863.3,163.4c0-0.8-0.3-2-1.8-2c-1.3,0-1.8,1.2-1.9,2H863.3z"/>
	<path class="st0" d="M868.1,162.9c0-1.3,0-2.4-0.1-3.4h2.7l0.1,1.4l0,0c0.7-1.1,1.9-1.6,3.3-1.6c2.2,0,4.1,1.9,4.1,5.1
		c0,3.6-2.3,5.4-4.5,5.4c-1.2,0-2.1-0.5-2.6-1.1l0,0v5H868L868.1,162.9L868.1,162.9z M871.2,165.3c0,0.2,0,0.5,0.1,0.7
		c0.2,0.8,0.9,1.5,1.8,1.5c1.3,0,2.1-1.1,2.1-2.8c0-1.6-0.7-2.8-2.1-2.8c-0.9,0-1.7,0.7-1.9,1.6c0,0.2-0.1,0.4-0.1,0.6v1.2H871.2z"
		/>
	<path class="st0" d="M882.7,165.6c0.1,1.3,1.4,1.9,2.8,1.9c1.1,0,1.9-0.1,2.8-0.4l0.4,2.1c-1,0.4-2.3,0.6-3.6,0.6
		c-3.4,0-5.3-2-5.3-5.1c0-2.5,1.6-5.3,5-5.3c3.2,0,4.5,2.5,4.5,5c0,0.5-0.1,1-0.1,1.2H882.7z M886.4,163.4c0-0.8-0.3-2-1.8-2
		c-1.3,0-1.8,1.2-1.9,2H886.4z"/>
	<path class="st0" d="M891.1,166.8c0.6,0.3,1.8,0.8,2.7,0.8s1.3-0.3,1.3-0.8s-0.3-0.8-1.5-1.1c-2.1-0.7-2.9-1.8-2.8-3
		c0-1.9,1.6-3.3,4.1-3.3c1.2,0,2.2,0.3,2.8,0.6l-0.6,2.1c-0.4-0.2-1.3-0.6-2.2-0.6c-0.8,0-1.2,0.3-1.2,0.8s0.4,0.7,1.6,1.1
		c1.9,0.7,2.7,1.6,2.7,3.1c0,1.9-1.5,3.2-4.3,3.2c-1.3,0-2.5-0.3-3.2-0.7L891.1,166.8z"/>
</g>
<g class="st1">
	<path class="st0" d="M656.4,115.5h3.1V130h-3.1V115.5z"/>
	<path class="st0" d="M664.4,126c0.1,1.3,1.4,1.9,2.8,1.9c1.1,0,1.9-0.1,2.8-0.4l0.4,2.1c-1,0.4-2.3,0.6-3.6,0.6
		c-3.4,0-5.3-2-5.3-5.1c0-2.5,1.6-5.3,5-5.3c3.2,0,4.5,2.5,4.5,5c0,0.5-0.1,1-0.1,1.2C670.9,126,664.4,126,664.4,126z M668.1,123.8
		c0-0.8-0.3-2-1.8-2c-1.3,0-1.8,1.2-1.9,2H668.1z"/>
	<path class="st0" d="M672.8,127.2c0.6,0.3,1.8,0.8,2.7,0.8s1.3-0.3,1.3-0.8s-0.3-0.8-1.5-1.1c-2.1-0.7-2.9-1.8-2.8-3
		c0-1.9,1.6-3.3,4.1-3.3c1.2,0,2.2,0.3,2.8,0.6l-0.6,2.1c-0.4-0.2-1.3-0.6-2.2-0.6c-0.8,0-1.2,0.3-1.2,0.8s0.4,0.7,1.6,1.1
		c1.9,0.7,2.7,1.6,2.7,3.1c0,1.9-1.5,3.2-4.3,3.2c-1.3,0-2.5-0.3-3.2-0.7L672.8,127.2z"/>
	<path class="st0" d="M685.8,123.2c0-1.2,0-2.3-0.1-3.2h2.6l0.1,1.3h0.1c0.4-0.6,1.3-1.6,3-1.6c1.3,0,2.3,0.7,2.7,1.7l0,0
		c0.4-0.5,0.8-0.9,1.3-1.2c0.6-0.3,1.2-0.5,1.9-0.5c1.9,0,3.4,1.3,3.4,4.3v5.9h-3v-5.4c0-1.4-0.5-2.3-1.5-2.3
		c-0.7,0-1.2,0.5-1.4,1.1c-0.1,0.2-0.1,0.6-0.1,0.8v5.8h-3v-5.6c0-1.3-0.4-2.1-1.4-2.1c-0.8,0-1.3,0.6-1.4,1.1
		c-0.1,0.2-0.1,0.5-0.1,0.8v5.8h-3L685.8,123.2L685.8,123.2z"/>
	<path class="st0" d="M706.6,117.2c0,0.9-0.7,1.6-1.7,1.6s-1.6-0.7-1.6-1.6s0.6-1.6,1.6-1.6C705.9,115.6,706.6,116.3,706.6,117.2z
		 M703.4,130v-10h3.1v10H703.4z"/>
	<path class="st0" d="M712.4,117.1v2.9h2.2v2.3h-2.2v3.6c0,1.2,0.3,1.8,1.2,1.8c0.4,0,0.7,0,0.9-0.1v2.3c-0.4,0.2-1.1,0.3-2,0.3
		c-1,0-1.8-0.3-2.3-0.9c-0.6-0.6-0.9-1.6-0.9-3v-4.1H708V120h1.3v-2.2L712.4,117.1z"/>
	<path class="st0" d="M718.8,126c0.1,1.3,1.4,1.9,2.8,1.9c1.1,0,1.9-0.1,2.8-0.4l0.4,2.1c-1,0.4-2.3,0.6-3.6,0.6
		c-3.4,0-5.3-2-5.3-5.1c0-2.5,1.6-5.3,5-5.3c3.2,0,4.5,2.5,4.5,5c0,0.5-0.1,1-0.1,1.2C725.3,126,718.8,126,718.8,126z M722.4,123.8
		c0-0.8-0.3-2-1.8-2c-1.3,0-1.8,1.2-1.9,2H722.4z"/>
	<path class="st0" d="M727.1,127.2c0.6,0.3,1.8,0.8,2.7,0.8s1.3-0.3,1.3-0.8s-0.3-0.8-1.5-1.1c-2.1-0.7-2.9-1.8-2.8-3
		c0-1.9,1.6-3.3,4.1-3.3c1.2,0,2.2,0.3,2.8,0.6l-0.6,2.1c-0.4-0.2-1.3-0.6-2.2-0.6c-0.8,0-1.2,0.3-1.2,0.8s0.4,0.7,1.6,1.1
		c1.9,0.7,2.7,1.6,2.7,3.1c0,1.9-1.5,3.2-4.3,3.2c-1.3,0-2.5-0.3-3.2-0.7L727.1,127.2z"/>
</g>
<g>
	<path class="st0" d="M247.3,95.2c-1.1,0-2.1-0.3-3-0.8h-0.1c-2.3-1.7-3.8-4.4-4.4-7.5c-0.4-2.3-0.4-4.5-0.4-6.8c0-0.6,0-1.1,0-1.7
		c0.2-2.9,0.3-5.9,0.7-8.8c0.2-1.6,0.8-3.8,2.4-4.9c1.3-0.8,2.8-0.7,4.2-0.6c1,0.1,2,0.1,2.8-0.1c1.3-0.3,2.6-0.6,4.3-0.4
		c1.3,0.2,3,0.6,4.1,2c1.1,1.3,1.7,3.2,1.7,5.5c0.1,3.5-0.4,6.8-1,10.3l-0.3,1.9c-0.4,1.8-0.7,3.6-1.7,5.1c-0.6,1-1.4,1.8-2.2,2.6
		l-0.6,0.6c-1.1,1.1-2.4,2.3-4.2,3.1C249.1,95,248.2,95.2,247.3,95.2z M245.3,93c1.1,0.7,2.8,0.6,3.7,0.1c1.6-0.7,2.7-1.7,3.7-2.8
		l0.6-0.6c0.8-0.7,1.5-1.4,2-2.3c0.8-1.3,1.1-2.8,1.4-4.5L257,81c0.6-3.4,1.2-6.6,1-10c0-1.9-0.4-3.4-1.3-4.4
		c-0.6-0.8-1.7-1.3-3-1.4c-1.1-0.1-2.1,0-3.6,0.3c-1.1,0.3-2.2,0.3-3.4,0.2c-1.2-0.1-2.4-0.1-3.2,0.4c-1.2,0.7-1.5,2.6-1.7,3.6
		c-0.3,2.9-0.5,5.8-0.7,8.6c0,0.5,0,1.1,0,1.7c0,2.2-0.1,4.4,0.3,6.4C242,89.2,243.4,91.5,245.3,93z"/>
</g>
<g>
	<path class="st0" d="M246.4,65.2c-1.2-1.2-1.8-2.7-2.4-4.2c-0.3-0.6-0.5-1.2-0.8-1.9c-1.2-2.2-1.5-4.8-0.7-6.9
		c0.7-1.9,1.9-3.1,3.3-3.5c1.2-0.3,2.3,0,3.3,0.4c0.3,0.1,0.7,0.2,1,0.3c1.5,0.5,3,0.5,4.7,0.2c0.2,0,0.4-0.1,0.6-0.1
		c0.9-0.2,1.9-0.4,2.9,0c1.1,0.5,1.7,1.4,2,2.1l0.1,0.2c0.2,0.8,0.4,1.7,0.2,2.5c-0.2,3.9-2.2,7.9-5.4,10.7l-1.1-1.3
		c2.9-2.5,4.7-6.1,4.8-9.6v-0.2c0.1-0.5,0-1.1-0.1-1.7c-0.3-0.6-0.7-1-1.1-1.2c-0.5-0.2-1.1,0-1.9,0.1c-0.2,0-0.4,0.1-0.6,0.1
		c-1.9,0.4-3.8,0.3-5.5-0.2c-0.3-0.1-0.7-0.2-1.1-0.3c-0.9-0.3-1.6-0.5-2.4-0.3c-0.9,0.2-1.6,1-2.1,2.4c-0.6,1.7-0.3,3.8,0.6,5.6
		c0.3,0.7,0.6,1.3,0.9,2c0.6,1.4,1.1,2.7,2,3.6L246.4,65.2z"/>
</g>
<g>
	<path class="st0" d="M249.7,50.2l-1.7-0.3c0.1-0.8,0-1.8-0.3-2.8c-0.2-0.3-0.5-0.9-0.1-1.7c0.2-0.4,0.6-0.7,0.9-0.8l0.2-0.2
		c0.1-0.1,0.2-0.3,0.2-0.6c0-0.2,0.1-0.3,0.1-0.5c0.1-0.8,0.6-1.9,1.3-3.1c0.4-0.6,0.8-1,1.1-1.3l0.1-0.1c0.8-0.5,1.6-0.7,2.3-0.4
		c0.8,0.2,1.6,1,2.1,2.2c0.1,0.5,0.2,0.9,0.2,1.3c0,0.3,0.1,0.7,0.1,1v0.2c0.1,0.5,0.3,1.2,0.6,1.5c0.1,0.1,0.3,0.2,0.4,0.3
		c0.4,0.3,1,0.7,1.1,1.4c0.3,0.9-0.4,1.6-0.7,2c-0.2,0.2-0.4,0.4-0.6,0.5c-0.1,0.1-0.3,0.2-0.4,0.3s-0.2,0.2-0.2,0.3l-1.5,0.7
		c-0.3-0.7-0.1-1.6,0.5-2.2c0.2-0.2,0.4-0.4,0.6-0.5c0.1-0.1,0.3-0.2,0.4-0.3s0.3-0.3,0.3-0.4c-0.1-0.1-0.2-0.2-0.5-0.4
		c-0.2-0.2-0.5-0.3-0.7-0.5c-0.6-0.6-0.9-1.5-1-2.3v-0.2c-0.1-0.4-0.1-0.8-0.2-1.2c0-0.3-0.1-0.7-0.1-1c-0.2-0.6-0.6-1-0.9-1.1
		c-0.1,0-0.3-0.1-0.9,0.2c-0.2,0.2-0.5,0.5-0.8,1c-0.6,1-0.9,1.8-1.1,2.6c-0.1,0.2-0.1,0.4-0.1,0.5c-0.1,0.5-0.3,1.2-0.9,1.6
		c0,0-0.2,0.1-0.3,0.2c-0.1,0-0.2,0.1-0.3,0.2c0,0,0.1,0.1,0.2,0.2C249.7,47.8,249.9,49.1,249.7,50.2z"/>
</g>
<g>
	<path class="st0" d="M249.4,42.4c-4.2-5.2-8.8-9.9-13.7-14l1.1-1.3c5,4.2,9.7,9,13.9,14.3L249.4,42.4z"/>
</g>
<g>
	<path class="st0" d="M256.2,43.9l-1.1-1.3c1.7-1.5,3.1-3,4.6-4.7c0.9-1,1.8-2,2.8-3c2.9-2.9,6.2-4.9,9.4-5.7l0.4,1.7
		c-3,0.7-6,2.5-8.6,5.2c-1,1-1.9,1.9-2.8,2.9C259.5,40.7,258,42.4,256.2,43.9z"/>
</g>
<g>
	<path class="st0" d="M263,59.5h-0.5c-0.6,0-1.2,0-1.8-0.1c-0.6,0-1.2-0.1-1.7-0.1v-1.7c0.6,0,1.2,0,1.8,0.1c0.4,0,0.8,0.1,1.2,0.1
		c1.1-2.1,2.2-4.2,3.2-6.3c1.2-2.3,2.3-4.5,3.5-6.7l1.5,0.8c-1.2,2.2-2.3,4.5-3.5,6.7c-1.2,2.3-2.3,4.5-3.5,6.7L263,59.5z"/>
</g>
<g>
	<path class="st0" d="M243.4,57.6c-1.4,0-2.8,0-4.2-0.2l-0.7-0.1v-0.7c-0.2-5.9-0.5-12.8-2-19.2l1.7-0.4c1.5,6.3,1.9,13,2,18.8
		c1.1,0.1,2.1,0.1,3.3,0.1v1.7H243.4z"/>
</g>
<g>
	<path class="st0" d="M222.4,78.2l-0.9-1.5c7.2-4.3,13.2-8.7,18.3-13.4c0.2-0.2,0.6-0.6,1.1-0.6s1,0.3,1.3,0.6
		c0.2,0.2,0.5,0.4,0.7,0.6c0.3,0.2,0.7,0.5,1,0.8l-1.2,1.2c-0.2-0.2-0.5-0.4-0.7-0.6c-0.3-0.2-0.7-0.5-1-0.8
		C235.7,69.4,229.7,73.8,222.4,78.2z"/>
</g>
<g>
	<path class="st0" d="M219.9,100.5l-1.3-1.1c5.3-5.8,9.8-11.9,13.3-18.1c0.8-1.3,1.4-2.7,2-4.3l0.2-0.6l0.7,0.1
		c1.8,0.2,3.7,0.2,5.5,0.2v1.7c-1.6,0-3.3,0-5-0.1c-0.5,1.5-1.2,2.8-1.9,4C229.8,88.5,225.2,94.7,219.9,100.5z"/>
</g>
<g>
	<path class="st0" d="M270.2,105.4c-1.4-3.7-2.7-7.5-4.1-11.3s-2.7-7.6-4.1-11.3c-0.2-0.7-0.3-1-0.5-1.1c-0.5-0.4-1.1-0.4-1.8-0.4
		c-0.6,0-1.1,0-1.7-0.2l0.5-1.6c0.3,0.1,0.8,0.1,1.3,0.1c0.9,0,1.9,0,2.8,0.7c0.7,0.5,0.9,1.2,1.1,2c1.3,3.7,2.7,7.5,4.1,11.2
		c1.4,3.8,2.7,7.6,4.1,11.3L270.2,105.4z"/>
</g>
<g>
	<path class="st0" d="M273.7,83.1c-4.2-5.6-8.5-10.8-12.7-15.6c-0.2,0.1-0.4,0.1-0.6,0.2c-0.6,0.2-1.2,0.3-1.8,0.4l-0.3-1.7
		c0.6-0.1,1.1-0.2,1.7-0.4c0.4-0.1,0.8-0.2,1.2-0.3l0.5-0.1L262,66c4.4,4.9,8.8,10.3,13.2,16.1L273.7,83.1z"/>
</g>
<g>
	<path class="st0" d="M706.6,112.1c-1.3,0-2.6-0.4-3.7-1c-1.6-1-2.9-2.4-3.9-3.6l-5.1-5.7c-0.7-0.9-1.5-1.8-2-2.8
		c-0.2-0.3-0.3-0.7-0.4-1.2c-0.1,0.2-0.2,0.3-0.4,0.5c-1.7,2.3-4.3,3.5-6.6,4.5c-2.2,1-4.8,2-7.5,1.4c-1.8-0.4-3.1-1.4-4.3-2.4
		s-2.1-2-2.5-3.3c-0.4-1.6,0.2-3,0.8-4.2l0.1-0.3c2.8-5.5,6.7-10.9,11.7-16.6c1.7-1.9,3.6-3.8,5.4-5.6c0.6-0.6,1.2-1.2,1.8-1.8
		l3.6-3.6C694,66.1,694,66,694,66s0-0.2,0-0.3v-0.4c0-1,0.3-1.9,0.9-2.5c0.4-0.4,0.8-0.6,1.2-0.7l0.4-0.2c0.2,0,0.3-0.1,0.5-0.1
		c0.8-0.2,1.6-0.4,2.4,0c0.9,0.5,1.4,1.3,1.7,2.1c0.4,1,0.3,1.8,0.2,2.5c-0.1,0.4-0.1,0.7-0.1,1c0,0.7,0.5,1.5,0.8,2.2
		c0.2,0.3,0.3,0.6,0.4,0.8l0.7,1.6c0.8,1.9,1.7,3.9,2.4,6c2,4.9,3.8,10.1,5.4,15.2c1.3,4.2,2.7,9,1.4,13.6c-0.7,2.4-2.2,4.3-4.1,5
		C707.9,112,707.3,112.1,706.6,112.1z M693.2,93L693.2,93c-0.4,1-0.3,4.3,0.2,5.2c0.4,0.9,1.1,1.7,1.7,2.5l0.6,0.6l4.6,5.1
		c1.4,1.6,2.5,2.6,3.6,3.3c1.2,0.8,2.8,1,4,0.6c1.4-0.5,2.5-1.9,3-3.8c1.2-4.1-0.1-8.7-1.4-12.6c-1.7-5-3.4-10.2-5.4-15.1
		c-0.7-2-1.5-4-2.4-5.9l-0.7-1.6c-0.1-0.2-0.2-0.4-0.4-0.7c-0.5-0.9-1.1-1.9-1.1-2.9c-0.1-0.4,0-1,0.1-1.4c0.1-0.6,0.2-1,0-1.5
		c-0.3-0.6-0.5-1.1-1-1.3c-0.3-0.1-0.7,0-1.3,0.1c-0.2,0-0.3,0.1-0.5,0.1l-0.2,0.1c-0.2,0.1-0.5,0.2-0.7,0.4
		c-0.3,0.3-0.4,0.7-0.4,1.3v0.3c0,0.8-0.1,1.3-1,2l-3.5,3.5c-0.6,0.6-1.2,1.2-1.8,1.8c-1.8,1.8-3.7,3.6-5.3,5.5
		c-5,5.5-8.7,10.8-11.5,16.2l-0.1,0.3c-0.5,1-0.9,2.1-0.7,3.1c0.3,0.9,0.9,1.6,1.9,2.4c1.2,1,2.2,1.7,3.6,2c2.2,0.5,4.4-0.4,6.4-1.3
		c2.1-0.9,4.5-2,6-4c0.8-1,1.3-2.4,1.7-4.4c1.7-7.1,3.2-14.3,4.6-21.3l0.4-1.8l1.7,0.3l-0.4,1.8C696.4,78.8,694.9,86,693.2,93z"/>
</g>
<g>
	<path class="st0" d="M698.1,70.4c-0.8,0-1.9-0.3-2.8-1.5c-0.7-0.9-1-2.1-1-3.6h1.7c0,1.1,0.2,2,0.7,2.5c0.8,1,1.5,0.9,1.7,0.9
		c0.4-0.1,0.7-0.3,1-0.7c0.2-0.3,0.3-1,0.4-1.5l0.1-0.5l1.7,0.4l-0.1,0.4c-0.2,0.7-0.3,1.5-0.7,2c-0.5,0.7-1.1,1.2-2,1.4
		C698.5,70.4,698.3,70.4,698.1,70.4z"/>
</g>
<g>
	<path class="st0" d="M710.1,73.3c-0.4,0-0.8-0.2-1.1-0.3c-0.7-0.5-1.5-1-2.2-1.4c-0.6-0.4-0.9-0.6-1.3-0.6c-0.6,0-1.1,0.2-1.7,0.5
		c-0.6,0.2-1.2,0.5-1.9,0.6l-0.2-1.7c0.5-0.1,1-0.3,1.5-0.5c0.7-0.3,1.4-0.6,2.4-0.6c0.9,0,1.6,0.5,2.2,0.8c0.7,0.3,1.6,0.9,2.3,1.4
		h0.1l0.1-0.1l4.3-4.3l1.2,1.2l-4.3,4.3c-0.2,0.3-0.4,0.5-0.7,0.6C710.5,73.3,710.3,73.3,710.1,73.3z M710.1,71.6L710.1,71.6
		L710.1,71.6L710.1,71.6z"/>
</g>
<g>
	<path class="st0" d="M701.1,69.6l-0.5-1.6l0,0c1-0.3,1.9-0.6,2.9-0.9c-0.1-1.3-0.3-2.5-0.3-3.7h1.7c0,1.3,0.2,2.8,0.3,4.2l0.1,0.6
		l-0.6,0.3C703.5,68.9,702.3,69.3,701.1,69.6z"/>
</g>
<g>
	<path class="st0" d="M692.9,68.8l-3.2-1.3l0.1-0.7c0.2-1.2,0.3-2.4,0.7-3.7l1.6,0.5c-0.3,0.9-0.4,1.8-0.6,2.8l1.9,0.8L692.9,68.8z"
		/>
</g>
<g>
	<path class="st0" d="M688.5,71.6l-0.1-0.2c-0.1-0.3-0.2-0.8-0.5-0.9c-0.1,0-0.3,0-0.4,0h-6l-0.1-0.7c-0.4-2.2-0.9-4-1.8-5.5
		l1.5-0.8c0.9,1.6,1.4,3.2,1.8,5.3h4.6c0.2,0,0.7,0,1.2,0.3c0.8,0.5,1,1.3,1.2,1.9L688.5,71.6z"/>
</g>
<g>
	<path class="st0" d="M696.2,62.8c-3.5-5.5-7.8-10.7-13-15.9l1.2-1.2c5.3,5.3,9.6,10.6,13.2,16.1L696.2,62.8z"/>
</g>
<g>
	<path class="st0" d="M699.9,63.8l-0.7-1.6c6.8-3,13.5-6.3,19.9-9.7l0.8,1.5C713.4,57.5,706.7,60.7,699.9,63.8z"/>
</g>
<g>
	<path class="st0" d="M843.3,144.8c-1,0-1.8-0.3-2.5-1c-2.1-2.1-3.5-5.1-4.4-7.2c-0.5-1.6-1.1-3.2-1.4-4.9l0,0
		c-0.9-4.7-0.7-9.4,0.7-13.7l0.1-0.3c0.3-0.9,0.7-1.9,1.5-2.5c0.9-0.7,2.1-0.9,3.7-0.7c0.5,0.1,1.1,0.2,1.6,0.4
		c0.5,0.1,1,0.2,1.5,0.3c0.9,0.1,2,0,3-0.2c0.3,0,0.7-0.1,1-0.1c2.1-0.3,3.7,0,4.9,0.8c1.3,0.9,2,2.3,2.2,4.3
		c0.2,1.5-0.2,3.1-0.5,4.6c-0.3,1.3-0.7,2.7-1,4.1c-0.3,1.4-0.7,2.9-1,4.3c-0.9,3.5-1.8,7-4.3,9.6c-0.7,0.7-1.9,1.6-3.4,2
		C844.4,144.7,843.9,144.8,843.3,144.8z M836.7,131.3c0.3,1.7,0.8,3.2,1.3,4.7c0.8,1.9,2.2,4.8,4,6.6c0.6,0.6,1.7,0.5,2.4,0.3
		c1.2-0.4,2.2-1.1,2.7-1.6c2.2-2.2,3-5.4,3.9-8.8c0.3-1.4,0.7-2.8,1-4.3c0.3-1.4,0.7-2.8,1-4.1c0.3-1.3,0.6-2.7,0.5-3.9
		c-0.2-1.5-0.7-2.5-1.5-3.2c-0.8-0.6-2-0.7-3.7-0.5c-0.3,0-0.6,0.1-0.9,0.1c-1.2,0.2-2.4,0.3-3.5,0.2c-0.6-0.1-1.1-0.2-1.6-0.4
		c-0.5-0.1-1-0.2-1.5-0.3c-1.1-0.2-1.9-0.1-2.4,0.3c-0.4,0.3-0.7,1.1-1,1.7l-0.1,0.3C836.1,122.4,835.9,126.9,836.7,131.3z"/>
</g>
<g>
	<path class="st0" d="M841.3,115.4c-0.1-1.2-0.8-2.3-1.5-3.5c-0.3-0.5-0.6-1-0.8-1.5c-1.3-2.7-1.8-5.6-1.3-8.4
		c0.4-2.4,1.7-4.4,3.5-5.5c1.1-0.6,2.5-0.8,3.7-0.9h0.2c1.9-0.2,4.2-0.2,6,1c1.9,1.2,3,3.7,2.8,6.6c-0.2,2.4-1.2,4.5-2.3,6.5
		c-0.9,1.7-1.8,3.8-1.9,5.8l-1.7-0.1c0.2-2.3,1.2-4.5,2.1-6.4c1-1.8,2-3.8,2.1-5.8c0.1-1.7-0.3-3.9-2-5c-1.4-0.9-3.2-0.9-4.9-0.7
		h-0.2c-1.1,0.2-2.3,0.3-3.1,0.7c-1.3,0.8-2.3,2.4-2.6,4.3c-0.5,2.4-0.1,4.9,1.1,7.3c0.2,0.5,0.5,0.9,0.8,1.4
		c0.8,1.3,1.5,2.6,1.7,4.2H841.3z"/>
</g>
<g>
	<path class="st0" d="M851.1,97.7l-1.5-0.8c0.5-0.8,1.3-1.2,2-1.5c0.6-0.2,0.9-0.4,1-0.7c0.2-0.4,0-0.9-0.4-1.5
		c-0.1-0.1-0.4-0.3-0.6-0.5c-0.4-0.4-0.9-0.8-1.3-1.3c-0.2-0.2-0.3-0.4-0.3-0.6c-0.3-0.6-0.6-1.1-1.1-1.4c-0.5-0.4-1.4-0.2-1.9-0.1
		c-1.3,0.3-2.6,0.8-3.9,1.3l-0.5,0.2c-0.5,0.3-1.1,0.5-1.5,0.9c-0.6,0.4-0.9,0.9-0.9,1.4c0,0.6,0.4,1.4,0.9,1.7
		c0.6,0.4,1.4,0.8,2.2,1.1l-0.6,1.6l0.3-0.8l-0.3,0.8c-0.9-0.4-1.8-0.7-2.6-1.3c-0.9-0.7-1.5-1.9-1.5-3.1c0-1,0.5-2,1.5-2.7
		c0.6-0.4,1.3-0.8,1.8-1l0.5-0.2c1.5-0.6,2.9-1.1,4.3-1.4c0.9-0.2,2.2-0.5,3.3,0.3c0.8,0.5,1.2,1.2,1.7,2l0.3,0.5
		c0.2,0.3,0.6,0.6,1,1c0.2,0.2,0.5,0.4,0.7,0.7c0.9,1.2,1.1,2.3,0.7,3.3c-0.4,0.9-1.3,1.3-2,1.6C851.7,97.2,851.3,97.3,851.1,97.7z"
		/>
</g>
<g>
	<path class="st0" d="M843.3,90c-2.3-2.3-4.8-4.8-7.3-7.1c-0.7-0.7-1.5-1.5-2.2-1.9s-1.6-0.9-2.6-0.9v-1.7c1.4,0,2.6,0.6,3.5,1.1
		c0.9,0.6,1.8,1.5,2.5,2.2c2.5,2.4,5,4.8,7.3,7.1L843.3,90z"/>
</g>
<g>
	<path class="st0" d="M850.6,90.2l-0.8-1.5c2-1.1,3.7-2.7,4.7-3.9c1.2-1.4,2.9-3.2,4.7-4.7c2.1-1.7,4.3-2.6,6.5-2.6v1.7
		c-1.8,0-3.6,0.7-5.4,2.2c-1.7,1.4-3.3,3.2-4.5,4.5S852.8,89,850.6,90.2z"/>
</g>
<g>
	<path class="st0" d="M838.5,102c-1.8-0.2-3.7-0.4-5.2-2c-0.3-0.4-0.5-0.8-0.8-1.1c-0.2-0.3-0.4-0.6-0.6-1c-1.4-2.1-3.8-3.1-6.2-4
		l-0.3-0.1l0.6-1.6l0.3,0.1c2.5,1,5.3,2.1,6.9,4.6c0.2,0.3,0.5,0.7,0.7,1s0.4,0.6,0.6,1c0.9,1.1,2.4,1.2,4,1.4V102z"/>
</g>
<g>
	<path class="st0" d="M853.4,102l-0.2-1.7c0.6-0.1,1.1-0.2,1.6-0.3c0.4-0.1,0.8-0.2,1.1-0.2c0.3-2.1,0.7-4.2,1.9-6
		c1.3-2.2,3.3-4,4.9-5.5l1.1,1.3c-1.5,1.4-3.5,3.1-4.6,5.1c-1.1,1.8-1.4,3.8-1.8,6l-0.1,0.6l-0.6,0.1c-0.6,0.1-1.1,0.2-1.6,0.3
		C854.6,101.8,854,101.9,853.4,102z"/>
</g>
<g>
	<path class="st0" d="M828,110.2c-0.7,0-1.5,0-2.2,0c-3-0.2-6.1-0.5-8.4-2.8l1.2-1.2c1.8,1.8,4.5,2.1,7.3,2.3
		c4.6,0.2,8.9-0.2,13-1.2l0.4,1.7C835.7,109.8,831.9,110.2,828,110.2z"/>
</g>
<g>
	<path class="st0" d="M874.2,114.3c-2.9-0.6-6-1-9.7-1.2c-1.1,0-2.1,0-3.1-0.6c-0.6-0.3-1.1-0.8-1.5-1.2c-0.4-0.4-0.8-0.8-1.1-0.9
		s-0.8-0.2-1.2-0.2c-2.1-0.2-4.1-0.3-6.1-0.3V108c2.1,0,4.2,0.2,6.2,0.3l0,0c0.6,0,1.2,0.2,1.7,0.4c0.7,0.4,1.2,0.8,1.7,1.3
		c0.4,0.4,0.8,0.8,1.1,0.9c0.7,0.4,1.4,0.4,2.3,0.4c3.9,0.2,7,0.6,10.1,1.2L874.2,114.3z"/>
</g>
<g>
	<path class="st0" d="M825,146.3h-0.2c-1-0.2-1.7-1-2-2c-0.6-1.6-0.8-3.5-0.4-5.8c0.4-2,1.1-3.7,1.7-5.4c1.8-4.7,3.8-9.7,6-15
		c0.5-1.3,1.1-2.6,1.6-3.8c1.8-4.3,3.6-8.7,5.7-12.9l1.5,0.8c-2.1,4.2-3.9,8.6-5.7,12.8c-0.5,1.3-1.1,2.6-1.6,3.8
		c-2.2,5.3-4.2,10.3-5.9,15c-0.7,1.7-1.3,3.3-1.7,5.1c-0.4,2-0.3,3.6,0.3,5c0.1,0.4,0.3,0.7,0.7,0.8c0.2-0.1,0.5-0.3,0.9-0.8
		c3.2-4.8,5-10.5,6.7-16.1c1.7-5.7,3.5-11.6,6.9-16.6l1.4,1c-3.3,4.8-5,10.5-6.7,16.1c-1.7,5.7-3.5,11.5-6.9,16.6
		C826.8,145.5,826.1,146.3,825,146.3z"/>
</g>
<g>
	<path class="st0" d="M862.4,148.3c-0.1,0-0.2,0-0.3,0c-0.7,0-1.5-0.5-1.9-2.2c-2.2-8.7-4.4-17.7-6.8-26.7c-0.7-2.8-1.6-5.8-3.7-7.2
		l0.9-1.4c2.6,1.7,3.7,5.1,4.5,8.2c2.4,9,4.6,18,6.8,26.7c0.2,0.7,0.4,0.9,0.4,0.9c0.1-0.1,0.2-0.3,0.3-0.9c0.1-0.4,0.1-0.8,0.2-1.3
		c0.3-1.8,0.6-3.4,0.5-5.1c-0.2-2.3-1-4.3-1.8-6.6c-3.6-10-6.8-21-9.7-32.6l1.7-0.4c2.9,11.6,6.1,22.5,9.7,32.4
		c0.9,2.2,1.7,4.5,1.9,7c0.1,1.9-0.2,3.7-0.5,5.5c-0.1,0.4-0.1,0.9-0.2,1.3C863.8,147.9,863.1,148.3,862.4,148.3z"/>
</g>
<g>
	<path class="st0" d="M401.7,143.6c-2.5,0-4.8-1.4-6.3-2.6c-6.6-5.2-10.9-13.3-11.4-21.7c-0.3-6,1.3-12.2,4.7-17.5
		c0.9-1.2,1.8-2.5,2.8-3.7c0.5-0.6,0.7-0.9,0.7-1.2c0-0.1-0.1-0.1-0.1-0.2l0.1-0.1c0-0.2-0.1-0.4-0.3-0.7l-0.2-0.6
		c-1.3-3.3-1.9-6.4-1.8-9.4c0.4-5,2.5-9.4,5.8-12c2.9-2.4,6.9-3.8,12.4-4.3c5.4-0.4,10,0.4,13.6,2.5c5.5,3.2,9,9.5,8.8,16.1
		c-0.2,6.1-3.5,11.9-8.7,15.5c2.7,3.2,3.7,7.9,2.5,12.8c-1.1,4.8-3.7,8.7-6.1,11.9c-2.9,4.1-6.2,7.9-9.8,11.3c-2,2.3-4,3.5-6.3,3.8
		C402,143.6,401.9,143.6,401.7,143.6z M393.4,98.5c-0.1,0.2-0.3,0.4-0.5,0.6c-1,1.2-1.9,2.4-2.7,3.5c-3.2,5-4.8,10.9-4.4,16.5
		c0.5,7.9,4.5,15.6,10.7,20.5c1.4,1.1,3.4,2.4,5.5,2.2c1.7-0.3,3.4-1.3,5.2-3.3c3.6-3.4,6.8-7.1,9.6-11.2c2.3-3.1,4.8-6.8,5.8-11.3
		c1-4.4,0.1-8.7-2.3-11.5c-5.6,3.2-14.2,4.5-20.1,0.6C397.9,103.9,395.4,101.4,393.4,98.5z M394,96.3c2.1,3.2,4.7,6,7.2,7.5
		c5.5,3.5,14.1,2.2,19.2-1.2c5.1-3.2,8.3-8.8,8.5-14.5c0.2-5.9-3-11.7-7.9-14.6c-3.3-1.9-7.6-2.6-12.6-2.3
		c-5.1,0.4-8.8,1.7-11.4,3.9c-2.9,2.3-4.8,6.3-5.1,10.8c-0.1,2.7,0.4,5.6,1.6,8.6l0.2,0.6C393.8,95.7,393.9,96,394,96.3z"/>
</g>
<g>
	<path class="st0" d="M405.3,67c-1,0-2-0.4-2.7-1.2c-0.9-1-1.2-2.4-0.8-3.7l0,0c0.4-1.2,1.6-2.3,2.9-2.8c1.2-0.4,2.6-0.4,3.8,0
		c1.1,0.4,2.4,1.1,2.6,2.3c0.2,0.6,0,1.6-0.5,2.3c-0.3,0.4-0.7,0.8-1,1c-0.1,0.1-0.2,0.2-0.3,0.3l-0.2,0.1c-0.2,0.1-0.4,0.2-0.5,0.3
		c-0.7,0.5-1.5,1-2.5,1.1C405.9,67,405.6,67,405.3,67z M403.4,62.6c-0.2,0.8-0.1,1.5,0.4,2.1c0.5,0.5,1.2,0.8,2,0.6
		c0.7-0.1,1.3-0.5,1.9-0.9c0.2-0.1,0.3-0.2,0.5-0.3c0.1-0.1,0.2-0.2,0.3-0.3c0.3-0.2,0.5-0.4,0.7-0.7c0.2-0.4,0.3-0.8,0.2-1
		c-0.1-0.3-0.4-0.7-1.6-1.2c-0.8-0.3-1.8-0.3-2.6,0C404.4,61.2,403.6,61.9,403.4,62.6z"/>
</g>
<g>
	<path class="st0" d="M422.9,70.2c-1.2,0-2.4-0.5-3.5-2.3l0,0c-0.8-1.3-1-2.5-0.6-3.6c0.5-1.4,1.6-2.3,3-2.3c1.6,0,2.7,1.2,3.1,1.7
		c0.3,0.3,0.6,0.8,0.9,1.3c0.2,0.4,0.5,0.8,0.7,1c0.7,0.7,1,1.5,0.7,2.2s-0.9,1-1.3,1.2C425,69.8,423.9,70.2,422.9,70.2z M420.9,67
		c1.1,1.9,2.1,1.7,4.4,0.8c0.1-0.1,0.3-0.2,0.4-0.3c0,0-0.1-0.1-0.3-0.4c-0.4-0.4-0.7-0.9-1-1.4c-0.2-0.4-0.5-0.8-0.7-1
		c-0.3-0.3-0.9-1.1-1.8-1.1c-0.6,0-1.2,0.4-1.4,1.1C420.2,65.5,420.4,66.2,420.9,67L420.9,67z"/>
</g>
<g>
	<path class="st0" d="M403.5,71.1c-0.7-1.4-1-3.1-0.8-5.1l1.7,0.2c-0.2,1.7,0,3,0.6,4.1L403.5,71.1z"/>
</g>
<g>
	<path class="st0" d="M421.9,63.1c-0.7-2.8-3.2-5.1-6.2-5.7c-2.9-0.6-5.9,0.5-7.8,2.9l-1.3-1.1c2.3-2.9,6-4.3,9.5-3.5
		c3.6,0.8,6.6,3.5,7.5,6.9L421.9,63.1z"/>
</g>
<g>
	<path class="st0" d="M424.2,75.1l-1.6-0.6c0.7-1.7,0.9-3.4,0.8-4.9l1.7-0.2C425.2,71.2,424.9,73.2,424.2,75.1z"/>
</g>
<g>
	<path class="st0" d="M410.4,57c-1.9-3-4.4-6.8-7.8-9.7c-3.5-2.9-7.4-4.6-11.1-4.7l0.1-1.7c4.1,0.2,8.4,2,12.1,5.1
		c3.6,3,6.3,7,8.2,10.1L410.4,57z"/>
</g>
<g>
	<path class="st0" d="M419,58.3l-0.8-1.5c1.2-0.6,2.3-1.3,3.5-2c2.3-1.4,4.8-2.8,7.3-3.7c4.5-1.8,9-1.8,12.3,0.2l-0.9,1.5
		c-2.8-1.7-6.9-1.7-10.8-0.1c-2.5,0.9-4.8,2.3-7.1,3.6C421.4,57,420.2,57.7,419,58.3z"/>
</g>
<g>
	<path class="st0" d="M427.6,79.6l-1.3-1.1c5.5-6.6,12.1-13.3,20.2-20.4l1.1,1.3C439.6,66.4,433.1,73,427.6,79.6z"/>
</g>
<g>
	
		<rect x="391.1" y="49.2" transform="matrix(0.8862 -0.4632 0.4632 0.8862 15.9159 188.6069)" class="st0" width="1.7" height="25.4"/>
</g>
<g>
	<path class="st0" d="M362.5,137l-1.5-0.8c2-3.8,4-7.6,6-11.4c2-3.8,4-7.6,6-11.4c0.9-1.9,2-3.9,3.5-5.9c4.1-5.5,10.3-9.3,15.8-12.3
		l0.8,1.5c-5.3,3-11.3,6.6-15.2,11.9c-1.4,1.9-2.4,3.9-3.3,5.7c-2.1,3.8-4.1,7.6-6.1,11.4C366.5,129.4,364.5,133.1,362.5,137z"/>
</g>
<g>
	<path class="st0" d="M433.2,146c-0.3-7.2-0.2-14.5,0.5-21.7c0.2-1.9,0.3-4-0.3-5.9c-0.4-1-1-2.1-2.1-3.3c-1.6-2-3.2-4-4.7-6
		c-1.6-2-3.2-4-4.8-6.1l1.3-1.1c1.6,2.1,3.2,4.1,4.8,6.1c1.6,2,3.1,4,4.7,6c0.7,0.8,1.7,2.2,2.3,3.8c0.8,2.3,0.6,4.7,0.4,6.7
		c-0.7,7.1-0.8,14.4-0.5,21.5H433.2z"/>
</g>
<g>
	<path class="st0" d="M449.5,128.3c-3-5.7-6.1-11.3-9.8-16.6c-4.1-5.6-8.7-10-13.5-13l0.9-1.4c5.1,3.2,9.8,7.7,14,13.5
		c3.8,5.4,6.9,11,9.9,16.8L449.5,128.3z"/>
</g>
<g>
	<path class="st0" d="M362.4,112.7l-1-1.4c2.9-2.2,5.2-5.3,7.4-8.2c2.8-3.7,5.7-7.6,9.9-9.9c3.2-1.8,7.2-2.8,12.5-3l0.1,1.7
		c-5,0.2-8.7,1.1-11.7,2.8c-3.9,2.2-6.6,5.7-9.4,9.5C367.8,107.2,365.5,110.4,362.4,112.7z"/>
</g>
<g>
	<path class="st0" d="M382.4,88.1c-0.9,0-1.8-0.1-2.6-0.2c-0.8-0.1-1.7-0.3-2.6-0.6c-0.5-0.1-1.1-0.3-1.7-0.4
		c-1.6-0.3-3.4-0.4-5.1-0.4c-0.9,0-1.8,0-2.6-0.1c-2.4-0.2-5.5-0.6-7.7-2.8c-2.1-1.8-2.8-4.4-3.6-7c-0.4-1.4-0.9-2.9-1.5-4.2
		c-1-1.9-2.6-3.4-4.2-5c-0.6-0.5-1.2-1.1-1.7-1.6c-2-1.9-3.9-4.2-5.9-7.1l-0.2-0.3c-0.7-1.2-1.5-2.6-1.5-4.3
		c-0.2-2.2,1.6-4.4,3.5-5.4c1.8-0.9,4-1.2,6.3-0.8c6.5,0.8,12,5.3,16.9,9.3l1.2,1c8.5,6.7,17.2,12.4,25.9,16.9l-0.8,1.5
		c-8.8-4.6-17.6-10.3-26.2-17.1l-1.2-1c-4.9-4-10-8.1-16.1-8.9c-2-0.3-3.8-0.1-5.3,0.6c-1.4,0.7-2.7,2.2-2.6,3.8
		c0,1.3,0.7,2.4,1.3,3.5l0.1,0.3c1.8,2.8,3.7,5,5.6,6.8c0.6,0.6,1.1,1.1,1.7,1.6c1.7,1.6,3.5,3.3,4.6,5.4c0.7,1.4,1.2,2.9,1.6,4.4
		c0.7,2.4,1.4,4.7,3.1,6.2c1.8,1.8,4.5,2.2,6.6,2.3c0.8,0.1,1.7,0.1,2.6,0.1c1.8,0,3.6,0.1,5.4,0.4c0.6,0.1,1.2,0.3,1.8,0.5
		c0.8,0.2,1.6,0.5,2.4,0.6c3.4,0.6,7.3-0.2,10.1-2.1l0.9,1.4C388.6,87.2,385.5,88.1,382.4,88.1z"/>
</g>
<g>
	<path class="st0" d="M453.7,102.4c-2,0-4-0.5-5.7-1.1c-6.7-2.1-13-5.2-19-8.2l0.7-1.5c6,3,12.2,6.1,18.8,8.1c1.6,0.5,3.4,1,5.2,1
		c2.1,0,3.6-0.4,4.8-1.4c1.3-0.9,2.1-2.2,2.9-3.5c0.5-0.8,1.1-1.7,1.7-2.5c1.8-2.1,4.6-3.6,8-4.2c2.4-0.5,5.1-0.6,8.7-0.4
		c1.8,0,4.1,0,5-1.3c0.7-1,0.7-2.3,0.7-3.6c0-1.7-0.1-3.6-1.2-4.9c-0.9-1.2-2.8-1.5-4.7-1.7c-8.7-0.7-17.4,1.3-25.8,3.2
		c-8.1,1.8-16.5,3.7-25,3.3l0.1-1.7c8.3,0.4,16.6-1.5,24.6-3.3c8.6-1.9,17.4-3.9,26.4-3.2c2.3,0.2,4.5,0.6,5.9,2.4
		c1.4,1.7,1.5,4,1.5,6c0,1.4,0,3.2-1,4.6c-1.4,2.1-4.4,2.1-6.5,2.1c-3.5-0.2-6.1-0.1-8.4,0.3c-3,0.6-5.5,1.9-7,3.6
		c-0.6,0.7-1.1,1.5-1.6,2.3c-0.9,1.4-1.8,2.9-3.4,4C458,101.8,456.1,102.4,453.7,102.4z"/>
</g>
<g>
	<path class="st0" d="M554.9,140.2c-1.5,0-3.2-0.4-4.8-1.2c-2-1.2-3.8-2.9-5.4-5c-3.8-5.4-6-12.6-6-20.3c0-7,1.2-14.1,2.6-20.8
		l1.7,0.3c-1.3,6.6-2.5,13.6-2.5,20.4c0,7.3,2,14.1,5.6,19.3c1.4,2,3.1,3.5,4.8,4.5c2.1,1.1,4.3,1.3,6.1,0.6
		c2.8-1.1,4.3-4.3,4.7-6.8c0.4-2.2,0.2-4.7,0-7.1c-0.1-0.8-0.1-1.6-0.2-2.4c-0.1-2-0.1-4-0.2-6c0-4-0.1-7.8-0.9-11.6
		c-1-4.1-2.9-8.2-4.7-12.2l1.5-0.7c1.9,4.1,3.8,8.3,4.8,12.6c0.8,4,0.9,8,0.9,12c0,1.9,0,3.9,0.1,5.9c0,0.8,0.1,1.6,0.2,2.4
		c0.2,2.5,0.4,5.1,0,7.5c-0.7,3.9-2.8,7-5.8,8.1C556.8,140.1,555.9,140.2,554.9,140.2z"/>
</g>
<g>
	<path class="st0" d="M535.9,70.5c-3,0-5.7-1.9-6.4-4.5c-0.7-2.7,0.4-5.8,2.8-7.9l0,0c1.4-1.1,5-3.1,7.3-2.7
		c2.3,0.4,4.4,3.6,4.8,5.6c0.5,1.9,0,4-1.5,6C541.1,69.2,538.4,70.5,535.9,70.5z M533.4,59.4c-1.9,1.6-2.8,4-2.3,6.1
		c0.6,1.9,2.5,3.3,4.8,3.3c2,0,4.2-1.1,5.6-2.9c0.7-0.9,1.7-2.6,1.2-4.5c-0.3-1.5-2-4.1-3.4-4.3C537.8,56.8,534.8,58.3,533.4,59.4z"
		/>
</g>
<g>
	<path class="st0" d="M550.5,67.1c-2.6,0-5.3-0.8-7.4-2.3l1-1.4c2.9,2.1,7,2.6,10.2,1.3c0.7-0.3,1.4-0.8,1.6-1.4
		c0.1-0.3,0-0.6-0.2-1.1l-0.1-0.2c-0.3-1.4-0.8-2.6-1.4-3.7c-0.9-1.2-1.8-2-2.8-2.3c-1.3-0.4-3-0.2-4.4,0.6c-1.5,0.8-2.7,2-3.7,3.2
		l-1.3-1.1c1.1-1.3,2.4-2.6,4.1-3.6c1.8-1,3.9-1.3,5.8-0.8c1.4,0.5,2.6,1.5,3.7,3c0.7,1.3,1.3,2.7,1.7,4.2v0.2
		c0.2,0.6,0.3,1.3,0.1,2.1c-0.4,1.1-1.4,2-2.6,2.5S552,67.1,550.5,67.1z"/>
</g>
<g>
	<path class="st0" d="M542.1,93.9c-1,0-1.9-0.2-2.9-0.7c-2.6-1.2-3.7-4.3-3.9-6.8c-0.4-3.1,0-6.3,0.4-9.3c0.3-2.3,0.6-4.7,0.5-7.1
		l1.7-0.1c0.1,2.5-0.2,4.9-0.5,7.3c-0.4,2.9-0.7,6-0.4,8.9c0.1,2.1,1,4.6,2.9,5.5c1.5,0.8,3.3,0.4,5.2,0.1c1.3-0.3,2.6-0.5,4-0.5
		c0.8,0,1.8,0.2,2.7,0.4c1.3,0.3,2.5,0.5,3.6,0.2c2.1-0.7,3-3.4,3.1-5.4c0.3-3.2-0.2-6.5-1.5-10.2c-1-2.8-2.4-5.4-3.9-7.9l-0.8-1.5
		L554,66l0.8,1.5c1.5,2.6,3,5.2,4,8.2c1.4,4,1.9,7.5,1.6,10.9c-0.2,2.6-1.4,5.8-4.3,6.8c-1.6,0.5-3.1,0.2-4.5-0.1
		c-0.8-0.2-1.6-0.3-2.4-0.3c-1.2-0.1-2.4,0.2-3.6,0.4C544.4,93.7,543.3,93.9,542.1,93.9z"/>
</g>
<g>
	<path class="st0" d="M539.1,56.1l-1.6-0.5c0.8-2.7,3.3-4.8,6.2-5.2c2.8-0.4,5.8,1.3,7,3.9l-1.5,0.7c-0.9-1.9-3.2-3.2-5.2-2.9
		C541.6,52.4,539.7,54.1,539.1,56.1z"/>
</g>
<g>
	<path class="st0" d="M541,52.1L541,52.1c-1.2-0.8-2.4-1.7-3.5-2.3l0.8-1.5c1.2,0.7,2.4,1.6,3.6,2.4L541,52.1z"/>
</g>
<g>
	<path class="st0" d="M545.8,51.4l-1.7-0.2c0.2-1.9,0.9-3.8,2-5.5l1.4,0.9C546.5,48.1,545.9,49.7,545.8,51.4z"/>
</g>
<g>
	<path class="st0" d="M498.5,147.3c-1.3,0-2.7-0.5-3.4-1.8c-0.5-1.3-0.4-2.6-0.3-3.3c1-7.5,5.7-13.7,10.2-19.7l0.7-0.9
		c10.6-14,20.8-29.4,30.2-45.7l1.5,0.9c-9.5,16.4-19.7,31.8-30.4,45.9l-0.7,0.9c-4.4,5.9-9,11.9-9.9,19c-0.2,0.9-0.1,1.7,0.1,2.3
		c0.6,1,2.1,1.1,3.3,0.6c2.4-0.8,4.2-2.8,6-5c0.7-0.8,1.5-1.7,2.3-2.5c2.4-2.2,5.2-3.7,7.9-5.1c3.3-1.7,6.3-3.3,8.5-5.9
		c3-3.6,3.8-8.7,4.5-13.6l0.3-1.8c1.2-7.9,3.2-15.8,6-23.5l1.6,0.6c-2.8,7.6-4.8,15.4-5.9,23.2l-0.3,1.8c-0.7,5.2-1.5,10.5-4.9,14.5
		c-2.4,2.9-5.8,4.7-9.1,6.3c-2.6,1.4-5.4,2.8-7.5,4.8c-0.7,0.7-1.4,1.6-2.1,2.4c-1.9,2.2-3.9,4.5-6.7,5.5
		C500,147.2,499.3,147.3,498.5,147.3z"/>
</g>
<g>
	<path class="st0" d="M608.5,133c-2.3,0-4.4-1.2-6.4-2.2l-0.3-0.2c-3-1.6-6.4-2.6-9.6-3.7c-0.9-0.3-1.8-0.6-2.7-0.9
		c-4-1.4-8.4-3.3-11.8-6.9c-2.9-3.2-4.5-7.2-6-11.1c-0.4-1.1-0.8-2.1-1.3-3.1c-2.8-6.6-6.4-12.7-10.8-18l1.3-1.1
		c4.5,5.5,8.2,11.7,11,18.4c0.4,1,0.9,2.1,1.3,3.2c1.5,3.7,3,7.6,5.7,10.6c3.1,3.2,7.3,5.1,11.1,6.4c0.9,0.3,1.8,0.6,2.7,0.9
		c3.3,1.1,6.7,2.1,9.9,3.8l0.3,0.2c2,1.1,4.2,2.2,6.2,2c2-0.4,3.7-2.5,3.9-4.8c0.1-2.1-0.8-4.4-2.5-6.5c-1.7-1.8-3.6-3.1-5.6-4.5
		l-0.4-0.3c-17.6-12.2-34.4-27-49.7-43.9l1.3-1.1c15.2,16.8,31.9,31.5,49.4,43.6l0.4,0.3c2.1,1.4,4,2.8,5.9,4.8
		c2.1,2.5,3.1,5.2,2.9,7.8c-0.2,3.1-2.5,5.8-5.3,6.4C609.1,133,608.8,133,608.5,133z"/>
</g>
<g>
	<path class="st0" d="M569.3,102.3c-3.4-1.1-6.5-1.6-9.2-1.5l-0.1-1.7c3-0.2,6.2,0.4,9.8,1.6L569.3,102.3z"/>
</g>
<g>
	<path class="st0" d="M585.9,141.6c-1.3-2.5-3-4.7-4.6-7c-1.1-1.6-2.3-3.2-3.4-4.9c-3.1-5-4.1-10.1-2.6-14.3l1.6,0.5
		c-1.3,3.8-0.4,8.3,2.5,12.9c1,1.6,2.2,3.2,3.3,4.8c1.7,2.3,3.4,4.6,4.7,7.2L585.9,141.6z"/>
</g>
<g>
	<path class="st0" d="M531.1,110.7l-1.1-1.3c2.8-2.2,6.3-4.8,10.1-7.1l0.8,1.5C537.3,105.9,533.9,108.5,531.1,110.7z"/>
</g>
<g>
	<path class="st0" d="M528.7,148.6l-1.7-0.2c0.3-2.5,1.4-4.9,2.5-7.3c0.2-0.5,0.5-1,0.7-1.5c1.2-2.6,2.3-5.4,1.8-8.4
		c-0.2-1.6-1-3.2-1.8-4.8c-0.2-0.5-0.5-0.9-0.7-1.4c-1.2-2.5-1.4-5.5-0.7-8.5l1.7,0.4c-0.6,2.7-0.4,5.3,0.6,7.5
		c0.2,0.5,0.4,0.9,0.7,1.4c0.9,1.8,1.7,3.4,2,5.3c0.6,3.4-0.6,6.5-1.9,9.3c-0.2,0.5-0.4,1-0.7,1.5
		C530.1,144.1,529,146.4,528.7,148.6z"/>
</g>
<g>
	<path class="st0" d="M531.6,84.8c-2.6,0-5,0-7.5-0.2l0,0c-1.2,0-2.1-0.3-2.7-0.9c-0.9-0.9-0.9-2.2-0.9-3.2c0-1.5,0-2.9,0.1-4.3
		c0-1.4,0.1-2.8,0.1-4.2c0-0.8,0-1.3-0.3-1.8c-0.2-0.2-0.5-0.5-1.2-0.8c-1.7-1-3.2-1.9-4.8-2.8s-3.1-1.9-4.8-2.8l0.9-1.5
		c1.6,0.9,3.2,1.9,4.8,2.8c1.6,0.9,3.1,1.9,4.8,2.8c0.6,0.3,1.3,0.7,1.8,1.5c0.5,1,0.5,1.8,0.5,2.7c0,1.5,0,2.9-0.1,4.3
		c0,1.4-0.1,2.8-0.1,4.2c0,0.7,0,1.5,0.4,2c0.3,0.3,0.9,0.4,1.6,0.4c2.6,0.2,5,0.2,7.5,0.2L531.6,84.8L531.6,84.8z"/>
</g>
<g>
	<path class="st0" d="M535.9,76.7c-1.4-1.7-3.2-2.7-5.1-3.9l-0.9-0.5c-1.8-1.1-4.4-3-5.5-5.9c-0.5-1.4-0.4-2.9-0.4-4.4
		c0-0.3,0-0.7,0-1c0-2.2-0.2-3.8-0.8-5.1c-0.9-2.5-2.7-4.7-4.6-6.8l-0.6-0.7l1.3-1.1l0.6,0.7c1.9,2.2,3.9,4.5,4.9,7.3
		c0.6,1.5,0.9,3.3,0.9,5.7c0,0.3,0,0.7,0,1c0,1.3-0.1,2.7,0.3,3.8c0.6,1.8,2.2,3.4,4.7,5l0.9,0.5c1.9,1.2,3.9,2.4,5.5,4.3
		L535.9,76.7z"/>
</g>
<g>
	<path class="st0" d="M556.5,71.9l-1-1.4c2.7-2,5.3-4.3,7.7-7c-1.7-5.2-2.9-10.8-3.8-17.6l-0.1-0.4l0.3-0.3c1.9-1.9,4-3.8,5.8-5.5
		l1.1,1.3c-1.7,1.5-3.6,3.3-5.5,5.1c0.9,6.7,2.2,12.2,3.8,17.3l0.1,0.5l-0.3,0.4C562.3,67.2,559.5,69.7,556.5,71.9z"/>
</g>
<g>
	<path class="st0" d="M563.9,80.2l-0.1-1.7c2.6-0.2,4.8-0.5,6.9-1c0.1-2.8,0.1-5.5,0.2-8.2c0-2.9,0.1-5.9,0.2-8.9v-0.5l0.4-0.2
		c4.9-2.6,9.5-5.4,13.9-8.5l1,1.4c-4.3,3-8.8,5.8-13.6,8.3c-0.1,2.8-0.1,5.6-0.2,8.3c0,2.9-0.1,5.9-0.2,8.9v0.6l-0.6,0.2
		C569.4,79.6,566.8,80,563.9,80.2z"/>
</g>
</svg>
