<?xml version="1.0" encoding="utf-8"?>
<!-- Generator: Adobe Illustrator 24.3.0, SVG Export Plug-In . SVG Version: 6.00 Build 0)  -->
<svg version="1.1" id="Calque_2_1_" xmlns="http://www.w3.org/2000/svg" xmlns:xlink="http://www.w3.org/1999/xlink" x="0px"
	 y="0px" viewBox="0 0 648.8 339.6" style="enable-background:new 0 0 648.8 339.6;" xml:space="preserve">
<style type="text/css">
	.st0{fill:#AC4B1C;}
</style>
<g>
	<g>
		<path class="st0" d="M324.4,234.9c-68.5,0-124.3-18.7-124.3-41.7s55.8-41.7,124.3-41.7c68.6,0,124.3,18.7,124.3,41.7
			S393,234.9,324.4,234.9z M324.4,152.3c-68.1,0-123.5,18.4-123.5,40.9s55.4,40.9,123.5,40.9s123.5-18.4,123.5-40.9
			S392.5,152.3,324.4,152.3z"/>
	</g>
	<g>
		<path class="st0" d="M392.5,71.3H256.3c-4,0-7.3-3.3-7.3-7.3V29.3c0-4,3.3-7.3,7.3-7.3h136.2c4,0,7.3,3.3,7.3,7.3V64
			C399.8,68,396.5,71.3,392.5,71.3z M256.3,22.8c-3.6,0-6.5,2.9-6.5,6.5V64c0,3.6,2.9,6.5,6.5,6.5h136.2c3.6,0,6.5-2.9,6.5-6.5V29.3
			c0-3.6-2.9-6.5-6.5-6.5H256.3z"/>
	</g>
	<g>
		<path class="st0" d="M164.7,307.5H28.5c-4,0-7.3-3.3-7.3-7.3v-34.7c0-4,3.3-7.3,7.3-7.3h136.2c4,0,7.3,3.3,7.3,7.3v34.7
			C172,304.3,168.7,307.5,164.7,307.5z M28.5,259.1c-3.6,0-6.5,2.9-6.5,6.5v34.7c0,3.6,2.9,6.5,6.5,6.5h136.2c3.6,0,6.5-2.9,6.5-6.5
			v-34.7c0-3.6-2.9-6.5-6.5-6.5H28.5z"/>
	</g>
	<g>
		<path class="st0" d="M620.4,307.5H484.1c-4,0-7.3-3.3-7.3-7.3v-34.7c0-4,3.3-7.3,7.3-7.3h136.2c4,0,7.3,3.3,7.3,7.3v34.7
			C627.7,304.3,624.4,307.5,620.4,307.5z M484.1,259.1c-3.6,0-6.5,2.9-6.5,6.5v34.7c0,3.6,2.9,6.5,6.5,6.5h136.2
			c3.6,0,6.5-2.9,6.5-6.5v-34.7c0-3.6-2.9-6.5-6.5-6.5H484.1z"/>
	</g>
	<g>
		<path class="st0" d="M75.7,276.9c0-0.6,0-1.1,0-1.5h0.8v0.8l0,0c0.3-0.6,0.9-0.9,1.6-0.9c1.1,0,2,0.9,2,2.3c0,1.7-1,2.5-2.1,2.5
			c-0.6,0-1.1-0.3-1.4-0.7l0,0v2.5h-0.8L75.7,276.9L75.7,276.9z M76.5,278.1c0,0.1,0,0.2,0,0.3c0.2,0.6,0.7,1,1.3,1
			c0.9,0,1.4-0.7,1.4-1.8c0-0.9-0.5-1.7-1.4-1.7c-0.6,0-1.1,0.4-1.3,1c0,0.1-0.1,0.2-0.1,0.3L76.5,278.1L76.5,278.1z"/>
		<path class="st0" d="M83.7,280l-0.1-0.6l0,0c-0.3,0.4-0.8,0.7-1.4,0.7c-0.9,0-1.4-0.7-1.4-1.3c0-1.1,1-1.7,2.8-1.7V277
			c0-0.4-0.1-1.1-1-1.1c-0.4,0-0.9,0.1-1.2,0.3l-0.2-0.6c0.4-0.2,0.9-0.4,1.5-0.4c1.4,0,1.8,1,1.8,1.9v1.7c0,0.4,0,0.8,0.1,1.1h-0.9
			C83.7,279.9,83.7,280,83.7,280z M83.6,277.6c-0.9,0-2,0.1-2,1c0,0.5,0.4,0.8,0.8,0.8c0.6,0,1-0.4,1.1-0.8c0-0.1,0-0.2,0-0.3
			L83.6,277.6L83.6,277.6z"/>
		<path class="st0" d="M85.7,276.8c0-0.5,0-1,0-1.4h0.7v0.9l0,0c0.2-0.6,0.7-1,1.3-1c0.1,0,0.2,0,0.2,0v0.8c-0.1,0-0.2,0-0.3,0
			c-0.6,0-1,0.4-1.1,1.1c0,0.1,0,0.2,0,0.4v2.5h-0.8C85.7,280.1,85.7,276.8,85.7,276.8z"/>
		<path class="st0" d="M91.4,280l-0.1-0.6l0,0c-0.3,0.4-0.8,0.7-1.4,0.7c-0.9,0-1.4-0.7-1.4-1.3c0-1.1,1-1.7,2.8-1.7V277
			c0-0.4-0.1-1.1-1-1.1c-0.4,0-0.9,0.1-1.2,0.3l-0.2-0.6c0.4-0.2,0.9-0.4,1.5-0.4c1.4,0,1.8,1,1.8,1.9v1.7c0,0.4,0,0.8,0.1,1.1h-0.9
			C91.4,279.9,91.4,280,91.4,280z M91.2,277.6c-0.9,0-2,0.1-2,1c0,0.5,0.4,0.8,0.8,0.8c0.6,0,1-0.4,1.1-0.8c0-0.1,0-0.2,0-0.3
			L91.2,277.6L91.2,277.6z"/>
		<path class="st0" d="M93.3,279.1c0.2,0.2,0.7,0.3,1.1,0.3c0.6,0,0.9-0.3,0.9-0.7c0-0.4-0.2-0.6-0.9-0.8c-0.8-0.3-1.2-0.8-1.2-1.3
			c0-0.7,0.6-1.4,1.6-1.4c0.5,0,0.9,0.1,1.1,0.3l-0.2,0.6c-0.2-0.1-0.5-0.3-0.9-0.3c-0.5,0-0.8,0.3-0.8,0.6c0,0.4,0.3,0.6,0.9,0.8
			c0.8,0.3,1.2,0.7,1.2,1.4c0,0.8-0.6,1.4-1.7,1.4c-0.5,0-1-0.1-1.3-0.3L93.3,279.1z"/>
		<path class="st0" d="M98.1,274.1c0,0.3-0.2,0.5-0.5,0.5s-0.5-0.2-0.5-0.5s0.2-0.5,0.5-0.5C97.9,273.5,98.1,273.8,98.1,274.1z
			 M97.2,280v-4.6H98v4.6H97.2z"/>
		<path class="st0" d="M100.4,274v1.3h1.2v0.6h-1.2v2.5c0,0.6,0.2,0.9,0.6,0.9c0.2,0,0.4,0,0.5-0.1v0.6c-0.2,0.1-0.4,0.1-0.7,0.1
			c-0.4,0-0.7-0.1-0.9-0.4c-0.2-0.2-0.3-0.7-0.3-1.2V276h-0.7v-0.6h0.7v-1.1L100.4,274z"/>
		<path class="st0" d="M103,277.8c0,1.1,0.7,1.6,1.6,1.6c0.6,0,1-0.1,1.3-0.2l0.1,0.6c-0.3,0.1-0.8,0.3-1.5,0.3
			c-1.4,0-2.3-0.9-2.3-2.3s0.8-2.5,2.2-2.5c1.5,0,1.9,1.3,1.9,2.2c0,0.2,0,0.3,0,0.4H103V277.8z M105.4,277.2c0-0.5-0.2-1.4-1.2-1.4
			c-0.8,0-1.2,0.8-1.3,1.4H105.4z"/>
		<path class="st0" d="M107.2,279.1c0.2,0.2,0.7,0.3,1.1,0.3c0.6,0,0.9-0.3,0.9-0.7c0-0.4-0.2-0.6-0.9-0.8c-0.8-0.3-1.2-0.8-1.2-1.3
			c0-0.7,0.6-1.4,1.6-1.4c0.5,0,0.9,0.1,1.1,0.3l-0.2,0.6c-0.2-0.1-0.5-0.3-0.9-0.3c-0.5,0-0.8,0.3-0.8,0.6c0,0.4,0.3,0.6,0.9,0.8
			c0.8,0.3,1.2,0.7,1.2,1.4c0,0.8-0.6,1.4-1.7,1.4c-0.5,0-1-0.1-1.3-0.3L107.2,279.1z"/>
		<path class="st0" d="M117.1,280c-0.2-0.2-0.4-0.4-0.6-0.6c-0.6,0.5-1.2,0.7-1.9,0.7c-1.2,0-2-0.8-2-1.8c0-0.9,0.5-1.5,1.3-1.9l0,0
			c-0.3-0.4-0.5-0.9-0.5-1.3c0-0.8,0.6-1.6,1.6-1.6c0.8,0,1.4,0.5,1.4,1.4c0,0.7-0.4,1.2-1.4,1.7l0,0c0.5,0.6,1.2,1.3,1.6,1.8
			c0.3-0.4,0.5-1.1,0.6-1.9h0.8c-0.2,1-0.4,1.8-0.9,2.4c0.3,0.4,0.7,0.7,1.1,1.1L117.1,280L117.1,280z M116.1,278.9
			c-0.4-0.4-1.1-1.2-1.8-2c-0.3,0.2-0.8,0.6-0.8,1.3c0,0.7,0.5,1.3,1.3,1.3C115.4,279.5,115.8,279.2,116.1,278.9z M114.2,275
			c0,0.5,0.2,0.8,0.5,1.2c0.6-0.4,1.1-0.7,1.1-1.3c0-0.4-0.2-0.8-0.7-0.8C114.4,274,114.2,274.5,114.2,275z"/>
		<path class="st0" d="M73.5,288.3c0-0.6,0-1.1,0-1.5h0.8v0.8l0,0c0.3-0.6,0.9-0.9,1.6-0.9c1.1,0,2,0.9,2,2.3c0,1.7-1,2.5-2.1,2.5
			c-0.6,0-1.1-0.3-1.4-0.7l0,0v2.5h-0.8L73.5,288.3L73.5,288.3z M74.3,289.5c0,0.1,0,0.2,0,0.3c0.2,0.6,0.7,1,1.3,1
			c0.9,0,1.4-0.7,1.4-1.8c0-0.9-0.5-1.7-1.4-1.7c-0.6,0-1.1,0.4-1.3,1c0,0.1-0.1,0.2-0.1,0.3L74.3,289.5L74.3,289.5z"/>
		<path class="st0" d="M81.4,291.4l-0.1-0.6l0,0c-0.3,0.4-0.8,0.7-1.4,0.7c-0.9,0-1.4-0.7-1.4-1.3c0-1.1,1-1.7,2.8-1.7v-0.1
			c0-0.4-0.1-1.1-1-1.1c-0.4,0-0.9,0.1-1.2,0.3l-0.2-0.6c0.4-0.2,0.9-0.4,1.5-0.4c1.4,0,1.8,1,1.8,1.9v1.7c0,0.4,0,0.8,0.1,1.1h-0.9
			C81.4,291.3,81.4,291.4,81.4,291.4z M81.3,289.1c-0.9,0-2,0.1-2,1c0,0.5,0.4,0.8,0.8,0.8c0.6,0,1-0.4,1.1-0.8c0-0.1,0-0.2,0-0.3
			L81.3,289.1L81.3,289.1z"/>
		<path class="st0" d="M84.5,285.5v1.3h1.2v0.6h-1.2v2.5c0,0.6,0.2,0.9,0.6,0.9c0.2,0,0.4,0,0.5-0.1v0.6c-0.2,0.1-0.4,0.1-0.7,0.1
			c-0.4,0-0.7-0.1-0.9-0.4c-0.2-0.2-0.3-0.7-0.3-1.2v-2.5H83v-0.6h0.7v-1.1L84.5,285.5z"/>
		<path class="st0" d="M86.6,284.7h0.8v2.9l0,0c0.1-0.2,0.3-0.4,0.6-0.6c0.2-0.1,0.5-0.2,0.9-0.2c0.6,0,1.6,0.4,1.6,2v2.7h-0.8v-2.7
			c0-0.7-0.3-1.4-1.1-1.4c-0.5,0-1,0.4-1.1,0.8c0,0.1-0.1,0.2-0.1,0.4v2.8h-0.8V284.7z"/>
		<path class="st0" d="M96.1,289.1c0,1.7-1.2,2.5-2.3,2.5c-1.2,0-2.2-0.9-2.2-2.4s1-2.5,2.3-2.5C95.2,286.7,96.1,287.7,96.1,289.1z
			 M92.4,289.1c0,1,0.6,1.8,1.4,1.8s1.4-0.8,1.4-1.8c0-0.8-0.4-1.8-1.4-1.8C92.8,287.3,92.4,288.3,92.4,289.1z"/>
		<path class="st0" d="M101.1,286.8c0,0.3,0,0.7,0,1.3v2.7c0,1.1-0.2,1.7-0.7,2.1c-0.4,0.4-1.1,0.6-1.7,0.6s-1.2-0.1-1.5-0.4
			l0.2-0.6c0.3,0.2,0.8,0.4,1.4,0.4c0.9,0,1.5-0.4,1.5-1.6v-0.5l0,0c-0.3,0.4-0.8,0.8-1.5,0.8c-1.1,0-2-1-2-2.2c0-1.6,1-2.5,2.1-2.5
			c0.8,0,1.2,0.4,1.4,0.8l0,0V287h0.8C101.1,287,101.1,286.8,101.1,286.8z M100.2,288.6c0-0.1,0-0.3,0-0.4c-0.2-0.5-0.6-0.9-1.2-0.9
			c-0.8,0-1.4,0.7-1.4,1.7c0,0.9,0.5,1.7,1.4,1.7c0.5,0,1-0.3,1.2-0.9c0-0.1,0.1-0.3,0.1-0.4L100.2,288.6L100.2,288.6z"/>
		<path class="st0" d="M102.9,289.3c0,1.1,0.7,1.6,1.6,1.6c0.6,0,1-0.1,1.3-0.2l0.1,0.6c-0.3,0.1-0.8,0.3-1.5,0.3
			c-1.4,0-2.3-0.9-2.3-2.3s0.8-2.5,2.2-2.5c1.5,0,1.9,1.3,1.9,2.2c0,0.2,0,0.3,0,0.4h-3.3C102.9,289.4,102.9,289.3,102.9,289.3z
			 M105.4,288.7c0-0.5-0.2-1.4-1.2-1.4c-0.8,0-1.2,0.8-1.3,1.4H105.4z M104,284.8l0.8,1.4h-0.6l-1.2-1.4H104z"/>
		<path class="st0" d="M107.2,288.1c0-0.5,0-0.9,0-1.2h0.7v0.8l0,0c0.2-0.4,0.8-0.9,1.5-0.9c0.6,0,1.6,0.4,1.6,2v2.8h-0.8v-2.7
			c0-0.7-0.3-1.4-1.1-1.4c-0.6,0-1,0.4-1.1,0.9c0,0.1-0.1,0.2-0.1,0.4v2.8h-0.8v-3.5L107.2,288.1L107.2,288.1z"/>
		<path class="st0" d="M113,289.3c0,1.1,0.7,1.6,1.6,1.6c0.6,0,1-0.1,1.3-0.2l0.1,0.6c-0.3,0.1-0.8,0.3-1.5,0.3
			c-1.4,0-2.3-0.9-2.3-2.3s0.8-2.5,2.2-2.5c1.5,0,1.9,1.3,1.9,2.2c0,0.2,0,0.3,0,0.4H113V289.3z M115.5,288.7c0-0.5-0.2-1.4-1.2-1.4
			c-0.8,0-1.2,0.8-1.3,1.4H115.5z"/>
		<path class="st0" d="M117.2,290.6c0.2,0.2,0.7,0.3,1.1,0.3c0.6,0,0.9-0.3,0.9-0.7c0-0.4-0.2-0.6-0.9-0.8c-0.8-0.3-1.2-0.8-1.2-1.3
			c0-0.7,0.6-1.4,1.6-1.4c0.5,0,0.9,0.1,1.1,0.3l-0.2,0.6c-0.2-0.1-0.5-0.3-0.9-0.3c-0.5,0-0.8,0.3-0.8,0.6c0,0.4,0.3,0.6,0.9,0.8
			c0.8,0.3,1.2,0.7,1.2,1.4c0,0.8-0.6,1.4-1.7,1.4c-0.5,0-1-0.1-1.3-0.3L117.2,290.6z"/>
	</g>
	<g>
		<path class="st0" d="M518.5,273.2v5.6c0,0.4,0,0.9,0,1.2h-0.8v-0.8l0,0c-0.3,0.5-0.8,0.9-1.6,0.9c-1.1,0-2-0.9-2-2.3
			c0-1.5,0.9-2.5,2.1-2.5c0.7,0,1.2,0.3,1.4,0.7l0,0v-2.8L518.5,273.2L518.5,273.2z M517.6,277.2c0-0.1,0-0.2,0-0.4
			c-0.1-0.5-0.6-1-1.2-1c-0.9,0-1.4,0.8-1.4,1.8c0,0.9,0.5,1.7,1.4,1.7c0.6,0,1.1-0.4,1.2-1c0-0.1,0-0.2,0-0.4V277.2z"/>
		<path class="st0" d="M520.8,274.1c0,0.3-0.2,0.5-0.5,0.5s-0.5-0.2-0.5-0.5s0.2-0.5,0.5-0.5C520.6,273.5,520.8,273.8,520.8,274.1z
			 M519.9,280v-4.6h0.8v4.6H519.9z"/>
		<path class="st0" d="M522.4,275.4l0.9,2.6c0.2,0.4,0.3,0.8,0.4,1.2l0,0c0.1-0.4,0.2-0.8,0.4-1.2l0.9-2.6h0.9l-1.8,4.6h-0.8
			l-1.8-4.6H522.4z"/>
		<path class="st0" d="M527.1,277.8c0,1.1,0.7,1.6,1.6,1.6c0.6,0,1-0.1,1.3-0.2l0.1,0.6c-0.3,0.1-0.8,0.3-1.5,0.3
			c-1.4,0-2.3-0.9-2.3-2.3s0.8-2.5,2.2-2.5c1.5,0,1.9,1.3,1.9,2.2c0,0.2,0,0.3,0,0.4h-3.3V277.8z M529.5,277.2
			c0-0.5-0.2-1.4-1.2-1.4c-0.8,0-1.2,0.8-1.3,1.4H529.5z"/>
		<path class="st0" d="M531.4,276.8c0-0.5,0-1,0-1.4h0.7v0.9l0,0c0.2-0.6,0.7-1,1.3-1c0.1,0,0.2,0,0.2,0v0.8c-0.1,0-0.2,0-0.3,0
			c-0.6,0-1,0.4-1.1,1.1c0,0.1,0,0.2,0,0.4v2.5h-0.8L531.4,276.8L531.4,276.8z"/>
		<path class="st0" d="M534.4,279.1c0.2,0.2,0.7,0.3,1.1,0.3c0.6,0,0.9-0.3,0.9-0.7c0-0.4-0.2-0.6-0.9-0.8c-0.8-0.3-1.2-0.8-1.2-1.3
			c0-0.7,0.6-1.4,1.6-1.4c0.5,0,0.9,0.1,1.1,0.3l-0.2,0.6c-0.2-0.1-0.5-0.3-0.9-0.3c-0.5,0-0.8,0.3-0.8,0.6c0,0.4,0.3,0.6,0.9,0.8
			c0.8,0.3,1.2,0.7,1.2,1.4c0,0.8-0.6,1.4-1.7,1.4c-0.5,0-1-0.1-1.3-0.3L534.4,279.1z"/>
		<path class="st0" d="M539.2,274.1c0,0.3-0.2,0.5-0.5,0.5s-0.5-0.2-0.5-0.5s0.2-0.5,0.5-0.5C539,273.5,539.2,273.8,539.2,274.1z
			 M538.3,280v-4.6h0.8v4.6H538.3z"/>
		<path class="st0" d="M541.5,274v1.3h1.2v0.6h-1.2v2.5c0,0.6,0.2,0.9,0.6,0.9c0.2,0,0.4,0,0.5-0.1v0.6c-0.2,0.1-0.4,0.1-0.7,0.1
			c-0.4,0-0.7-0.1-0.9-0.4c-0.2-0.2-0.3-0.7-0.3-1.2V276H540v-0.6h0.7v-1.1L541.5,274z"/>
		<path class="st0" d="M544.1,277.8c0,1.1,0.7,1.6,1.6,1.6c0.6,0,1-0.1,1.3-0.2l0.1,0.6c-0.3,0.1-0.8,0.3-1.5,0.3
			c-1.4,0-2.3-0.9-2.3-2.3s0.8-2.5,2.2-2.5c1.5,0,1.9,1.3,1.9,2.2c0,0.2,0,0.3,0,0.4h-3.3V277.8z M546.5,277.2
			c0-0.5-0.2-1.4-1.2-1.4c-0.8,0-1.2,0.8-1.3,1.4H546.5z M546.7,273.4l-1.2,1.4H545l0.8-1.4H546.7z"/>
		<path class="st0" d="M554.4,275.4c0,0.3,0,0.7,0,1.3v2.7c0,1.1-0.2,1.7-0.7,2.1c-0.4,0.4-1.1,0.6-1.7,0.6c-0.6,0-1.2-0.1-1.5-0.4
			l0.2-0.6c0.3,0.2,0.8,0.4,1.4,0.4c0.9,0,1.5-0.4,1.5-1.6v-0.5l0,0c-0.3,0.4-0.8,0.8-1.5,0.8c-1.1,0-2-1-2-2.2c0-1.6,1-2.5,2.1-2.5
			c0.8,0,1.2,0.4,1.4,0.8l0,0v-0.7h0.8V275.4z M553.5,277.2c0-0.1,0-0.3,0-0.4c-0.2-0.5-0.6-0.9-1.2-0.9c-0.8,0-1.4,0.7-1.4,1.7
			c0,0.9,0.5,1.7,1.4,1.7c0.5,0,1-0.3,1.2-0.9c0-0.1,0.1-0.3,0.1-0.4L553.5,277.2L553.5,277.2z"/>
		<path class="st0" d="M556.2,277.8c0,1.1,0.7,1.6,1.6,1.6c0.6,0,1-0.1,1.3-0.2l0.1,0.6c-0.3,0.1-0.8,0.3-1.5,0.3
			c-1.4,0-2.3-0.9-2.3-2.3s0.8-2.5,2.2-2.5c1.5,0,1.9,1.3,1.9,2.2c0,0.2,0,0.3,0,0.4h-3.3V277.8z M558.7,277.2
			c0-0.5-0.2-1.4-1.2-1.4c-0.8,0-1.2,0.8-1.3,1.4H558.7z M558.9,273.4l-1.2,1.4h-0.6l0.8-1.4H558.9z"/>
		<path class="st0" d="M560.5,276.6c0-0.5,0-0.9,0-1.2h0.7v0.8l0,0c0.2-0.4,0.8-0.9,1.5-0.9c0.6,0,1.6,0.4,1.6,2v2.8h-0.8v-2.7
			c0-0.7-0.3-1.4-1.1-1.4c-0.6,0-1,0.4-1.1,0.9c0,0.1-0.1,0.2-0.1,0.4v2.8h-0.8L560.5,276.6L560.5,276.6z"/>
		<path class="st0" d="M566.3,277.8c0,1.1,0.7,1.6,1.6,1.6c0.6,0,1-0.1,1.3-0.2l0.1,0.6c-0.3,0.1-0.8,0.3-1.5,0.3
			c-1.4,0-2.3-0.9-2.3-2.3s0.8-2.5,2.2-2.5c1.5,0,1.9,1.3,1.9,2.2c0,0.2,0,0.3,0,0.4h-3.3V277.8z M568.7,277.2
			c0-0.5-0.2-1.4-1.2-1.4c-0.8,0-1.2,0.8-1.3,1.4H568.7z M568.9,273.4l-1.2,1.4h-0.6l0.8-1.4H568.9z"/>
		<path class="st0" d="M571.6,274v1.3h1.2v0.6h-1.2v2.5c0,0.6,0.2,0.9,0.6,0.9c0.2,0,0.4,0,0.5-0.1v0.6c-0.2,0.1-0.4,0.1-0.7,0.1
			c-0.4,0-0.7-0.1-0.9-0.4c-0.2-0.2-0.3-0.7-0.3-1.2V276h-0.7v-0.6h0.7v-1.1L571.6,274z"/>
		<path class="st0" d="M574.7,274.1c0,0.3-0.2,0.5-0.5,0.5s-0.5-0.2-0.5-0.5s0.2-0.5,0.5-0.5C574.5,273.5,574.7,273.8,574.7,274.1z
			 M573.8,280v-4.6h0.8v4.6H573.8z"/>
		<path class="st0" d="M579.1,279.3L579.1,279.3c-0.3,0.5-0.8,0.8-1.5,0.8c-1.1,0-2-0.9-2-2.3c0-1.7,1.1-2.5,2.1-2.5
			c0.7,0,1.2,0.4,1.4,0.8l0,0v-0.7h0.8c0,0.4,0,0.8,0,1.3v5.2h-0.8V279.3z M579.1,277.2c0-0.1,0-0.2,0-0.4c-0.1-0.5-0.6-1-1.2-1
			c-0.9,0-1.4,0.7-1.4,1.8c0,0.9,0.4,1.7,1.4,1.7c0.5,0,1-0.3,1.2-0.9c0-0.1,0.1-0.3,0.1-0.4L579.1,277.2L579.1,277.2z"/>
		<path class="st0" d="M585.2,278.7c0,0.5,0,0.9,0,1.3h-0.7v-0.8l0,0c-0.2,0.4-0.7,0.9-1.5,0.9c-0.7,0-1.6-0.4-1.6-2v-2.7h0.8v2.6
			c0,0.9,0.3,1.5,1,1.5c0.6,0,1-0.4,1.1-0.8c0-0.1,0.1-0.3,0.1-0.4v-2.8h0.8L585.2,278.7L585.2,278.7z"/>
		<path class="st0" d="M587.1,277.8c0,1.1,0.7,1.6,1.6,1.6c0.6,0,1-0.1,1.3-0.2l0.1,0.6c-0.3,0.1-0.8,0.3-1.5,0.3
			c-1.4,0-2.3-0.9-2.3-2.3s0.8-2.5,2.2-2.5c1.5,0,1.9,1.3,1.9,2.2c0,0.2,0,0.3,0,0.4h-3.3V277.8z M589.5,277.2
			c0-0.5-0.2-1.4-1.2-1.4c-0.8,0-1.2,0.8-1.3,1.4H589.5z"/>
		<path class="st0" d="M535,289.3c0,1.1,0.7,1.6,1.6,1.6c0.6,0,1-0.1,1.3-0.2l0.1,0.6c-0.3,0.1-0.8,0.3-1.5,0.3
			c-1.4,0-2.3-0.9-2.3-2.3s0.8-2.5,2.2-2.5c1.5,0,1.9,1.3,1.9,2.2c0,0.2,0,0.3,0,0.4H535V289.3z M537.4,288.7c0-0.5-0.2-1.4-1.2-1.4
			c-0.8,0-1.2,0.8-1.3,1.4H537.4z"/>
		<path class="st0" d="M540.3,285.5v1.3h1.2v0.6h-1.2v2.5c0,0.6,0.2,0.9,0.6,0.9c0.2,0,0.4,0,0.5-0.1v0.6c-0.2,0.1-0.4,0.1-0.7,0.1
			c-0.4,0-0.7-0.1-0.9-0.4c-0.2-0.2-0.3-0.7-0.3-1.2v-2.5h-0.7v-0.6h0.7v-1.1L540.3,285.5z"/>
		<path class="st0" d="M544.8,286.8l0.9,2.6c0.2,0.4,0.3,0.8,0.4,1.2l0,0c0.1-0.4,0.2-0.8,0.4-1.2l0.9-2.6h0.9l-1.8,4.6h-0.8
			l-1.8-4.6H544.8z"/>
		<path class="st0" d="M550,285.5c0,0.3-0.2,0.5-0.5,0.5s-0.5-0.2-0.5-0.5s0.2-0.5,0.5-0.5S550,285.2,550,285.5z M549,291.4v-4.6
			h0.8v4.6H549z"/>
		<path class="st0" d="M552.3,285.5v1.3h1.2v0.6h-1.2v2.5c0,0.6,0.2,0.9,0.6,0.9c0.2,0,0.4,0,0.5-0.1v0.6c-0.2,0.1-0.4,0.1-0.7,0.1
			c-0.4,0-0.7-0.1-0.9-0.4c-0.2-0.2-0.3-0.7-0.3-1.2v-2.5h-0.7v-0.6h0.7v-1.1L552.3,285.5z"/>
		<path class="st0" d="M557,291.4l-0.1-0.6l0,0c-0.3,0.4-0.8,0.7-1.4,0.7c-0.9,0-1.4-0.7-1.4-1.3c0-1.1,1-1.7,2.8-1.7v-0.1
			c0-0.4-0.1-1.1-1-1.1c-0.4,0-0.9,0.1-1.2,0.3l-0.2-0.6c0.4-0.2,0.9-0.4,1.5-0.4c1.4,0,1.8,1,1.8,1.9v1.7c0,0.4,0,0.8,0.1,1.1H557
			V291.4z M556.9,289.1c-0.9,0-2,0.1-2,1c0,0.5,0.4,0.8,0.8,0.8c0.6,0,1-0.4,1.1-0.8c0-0.1,0-0.2,0-0.3v-0.7H556.9z"/>
		<path class="st0" d="M559,284.7h0.8v6.8H559V284.7z"/>
		<path class="st0" d="M562.2,285.5c0,0.3-0.2,0.5-0.5,0.5s-0.5-0.2-0.5-0.5s0.2-0.5,0.5-0.5S562.2,285.2,562.2,285.5z M561.3,291.4
			v-4.6h0.8v4.6H561.3z"/>
		<path class="st0" d="M564.5,285.5v1.3h1.2v0.6h-1.2v2.5c0,0.6,0.2,0.9,0.6,0.9c0.2,0,0.4,0,0.5-0.1v0.6c-0.2,0.1-0.4,0.1-0.7,0.1
			c-0.4,0-0.7-0.1-0.9-0.4c-0.2-0.2-0.3-0.7-0.3-1.2v-2.5H563v-0.6h0.7v-1.1L564.5,285.5z"/>
		<path class="st0" d="M567.1,289.3c0,1.1,0.7,1.6,1.6,1.6c0.6,0,1-0.1,1.3-0.2l0.1,0.6c-0.3,0.1-0.8,0.3-1.5,0.3
			c-1.4,0-2.3-0.9-2.3-2.3s0.8-2.5,2.2-2.5c1.5,0,1.9,1.3,1.9,2.2c0,0.2,0,0.3,0,0.4h-3.3V289.3z M569.5,288.7
			c0-0.5-0.2-1.4-1.2-1.4c-0.8,0-1.2,0.8-1.3,1.4H569.5z M569.7,284.8l-1.2,1.4H568l0.8-1.4H569.7z"/>
	</g>
	<g>
		<path class="st0" d="M309.3,43.8v-4h-0.6v-0.6h0.6V39c0-0.6,0.1-1.2,0.5-1.6c0.3-0.3,0.7-0.4,1.1-0.4c0.3,0,0.6,0.1,0.7,0.1
			l-0.1,0.6c-0.1-0.1-0.3-0.1-0.5-0.1c-0.7,0-0.9,0.6-0.9,1.3v0.2h1.1v0.6h-1.1v4h-0.8L309.3,43.8L309.3,43.8z"/>
		<path class="st0" d="M314.5,43.8l-0.1-0.6l0,0c-0.3,0.4-0.8,0.7-1.4,0.7c-0.9,0-1.4-0.7-1.4-1.3c0-1.1,1-1.7,2.8-1.7v-0.1
			c0-0.4-0.1-1.1-1-1.1c-0.4,0-0.9,0.1-1.2,0.3l-0.2-0.6c0.4-0.2,0.9-0.4,1.5-0.4c1.4,0,1.8,1,1.8,1.9v1.7c0,0.4,0,0.8,0.1,1.1
			L314.5,43.8L314.5,43.8z M314.4,41.4c-0.9,0-2,0.1-2,1c0,0.5,0.4,0.8,0.8,0.8c0.6,0,1-0.4,1.1-0.8c0-0.1,0-0.2,0-0.3v-0.7H314.4z"
			/>
		<path class="st0" d="M319.9,43.6c-0.2,0.1-0.7,0.3-1.3,0.3c-1.4,0-2.3-0.9-2.3-2.4c0-1.4,1-2.5,2.5-2.5c0.5,0,0.9,0.1,1.2,0.2
			l-0.2,0.6c-0.2-0.1-0.5-0.2-1-0.2c-1.1,0-1.6,0.8-1.6,1.7c0,1.1,0.7,1.7,1.6,1.7c0.5,0,0.8-0.1,1-0.2L319.9,43.6z"/>
		<path class="st0" d="M322,37.8v1.3h1.2v0.6H322v2.5c0,0.6,0.2,0.9,0.6,0.9c0.2,0,0.4,0,0.5-0.1v0.6c-0.2,0.1-0.4,0.1-0.7,0.1
			c-0.4,0-0.7-0.1-0.9-0.4c-0.2-0.2-0.3-0.7-0.3-1.2v-2.5h-0.7V39h0.7v-1L322,37.8z"/>
		<path class="st0" d="M324.6,41.6c0,1.1,0.7,1.6,1.6,1.6c0.6,0,1-0.1,1.3-0.2l0.1,0.6c-0.3,0.1-0.8,0.3-1.5,0.3
			c-1.4,0-2.3-0.9-2.3-2.3s0.8-2.5,2.2-2.5c1.5,0,1.9,1.3,1.9,2.2c0,0.2,0,0.3,0,0.4L324.6,41.6L324.6,41.6z M327,41
			c0-0.5-0.2-1.4-1.2-1.4c-0.8,0-1.2,0.8-1.3,1.4H327z"/>
		<path class="st0" d="M332.7,42.5c0,0.5,0,0.9,0,1.3H332V43l0,0c-0.2,0.4-0.7,0.9-1.5,0.9c-0.7,0-1.6-0.4-1.6-2v-2.7h0.8v2.6
			c0,0.9,0.3,1.5,1,1.5c0.6,0,1-0.4,1.1-0.8c0-0.1,0.1-0.3,0.1-0.4v-2.8h0.8L332.7,42.5L332.7,42.5z"/>
		<path class="st0" d="M334.1,40.6c0-0.5,0-1,0-1.4h0.7v0.9l0,0c0.2-0.6,0.7-1,1.3-1c0.1,0,0.2,0,0.2,0v0.8c-0.1,0-0.2,0-0.3,0
			c-0.6,0-1,0.4-1.1,1.1c0,0.1,0,0.2,0,0.4v2.5h-0.8L334.1,40.6L334.1,40.6z"/>
		<path class="st0" d="M337.1,42.9c0.2,0.2,0.7,0.3,1.1,0.3c0.6,0,0.9-0.3,0.9-0.7s-0.2-0.6-0.9-0.8c-0.8-0.3-1.2-0.8-1.2-1.3
			c0-0.7,0.6-1.4,1.6-1.4c0.5,0,0.9,0.1,1.1,0.3l-0.2,0.6c-0.2-0.1-0.5-0.3-0.9-0.3c-0.5,0-0.8,0.3-0.8,0.6c0,0.4,0.3,0.6,0.9,0.8
			c0.8,0.3,1.2,0.7,1.2,1.4c0,0.8-0.6,1.4-1.7,1.4c-0.5,0-1-0.1-1.3-0.3L337.1,42.9z"/>
		<path class="st0" d="M287.8,53c0,1.1,0.7,1.6,1.6,1.6c0.6,0,1-0.1,1.3-0.2l0.1,0.6c-0.3,0.1-0.8,0.3-1.5,0.3
			c-1.4,0-2.3-0.9-2.3-2.3s0.8-2.5,2.2-2.5c1.5,0,1.9,1.3,1.9,2.2c0,0.2,0,0.3,0,0.4L287.8,53L287.8,53z M290.2,52.4
			c0-0.5-0.2-1.4-1.2-1.4c-0.8,0-1.2,0.8-1.3,1.4H290.2z"/>
		<path class="st0" d="M292.1,51.8c0-0.5,0-0.9,0-1.2h0.7v0.8l0,0c0.2-0.4,0.8-0.9,1.5-0.9c0.6,0,1.6,0.4,1.6,2v2.8h-0.8v-2.7
			c0-0.7-0.3-1.4-1.1-1.4c-0.6,0-1,0.4-1.1,0.9c0,0.1-0.1,0.2-0.1,0.4v2.8H292L292.1,51.8L292.1,51.8z"/>
		<path class="st0" d="M297.6,50.6l0.9,2.6c0.2,0.4,0.3,0.8,0.4,1.2l0,0c0.1-0.4,0.2-0.8,0.4-1.2l0.9-2.6h0.9l-1.8,4.6h-0.8
			l-1.8-4.6H297.6z"/>
		<path class="st0" d="M302.8,49.3c0,0.3-0.2,0.5-0.5,0.5s-0.5-0.2-0.5-0.5s0.2-0.5,0.5-0.5C302.6,48.8,302.8,49,302.8,49.3z
			 M301.8,55.2v-4.6h0.8v4.6H301.8z"/>
		<path class="st0" d="M304.1,52c0-0.5,0-1,0-1.4h0.7v0.9l0,0c0.2-0.6,0.7-1,1.3-1c0.1,0,0.2,0,0.2,0v0.8c-0.1,0-0.2,0-0.3,0
			c-0.6,0-1,0.4-1.1,1.1c0,0.1,0,0.2,0,0.4v2.5h-0.8L304.1,52L304.1,52z"/>
		<path class="st0" d="M311.3,52.9c0,1.7-1.2,2.5-2.3,2.5c-1.2,0-2.2-0.9-2.2-2.4s1-2.5,2.3-2.5C310.4,50.5,311.3,51.4,311.3,52.9z
			 M307.6,52.9c0,1,0.6,1.8,1.4,1.8s1.4-0.8,1.4-1.8c0-0.8-0.4-1.8-1.4-1.8C308,51.1,307.6,52,307.6,52.9z"/>
		<path class="st0" d="M312.3,51.8c0-0.5,0-0.9,0-1.2h0.7v0.8l0,0c0.2-0.4,0.8-0.9,1.5-0.9c0.6,0,1.6,0.4,1.6,2v2.8h-0.8v-2.7
			c0-0.7-0.3-1.4-1.1-1.4c-0.6,0-1,0.4-1.1,0.9c0,0.1-0.1,0.2-0.1,0.4v2.8h-0.8L312.3,51.8L312.3,51.8z"/>
		<path class="st0" d="M317.6,51.8c0-0.5,0-0.9,0-1.2h0.7v0.8l0,0c0.2-0.4,0.8-0.9,1.5-0.9c0.6,0,1.6,0.4,1.6,2v2.8h-0.8v-2.7
			c0-0.7-0.3-1.4-1.1-1.4c-0.6,0-1,0.4-1.1,0.9c0,0.1-0.1,0.2-0.1,0.4v2.8h-0.8L317.6,51.8L317.6,51.8z"/>
		<path class="st0" d="M323.4,53c0,1.1,0.7,1.6,1.6,1.6c0.6,0,1-0.1,1.3-0.2l0.1,0.6c-0.3,0.1-0.8,0.3-1.5,0.3
			c-1.4,0-2.3-0.9-2.3-2.3s0.8-2.5,2.2-2.5c1.5,0,1.9,1.3,1.9,2.2c0,0.2,0,0.3,0,0.4L323.4,53L323.4,53z M325.8,52.4
			c0-0.5-0.2-1.4-1.2-1.4c-0.8,0-1.2,0.8-1.3,1.4H325.8z"/>
		<path class="st0" d="M327.7,51.8c0-0.5,0-0.9,0-1.2h0.7v0.7l0,0c0.3-0.4,0.7-0.8,1.4-0.8c0.6,0,1.1,0.4,1.3,0.9l0,0
			c0.1-0.3,0.3-0.5,0.5-0.6c0.3-0.2,0.6-0.3,1-0.3c0.6,0,1.5,0.4,1.5,2v2.7h-0.8v-2.6c0-0.9-0.3-1.4-1-1.4c-0.5,0-0.8,0.4-1,0.8
			c0,0.1-0.1,0.3-0.1,0.4v2.9h-0.8v-2.8c0-0.7-0.3-1.3-1-1.3c-0.5,0-0.9,0.4-1,0.8c0,0.1-0.1,0.3-0.1,0.4v2.8h-0.8v-3.4
			C327.5,51.8,327.7,51.8,327.7,51.8z"/>
		<path class="st0" d="M338.2,55.2l-0.1-0.6l0,0c-0.3,0.4-0.8,0.7-1.4,0.7c-0.9,0-1.4-0.7-1.4-1.3c0-1.1,1-1.7,2.8-1.7v-0.1
			c0-0.4-0.1-1.1-1-1.1c-0.4,0-0.9,0.1-1.2,0.3l-0.2-0.6c0.4-0.2,0.9-0.4,1.5-0.4c1.4,0,1.8,1,1.8,1.9V54c0,0.4,0,0.8,0.1,1.1
			L338.2,55.2L338.2,55.2z M338.1,52.8c-0.9,0-2,0.1-2,1c0,0.5,0.4,0.8,0.8,0.8c0.6,0,1-0.4,1.1-0.8c0-0.1,0-0.2,0-0.3v-0.7H338.1z"
			/>
		<path class="st0" d="M340.2,51.8c0-0.5,0-0.9,0-1.2h0.7v0.8l0,0c0.2-0.4,0.8-0.9,1.5-0.9c0.6,0,1.6,0.4,1.6,2v2.8h-0.8v-2.7
			c0-0.7-0.3-1.4-1.1-1.4c-0.6,0-1,0.4-1.1,0.9c0,0.1-0.1,0.2-0.1,0.4v2.8h-0.8L340.2,51.8L340.2,51.8z"/>
		<path class="st0" d="M346.5,49.3v1.3h1.2v0.6h-1.2v2.5c0,0.6,0.2,0.9,0.6,0.9c0.2,0,0.4,0,0.5-0.1v0.6c-0.2,0.1-0.4,0.1-0.7,0.1
			c-0.4,0-0.7-0.1-0.9-0.4c-0.2-0.2-0.3-0.7-0.3-1.2v-2.5H345v-0.6h0.7v-1.1L346.5,49.3z"/>
		<path class="st0" d="M351.2,55.2l-0.1-0.6l0,0c-0.3,0.4-0.8,0.7-1.4,0.7c-0.9,0-1.4-0.7-1.4-1.3c0-1.1,1-1.7,2.8-1.7v-0.1
			c0-0.4-0.1-1.1-1-1.1c-0.4,0-0.9,0.1-1.2,0.3l-0.2-0.6c0.4-0.2,0.9-0.4,1.5-0.4c1.4,0,1.8,1,1.8,1.9V54c0,0.4,0,0.8,0.1,1.1
			L351.2,55.2L351.2,55.2z M351.1,52.8c-0.9,0-2,0.1-2,1c0,0.5,0.4,0.8,0.8,0.8c0.6,0,1-0.4,1.1-0.8c0-0.1,0-0.2,0-0.3v-0.7H351.1z"
			/>
		<path class="st0" d="M357.1,53.9c0,0.5,0,0.9,0,1.3h-0.7v-0.8l0,0c-0.2,0.4-0.7,0.9-1.5,0.9c-0.7,0-1.6-0.4-1.6-2v-2.7h0.8v2.6
			c0,0.9,0.3,1.5,1,1.5c0.6,0,1-0.4,1.1-0.8c0-0.1,0.1-0.3,0.1-0.4v-2.8h0.8L357.1,53.9L357.1,53.9z"/>
		<path class="st0" d="M358.9,50.6l0.7,1c0.2,0.3,0.3,0.5,0.5,0.8l0,0c0.2-0.3,0.3-0.5,0.5-0.8l0.6-1h0.9l-1.6,2.2l1.6,2.4h-1
			l-0.7-1c-0.2-0.3-0.3-0.5-0.5-0.8l0,0c-0.2,0.3-0.3,0.5-0.5,0.8l-0.7,1h-0.9l1.6-2.4l-1.6-2.3L358.9,50.6L358.9,50.6z"/>
	</g>
	<g>
		<path class="st0" d="M263.3,183.6v10.2c0,0.8,0,1.6,0.1,2.2H262l-0.1-1.5l0,0c-0.5,0.9-1.5,1.7-2.9,1.7c-2,0-3.6-1.7-3.6-4.3
			c0-2.8,1.7-4.5,3.8-4.5c1.3,0,2.2,0.6,2.6,1.3l0,0v-5.1L263.3,183.6L263.3,183.6z M261.7,191c0-0.2,0-0.5-0.1-0.6
			c-0.2-1-1.1-1.8-2.2-1.8c-1.6,0-2.5,1.4-2.5,3.3c0,1.7,0.8,3.1,2.5,3.1c1,0,2-0.7,2.3-1.8c0.1-0.2,0.1-0.4,0.1-0.7L261.7,191
			L261.7,191z"/>
		<path class="st0" d="M266.7,192c0,2.1,1.4,2.9,2.9,2.9c1.1,0,1.8-0.2,2.3-0.4l0.3,1.1c-0.5,0.2-1.5,0.5-2.8,0.5
			c-2.6,0-4.2-1.7-4.2-4.3s1.5-4.6,4-4.6c2.8,0,3.5,2.4,3.5,4c0,0.3,0,0.6-0.1,0.7h-5.9L266.7,192L266.7,192z M271.2,190.9
			c0-1-0.4-2.5-2.1-2.5c-1.6,0-2.2,1.4-2.4,2.5H271.2z M271.6,183.9l-2.1,2.5h-1.1l1.5-2.5H271.6z"/>
		<path class="st0" d="M280.6,195.7c-0.4,0.2-1.3,0.5-2.4,0.5c-2.6,0-4.2-1.7-4.2-4.3s1.8-4.5,4.5-4.5c0.9,0,1.7,0.2,2.1,0.4
			l-0.3,1.2c-0.4-0.2-0.9-0.4-1.8-0.4c-1.9,0-3,1.4-3,3.2c0,2,1.3,3.2,2.9,3.2c0.9,0,1.5-0.2,1.9-0.4L280.6,195.7z"/>
		<path class="st0" d="M282.4,183.6h1.5V196h-1.5V183.6z"/>
		<path class="st0" d="M288.3,185.1c0,0.5-0.4,0.9-1,0.9c-0.5,0-0.9-0.4-0.9-0.9s0.4-1,1-1C287.9,184.2,288.3,184.6,288.3,185.1z
			 M286.6,196v-8.5h1.5v8.5H286.6z"/>
		<path class="st0" d="M290.6,189.8c0-0.9,0-1.6-0.1-2.3h1.4l0.1,1.4l0,0c0.4-0.8,1.4-1.6,2.8-1.6c1.2,0,3,0.7,3,3.6v5.1h-1.5v-4.9
			c0-1.4-0.5-2.5-2-2.5c-1,0-1.8,0.7-2.1,1.6c-0.1,0.2-0.1,0.5-0.1,0.7v5.1h-1.5L290.6,189.8L290.6,189.8z"/>
		<path class="st0" d="M300.1,194.4c0.5,0.3,1.3,0.6,2,0.6c1.1,0,1.6-0.6,1.6-1.3s-0.4-1.1-1.6-1.6c-1.5-0.5-2.2-1.4-2.2-2.4
			c0-1.4,1.1-2.5,2.9-2.5c0.9,0,1.6,0.2,2.1,0.5l-0.4,1.1c-0.3-0.2-0.9-0.5-1.7-0.5c-0.9,0-1.4,0.5-1.4,1.2s0.5,1,1.6,1.4
			c1.5,0.6,2.2,1.3,2.2,2.6c0,1.5-1.2,2.5-3.2,2.5c-0.9,0-1.8-0.2-2.4-0.6L300.1,194.4z"/>
		<path class="st0" d="M318.3,183.6v10.2c0,0.8,0,1.6,0.1,2.2H317l-0.1-1.5l0,0c-0.5,0.9-1.5,1.7-2.9,1.7c-2,0-3.6-1.7-3.6-4.3
			c0-2.8,1.7-4.5,3.8-4.5c1.3,0,2.2,0.6,2.6,1.3l0,0v-5.1L318.3,183.6L318.3,183.6z M316.8,191c0-0.2,0-0.5-0.1-0.6
			c-0.2-1-1.1-1.8-2.2-1.8c-1.6,0-2.5,1.4-2.5,3.3c0,1.7,0.8,3.1,2.5,3.1c1,0,2-0.7,2.3-1.8c0.1-0.2,0.1-0.4,0.1-0.7L316.8,191
			L316.8,191z"/>
		<path class="st0" d="M321.7,192c0,2.1,1.4,2.9,2.9,2.9c1.1,0,1.8-0.2,2.3-0.4l0.3,1.1c-0.5,0.2-1.5,0.5-2.8,0.5
			c-2.6,0-4.2-1.7-4.2-4.3s1.5-4.6,4-4.6c2.8,0,3.5,2.4,3.5,4c0,0.3,0,0.6-0.1,0.7h-5.9L321.7,192L321.7,192z M326.2,190.9
			c0-1-0.4-2.5-2.1-2.5c-1.6,0-2.2,1.4-2.4,2.5H326.2z"/>
		<path class="st0" d="M329.4,194.4c0.5,0.3,1.3,0.6,2,0.6c1.1,0,1.6-0.6,1.6-1.3s-0.4-1.1-1.6-1.6c-1.5-0.5-2.2-1.4-2.2-2.4
			c0-1.4,1.1-2.5,2.9-2.5c0.9,0,1.6,0.2,2.1,0.5l-0.4,1.1c-0.3-0.2-0.9-0.5-1.7-0.5c-0.9,0-1.4,0.5-1.4,1.2s0.5,1,1.6,1.4
			c1.5,0.6,2.2,1.3,2.2,2.6c0,1.5-1.2,2.5-3.2,2.5c-0.9,0-1.8-0.2-2.4-0.6L329.4,194.4z"/>
		<path class="st0" d="M344.9,196l-0.1-1.1h-0.1c-0.5,0.7-1.4,1.3-2.6,1.3c-1.7,0-2.6-1.2-2.6-2.4c0-2,1.8-3.2,5.1-3.1v-0.2
			c0-0.7-0.2-2-1.9-2c-0.8,0-1.6,0.2-2.2,0.6l-0.4-1c0.7-0.5,1.7-0.8,2.8-0.8c2.6,0,3.2,1.8,3.2,3.5v3.2c0,0.7,0,1.5,0.1,2H344.9z
			 M344.7,191.7c-1.7,0-3.6,0.3-3.6,1.9c0,1,0.7,1.5,1.5,1.5c1.1,0,1.8-0.7,2-1.4c0.1-0.2,0.1-0.3,0.1-0.5V191.7z"/>
		<path class="st0" d="M348.6,196c0-0.6,0.1-1.4,0.1-2.2v-10.2h1.5v5.3l0,0c0.5-0.9,1.5-1.6,2.9-1.6c2.1,0,3.6,1.7,3.6,4.3
			c0,3-1.9,4.5-3.8,4.5c-1.2,0-2.2-0.5-2.8-1.6H350l-0.1,1.4h-1.3V196z M350.2,192.6c0,0.2,0,0.4,0.1,0.6c0.3,1.1,1.2,1.8,2.3,1.8
			c1.6,0,2.6-1.3,2.6-3.3c0-1.7-0.9-3.1-2.5-3.1c-1,0-2,0.7-2.3,1.9c0,0.2-0.1,0.4-0.1,0.6v1.5H350.2z"/>
		<path class="st0" d="M359.5,192c0,2.1,1.4,2.9,2.9,2.9c1.1,0,1.8-0.2,2.3-0.4l0.3,1.1c-0.5,0.2-1.5,0.5-2.8,0.5
			c-2.6,0-4.2-1.7-4.2-4.3s1.5-4.6,4-4.6c2.8,0,3.5,2.4,3.5,4c0,0.3,0,0.6-0.1,0.7h-5.9L359.5,192L359.5,192z M364,190.9
			c0-1-0.4-2.5-2.1-2.5c-1.6,0-2.2,1.4-2.4,2.5H364z"/>
		<path class="st0" d="M369.1,185.1c0,0.5-0.4,0.9-1,0.9c-0.5,0-0.9-0.4-0.9-0.9s0.4-1,1-1C368.7,184.2,369.1,184.6,369.1,185.1z
			 M367.4,196v-8.5h1.5v8.5H367.4z"/>
		<path class="st0" d="M371.5,183.6h1.5V196h-1.5V183.6z"/>
		<path class="st0" d="M375.6,183.6h1.5V196h-1.5V183.6z"/>
		<path class="st0" d="M380.6,192c0,2.1,1.4,2.9,2.9,2.9c1.1,0,1.8-0.2,2.3-0.4l0.3,1.1c-0.5,0.2-1.5,0.5-2.8,0.5
			c-2.6,0-4.2-1.7-4.2-4.3s1.5-4.6,4-4.6c2.8,0,3.5,2.4,3.5,4c0,0.3,0,0.6-0.1,0.7h-5.9L380.6,192L380.6,192z M385.1,190.9
			c0-1-0.4-2.5-2.1-2.5c-1.6,0-2.2,1.4-2.4,2.5H385.1z"/>
		<path class="st0" d="M388.3,194.4c0.5,0.3,1.3,0.6,2,0.6c1.1,0,1.6-0.6,1.6-1.3s-0.4-1.1-1.6-1.6c-1.5-0.5-2.2-1.4-2.2-2.4
			c0-1.4,1.1-2.5,2.9-2.5c0.9,0,1.6,0.2,2.1,0.5l-0.4,1.1c-0.3-0.2-0.9-0.5-1.7-0.5c-0.9,0-1.4,0.5-1.4,1.2s0.5,1,1.6,1.4
			c1.5,0.6,2.2,1.3,2.2,2.6c0,1.5-1.2,2.5-3.2,2.5c-0.9,0-1.8-0.2-2.4-0.6L388.3,194.4z"/>
	</g>
	<g>
		<g>
			<path class="st0" d="M98.4,226.5h-0.8c0.1-35.8,9.6-71.1,27.6-102s43.9-56.6,75.1-74.4l0.4,0.7c-31,17.7-56.9,43.3-74.8,74.1
				C108,155.6,98.5,190.8,98.4,226.5z"/>
		</g>
		<g>
			<g>
				<path class="st0" d="M98.1,231.2c0.8-2.3,2.2-5.1,3.7-6.8l-3.8,1.4l-3.8-1.3C95.8,226.2,97.2,229,98.1,231.2z"/>
			</g>
		</g>
		<g>
			<g>
				<path class="st0" d="M204.7,48.1c-1.6,1.8-3.3,4.5-4.1,6.6l-0.7-4l-3-2.6C199.2,48.6,202.3,48.5,204.7,48.1z"/>
			</g>
		</g>
	</g>
	<g>
		<g>
			<path class="st0" d="M554.9,226.5c-0.1-35.7-10.2-70.8-29.3-101.6c-19.2-30.9-46.8-56.5-80-74.2L446,50
				c33.3,17.8,61.1,43.5,80.3,74.5c19.2,30.9,29.4,66.2,29.5,102H554.9z"/>
		</g>
		<g>
			<g>
				<path class="st0" d="M555.3,231.2c0.8-2.3,2.3-5,3.8-6.8l-3.8,1.3l-3.8-1.4C553,226.2,554.4,229,555.3,231.2z"/>
			</g>
		</g>
		<g>
			<g>
				<path class="st0" d="M441.5,48.1c2.4,0.3,5.5,0.3,7.8-0.2l-3,2.7l-0.6,4C444.9,52.4,443.1,49.9,441.5,48.1z"/>
			</g>
		</g>
	</g>
	<g>
		<g>
			<path class="st0" d="M322.7,317.6C322.7,317.6,322.6,317.6,322.7,317.6c-36.4,0-71.8-10-102.2-28.8l0.4-0.7
				c30.3,18.8,65.5,28.7,101.8,28.7l0,0c36.3,0,72.7-10,105.2-28.8l0.4,0.7C395.7,307.6,359.1,317.6,322.7,317.6z"/>
		</g>
		<g>
			<g>
				<path class="st0" d="M216.6,285.8c1.5,1.9,3.1,4.6,3.7,6.8l0.9-3.9l3.2-2.5C222.1,286.6,219,286.3,216.6,285.8z"/>
			</g>
		</g>
		<g>
			<g>
				<path class="st0" d="M432.2,285.9c-1.5,1.9-3.2,4.5-3.9,6.7l-0.7-4l-3.1-2.6C426.7,286.5,429.9,286.3,432.2,285.9z"/>
			</g>
		</g>
	</g>
	<g>
		<g>
			
				<rect x="195.7" y="259.7" transform="matrix(0.9084 -0.4181 0.4181 0.9084 -87.4774 120.9108)" class="st0" width="73" height="0.8"/>
		</g>
		<g>
			<g>
				<path class="st0" d="M269.7,242.8c-1.7,1.7-3.6,4.2-4.6,6.3l-0.3-4l-2.8-2.9C264.2,242.9,267.3,243,269.7,242.8z"/>
			</g>
		</g>
	</g>
	<g>
		<g>
			<rect x="324" y="86.6" class="st0" width="0.8" height="50.7"/>
		</g>
		<g>
			<g>
				<path class="st0" d="M324.4,142.1c-0.8-2.3-2.3-5.1-3.8-6.8l3.8,1.4l3.8-1.4C326.7,137,325.3,139.8,324.4,142.1z"/>
			</g>
		</g>
	</g>
	<g>
		<g>
			
				<rect x="409.7" y="221.2" transform="matrix(0.4687 -0.8833 0.8833 0.4687 -8.7785 498.6259)" class="st0" width="0.8" height="70.8"/>
		</g>
		<g>
			<g>
				<path class="st0" d="M374.7,237.8c2.4,0.3,5.5,0.4,7.8-0.2l-3,2.7l-0.6,4C378.1,242.1,376.3,239.6,374.7,237.8z"/>
			</g>
		</g>
	</g>
</g>
</svg>
