<?xml version="1.0" encoding="utf-8"?>
<!-- Generator: Adobe Illustrator 24.3.0, SVG Export Plug-In . SVG Version: 6.00 Build 0)  -->
<svg version="1.1" id="Calque_2_1_" xmlns="http://www.w3.org/2000/svg" xmlns:xlink="http://www.w3.org/1999/xlink" x="0px"
	 y="0px" viewBox="0 0 841.9 595.3" style="enable-background:new 0 0 841.9 595.3;" xml:space="preserve">
<style type="text/css">
	.st0{fill:#AC4B1C;}
	.st1{enable-background:new    ;}
	.st2{fill:#AC4B1C;stroke:#000000;stroke-miterlimit:10;}
</style>
<g>
	<path class="st0" d="M499,355.5h-2.4c-6-0.2-11.9-1-17.5-2.3l-0.9-0.2l0.6-0.6c1.5-1.5,2.7-3,3.9-4.8c1.6-2.4,3.3-3.7,5.2-3.9
		c2.1-0.2,4.3,1.1,6.8,3.8c1.8,1.8,2.8,4.2,3.9,7.4L499,355.5z M480.2,352.4c5.3,1.2,10.8,1.9,16.4,2.1h1c-0.9-2.7-1.9-4.8-3.5-6.3
		c-2.3-2.5-4.3-3.6-6-3.5c-1.6,0.1-3.1,1.3-4.5,3.4C482.6,349.7,481.4,351.1,480.2,352.4z"/>
</g>
<g>
	<path class="st0" d="M514.5,355.4l-0.2-0.2c-6.2-7-11.2-13-15-17.7c-8.6-10.8-22.4-1.5-30.7,4c-1.2,0.8-2.2,1.5-3.1,2
		c-1.1,0.7-2.2,1.4-3.3,2l-0.3,0.1l-0.3-0.2c-3.9-2.6-7.3-5.7-10.5-9.4c-6.3-7.3-9.7-8.5-15.1-8.5h-0.2c-0.1,0-1.6-0.7-3.2-1.8
		c-4.1-2.9-5.4-5.7-3.9-8.1c0.6-0.9,1.3-1.7,2.5-2.5c8.1-5,9.5-14.9,12.4-34.5l0.2-1.6c0.8-5.4,3.7-9.7,8.8-12.9
		c12.6-8,38-7.9,64.8,0.2c35.6,10.7,48.8,28.1,60.5,43.6c9.3,12.4,9.9,23.6,10.3,31.7c0.1,2.8,0.3,5.1,0.7,7.2
		c0.5,2.8,0.4,4.3-0.4,5.1c-1.1,1-3,0.7-6.1,0c-2.3-0.5-5.2-1-8.8-1.3l0,0c-5.2-0.4-15.8,0.3-28,1.1c-9.6,0.6-20.5,1.3-30.8,1.6
		L514.5,355.4z M489.3,331.6c3.9,0,7.6,1.4,10.8,5.3c3.7,4.7,8.7,10.6,14.8,17.5c10.2-0.3,21-1,30.5-1.6c12.3-0.8,22.9-1.5,28.2-1.1
		c3.7,0.2,6.6,0.8,8.9,1.3c2.6,0.5,4.5,0.9,5.2,0.2c0.5-0.5,0.6-1.8,0.1-4.2c-0.4-2.2-0.6-4.6-0.7-7.4c-0.4-8-1-18.9-10.1-31.1
		c-11.6-15.3-24.7-32.7-59.9-43.2c-26.5-8-51.6-8.2-64-0.3c-4.8,3-7.6,7.1-8.3,12.2l-0.2,1.6c-2.9,19.9-4.3,29.9-12.8,35.2
		c-1.1,0.7-1.8,1.4-2.2,2.1c-1.1,1.9,0.1,4.2,3.7,6.7c1.3,0.9,2.6,1.5,2.9,1.7c5.7,0,9.3,1.3,15.8,8.9c3.1,3.6,6.4,6.5,10,9
		c1-0.6,2-1.2,3-1.8c0.9-0.5,1.9-1.2,3-2C473.4,337.1,481.7,331.6,489.3,331.6z"/>
</g>
<g>
	<path class="st0" d="M430,354.3c-1.1,0-2.4-0.1-3.7-0.4c-3.9-0.8-7.6-1.8-9.1-4.6c-1.1-2-0.9-4.7,0.5-8.4c0.4-1.1,0.8-2.8,1.2-4.6
		c1.2-5.1,2.5-11,6.1-11c0,0,0,0,0.1,0c3.4,0.1,5,2.7,6.6,5.2c0.6,1,1.1,1.9,1.8,2.6c2.6,3,3.1,8.1,3.5,13.5c0.2,2.7-0.5,4.8-2,6.1
		C433.8,353.8,432.2,354.3,430,354.3z M425,326.4c-2.8,0-4.1,5.6-5.1,10.2c-0.4,1.8-0.8,3.5-1.3,4.7l0,0c-1.3,3.4-1.5,5.8-0.6,7.5
		c1.2,2.2,4,3.1,8.4,4.1c3.6,0.8,6.3,0.5,7.9-0.9c1.3-1.1,1.8-2.9,1.6-5.3c-0.4-5.2-0.9-10.1-3.3-12.9c-0.7-0.8-1.3-1.8-1.9-2.7
		C429.4,328.7,428,326.5,425,326.4C425.1,326.4,425.1,326.4,425,326.4z"/>
</g>
<g>
	<path class="st0" d="M440.1,362.1c-0.7,0-1.6-0.5-2.2-0.8c-3.6-2.4-5.3-7.4-5.4-7.6l0.9-0.3c0,0,1.7,4.9,5,7
		c1.3,0.8,1.8,0.7,1.9,0.6c0.7-0.4,0.4-3.2,0.1-5.2c-0.3-2.8,2.1-3.9,3.7-4.7c0.7-0.3,1.5-0.7,1.6-1c0-0.1,0-0.2-0.1-0.3
		c-1-1.5-3.5-4.6-10-8.3l0.5-0.9c5,2.9,8.6,5.9,10.4,8.7c0.2,0.4,0.3,0.8,0.2,1.1c-0.2,0.7-1.1,1.1-2.1,1.6
		c-1.6,0.7-3.4,1.6-3.1,3.7c0.4,3.3,0.5,5.4-0.6,6.1C440.7,362,440.4,362.1,440.1,362.1z"/>
</g>
<g>
	<path class="st0" d="M520.7,394.6c-0.8,0-1.7-0.1-2.5-0.3c-2.2-0.5-4.1-1.8-5.9-3.9c-2.4-2.9-4.3-6.7-6.3-12.4
		c-0.6-1.7-1.2-3.4-1.7-5.1c-0.9-2.8-1.8-5.4-2.9-7.9c-1.1-2.8-2-5.2-2.7-7.4c-0.3-0.9-0.6-1.8-0.9-2.6c-1-2.8-2-5.2-3.7-7
		c-2.4-2.5-4.3-3.6-6.1-3.5c-1.5,0.1-3,1.3-4.4,3.4c-1,1.5-2.4,3.2-4.1,5l-0.7-0.7c1.6-1.7,3-3.4,3.9-4.8c1.6-2.4,3.3-3.7,5.2-3.9
		c2.7-0.2,5.3,2.1,6.9,3.8c1.8,1.9,2.8,4.5,3.9,7.4c0.3,0.8,0.6,1.7,0.9,2.7c0.7,2.2,1.6,4.6,2.7,7.3c1.1,2.5,1.9,5.2,2.9,8
		c0.6,1.7,1.1,3.4,1.7,5c1.9,5.5,3.8,9.2,6.1,12.1c1.6,1.8,3.4,3,5.3,3.5c3.9,1,8.5-0.7,12.2-4.5c0.7-0.7,1.3-1.5,1.7-2.1
		c2.5-3.9,1.5-8.5-2.9-14c-1.9-2.4-5.7-6.6-10-11.4c-1.7-1.9-3.6-4-5.4-6.1c-5.2-5.9-10.6-12.2-15-17.7c-8.6-10.8-22.4-1.5-30.7,4
		c-1.2,0.8-2.2,1.5-3.1,2c-1.1,0.7-2.2,1.4-3.3,2l-0.5-0.9c1.1-0.6,2.2-1.3,3.3-2c0.9-0.5,1.9-1.2,3-2c8-5.3,22.8-15.3,32-3.8
		c4.4,5.5,9.8,11.8,15,17.7c1.9,2.1,3.7,4.2,5.4,6.1c4.3,4.9,8.1,9.1,10,11.5c4.6,5.8,5.6,10.9,2.9,15.2c-0.5,0.7-1.1,1.6-1.9,2.3
		C528.1,392.8,524.3,394.6,520.7,394.6z"/>
</g>
<g>
	<path class="st0" d="M456.6,366c-7.8,0-15.5-3.8-15.9-4l0.4-0.9c0.1,0,9.6,4.7,17.8,3.8c6.5-0.8,14.8-7.3,19.9-12.5l0.7,0.7
		c-5.2,5.4-13.7,12-20.5,12.8C458.3,366,457.5,366,456.6,366z"/>
</g>
<g>
	<path class="st0" d="M449.2,350.5c-1.1,0-2.1-0.1-3.2-0.4l0.3-1c5.2,1.4,10.1-1.2,15.4-4.4l0.5,0.9
		C457.7,348.2,453.5,350.5,449.2,350.5z"/>
</g>
<g>
	<path class="st0" d="M549.7,428.9c-2.5,0-5.6-0.9-9.5-3.5c-14.7-9.9-22.3-25.8-22.3-31.5h1c0,5.4,7.7,21.1,21.9,30.7
		c8.1,5.5,12.8,3,14.8,1c2.9-2.8,3.5-7.3,2.2-9.4c-1.1-1.7-3.2-4.5-5.4-7.4c-3.9-5.2-8.3-11.1-9.9-14.3l-0.3-0.7
		c-2.2-4.6-3.2-6.9-9.4-6.1l-0.1-1c6.8-0.9,8.2,2,10.4,6.7l0.3,0.7c1.6,3.1,5.9,9,9.8,14.2c2.3,3.1,4.3,5.7,5.4,7.5
		c1.6,2.4,0.9,7.5-2.3,10.6C555.2,427.3,553.1,428.9,549.7,428.9z"/>
</g>
<g>
	<path class="st0" d="M520.4,402.2c-2-0.4-4-0.8-6-1.6c-2-0.8-3.9-2.1-5.2-3.6c-1.6-2-2.2-4.6-2.6-6.8c-0.7-4-0.9-8.1-0.6-12.1
		l1,0.1c-0.3,3.9-0.1,7.9,0.6,11.9c0.4,2.1,0.9,4.5,2.4,6.4c1.2,1.5,2.9,2.6,4.8,3.3c1.9,0.8,3.9,1.2,5.8,1.6L520.4,402.2z"/>
</g>
<g>
	<rect x="506" y="377.8" class="st0" width="1" height="0.2"/>
</g>
<g>
	<path class="st0" d="M546.5,441.1c-0.6,0-1.2-0.1-1.8-0.2c-2-0.4-3.7-1.7-5.4-2.9c-7.2-5.6-11.7-13.7-16.1-21.5l-0.3-0.6
		c-2.5-4.7-5.2-9.6-5.8-14.9l1-0.1c0.6,5.1,3.2,9.9,5.7,14.5l0.3,0.5c4.4,7.8,8.9,15.7,15.9,21.2c1.6,1.2,3.2,2.3,5,2.7
		c2.1,0.5,4.4,0,6.4-1.3c1.9-1.3,3.3-3,3.7-4.8c0.5-2-0.2-4.3-1.5-5.5l0.7-0.8c1.7,1.5,2.4,4.1,1.9,6.5c-0.5,2-2,4-4.1,5.4
		C550.2,440.5,548.3,441.1,546.5,441.1z"/>
</g>
<g>
	<path class="st0" d="M587,451.5c-0.3,0-0.6-0.1-0.8-0.1c-1.4-0.5-2.5-1.7-3.3-3.8l-0.1-0.2c-0.6-1.4-1.1-2.8-2.3-3.6
		c-0.7-0.6-1.6-0.8-2.6-1c-0.3-0.1-0.5-0.1-0.8-0.2c-1.6-0.3-2.8-1-3.5-2c-0.1-0.3-0.2-0.5-0.3-0.8c-0.2-0.4-0.3-0.8-0.5-1.1
		c-0.6-0.7-1.5-0.8-2.7-0.9c-0.9-0.1-1.8-0.2-2.6-0.6c-0.7-0.4-1.3-1-1.8-1.5c-0.3-0.3-0.6-0.7-1-0.9c-1-0.8-2.6-1.2-4.2-1.1
		c-1.4,0.1-2.9,0.4-4.6,1l-0.3-0.9c1.8-0.6,3.4-0.9,4.8-1c1.8-0.1,3.6,0.4,4.8,1.3c0.4,0.3,0.7,0.7,1.1,1c0.5,0.5,1,1,1.6,1.3
		s1.5,0.4,2.2,0.5c1.3,0.1,2.6,0.2,3.4,1.4c0.3,0.4,0.5,0.9,0.7,1.3c0.1,0.2,0.2,0.5,0.3,0.7c0.6,1,1.9,1.4,2.8,1.5
		c0.3,0.1,0.6,0.1,0.8,0.2c1,0.2,2.1,0.4,3,1.1c1.3,0.9,2,2.5,2.6,4l0.1,0.2c0.7,1.8,1.6,2.8,2.7,3.2c0.3,0.1,0.6,0.1,0.8,0
		c0.7-0.2,0.8-1.1,0.6-2c-0.4-1.5-1.5-2.6-2.7-3.8c-1-1-2-2-2.6-3.2c-0.3-0.6-0.6-1.3-0.8-1.9c-0.4-1.1-0.7-2.1-1.6-2.7
		c-0.8-0.6-1.8-0.8-2.9-1.1c-1.4-0.3-2.8-0.5-3.7-1.6c-0.4-0.5-0.7-1.2-1-1.8c-0.3-0.7-0.6-1.4-1.1-1.8c-0.8-0.7-2-0.6-3.3-0.6
		c-1.3,0.1-2.6,0.2-3.7-0.5c-0.9-0.5-1.5-1.3-2-2c-0.5-0.6-0.9-1.2-1.5-1.6c-1.1-0.6-3-0.3-4.5,0l-0.3,0.1l-0.2-1l0.3-0.1
		c1.7-0.3,3.7-0.7,5.2,0.1c0.8,0.5,1.3,1.2,1.8,1.9c0.5,0.7,1,1.4,1.7,1.7c0.9,0.5,2,0.4,3.2,0.4c1.4-0.1,2.9-0.2,4,0.8
		c0.7,0.6,1,1.4,1.4,2.2c0.2,0.6,0.5,1.1,0.8,1.6c0.7,0.8,1.9,1,3.1,1.3c1.2,0.2,2.4,0.5,3.3,1.2c1.1,0.8,1.5,2,1.9,3.2
		c0.2,0.6,0.4,1.2,0.7,1.8c0.6,1.1,1.5,2.1,2.5,3c1.3,1.3,2.6,2.6,3,4.3c0.2,1.2,0,2.7-1.2,3.1C587.4,451.5,587.2,451.5,587,451.5z"
		/>
</g>
<g>
	<path class="st0" d="M580.1,464.4c-0.2,0-0.4-0.1-0.6-0.2c-0.6-0.4-0.6-1.2-0.6-1.8v-0.3c0-1.6-1.8-2.5-2.6-2.8
		c-0.3-0.1-0.7-0.3-1-0.4c-1.2-0.4-2.3-0.9-3.3-1.8c-0.7-0.6-1.1-1.4-1.5-2.2c-0.6-1-1.1-1.9-2-2.3c-0.5-0.2-1.2-0.2-1.9-0.2
		c-1,0-2.1,0-2.9-0.8c-0.5-0.5-0.7-1.2-0.8-1.8c-0.1-0.5-0.3-1-0.6-1.4c-0.5-0.6-1.4-0.6-2.4-0.5c-1.1,0-2.3,0.1-3.2-0.7
		c-0.5-0.5-0.8-1.1-1-1.7c-0.2-0.4-0.3-0.7-0.5-1c-0.5-0.7-1.5-1-2.5-1.4l-0.5-0.2c-1.4-0.5-2.8-1.7-2.5-3.2l1,0.2
		c-0.1,0.9,0.8,1.7,1.9,2l0.5,0.2c1.1,0.4,2.3,0.7,3,1.7c0.3,0.4,0.5,0.8,0.6,1.2c0.2,0.5,0.4,1,0.8,1.3c0.6,0.6,1.5,0.5,2.5,0.5
		c1.1,0,2.4-0.1,3.2,0.9c0.5,0.5,0.7,1.2,0.8,1.8c0.1,0.5,0.3,1,0.6,1.4c0.5,0.5,1.3,0.5,2.2,0.5c0.7,0,1.5,0,2.2,0.3
		c1.3,0.5,1.9,1.6,2.5,2.7c0.4,0.7,0.8,1.4,1.3,2c0.8,0.8,1.8,1.2,2.9,1.6c0.3,0.1,0.7,0.3,1,0.4c2,0.9,3.2,2.2,3.2,3.8v0.3
		c0,0.4,0,0.9,0.2,1c0.1,0,0.1,0,0.2,0c0.1-0.1,0.3-0.2,0.4-0.4c0.6-0.9,0.5-2.3-0.4-4.1c-0.2-0.5-0.8-1-1.4-1.7
		c-1.1-1.2-2.3-2.4-2.1-3.6c0-0.4,0.2-0.9,0.3-1.3c0.2-0.6,0.4-1.2,0.2-1.8c-0.2-0.8-1-1.3-1.4-1.5l-0.2-0.1
		c-0.8-0.5-0.8-0.5-1.3-0.7c-0.2-0.1-0.6-0.2-1.2-0.5c-0.3-0.1-0.6-0.1-0.9-0.2c-0.5-0.1-1.1-0.2-1.6-0.6c-0.4-0.3-0.7-0.7-1-1.1
		c-0.2-0.2-0.3-0.5-0.5-0.6c-0.9-0.9-2.2-0.9-3.6-1c-1.5-0.1-3.1-0.1-4.3-1.2c-0.6-0.6-0.9-1.3-1.2-2c-0.3-0.8-0.6-1.5-1.2-1.9
		c-0.7-0.5-1.6-0.6-2.6-0.7c-1.5-0.1-2.5-0.7-3-1.7l0.9-0.5c0.5,0.9,1.7,1.1,2.2,1.1c1.1,0.1,2.3,0.2,3.2,0.9
		c0.8,0.6,1.2,1.5,1.5,2.3c0.3,0.6,0.5,1.3,0.9,1.7c0.9,0.9,2.2,0.9,3.6,1c1.5,0.1,3.1,0.1,4.3,1.2c0.2,0.2,0.4,0.5,0.6,0.8
		c0.2,0.3,0.4,0.7,0.7,0.8c0.3,0.2,0.8,0.3,1.2,0.4c0.3,0.1,0.7,0.1,1.1,0.3c0.6,0.2,0.9,0.4,1.2,0.5c0.6,0.2,0.6,0.2,1.5,0.8
		l0.2,0.1c1,0.5,1.7,1.3,1.9,2.1c0.2,0.8,0,1.6-0.2,2.3c-0.1,0.4-0.2,0.8-0.3,1.1c-0.1,0.8,1,1.9,1.9,2.8c0.7,0.7,1.3,1.3,1.6,1.9
		c1,2.2,1.1,3.9,0.3,5.1c-0.2,0.3-0.5,0.5-0.8,0.7C580.5,464.4,580.3,464.4,580.1,464.4z"/>
</g>
<g>
	
		<rect x="386.3" y="288.2" transform="matrix(0.3512 -0.9363 0.9363 0.3512 -20.1156 549.9365)" class="st0" width="1" height="2.6"/>
</g>
<g>
	<path class="st0" d="M428.9,318.3c-0.2-0.1-4.3-3.6-6.8-11.4c-2.5-8.1-5.6-15.3-16.7-13.9c-0.2,0-0.3,0-0.4,0
		c-0.2,0-0.3,0.1-0.5,0.1v-1c0.1,0,0.2,0,0.3,0c0.2,0,0.3-0.1,0.5-0.1c11.7-1.5,15.2,6.4,17.7,14.6c2.3,7.5,6.4,10.9,6.4,11
		L428.9,318.3z"/>
</g>
<g>
	<path class="st0" d="M389.6,360.8c-3.4,0-6.9-0.8-10.3-2.7c-5.2-3-8.6-6-11.6-8.7c-2-1.8-4-3.5-6.2-5c-3.5-2.4-7.9-3.9-13.8-4.9
		c-17.3-2.9-29.8-4.2-30-4.2l-0.7-0.1l9.2-20.5c0.2-0.9,1.7-9.6,7.7-15c0.8-0.7,1.7-1.6,2.8-2.6c6.1-6,16.4-16.1,30.4-14.1l-0.1,1
		c-13.6-1.9-23.6,7.9-29.6,13.8c-1.1,1-2,1.9-2.8,2.7c-6,5.4-7.4,14.4-7.4,14.5v0.1l-8.6,19.3c2.9,0.3,14.3,1.6,29.3,4.1
		c6,1,10.5,2.6,14.2,5.1c2.3,1.5,4.3,3.3,6.3,5.1c3,2.6,6.3,5.6,11.4,8.6c12.4,7,26.4-2.2,34.8-7.7c0.9-0.6,1.7-1.1,2.4-1.6l0.5,0.8
		c-0.7,0.5-1.5,1-2.4,1.6C408.8,354.6,399.4,360.8,389.6,360.8z"/>
</g>
<g>
	
		<rect x="428.8" y="326.1" transform="matrix(0.8079 -0.5893 0.5893 0.8079 -109.6642 316.7595)" class="st0" width="4.6" height="1"/>
</g>
<g>
	<path class="st0" d="M368.4,307.8c-2.1,0-3.2-0.3-3.7-0.9c-0.5-0.7-0.3-1.5,0-2.6c0.5-1.8,1.2-4.3-0.9-7.8
		c-0.5-0.8-0.9-1.4-1.3-1.8l-0.3-0.3l0.3-0.3c1.4-1.8,2.9-5.6,4.2-10.7c2.5-10.1,4.5-25.2,4.9-37.8c0.4-12.7,4-36.4,6.9-55.4
		c1.4-9.2,2.6-17.2,3.2-22.6l0.3-2.7c2.2-18,6.8-55.4,29.9-78.4c15.6-15.6,24.9-23.2,32.3-21.8c4.4,0.8,7.8,4.8,11.3,12.8
		c2.4,5.6,5,10.5,7.5,15.2c6.8,12.8,12.7,23.9,11.3,42.7h-0.5h0.5c-0.1,1.5-0.2,2.9-0.3,4.3c-1.6,21.7-1.6,23-18.4,37.7
		c-17.6,15.6-27.4,26.1-46.8,61.3c-12.9,23.2-19.6,40.2-23,50.4c-2,6.3-3.2,11.4-3.3,14.5v0.4l-0.4,0.1c-1.8,0.2-3.4,0.9-5,1.6
		c-2.4,1-4.8,2.1-8.4,2.2C368.6,307.8,368.5,307.8,368.4,307.8z M363.4,294.3c0.4,0.5,0.8,1.1,1.2,1.7c2.3,3.9,1.5,6.7,1,8.6
		c-0.2,0.8-0.4,1.5-0.2,1.7c0.3,0.4,1.4,0.5,3.2,0.5c3.4-0.1,5.8-1.1,8-2.1c1.6-0.7,3.1-1.4,4.9-1.7c0.2-3.2,1.4-8.2,3.3-14.3
		c3.4-10.2,10.1-27.3,23-50.6c19.5-35.3,29.3-45.8,47-61.5c16.4-14.5,16.5-15.7,18-37.1c0.1-1.4,0.2-2.8,0.3-4.3
		c1.4-18.6-4.5-29.5-11.2-42.2c-2.5-4.7-5.1-9.7-7.5-15.3c-3.3-7.5-6.6-11.4-10.6-12.2c-6.9-1.3-16.4,6.5-31.4,21.5
		c-22.9,22.8-27.4,59.9-29.6,77.8l-0.3,2.7c-0.6,5.4-1.9,13.3-3.2,22.6c-2.9,19-6.4,42.6-6.8,55.3c-0.4,12.6-2.4,27.9-4.9,38
		C366.3,288.6,364.9,292.3,363.4,294.3z"/>
</g>
<g>
	<rect x="381.6" y="303.6" class="st0" width="1" height="0.1"/>
</g>
<g>
	<path class="st0" d="M362.6,295v-0.9l0.6,0.6l-0.4-0.4l0.4,0.3C363,294.9,362.8,295,362.6,295z M362.3,294.2c0-0.1,0.1-0.1,0.2-0.2
		l0.1,0.1C362.4,294,362.3,294.1,362.3,294.2z"/>
</g>
<g>
	<path class="st0" d="M391.3,305c-1,0-2.2-0.2-3.7-0.6c-0.8-0.2-1.6-0.4-2.2-0.5l-0.5-0.1v-0.5c0.2-4.1,1.1-8.7,2.7-13.8
		c3.4-11.7,10.1-26.1,18.3-39.4c3.6-5.9,6.9-12.3,10.4-19c6.8-13.1,13.8-26.6,22.8-36.1s16.4-16.5,22.3-22.1c3-2.9,5.7-5.3,8-7.7
		c1.9-1.9,3.6-2.6,5.1-2.1c3.8,1.2,5.8,9.9,8.2,25.5c3.4,21.8-5,37-10.3,44.1c-2.8,3.7-5.8,6.6-8.8,9.4c-4.5,4.3-8.4,7.9-10.4,13.7
		c-3.6,10.2-14.8,18.3-29,27.8c-5.9,3.9-11.5,6.2-16.1,8c-1.2,0.5-2.3,0.9-3.4,1.4c-5.5,2.3-8.5,4.5-8.6,9.5v0.3l-0.3,0.1
		c-0.2,0.1-0.5,0.3-0.8,0.6C394.4,304.1,393.4,305,391.3,305z M385.9,303c0.6,0.1,1.2,0.3,1.9,0.4c4.5,1.3,5.8,0.2,6.8-0.7
		c0.2-0.2,0.5-0.4,0.7-0.6c0.2-5.2,3.5-7.6,9.2-10.1c1.1-0.5,2.2-0.9,3.4-1.4c4.5-1.8,10.1-4.1,15.9-7.9
		c14.1-9.4,25.1-17.4,28.6-27.2c2-6,6.2-9.9,10.6-14.1c2.9-2.7,5.9-5.6,8.7-9.3c5.2-7,13.4-21.9,10.1-43.3
		c-1.9-12.3-3.9-23.5-7.6-24.7c-1.1-0.4-2.5,0.2-4.1,1.9c-2.3,2.3-5,4.8-8,7.7c-5.9,5.6-13.3,12.5-22.3,22
		c-8.9,9.4-15.9,22.9-22.7,35.9c-3.5,6.8-6.9,13.2-10.5,19.1c-8.1,13.3-14.7,27.5-18.1,39.2C387.1,294.7,386.2,299.1,385.9,303z"/>
</g>
<g>
	<polygon class="st0" points="385.7,303.6 384.7,303.6 385.7,303.5 	"/>
</g>
<g>
	<rect x="395.2" y="302.4" class="st0" width="1" height="0.4"/>
</g>
<g>
	<path class="st0" d="M387.5,323c-0.4,0-0.9,0-1.4-0.1c-3.4-0.5-5.7-1.9-8.2-3.5c-2.6-1.6-5.6-3.5-10.6-4.5c-1.8-0.4-3.5-0.4-5-0.5
		c-4.4-0.1-7.8-0.2-8.5-8.2c-0.5-6.1,1.5-11.8,4.7-13.4c1.6-0.7,3.3-0.4,4.7,1.1c0.7,0.7,1.1,1.3,1.5,2c2.3,3.9,1.5,6.7,1,8.6
		c-0.2,0.8-0.4,1.5-0.2,1.7c0.3,0.4,1.4,0.5,3.2,0.5c3.5-0.1,5.9-1.1,8.2-2.1c1.7-0.7,3.3-1.4,5.2-1.7c1-0.1,2.1-0.2,3.3,0h0.1
		c0.7,0.1,1.5,0.2,2.3,0.5c4.5,1.2,5.7,0.1,6.7-0.8c0.3-0.3,0.6-0.6,1-0.7c0.7-0.3,1.5-0.2,2.6,0.3c0.9,0.5,1.4,1.1,1.6,1.7
		c0.3,1.2-0.6,2.4-1.5,3.8c-0.9,1.3-2,2.8-2.1,4.4l0,0c-0.6,4.6-2.1,7.7-4.3,9.4C390.5,322.5,389.1,323,387.5,323z M360.1,293.5
		c-0.4,0-0.8,0.1-1.2,0.3c-2.5,1.2-4.7,6.1-4.1,12.4c0.6,7.1,3.2,7.1,7.6,7.3c1.6,0,3.3,0.1,5.2,0.5c5.1,1.1,8.2,3,10.9,4.7
		c2.5,1.5,4.6,2.9,7.8,3.3c1.9,0.3,3.5-0.1,4.9-1.1c2-1.5,3.3-4.4,3.9-8.7c0.2-1.9,1.3-3.5,2.3-4.9c0.8-1.2,1.6-2.2,1.4-3
		c-0.1-0.4-0.4-0.7-1.1-1.1c-1-0.5-1.5-0.4-1.8-0.3c-0.2,0.1-0.5,0.3-0.8,0.6c-1.1,1-2.6,2.3-7.7,1c-0.7-0.3-1.5-0.4-2.1-0.5h-0.1
		c-1-0.2-2.1-0.1-3,0c-1.8,0.3-3.3,0.9-4.9,1.6c-2.4,1-4.9,2.1-8.5,2.2c-2.4,0-3.5-0.2-4-0.9c-0.5-0.7-0.3-1.5,0-2.6
		c0.5-1.8,1.2-4.3-0.9-7.8c-0.3-0.7-0.7-1.2-1.3-1.8C361.8,293.9,360.9,293.5,360.1,293.5z"/>
</g>
<g>
	<path class="st0" d="M301,356.8c-0.1,0-0.2,0-0.3,0c-2-0.3-4.8-3.2-8-8.5c-1.8-2.9-3.2-5.4-4.5-7.7c-3.2-5.6-5.4-9.3-8.4-12.2
		c-3.4-3.4-2.2-11.3,3.5-23.7c1-2.1,4.5-9.5,9.7-15.8c5.5-6.8,11-10,16.1-9.6h0.6c11.3,1,20.2,1.7,17.6,35.6l-1-0.1
		c2.5-32.9-5.5-33.6-16.7-34.5H309c-12.5-1.1-23.6,22.2-24.8,24.8c-5.4,11.8-6.7,19.6-3.7,22.5c3.1,3,5.3,6.8,8.6,12.4
		c1.3,2.2,2.8,4.8,4.5,7.6c3.9,6.5,6.2,7.8,7.2,8c0.4,0.1,0.6,0,0.6,0c0.1-0.1,10-10.2,16.1-21.2l0.9,0.5
		c-6.2,11-16.2,21.3-16.3,21.4C301.9,356.5,301.6,356.8,301,356.8z"/>
</g>
<g>
	<path class="st0" d="M297.3,329.6c-1.1,0-2.3-0.3-3.2-0.8c-1.4-0.7-2.5-1.9-3.7-3.7c-2.7-4.3-3-10.3-0.9-16.4
		c1.3-3.8,3.3-7.4,5.3-10.8c0.8-1.3,1.5-2.7,2.2-4.1l0.5-1c1.1-2.1,2.3-4.2,4-6c1.8-1.8,4.9-3.5,7.9-2.5c1.9,0.6,3.2,1.7,4,3.2
		c1.6,3.4,0.2,8.2-1.3,12c-1.1,2.8-1.6,5.9-2.1,8.9c-0.4,2.1-0.8,4.4-1.3,6.5c-1.2,3.4-2.7,7.3-5,10.5c-1,1.5-2.4,3.2-4.5,3.9
		C298.6,329.5,298,329.6,297.3,329.6z M307.7,285c-2.1,0-4.1,1.2-5.4,2.5c-1.6,1.7-2.7,3.8-3.8,5.8l-0.5,1c-0.7,1.4-1.5,2.7-2.3,4.1
		c-1.9,3.4-3.9,6.9-5.2,10.6c-2,5.8-1.7,11.5,0.8,15.6c1,1.6,2.1,2.7,3.3,3.3c1.3,0.7,3,0.9,4.4,0.5c1.8-0.6,3-2.2,3.9-3.5l0,0
		c2.2-3.2,3.6-6.8,4.8-10.3c0.6-2,0.9-4.2,1.3-6.3c0.5-3,1.1-6.2,2.2-9.1c1.4-3.6,2.8-8.2,1.3-11.2c-0.6-1.3-1.7-2.2-3.4-2.7
		C308.7,285,308.2,285,307.7,285z"/>
</g>
<g>
	<path class="st0" d="M282.3,362.8l-0.5-0.2c-1.8-0.9-2.1-3.4-1.5-5.3c0.2-0.6,0.4-1.1,0.6-1.6c0.4-1.1,0.8-2.1,0.8-3.2
		c0-1.9-1-3.4-2.2-5.1c-0.4-0.7-0.9-1.4-1.3-2.1c-1.4-2.7-1.9-5.8-1.5-9.4c0.4-3.3,1.4-6.5,2.3-9.1l0.9,0.3
		c-0.9,2.6-1.9,5.7-2.3,8.9c-0.4,3.4,0,6.3,1.3,8.8c0.4,0.7,0.8,1.3,1.2,2c1.1,1.7,2.3,3.5,2.3,5.7c0,1.3-0.4,2.5-0.9,3.6
		c-0.2,0.5-0.4,1-0.5,1.5c-0.4,1.3-0.3,3,0.6,3.8c0.8-1.5,2-2.8,3.1-4.1c1.2-1.4,2.5-2.9,3.3-4.7c0.3-0.6,0.6-1.2,0.8-1.9
		c0.7-1.7,1.4-3.4,2.9-4.4l0.5,0.8c-1.3,0.8-1.9,2.3-2.6,3.9c-0.3,0.7-0.5,1.3-0.9,2c-0.9,1.8-2.2,3.4-3.5,4.9
		c-1.2,1.5-2.4,2.8-3.2,4.4L282.3,362.8z"/>
</g>
<g>
	<path class="st0" d="M284.2,379.5c-1.4,0-2.9-0.6-4.1-1.7c-1.4-1.2-2.4-2.9-3.1-4.3c-0.5-1-1-2.2-1.2-3.5c-0.1-1.4,0.5-2.8,1.5-3.5
		c1.1-0.7,2.3-0.6,3.4-0.5c1,0.1,1.9,0.2,2.6-0.2c1-0.4,1.5-1.4,2.1-2.4l0.1-0.2c1.3-2.4,2.6-4.8,3.8-7.2c1.2-2.2,2.2-6.5,2.2-9.3h1
		c0,2.9-1.1,7.4-2.4,9.7c-1.2,2.4-2.5,4.8-3.8,7.1l-0.1,0.2c-0.6,1.1-1.3,2.3-2.6,2.8c-1,0.4-2.1,0.3-3.1,0.2
		c-1.1-0.1-2.1-0.2-2.8,0.3c-0.7,0.5-1.2,1.5-1.1,2.5c0.1,1.1,0.6,2.2,1,3.1c0.7,1.4,1.6,2.9,2.9,4c1.3,1.2,2.9,1.7,4.4,1.4
		c2.1-0.4,3.5-2.6,4.1-4.4c0.4-1.1,0.6-2.3,0.9-3.5c0.2-1,0.4-2.1,0.7-3.1c1.5-5,5.5-8.4,9.4-11.8l0.2-0.2l0.7,0.8l-0.2,0.2
		c-3.8,3.3-7.6,6.6-9.1,11.3c-0.3,1-0.5,2-0.7,3c-0.2,1.2-0.5,2.5-0.9,3.6c-0.7,2.1-2.4,4.6-4.9,5
		C284.9,379.5,284.6,379.5,284.2,379.5z"/>
</g>
<g>
	<path class="st0" d="M300.7,370.4c-0.6,0-1.1-0.2-1.5-0.7s-0.7-1.2-0.6-1.9c0.1-1,0.7-1.9,1.2-2.7l0.1-0.2c1.2-1.8,2-3.3,2.4-4.8
		c0.5-1.7,0.4-3.6-0.3-4.9l0.9-0.4c0.8,1.6,0.9,3.7,0.3,5.7c-0.5,1.6-1.3,3.2-2.6,5l-0.1,0.1c-0.4,0.7-0.9,1.5-1,2.2
		c0,0.4,0.1,0.8,0.4,1.1c0.1,0.2,0.4,0.3,0.7,0.3c0.3,0,0.6-0.2,1-0.5c3.9-2.7,6.4-5.5,7.6-8.7c1.5-3.8,0.9-8.2-1.7-10.7l0.7-0.7
		c2.8,2.7,3.6,7.6,1.9,11.7c-1.4,3.3-4,6.3-8,9.1C301.9,370,301.4,370.4,300.7,370.4z"/>
</g>
<g>
	<path class="st0" d="M288.8,442.9l-1.4-0.8c-6.9-3.9-11.1-12.2-10.1-20.2c0.2-1.7,0.6-3.3,1-4.9s0.8-3.3,1-5
		c0.2-1.9,0.1-3.9,0.1-5.8c-0.1-2.5-0.2-5,0.3-7.5c0.6-3,2.1-5.7,3.5-8.4c0.4-0.7,0.7-1.4,1.1-2.1c1.4-2.6,3.2-6.6,2.6-10.5l1-0.1
		c0.6,4.2-1.3,8.4-2.8,11.1c-0.4,0.7-0.7,1.4-1.1,2.1c-1.4,2.6-2.8,5.2-3.5,8.1c-0.5,2.3-0.4,4.7-0.3,7.2c0.1,1.9,0.1,4-0.1,5.9
		c-0.2,1.8-0.6,3.5-1,5.1s-0.8,3.2-1,4.8c-0.8,6.9,2.6,14.3,8.2,18.3c-3.3-7.5-3.8-16.1-1.3-23.9l0.2-0.8l0.6,0.6
		c0.6,0.6,1.3,1.3,2.2,1.4c0.5,0.1,1.1-0.1,1.4-0.4c0.2-0.1,0.2-0.3,0.2-0.5c0-0.5-0.4-1-0.7-1.4c-3-3.6-4.4-8.2-3.8-12.5
		c0.6-4.6,3.7-8.6,7.8-10.4c0.3-0.1,0.6-0.3,0.9-0.4c0.8-0.3,1.6-0.6,2.2-1.2c0.8-0.8,1-1.9,1.1-3.1c0.5-3.1,1-6.1,1.6-9.1
		c0.5-3,1-6,1.5-9l1,0.2c-0.5,3-1,6-1.6,9c-0.5,3-1,6-1.5,9c-0.2,1.3-0.4,2.7-1.4,3.7c-0.7,0.7-1.7,1.1-2.6,1.4
		c-0.3,0.1-0.6,0.2-0.9,0.4c-3.8,1.6-6.6,5.4-7.2,9.6c-0.6,4,0.8,8.4,3.6,11.7c0.5,0.6,1,1.3,1,2.1c0,0.5-0.2,0.9-0.6,1.3
		c-0.5,0.5-1.4,0.7-2.2,0.6c-0.9-0.1-1.6-0.5-2.2-1.1c-2.3,7.9-1.5,16.6,2.2,24L288.8,442.9z"/>
</g>
<g>
	<path class="st0" d="M361.5,364.4c-0.4,0-0.8-0.1-1.2-0.2c-1.2-0.3-2.1-1-3-1.7c-0.7-0.6-1.4-1.1-2.2-1.4c-0.8-0.3-1.7-0.4-2.7-0.4
		c-0.8,0-1.5-0.1-2.3-0.3c-2.7-0.8-4.3-3.2-5-4.6c-0.3-0.5-0.5-1.1-0.8-1.6c-0.7-1.4-1.4-2.8-2.3-4c-1-1.2-2.2-2.1-3.5-3.1
		c-0.9-0.7-1.8-1.4-2.7-2.2c-2.1-2.2-3.5-5.6-1.9-8l0.8,0.5c-1.3,2-0.1,4.9,1.7,6.8c0.8,0.7,1.7,1.4,2.6,2.1c1.3,1,2.6,2,3.7,3.3
		s1.8,2.8,2.5,4.2c0.3,0.5,0.5,1.1,0.8,1.6c0.6,1.2,2.1,3.4,4.4,4.1c0.6,0.2,1.3,0.2,2.1,0.2c1,0.1,2,0.1,3,0.5
		c0.9,0.3,1.7,1,2.5,1.6c0.9,0.7,1.7,1.3,2.6,1.5c1.2,0.4,2.5,0,3.4-0.9s1.3-2.3,1.1-3.4c-0.3-1.2-1-2.2-1.9-3.2
		c-0.4-0.5-0.8-0.9-1.1-1.4c-2.1-3.1-2.4-7.3-0.6-10.5l0.9,0.5c-1.6,2.9-1.3,6.7,0.6,9.5c0.3,0.5,0.7,0.9,1.1,1.4
		c0.9,1.1,1.8,2.2,2.1,3.6c0.3,1.5-0.2,3.2-1.3,4.4C363.8,363.9,362.7,364.4,361.5,364.4z"/>
</g>
<g>
	<path class="st0" d="M411.2,381.5c-0.7,0-1.4-0.2-2.1-0.5c-1.5-0.8-2.6-2.2-3.4-3.6c-0.2-0.4-0.4-0.7-0.7-1.1c-0.6-1-1.2-2-2-2.7
		c-0.9-0.8-2-1.5-3.1-2.1c-0.8-0.4-1.6-0.9-2.3-1.4c-3.1-2.3-4.7-6.2-6.1-9.6l0.9-0.4c1.3,3.3,2.8,7,5.7,9.2c0.7,0.5,1.5,1,2.2,1.4
		c1.1,0.7,2.3,1.3,3.3,2.3c0.9,0.9,1.5,1.9,2.1,2.9c0.2,0.3,0.4,0.7,0.7,1.1c0.8,1.2,1.7,2.6,3,3.2s2.9,0.5,3.7-0.4
		c0.2-0.2,0.4-0.6,0.6-0.9c0.2-0.4,0.4-0.8,0.7-1.1c0.9-1,2.3-1.3,3.5-1.5s2.3-0.4,3-1.2c0.5-0.5,0.7-1.1,0.6-1.9
		c-0.1-1.2-0.9-2.6-2-3.4c-0.8-0.6-1.7-1-2.6-1.5c-1.2-0.6-2.4-1.2-3.4-2.2c-2.1-1.9-2.8-4.6-3-6.6c-0.2-2.4,0.2-4.7,0.6-7v-0.2
		l1,0.2v0.2c-0.4,2.3-0.8,4.5-0.6,6.8c0.2,1.8,0.7,4.3,2.6,6c0.9,0.9,2,1.4,3.2,2c0.9,0.5,1.9,0.9,2.8,1.6c1.3,1,2.3,2.6,2.4,4.1
		c0.1,1-0.2,2-0.9,2.7c-0.9,1-2.2,1.3-3.5,1.5c-1.2,0.2-2.3,0.4-3,1.2c-0.2,0.2-0.4,0.6-0.6,1s-0.4,0.8-0.7,1.1
		C413.3,381.2,412.3,381.5,411.2,381.5z"/>
</g>
<g>
	<path class="st0" d="M321.5,422.3c-2.1,0-4.2-1.4-5.2-3.5c-1.3-2.6-0.9-5.5-0.5-7c0.2-1,0.5-2.1,0.8-3.1c0.3-1.2,0.7-2.4,0.9-3.6
		c0.2-1.2,0.3-2.4,0.4-3.5c0.2-2.2,0.4-4.5,1.3-6.7c1.2-3,3.5-5.4,6-7.8c2.6-2.5,5.4-5.2,8.9-6.6c2-0.8,4.2-1.2,6.3-1.6
		c0.8-0.1,1.5-0.3,2.3-0.4c2.6-0.6,5.6-1.4,7.5-3.5c1.5-1.5,2.6-4,2.8-6.8c0.1-2.3-0.3-4.8-1.2-7.5l1-0.3c0.9,2.9,1.3,5.4,1.2,7.9
		c-0.2,3.1-1.3,5.7-3,7.4c-2.1,2.2-5.3,3.1-8,3.7c-0.8,0.2-1.5,0.3-2.3,0.4c-2.1,0.4-4.2,0.7-6.1,1.5c-3.3,1.4-6,3.9-8.5,6.4
		c-2.4,2.3-4.7,4.6-5.8,7.4c-0.8,2-1,4.2-1.2,6.4c-0.1,1.2-0.2,2.4-0.4,3.6c-0.2,1.2-0.6,2.5-0.9,3.7c-0.3,1-0.6,2-0.8,3
		c-0.3,1.4-0.7,4.1,0.5,6.4c1,2.1,3,3.3,5,2.9c1.7-0.3,3-1.9,3.6-3.3c0.7-1.6,0.8-3.4,0.9-5.3c0-0.8,0.1-1.5,0.1-2.3
		c0.1-4,0.3-8.2,1.5-12.1c1.7-5.3,5.4-9.2,9.7-10.3c2.7-0.7,5.5-0.3,8.2,0c0.9,0.1,1.7,0.2,2.6,0.3c2.5,0.2,7.1,0.1,9.3-2.9
		c5.6-5.5,7.6-14.2,4.7-21.3l0.9-0.4c3,7.5,1,16.7-4.9,22.3c-2.4,3.4-7.4,3.5-10.1,3.2c-0.9-0.1-1.7-0.2-2.6-0.3
		c-2.6-0.3-5.3-0.7-7.8,0c-4,1.1-7.4,4.7-9.1,9.7c-1.2,3.7-1.4,7.8-1.5,11.8c0,0.8,0,1.5-0.1,2.3c-0.1,1.9-0.2,3.9-0.9,5.7
		c-0.9,2.1-2.6,3.6-4.4,3.9C322,422.2,321.7,422.3,321.5,422.3z"/>
</g>
<g>
	<path class="st0" d="M323.6,478.5c-2.7,0-5.3-2-6.2-4.9c-0.8-2.4-0.5-5.2,0.8-8.1c0.6-1.4,1.4-2.6,2.2-3.8c0.6-0.9,1.3-1.9,1.8-2.9
		c2.6-5.2,2.6-12.1,0-18.9c-0.5-1.2-1-2.3-1.5-3.5c-0.8-1.8-1.7-3.6-2.3-5.6c-0.8-2.6-1.5-6.4,0-10l0.9,0.4c-1.4,3.2-0.8,6.8,0,9.2
		c0.6,1.9,1.4,3.7,2.2,5.4c0.5,1.1,1.1,2.3,1.5,3.5c2.7,7.1,2.7,14.3,0,19.7c-0.6,1.1-1.2,2-1.8,3c-0.8,1.2-1.6,2.4-2.2,3.7
		c-1.2,2.6-1.5,5.2-0.8,7.3c0.7,2.2,2.7,3.9,4.7,4.1c-0.6-2-0.6-4.3,0-6.5c0.6-1.9,1.6-3.5,2.6-5.1c0.4-0.7,0.9-1.5,1.3-2.2
		c4-7.2,4.5-16.4,1.5-25.3c-0.3-0.9-0.6-1.7-1-2.6c-1.3-3.3-2.7-6.8-2.3-10.4l0.1-0.4c0.1-0.7,0.2-1.5,0-2.2s-0.8-1.4-1.4-1.3
		l-0.2-1c1.2-0.3,2.3,0.8,2.6,2c0.3,0.8,0.2,1.7,0.1,2.6v0.4c-0.3,3.4,1,6.7,2.3,10c0.3,0.9,0.7,1.8,1,2.6
		c3.2,9.2,2.6,18.7-1.5,26.1c-0.4,0.8-0.9,1.5-1.3,2.2c-1,1.6-1.9,3.1-2.4,4.9c-0.6,2.2-0.5,4.6,0.2,6.6l0.2,0.6H324
		C323.8,478.5,323.7,478.5,323.6,478.5z"/>
</g>
<g>
	<path class="st0" d="M326,425.5l-0.6-0.8c1.2-1,2.8-1,4.4-1c1.3,0,2.6,0,3.6-0.6c1.4-0.9,1.7-2.8,1.7-3.8c0-1.3-0.4-2.5-0.9-3.8
		l-0.2-0.6c-2.5-7.5-3.2-15.4-2.2-23l1,0.1c-1,7.5-0.2,15.3,2.2,22.6l0.2,0.6c0.5,1.3,0.9,2.7,0.9,4.1c0,1.2-0.3,3.4-2.1,4.6
		c-1.2,0.7-2.7,0.7-4.1,0.7C328.3,424.7,327,424.7,326,425.5z"/>
</g>
<g>
	<path class="st0" d="M342.3,481.9l-0.6-0.2c-2.1-0.7-4.4-1.5-6.2-2.9c-2.1-1.5-3.5-3.7-3.8-5.8c-0.3-2.3,0.7-4.3,1.5-6.2
		c0.2-0.5,0.5-1.1,0.7-1.6c2.7-6.4,2.7-13.7,0-20.1c-0.5-1.1-1-2.5-1.6-4.1c-2-5.1-4.6-12.1-7.1-15.1l0.8-0.6
		c2.6,3.1,5.3,10.2,7.3,15.4c0.6,1.6,1.1,3,1.6,4.1c2.8,6.6,2.8,14.2,0,20.9c-0.2,0.5-0.5,1.1-0.7,1.7c-0.9,1.9-1.7,3.7-1.5,5.7
		c0.3,1.9,1.5,3.8,3.4,5.2c1.6,1.1,3.5,1.9,5.4,2.5c0-1.2-0.6-2.4-1.2-3.6c-0.5-0.9-1-1.9-1.2-2.9c-0.9-3,0.6-6.2,1.7-8.8
		c2-4.5,3.5-8.3,4.4-12.3c1-4.7,0.9-9-0.4-12.7c-0.9-2.5-2.3-3.8-4-5.3c-2.3-2-5.2-4.6-7.6-11l0.9-0.3c2.3,6.3,4.9,8.6,7.3,10.6
		c1.8,1.6,3.4,3,4.3,5.8c1.3,3.9,1.4,8.4,0.4,13.3c-0.9,4.1-2.4,8-4.4,12.5c-1.1,2.6-2.4,5.5-1.7,8.2c0.2,0.9,0.7,1.8,1.1,2.7
		C341.9,478.5,342.7,480.1,342.3,481.9L342.3,481.9z"/>
</g>
<g>
	<path class="st0" d="M446.7,439.9c-0.7,0-1.4-0.2-2.1-0.5c-1.5-0.6-2.5-1.8-3.6-2.9c-2.4-2.8-4.3-6-6.2-9.1
		c-1.6-2.6-3.2-5.3-5.1-7.7c-0.4-0.5-0.7-0.9-1.1-1.4c-1.8-2.3-3.7-4.7-4.6-7.5c-0.6-2.3-0.5-4.6-0.4-6.8c0-0.4,0-0.9,0.1-1.3
		c0.2-3.9,0.1-7.9-0.2-12.4c-0.3-2.6-0.6-5.2-2-7.1c-1.6-2.3-4.6-3.7-7.4-3.2l-0.2-1c3.2-0.5,6.6,0.9,8.4,3.6
		c1.6,2.2,1.9,4.9,2.2,7.6c0.3,4.7,0.4,8.8,0.2,12.7c0,0.4,0,0.9-0.1,1.4c-0.1,2.3-0.2,4.4,0.3,6.5c0.8,2.6,2.6,4.9,4.4,7.2
		c0.4,0.5,0.7,0.9,1.1,1.4c1.9,2.5,3.6,5.2,5.2,7.8c1.9,3,3.8,6.2,6.1,8.9c1,1.1,1.9,2.1,3.2,2.7c1,0.5,2.6,0.6,3.7-0.2
		c1.2-1,1.2-3,0.7-4.4c-0.4-1.3-1.4-2.3-2.4-3.4c-0.3-0.3-0.5-0.6-0.7-0.8c-2.8-3.3-4.9-7.3-6.9-11.2c-1.2-2.2-2.5-4.7-3.2-7.6
		c-0.6-2.1-0.7-4.4-0.8-6.5c-0.1-1-0.1-1.9-0.2-2.9c-0.4-4.6-1.7-9.2-3.9-13.7c-1.3-2.6-2.8-5-4.3-7.3l-0.8-1.2
		c-1.2-1.9-2.4-3.7-4.1-5.1l0.7-0.7c1.8,1.6,3,3.5,4.3,5.3l0.8,1.2c1.5,2.3,3.1,4.8,4.4,7.4c2.2,4.7,3.6,9.4,4,14.1
		c0.1,1,0.1,1.9,0.2,2.9c0.1,2.1,0.2,4.3,0.8,6.3c0.7,2.8,2,5.3,3.2,7.4c2,3.8,4,7.8,6.7,11c0.2,0.3,0.5,0.5,0.7,0.8
		c1,1.1,2.1,2.3,2.6,3.7c0.6,1.8,0.6,4.3-1.1,5.6C448.6,439.6,447.7,439.9,446.7,439.9z"/>
</g>
<g>
	<path class="st0" d="M431.3,439.6c-2.1,0-3.8-2-4.7-3.2c-3.4-4.7-6-9.9-7.7-15.2c-0.3-1-0.6-2-0.9-3c-0.7-2.2-1.3-4.6-2.4-6.7
		c-0.5-1-1.1-1.9-1.6-2.8c-1.2-2-2.4-4-2.9-6.4c-0.6-2.7,0-5.4,0.5-7.5c0.6-2.3,1.2-4.7,1.2-7.2c0-2.6-1-4.8-2.7-6.1l0.6-0.8
		c1.9,1.5,3.1,4,3.1,6.9c0,2.6-0.6,5-1.2,7.4c-0.5,2-1,4.6-0.5,7.1c0.5,2.2,1.6,4.2,2.8,6.1c0.6,0.9,1.2,1.9,1.7,2.9
		c1.1,2.2,1.8,4.6,2.5,6.9c0.3,1,0.6,2,0.9,3c1.7,5.3,4.2,10.3,7.5,15c0.8,1.2,2.4,3.1,4.2,2.8c1.4-0.3,2.1-1.6,2.9-3.1
		c0.9-1.6,1.8-3.2,3.6-3.5l0.2,1c-1.4,0.3-2.1,1.6-3,3.1c-0.9,1.6-1.8,3.2-3.6,3.5C431.6,439.6,431.4,439.6,431.3,439.6z"/>
</g>
<g>
	<path class="st0" d="M474.3,468.4c-0.3,0-0.5,0-0.8-0.1c-1.7-0.5-2.8-1.9-3.7-3.1c-2.1-2.7-4.3-5-6.9-7.2c-1-0.9-2.4-2-3.8-1.9
		c-0.3,0-0.5,0.1-0.8,0.1c-0.4,0.1-0.8,0.2-1.3,0.1c-1.8-0.2-2.8-2-3.1-3.6c-0.1-0.6-0.2-1.1-0.2-1.7c-0.1-0.9-0.2-1.8-0.5-2.6
		c-0.7-1.6-2.4-2.6-4.1-3.6l-0.2-0.1c-1.6-1-3.7-2.6-4-5l1-0.1c0.2,1.5,1.4,2.8,3.6,4.3l0.2,0.1c1.8,1.1,3.6,2.2,4.5,4.1
		c0.4,1,0.5,2,0.6,2.9c0.1,0.5,0.1,1.1,0.2,1.6c0.2,1.2,1,2.6,2.3,2.8c0.3,0,0.6,0,1-0.1c0.3-0.1,0.6-0.1,1-0.1
		c1.8-0.1,3.4,1.1,4.5,2.1c2.6,2.2,4.9,4.6,7.1,7.4c0.8,1.1,1.8,2.4,3.1,2.7c0.7,0.2,1.6,0,2.1-0.5c0.2-0.2,0.5-0.6,0.4-1.1
		c-0.2-0.8-1.2-1.3-2.2-1.7l-0.3-0.2c-2.5-1.2-3.9-3.6-5.3-5.8c-0.8-1.4-1.7-2.8-2.8-3.9c-1-1.1-2.2-1.9-3.5-2.8
		c-0.6-0.4-1.3-0.9-1.9-1.3c-4.2-3.2-7.3-7.4-10.7-12.2l0.8-0.6c3.3,4.7,6.4,8.8,10.5,12c0.6,0.5,1.2,0.9,1.8,1.3
		c1.2,0.9,2.5,1.8,3.6,2.9c1.1,1.2,2.1,2.6,2.9,4c1.4,2.2,2.7,4.3,4.9,5.5l0.3,0.1c1.1,0.5,2.4,1.1,2.7,2.4c0.2,0.8-0.1,1.5-0.7,2
		C476,468.1,475.2,468.4,474.3,468.4z"/>
</g>
<g>
	<path class="st0" d="M453.7,468.3c-0.5,0-1-0.2-1.4-0.5c-0.6-0.5-0.9-1.2-1.3-1.8c-0.1-0.2-0.2-0.3-0.2-0.4c-1.6-2.8-4.1-5-7-6.2
		c-0.2-0.1-0.4-0.2-0.6-0.2c-1.1-0.4-2.4-0.9-3-2.1c-0.5-0.8-0.4-1.8-0.4-2.7c0-0.4,0-0.9,0-1.3c-0.2-1.5-1.1-3-2.9-4.4
		c-0.5-0.4-1.1-0.8-1.6-1.2c-1-0.7-2.1-1.5-3-2.4c-1.7-2-2.3-4.2-1.6-5.9l0.9,0.4c-0.6,1.7,0.3,3.6,1.4,4.9c0.8,0.9,1.8,1.6,2.8,2.3
		c0.6,0.4,1.2,0.8,1.7,1.2c2,1.6,3.1,3.3,3.3,5.1c0,0.5,0,0.9,0,1.4c0,0.8-0.1,1.6,0.3,2.2c0.4,0.9,1.5,1.3,2.5,1.6
		c0.2,0.1,0.4,0.2,0.6,0.2c3.2,1.2,5.9,3.6,7.5,6.6c0.1,0.1,0.2,0.3,0.2,0.5c0.3,0.6,0.6,1.2,1,1.5c0.2,0.2,0.6,0.3,1,0.2
		c0.1,0,0.4-0.1,0.5-0.3c0.3-0.5-0.1-1.2-0.4-1.6c-0.7-0.9-1.6-1.8-2.5-2.6c-1.4-1.3-2.9-2.7-3.7-4.5c-0.4-0.8-0.6-1.7-0.8-2.6
		c-0.2-1.1-0.5-2.1-1-3c-0.6-1.2-1.7-2-2.8-2.9c-0.5-0.4-1.1-0.8-1.6-1.3c-3.5-3.2-5.1-7.8-6.6-12.6l1-0.3c1.5,4.7,3,9.1,6.4,12.2
		c0.5,0.4,1,0.8,1.5,1.3c1.2,0.9,2.4,1.9,3.1,3.2c0.6,1,0.8,2.1,1.1,3.2c0.2,0.9,0.4,1.7,0.7,2.4c0.7,1.6,2.1,2.8,3.5,4.1
		c0.9,0.8,1.9,1.7,2.6,2.7c0.6,0.7,1.1,1.8,0.5,2.8c-0.2,0.4-0.6,0.7-1.2,0.8C453.9,468.2,453.8,468.3,453.7,468.3z"/>
</g>
<g>
	<path class="st0" d="M229.3,325.1c-0.3,0-0.6,0-0.9-0.1c-1.9-0.3-3-2.3-3.2-4c-0.2-1.5,0.3-3,0.8-4.5l0.2-0.7l0.1-0.1
		c11.6-8.5,24.5-15.9,36.9-23l0.3-0.2c2-1.1,4.9-2.5,7.2-1.1c1.9,1.2,2.2,3.7,2.4,5.9c0,0.3,0.1,0.5,0.1,0.8
		c0.6,5.1,3.4,10.1,7.6,13.2l-0.6,0.8c-4.4-3.3-7.4-8.4-8-13.8c0-0.3-0.1-0.5-0.1-0.8c-0.2-2.1-0.5-4.2-2-5.1
		c-1.9-1.1-4.4,0.1-6.2,1.1l-0.3,0.2c-12.3,7-25.1,14.3-36.6,22.8l-0.1,0.4c-0.4,1.4-0.9,2.7-0.7,4.1c0.2,1.3,1,2.9,2.4,3.2
		c1.1,0.3,2.2-0.2,3.2-0.7c5.8-3,10.6-7.8,15.2-12.4c1.8-1.8,3.7-3.7,5.6-5.5c2.5-2.3,5.4-4.6,8.9-7.3c1.5-1.1,4.2-3.2,6.8-2.2
		c1.4,0.6,2.4,1.9,2.9,3.6c0.3,1.1,0.4,2.2,0.6,3.2c0,0.4,0.1,0.8,0.1,1.1c0.7,4.7,3.5,9,7.5,11.7l-0.5,0.8
		c-4.2-2.8-7.2-7.4-7.9-12.3c-0.1-0.4-0.1-0.8-0.1-1.1c-0.1-1-0.3-2.1-0.5-3.1c-0.4-1.4-1.3-2.5-2.3-3c-1.9-0.8-4,0.6-5.8,2
		c-3.6,2.7-6.4,5-8.9,7.3c-1.9,1.7-3.8,3.6-5.6,5.4c-4.6,4.7-9.5,9.5-15.4,12.5C231.4,324.6,230.4,325.1,229.3,325.1z"/>
</g>
<g>
	<path class="st0" d="M226.6,335.9c-0.8,0-1.4-0.7-1.7-1.5c-0.2-0.6-0.1-1.3,0-1.8l0.1-0.3c0.3-1.5,0.6-2.9,1-4.4
		c0.3-1.4,0.6-2.9,0.9-4.3l1,0.2c-0.3,1.5-0.6,2.9-1,4.4c-0.3,1.4-0.6,2.9-0.9,4.3l-0.1,0.3c-0.1,0.5-0.2,1-0.1,1.3
		c0.1,0.3,0.4,0.8,0.9,0.8c0.3,0,0.5-0.2,0.8-0.5c2-1.7,4-3.3,6-5c2-1.6,3.9-3.3,5.9-4.9c5.8-4.8,11.8-9.8,15.8-16.4
		c0.3-0.5,0.6-1.1,1-1.6c0.9-1.6,1.8-3.2,3.2-4.5c1.8-1.7,4.8-2.9,7.3-1.7c1.8,0.9,3,2.8,3.7,5.7c0.1,0.4,0.2,0.8,0.3,1.2
		c0.4,1.7,0.8,3.5,1.7,4.8c0.6,0.8,1.4,1.5,2.2,2.2c0.5,0.4,1,0.8,1.5,1.3c1.3,1.3,2.5,2.8,3,5l-1,0.2c-0.5-2.1-1.7-3.5-2.8-4.6
		c-0.4-0.4-0.9-0.8-1.4-1.2c-0.8-0.7-1.7-1.4-2.4-2.3c-1.1-1.5-1.5-3.4-1.9-5.2c-0.1-0.4-0.2-0.8-0.3-1.2c-0.6-2.7-1.7-4.3-3.1-5.1
		c-2-1-4.6,0-6.1,1.5c-1.3,1.1-2.1,2.6-3,4.2c-0.3,0.6-0.6,1.1-1,1.7c-4.1,6.7-10.1,11.7-16,16.6c-2,1.6-4,3.3-5.9,4.9
		c-2,1.7-4,3.3-6,5c-0.5,0.5-0.9,0.7-1.4,0.7C226.7,335.9,226.7,335.9,226.6,335.9z"/>
</g>
<g class="st1">
	<path class="st0" d="M602.4,112.7v-1.9H599v-1.2l2.9-4.8h2.2v4.6h0.9v1.4h-0.9v1.9H602.4z M602.4,109.5v-1.7c0-0.5,0-0.9,0.1-1.5
		l0,0c-0.3,0.5-0.5,1-0.7,1.5l-1,1.7l0,0H602.4z"/>
	<path class="st0" d="M611.8,112.7l-0.1-0.6l0,0c-0.4,0.5-1,0.7-1.7,0.7c-1.2,0-1.9-0.9-1.9-1.8c0-1.5,1.4-2.3,3.4-2.2v-0.1
		c0-0.3-0.2-0.8-1.1-0.8c-0.6,0-1.2,0.2-1.6,0.4l-0.3-1.2c0.4-0.2,1.2-0.5,2.3-0.5c2,0,2.6,1.2,2.6,2.5v2c0,0.6,0,1.1,0.1,1.4h-1.7
		V112.7z M611.6,110c-1,0-1.7,0.2-1.7,0.9c0,0.5,0.3,0.7,0.7,0.7c0.5,0,0.8-0.3,0.9-0.7c0-0.1,0-0.2,0-0.3L611.6,110L611.6,110z"/>
	<path class="st0" d="M616.7,105.2c0,0.5-0.4,0.9-1,0.9s-1-0.4-0.9-0.9c0-0.5,0.4-0.9,1-0.9S616.7,104.7,616.7,105.2z M614.8,112.7
		v-5.9h1.8v5.9H614.8z"/>
	<path class="st0" d="M618.1,104.2h1.8v8.5h-1.8V104.2z"/>
	<path class="st0" d="M622.8,110.4c0.1,0.8,0.8,1.1,1.7,1.1c0.6,0,1.1-0.1,1.6-0.2l0.2,1.2c-0.6,0.2-1.3,0.4-2.1,0.4
		c-2,0-3.1-1.2-3.1-3c0-1.5,0.9-3.1,3-3.1c1.9,0,2.6,1.5,2.6,2.9c0,0.3,0,0.6-0.1,0.7H622.8z M625,109.1c0-0.4-0.2-1.2-1-1.2
		s-1.1,0.7-1.1,1.2H625z"/>
	<path class="st0" d="M627.7,111.1c0.3,0.2,1,0.4,1.6,0.4s0.8-0.2,0.8-0.5s-0.2-0.4-0.9-0.7c-1.2-0.4-1.7-1.1-1.7-1.8
		c0-1.1,0.9-1.9,2.4-1.9c0.7,0,1.3,0.2,1.7,0.3l-0.3,1.3c-0.3-0.1-0.8-0.3-1.3-0.3c-0.4,0-0.7,0.2-0.7,0.5s0.2,0.4,0.9,0.7
		c1.1,0.4,1.6,0.9,1.6,1.8c0,1.1-0.9,1.9-2.5,1.9c-0.8,0-1.5-0.2-1.9-0.4L627.7,111.1z"/>
	<path class="st0" d="M632.1,114.2c0.4-1.1,0.7-2.3,0.9-3.4l1.9-0.1c-0.4,1.2-0.9,2.5-1.5,3.4L632.1,114.2z"/>
	<path class="st0" d="M638.4,104.2h1.8v8.5h-1.8V104.2z"/>
	<path class="st0" d="M647.5,109.7c0,2.1-1.5,3.1-3.1,3.1c-1.7,0-3-1.1-3-3s1.2-3.1,3.1-3.1C646.3,106.7,647.5,108,647.5,109.7z
		 M643.2,109.8c0,1,0.4,1.8,1.2,1.8c0.7,0,1.2-0.7,1.2-1.8c0-0.9-0.3-1.8-1.2-1.8C643.6,108,643.2,108.9,643.2,109.8z"/>
	<path class="st0" d="M648.6,108.8c0-0.9,0-1.4,0-1.9h1.6l0.1,1.1l0,0c0.3-0.9,1-1.2,1.6-1.2c0.2,0,0.3,0,0.4,0v1.7
		c-0.1,0-0.3,0-0.5,0c-0.7,0-1.1,0.4-1.2,0.9c0,0.1,0,0.3,0,0.4v3h-1.8v-4H648.6z"/>
	<path class="st0" d="M653.2,111.1c0.3,0.2,1,0.4,1.6,0.4s0.8-0.2,0.8-0.5s-0.2-0.4-0.9-0.7c-1.2-0.4-1.7-1.1-1.7-1.8
		c0-1.1,0.9-1.9,2.4-1.9c0.7,0,1.3,0.2,1.7,0.3l-0.3,1.3c-0.3-0.1-0.8-0.3-1.3-0.3c-0.4,0-0.7,0.2-0.7,0.5s0.2,0.4,0.9,0.7
		c1.1,0.4,1.6,0.9,1.6,1.8c0,1.1-0.9,1.9-2.5,1.9c-0.8,0-1.5-0.2-1.9-0.4L653.2,111.1z"/>
	<path class="st0" d="M666.5,104.2v6.8c0,0.7,0,1.4,0,1.8h-1.6l-0.1-0.9l0,0c-0.4,0.7-1.1,1-1.8,1c-1.4,0-2.5-1.2-2.5-3
		c0-2,1.2-3.1,2.6-3.1c0.7,0,1.3,0.3,1.5,0.7l0,0v-3.2h1.9V104.2z M664.7,109.4c0-0.1,0-0.2,0-0.3c-0.1-0.5-0.5-0.9-1.1-0.9
		c-0.8,0-1.3,0.7-1.3,1.7s0.5,1.6,1.2,1.6c0.5,0,0.9-0.4,1.1-0.9c0-0.1,0-0.3,0-0.4L664.7,109.4L664.7,109.4z"/>
	<path class="st0" d="M673.5,110.9c0,0.8,0,1.4,0,1.9H672l-0.1-0.8l0,0c-0.2,0.4-0.8,1-1.8,1c-1.2,0-2.1-0.7-2.1-2.6V107h1.8v3.2
		c0,0.9,0.3,1.4,0.9,1.4c0.5,0,0.8-0.3,0.9-0.6c0-0.1,0.1-0.3,0.1-0.4v-3.5h1.8L673.5,110.9L673.5,110.9z"/>
	<path class="st0" d="M678.7,106.9l0.8,2.7c0.1,0.5,0.3,1,0.3,1.4l0,0c0.1-0.5,0.2-0.9,0.3-1.4l0.8-2.7h1.9l-2.2,5.9h-1.8l-2.1-5.9
		H678.7z"/>
	<path class="st0" d="M689.3,109.7c0,2.1-1.5,3.1-3.1,3.1c-1.7,0-3-1.1-3-3s1.2-3.1,3.1-3.1C688.2,106.7,689.3,108,689.3,109.7z
		 M685.1,109.8c0,1,0.4,1.8,1.2,1.8c0.7,0,1.2-0.7,1.2-1.8c0-0.9-0.3-1.8-1.2-1.8C685.4,108,685.1,108.9,685.1,109.8z"/>
	<path class="st0" d="M690.5,104.2h1.8v8.5h-1.8V104.2z"/>
	<path class="st0" d="M693,114.2c0.4-1.1,0.7-2.3,0.9-3.4l1.9-0.1c-0.4,1.2-0.9,2.5-1.5,3.4L693,114.2z"/>
</g>
<g class="st1">
	<path class="st0" d="M600.8,124.8c0.1,0.8,0.8,1.1,1.7,1.1c0.6,0,1.1-0.1,1.6-0.2l0.2,1.2c-0.6,0.2-1.3,0.4-2.1,0.4
		c-2,0-3.1-1.2-3.1-3c0-1.5,0.9-3.1,3-3.1c1.9,0,2.6,1.5,2.6,2.9c0,0.3,0,0.6-0.1,0.7H600.8z M603,123.5c0-0.4-0.2-1.2-1-1.2
		s-1.1,0.7-1.1,1.2H603z"/>
	<path class="st0" d="M605.8,118.6h1.8v8.5h-1.8V118.6z"/>
	<path class="st0" d="M609,118.6h1.8v8.5H609V118.6z"/>
	<path class="st0" d="M613.8,124.8c0.1,0.8,0.8,1.1,1.7,1.1c0.6,0,1.1-0.1,1.6-0.2l0.2,1.2c-0.6,0.2-1.3,0.4-2.1,0.4
		c-2,0-3.1-1.2-3.1-3c0-1.5,0.9-3.1,3-3.1c1.9,0,2.6,1.5,2.6,2.9c0,0.3,0,0.6-0.1,0.7H613.8z M615.9,123.5c0-0.4-0.2-1.2-1-1.2
		s-1.1,0.7-1.1,1.2H615.9z"/>
	<path class="st0" d="M621.1,125.5c0.3,0.2,1,0.4,1.6,0.4s0.8-0.2,0.8-0.5s-0.2-0.4-0.9-0.7c-1.2-0.4-1.7-1.1-1.7-1.8
		c0-1.1,0.9-1.9,2.4-1.9c0.7,0,1.3,0.2,1.7,0.3l-0.3,1.3c-0.3-0.1-0.8-0.3-1.3-0.3c-0.4,0-0.7,0.2-0.7,0.5s0.2,0.4,0.9,0.7
		c1.1,0.4,1.6,0.9,1.6,1.8c0,1.1-0.9,1.9-2.5,1.9c-0.8,0-1.5-0.2-1.9-0.4L621.1,125.5z"/>
	<path class="st0" d="M627.7,124.8c0.1,0.8,0.8,1.1,1.7,1.1c0.6,0,1.1-0.1,1.6-0.2l0.2,1.2c-0.6,0.2-1.3,0.4-2.1,0.4
		c-2,0-3.1-1.2-3.1-3c0-1.5,0.9-3.1,3-3.1c1.9,0,2.6,1.5,2.6,2.9c0,0.3,0,0.6-0.1,0.7H627.7z M629.9,123.5c0-0.4-0.2-1.2-1-1.2
		s-1.1,0.7-1.1,1.2H629.9z"/>
	<path class="st0" d="M635.1,123.2c0-0.9,0-1.4,0-1.9h1.6l0.1,1.1l0,0c0.3-0.9,1-1.2,1.6-1.2c0.2,0,0.3,0,0.4,0v1.7
		c-0.1,0-0.3,0-0.5,0c-0.7,0-1.1,0.4-1.2,0.9c0,0.1,0,0.3,0,0.4v3h-1.8v-4H635.1z"/>
	<path class="st0" d="M640.9,124.8c0.1,0.8,0.8,1.1,1.7,1.1c0.6,0,1.1-0.1,1.6-0.2l0.2,1.2c-0.6,0.2-1.3,0.4-2.1,0.4
		c-2,0-3.1-1.2-3.1-3c0-1.5,0.9-3.1,3-3.1c1.9,0,2.6,1.5,2.6,2.9c0,0.3,0,0.6-0.1,0.7H640.9z M643.1,123.5c0-0.4-0.2-1.2-1-1.2
		s-1.1,0.7-1.1,1.2H643.1z"/>
	<path class="st0" d="M651.5,121.3c0,0.4,0,0.9,0,1.7v3.3c0,1.1-0.2,2.1-0.9,2.6c-0.6,0.6-1.5,0.7-2.4,0.7c-0.8,0-1.6-0.2-2.1-0.5
		l0.4-1.4c0.4,0.2,1,0.4,1.7,0.4c0.9,0,1.5-0.5,1.5-1.5v-0.4l0,0c-0.3,0.5-0.9,0.8-1.6,0.8c-1.5,0-2.5-1.2-2.5-2.9
		c0-1.9,1.2-3.1,2.7-3.1c0.8,0,1.3,0.3,1.6,0.8l0,0l0.1-0.7h1.5V121.3z M649.6,123.7c0-0.1,0-0.2,0-0.3c-0.1-0.5-0.5-0.8-1-0.8
		c-0.7,0-1.2,0.6-1.2,1.7c0,0.9,0.4,1.6,1.2,1.6c0.5,0,0.8-0.3,1-0.7c0-0.1,0.1-0.3,0.1-0.5L649.6,123.7L649.6,123.7z"/>
	<path class="st0" d="M652.9,123.2c0-0.9,0-1.4,0-1.9h1.6l0.1,1.1l0,0c0.3-0.9,1-1.2,1.6-1.2c0.2,0,0.3,0,0.4,0v1.7
		c-0.1,0-0.3,0-0.5,0c-0.7,0-1.1,0.4-1.2,0.9c0,0.1,0,0.3,0,0.4v3h-1.8v-4H652.9z"/>
	<path class="st0" d="M663.2,124.1c0,2.1-1.5,3.1-3.1,3.1c-1.7,0-3-1.1-3-3s1.2-3.1,3.1-3.1C662,121.1,663.2,122.4,663.2,124.1z
		 M658.9,124.2c0,1,0.4,1.8,1.2,1.8c0.7,0,1.2-0.7,1.2-1.8c0-0.9-0.3-1.8-1.2-1.8C659.2,122.4,658.9,123.3,658.9,124.2z"/>
	<path class="st0" d="M669.8,125.3c0,0.8,0,1.4,0,1.9h-1.6l-0.1-0.8l0,0c-0.2,0.4-0.8,1-1.8,1c-1.2,0-2.1-0.7-2.1-2.6v-3.4h1.8v3.2
		c0,0.9,0.3,1.4,0.9,1.4c0.5,0,0.8-0.3,0.9-0.6c0-0.1,0.1-0.3,0.1-0.4v-3.5h1.8L669.8,125.3L669.8,125.3z"/>
	<path class="st0" d="M671.3,123.2c0-0.8,0-1.4,0-2h1.6l0.1,0.8l0,0c0.4-0.6,1.1-0.9,2-0.9c1.3,0,2.4,1.1,2.4,3
		c0,2.1-1.4,3.1-2.7,3.1c-0.7,0-1.3-0.3-1.5-0.7l0,0v2.9h-1.8L671.3,123.2L671.3,123.2z M673.1,124.6c0,0.1,0,0.3,0,0.4
		c0.1,0.5,0.5,0.9,1.1,0.9c0.8,0,1.3-0.7,1.3-1.7c0-0.9-0.4-1.6-1.2-1.6c-0.5,0-1,0.4-1.1,0.9c0,0.1,0,0.2,0,0.3L673.1,124.6
		L673.1,124.6z"/>
	<path class="st0" d="M679.9,124.8c0.1,0.8,0.8,1.1,1.7,1.1c0.6,0,1.1-0.1,1.6-0.2l0.2,1.2c-0.6,0.2-1.3,0.4-2.1,0.4
		c-2,0-3.1-1.2-3.1-3c0-1.5,0.9-3.1,3-3.1c1.9,0,2.6,1.5,2.6,2.9c0,0.3,0,0.6-0.1,0.7H679.9z M682,123.5c0-0.4-0.2-1.2-1-1.2
		s-1.1,0.7-1.1,1.2H682z"/>
	<path class="st0" d="M687.3,123.2c0-0.8,0-1.4,0-2h1.6l0.1,0.8l0,0c0.4-0.6,1.1-0.9,2-0.9c1.3,0,2.4,1.1,2.4,3
		c0,2.1-1.4,3.1-2.7,3.1c-0.7,0-1.3-0.3-1.5-0.7l0,0v2.9h-1.8L687.3,123.2L687.3,123.2z M689.1,124.6c0,0.1,0,0.3,0,0.4
		c0.1,0.5,0.5,0.9,1.1,0.9c0.8,0,1.3-0.7,1.3-1.7c0-0.9-0.4-1.6-1.2-1.6c-0.5,0-1,0.4-1.1,0.9c0,0.1,0,0.2,0,0.3L689.1,124.6
		L689.1,124.6z"/>
	<path class="st0" d="M697.8,127.1l-0.1-0.6l0,0c-0.4,0.5-1,0.7-1.7,0.7c-1.2,0-1.9-0.9-1.9-1.8c0-1.5,1.4-2.3,3.4-2.2v-0.1
		c0-0.3-0.2-0.8-1.1-0.8c-0.6,0-1.2,0.2-1.6,0.4l-0.3-1.2c0.4-0.2,1.2-0.5,2.3-0.5c2,0,2.6,1.2,2.6,2.5v2c0,0.6,0,1.1,0.1,1.4h-1.7
		V127.1z M697.5,124.4c-1,0-1.7,0.2-1.7,0.9c0,0.5,0.3,0.7,0.7,0.7c0.5,0,0.8-0.3,0.9-0.7c0-0.1,0-0.2,0-0.3L697.5,124.4
		L697.5,124.4z"/>
	<path class="st0" d="M700.8,123.2c0-0.9,0-1.4,0-1.9h1.6l0.1,1.1l0,0c0.3-0.9,1-1.2,1.6-1.2c0.2,0,0.3,0,0.4,0v1.7
		c-0.1,0-0.3,0-0.5,0c-0.7,0-1.1,0.4-1.2,0.9c0,0.1,0,0.3,0,0.4v3H701v-4H700.8z"/>
	<path class="st0" d="M707.5,127.1V126l1-0.9c1.7-1.5,2.5-2.4,2.6-3.3c0-0.6-0.4-1.1-1.3-1.1c-0.7,0-1.3,0.3-1.7,0.6l-0.5-1.3
		c0.6-0.4,1.5-0.8,2.6-0.8c1.8,0,2.7,1,2.7,2.4c0,1.3-0.9,2.4-2.1,3.4l-0.7,0.6l0,0h2.9v1.5C713,127.1,707.5,127.1,707.5,127.1z"/>
</g>
<g class="st1">
	<path class="st0" d="M669.8,332.6h1.8v8.5h-1.8V332.6z"/>
	<path class="st0" d="M674.5,338.8c0.1,0.8,0.8,1.1,1.7,1.1c0.6,0,1.1-0.1,1.6-0.2l0.2,1.2c-0.6,0.2-1.3,0.4-2.1,0.4
		c-2,0-3.1-1.2-3.1-3c0-1.5,0.9-3.1,3-3.1c1.9,0,2.6,1.5,2.6,2.9c0,0.3,0,0.6-0.1,0.7H674.5z M676.6,337.5c0-0.4-0.2-1.2-1-1.2
		s-1.1,0.7-1.1,1.2H676.6z"/>
	<path class="st0" d="M687.5,332.6v6.8c0,0.7,0,1.4,0,1.8H686l-0.1-0.9l0,0c-0.4,0.7-1.1,1-1.8,1c-1.4,0-2.5-1.2-2.5-3
		c0-2,1.2-3.1,2.6-3.1c0.7,0,1.3,0.3,1.5,0.7l0,0v-3.2L687.5,332.6L687.5,332.6z M685.7,337.7c0-0.1,0-0.2,0-0.3
		c-0.1-0.5-0.5-0.9-1.1-0.9c-0.8,0-1.3,0.7-1.3,1.7s0.5,1.6,1.2,1.6c0.5,0,0.9-0.4,1.1-0.9c0-0.1,0-0.3,0-0.4L685.7,337.7
		L685.7,337.7z"/>
	<path class="st0" d="M692.3,341.1l-0.1-0.6l0,0c-0.4,0.5-1,0.7-1.7,0.7c-1.2,0-1.9-0.9-1.9-1.8c0-1.5,1.4-2.3,3.4-2.2v-0.1
		c0-0.3-0.2-0.8-1.1-0.8c-0.6,0-1.2,0.2-1.6,0.4l-0.3-1.2c0.4-0.2,1.2-0.5,2.3-0.5c2,0,2.6,1.2,2.6,2.5v2c0,0.6,0,1.1,0.1,1.4h-1.7
		V341.1z M692.1,338.3c-1,0-1.7,0.2-1.7,0.9c0,0.5,0.3,0.7,0.7,0.7c0.5,0,0.8-0.3,0.9-0.7c0-0.1,0-0.2,0-0.3L692.1,338.3
		L692.1,338.3z"/>
	<path class="st0" d="M695.3,337.2c0-0.9,0-1.4,0-1.9h1.6l0.1,1.1l0,0c0.3-0.9,1-1.2,1.6-1.2c0.2,0,0.3,0,0.4,0v1.7
		c-0.1,0-0.3,0-0.5,0c-0.7,0-1.1,0.4-1.2,0.9c0,0.1,0,0.3,0,0.4v3h-1.8v-4H695.3z"/>
	<path class="st0" d="M705.5,332.6v6.8c0,0.7,0,1.4,0,1.8h-1.6l-0.1-0.9l0,0c-0.4,0.7-1.1,1-1.8,1c-1.4,0-2.5-1.2-2.5-3
		c0-2,1.2-3.1,2.6-3.1c0.7,0,1.3,0.3,1.5,0.7l0,0v-3.2L705.5,332.6L705.5,332.6z M703.7,337.7c0-0.1,0-0.2,0-0.3
		c-0.1-0.5-0.5-0.9-1.1-0.9c-0.8,0-1.3,0.7-1.3,1.7s0.5,1.6,1.2,1.6c0.5,0,0.9-0.4,1.1-0.9c0-0.1,0-0.3,0-0.4L703.7,337.7
		L703.7,337.7z"/>
	<path class="st0" d="M706.1,342.5c0.4-1.1,0.7-2.3,0.9-3.4l1.9-0.1c-0.4,1.2-0.9,2.5-1.5,3.4L706.1,342.5z"/>
	<path class="st0" d="M714.3,333.6c0,0.5-0.4,0.9-1,0.9s-1-0.4-0.9-0.9c0-0.5,0.4-0.9,1-0.9C713.9,332.7,714.3,333.1,714.3,333.6z
		 M712.4,341.1v-5.9h1.8v5.9H712.4z"/>
	<path class="st0" d="M715.7,332.6h1.8v8.5h-1.8V332.6z"/>
	<path class="st0" d="M721.4,337.2c0-0.8,0-1.4,0-2h1.6l0.1,0.8l0,0c0.4-0.6,1.1-0.9,2-0.9c1.3,0,2.4,1.1,2.4,3
		c0,2.1-1.4,3.1-2.7,3.1c-0.7,0-1.3-0.3-1.5-0.7l0,0v2.9h-1.8L721.4,337.2L721.4,337.2z M723.2,338.6c0,0.1,0,0.3,0,0.4
		c0.1,0.5,0.5,0.9,1.1,0.9c0.8,0,1.3-0.7,1.3-1.7c0-0.9-0.4-1.6-1.2-1.6c-0.5,0-1,0.4-1.1,0.9c0,0.1,0,0.2,0,0.3L723.2,338.6
		L723.2,338.6z"/>
	<path class="st0" d="M730,338.8c0.1,0.8,0.8,1.1,1.7,1.1c0.6,0,1.1-0.1,1.6-0.2l0.2,1.2c-0.6,0.2-1.3,0.4-2.1,0.4
		c-2,0-3.1-1.2-3.1-3c0-1.5,0.9-3.1,3-3.1c1.9,0,2.6,1.5,2.6,2.9c0,0.3,0,0.6-0.1,0.7H730z M732.2,337.5c0-0.4-0.2-1.2-1-1.2
		s-1.1,0.7-1.1,1.2H732.2z"/>
	<path class="st0" d="M734.9,337.2c0-0.9,0-1.4,0-1.9h1.6l0.1,1.1l0,0c0.3-0.9,1-1.2,1.6-1.2c0.2,0,0.3,0,0.4,0v1.7
		c-0.1,0-0.3,0-0.5,0c-0.7,0-1.1,0.4-1.2,0.9c0,0.1,0,0.3,0,0.4v3h-1.8v-4H734.9z"/>
	<path class="st0" d="M739.5,337.1c0-0.7,0-1.4,0-1.9h1.5l0.1,0.8l0,0c0.3-0.4,0.8-0.9,1.8-0.9c0.8,0,1.4,0.4,1.6,1l0,0
		c0.2-0.3,0.5-0.5,0.8-0.7s0.7-0.3,1.1-0.3c1.1,0,2,0.8,2,2.5v3.5h-1.8v-3.2c0-0.9-0.3-1.3-0.9-1.3c-0.4,0-0.7,0.3-0.8,0.6
		c0,0.1-0.1,0.3-0.1,0.5v3.4H743v-3.3c0-0.7-0.3-1.2-0.8-1.2s-0.7,0.4-0.9,0.7c-0.1,0.1-0.1,0.3-0.1,0.5v3.4h-1.8L739.5,337.1
		L739.5,337.1z"/>
	<path class="st0" d="M751.2,338.8c0.1,0.8,0.8,1.1,1.7,1.1c0.6,0,1.1-0.1,1.6-0.2l0.2,1.2c-0.6,0.2-1.3,0.4-2.1,0.4
		c-2,0-3.1-1.2-3.1-3c0-1.5,0.9-3.1,3-3.1c1.9,0,2.6,1.5,2.6,2.9c0,0.3,0,0.6-0.1,0.7H751.2z M753.4,337.5c0-0.4-0.2-1.2-1-1.2
		s-1.1,0.7-1.1,1.2H753.4z"/>
	<path class="st0" d="M758.2,333.6v1.7h1.3v1.3h-1.3v2.1c0,0.7,0.2,1,0.7,1c0.2,0,0.4,0,0.5,0v1.4c-0.2,0.1-0.7,0.2-1.2,0.2
		c-0.6,0-1.1-0.2-1.4-0.5c-0.3-0.3-0.5-0.9-0.5-1.7v-2.4h-0.8v-1.3h0.8V334L758.2,333.6z"/>
	<path class="st0" d="M766.3,341.1l-0.1-0.6l0,0c-0.4,0.5-1,0.7-1.7,0.7c-1.2,0-1.9-0.9-1.9-1.8c0-1.5,1.4-2.3,3.4-2.2v-0.1
		c0-0.3-0.2-0.8-1.1-0.8c-0.6,0-1.2,0.2-1.6,0.4l-0.3-1.2c0.4-0.2,1.2-0.5,2.3-0.5c2,0,2.6,1.2,2.6,2.5v2c0,0.6,0,1.1,0.1,1.4h-1.7
		V341.1z M765.1,332.7l1,1.8h-1.2l-1.5-1.8H765.1z M766.1,338.3c-1,0-1.7,0.2-1.7,0.9c0,0.5,0.3,0.7,0.7,0.7c0.5,0,0.8-0.3,0.9-0.7
		c0-0.1,0-0.2,0-0.3L766.1,338.3L766.1,338.3z"/>
	<path class="st0" d="M771.7,332.6h1.8v8.5h-1.8V332.6z"/>
	<path class="st0" d="M777.2,332.9c-0.4,1.2-0.9,2.4-1.4,3.3l-1.1,0.1c0.4-1,0.7-2.2,0.8-3.2L777.2,332.9z"/>
	<path class="st0" d="M781.1,341.1l-0.1-0.6l0,0c-0.4,0.5-1,0.7-1.7,0.7c-1.2,0-1.9-0.9-1.9-1.8c0-1.5,1.4-2.3,3.4-2.2v-0.1
		c0-0.3-0.2-0.8-1.1-0.8c-0.6,0-1.2,0.2-1.6,0.4l-0.3-1.2c0.4-0.2,1.2-0.5,2.3-0.5c2,0,2.6,1.2,2.6,2.5v2c0,0.6,0,1.1,0.1,1.4h-1.7
		V341.1z M780.9,338.3c-1,0-1.7,0.2-1.7,0.9c0,0.5,0.3,0.7,0.7,0.7c0.5,0,0.8-0.3,0.9-0.7c0-0.1,0-0.2,0-0.3L780.9,338.3
		L780.9,338.3z"/>
	<path class="st0" d="M784.1,341.1c0-0.4,0-1.1,0-1.8v-6.8h1.8v3.3l0,0c0.3-0.5,1-0.8,1.8-0.8c1.4,0,2.4,1.2,2.4,3
		c0,2.1-1.3,3.2-2.7,3.2c-0.7,0-1.3-0.3-1.8-0.9l0,0l-0.1,0.8L784.1,341.1L784.1,341.1z M786,338.6c0,0.1,0,0.2,0,0.3
		c0.1,0.5,0.5,0.9,1.1,0.9c0.8,0,1.3-0.6,1.3-1.7c0-0.9-0.4-1.6-1.3-1.6c-0.5,0-0.9,0.4-1.1,0.9c0,0.1,0,0.2,0,0.3V338.6z"/>
	<path class="st0" d="M794.6,341.1l-0.1-0.6l0,0c-0.4,0.5-1,0.7-1.7,0.7c-1.2,0-1.9-0.9-1.9-1.8c0-1.5,1.4-2.3,3.4-2.2v-0.1
		c0-0.3-0.2-0.8-1.1-0.8c-0.6,0-1.2,0.2-1.6,0.4l-0.3-1.2c0.4-0.2,1.2-0.5,2.3-0.5c2,0,2.6,1.2,2.6,2.5v2c0,0.6,0,1.1,0.1,1.4h-1.7
		V341.1z M794.4,338.3c-1,0-1.7,0.2-1.7,0.9c0,0.5,0.3,0.7,0.7,0.7c0.5,0,0.8-0.3,0.9-0.7c0-0.1,0-0.2,0-0.3L794.4,338.3
		L794.4,338.3z"/>
	<path class="st0" d="M799.5,333.6c0,0.5-0.4,0.9-1,0.9s-1-0.4-0.9-0.9c0-0.5,0.4-0.9,1-0.9S799.5,333.1,799.5,333.6z M797.7,341.1
		v-5.9h1.8v5.9H797.7z"/>
	<path class="st0" d="M800.9,332.6h1.8v8.5h-1.8V332.6z"/>
	<path class="st0" d="M804.2,332.6h1.8v8.5h-1.8V332.6z"/>
	<path class="st0" d="M808.9,338.8c0.1,0.8,0.8,1.1,1.7,1.1c0.6,0,1.1-0.1,1.6-0.2l0.2,1.2c-0.6,0.2-1.3,0.4-2.1,0.4
		c-2,0-3.1-1.2-3.1-3c0-1.5,0.9-3.1,3-3.1c1.9,0,2.6,1.5,2.6,2.9c0,0.3,0,0.6-0.1,0.7H808.9z M811.1,337.5c0-0.4-0.2-1.2-1-1.2
		s-1.1,0.7-1.1,1.2H811.1z"/>
</g>
<g class="st1">
	<path class="st0" d="M675.5,347v6.8c0,0.7,0,1.4,0,1.8h-1.6l-0.1-0.9l0,0c-0.4,0.7-1.1,1-1.8,1c-1.4,0-2.5-1.2-2.5-3
		c0-2,1.2-3.1,2.6-3.1c0.7,0,1.3,0.3,1.5,0.7l0,0V347H675.5z M673.6,352.1c0-0.1,0-0.2,0-0.3c-0.1-0.5-0.5-0.9-1.1-0.9
		c-0.8,0-1.3,0.7-1.3,1.7s0.5,1.6,1.2,1.6c0.5,0,0.9-0.4,1.1-0.9c0-0.1,0-0.3,0-0.4L673.6,352.1L673.6,352.1z"/>
	<path class="st0" d="M679.1,347.3c-0.4,1.2-0.9,2.4-1.4,3.3l-1.1,0.1c0.4-1,0.7-2.2,0.8-3.2L679.1,347.3z"/>
	<path class="st0" d="M681.4,348c0,0.5-0.4,0.9-1,0.9s-1-0.4-0.9-0.9c0-0.5,0.4-0.9,1-0.9S681.3,347.5,681.4,348z M679.5,355.5v-5.9
		h1.8v5.9H679.5z"/>
	<path class="st0" d="M682.8,351.5c0-0.7,0-1.4,0-1.9h1.6l0.1,0.8l0,0c0.2-0.4,0.8-0.9,1.8-0.9c1.2,0,2.1,0.8,2.1,2.5v3.5h-1.8v-3.2
		c0-0.8-0.3-1.3-0.9-1.3c-0.5,0-0.8,0.3-0.9,0.7c0,0.1-0.1,0.3-0.1,0.5v3.4h-1.8L682.8,351.5L682.8,351.5z"/>
	<path class="st0" d="M688.6,356.6c0.5,0,0.9-0.1,1.1-0.4c0.3-0.3,0.4-0.7,0.4-1.9v-4.7h1.8v5.1c0,1.3-0.3,2.1-0.8,2.6
		s-1.4,0.7-2.3,0.7L688.6,356.6z M691.9,348c0,0.5-0.4,0.9-1,0.9s-0.9-0.4-0.9-0.9s0.4-0.9,1-0.9C691.5,347.1,691.9,347.5,691.9,348
		z"/>
	<path class="st0" d="M694.7,353.2c0.1,0.8,0.8,1.1,1.7,1.1c0.6,0,1.1-0.1,1.6-0.2l0.2,1.2c-0.6,0.2-1.3,0.4-2.1,0.4
		c-2,0-3.1-1.2-3.1-3c0-1.5,0.9-3.1,3-3.1c1.9,0,2.6,1.5,2.6,2.9c0,0.3,0,0.6-0.1,0.7H694.7z M696.8,351.9c0-0.4-0.2-1.2-1-1.2
		s-1.1,0.7-1.1,1.2H696.8z"/>
	<path class="st0" d="M704,355.4c-0.3,0.1-0.9,0.3-1.6,0.3c-1.9,0-3.1-1.2-3.1-3c0-1.7,1.2-3.1,3.4-3.1c0.5,0,1,0.1,1.4,0.2
		l-0.3,1.4c-0.2-0.1-0.5-0.2-1-0.2c-1,0-1.6,0.7-1.6,1.6c0,1.1,0.7,1.6,1.6,1.6c0.4,0,0.8-0.1,1-0.2L704,355.4z"/>
	<path class="st0" d="M707.3,348v1.7h1.3v1.3h-1.3v2.1c0,0.7,0.2,1,0.7,1c0.2,0,0.4,0,0.5,0v1.4c-0.2,0.1-0.7,0.2-1.2,0.2
		c-0.6,0-1.1-0.2-1.4-0.5c-0.3-0.3-0.5-0.9-0.5-1.7V351h-0.8v-1.3h0.8v-1.3L707.3,348z"/>
	<path class="st0" d="M711,353.2c0.1,0.8,0.8,1.1,1.7,1.1c0.6,0,1.1-0.1,1.6-0.2l0.2,1.2c-0.6,0.2-1.3,0.4-2.1,0.4
		c-2,0-3.1-1.2-3.1-3c0-1.5,0.9-3.1,3-3.1c1.9,0,2.6,1.5,2.6,2.9c0,0.3,0,0.6-0.1,0.7H711z M713.1,351.9c0-0.4-0.2-1.2-1-1.2
		s-1.1,0.7-1.1,1.2H713.1z"/>
	<path class="st0" d="M715.9,351.6c0-0.9,0-1.4,0-1.9h1.6l0.1,1.1l0,0c0.3-0.9,1-1.2,1.6-1.2c0.2,0,0.3,0,0.4,0v1.7
		c-0.1,0-0.3,0-0.5,0c-0.7,0-1.1,0.4-1.2,0.9c0,0.1,0,0.3,0,0.4v3h-1.8v-4H715.9z"/>
	<path class="st0" d="M728.6,347v6.8c0,0.7,0,1.4,0,1.8H727l-0.1-0.9l0,0c-0.4,0.7-1.1,1-1.8,1c-1.4,0-2.5-1.2-2.5-3
		c0-2,1.2-3.1,2.6-3.1c0.7,0,1.3,0.3,1.5,0.7l0,0V347H728.6z M726.8,352.1c0-0.1,0-0.2,0-0.3c-0.1-0.5-0.5-0.9-1.1-0.9
		c-0.8,0-1.3,0.7-1.3,1.7s0.5,1.6,1.2,1.6c0.5,0,0.9-0.4,1.1-0.9c0-0.1,0-0.3,0-0.4L726.8,352.1L726.8,352.1z"/>
	<path class="st0" d="M735.6,353.6c0,0.8,0,1.4,0,1.9H734l-0.1-0.8l0,0c-0.2,0.4-0.8,1-1.8,1c-1.2,0-2.1-0.7-2.1-2.6v-3.4h1.8v3.2
		c0,0.9,0.3,1.4,0.9,1.4c0.5,0,0.8-0.3,0.9-0.6c0-0.1,0.1-0.3,0.1-0.4v-3.5h1.8L735.6,353.6L735.6,353.6z"/>
	<path class="st0" d="M740.8,349.6l0.8,2.7c0.1,0.5,0.3,1,0.3,1.4l0,0c0.1-0.5,0.2-0.9,0.3-1.4l0.8-2.7h1.9l-2.2,5.9H741l-2.1-5.9
		H740.8z"/>
	<path class="st0" d="M747,353.2c0.1,0.8,0.8,1.1,1.7,1.1c0.6,0,1.1-0.1,1.6-0.2l0.2,1.2c-0.6,0.2-1.3,0.4-2.1,0.4
		c-2,0-3.1-1.2-3.1-3c0-1.5,0.9-3.1,3-3.1c1.9,0,2.6,1.5,2.6,2.9c0,0.3,0,0.6-0.1,0.7H747z M749.2,351.9c0-0.4-0.2-1.2-1-1.2
		s-1.1,0.7-1.1,1.2H749.2z"/>
	<path class="st0" d="M752,351.5c0-0.7,0-1.4,0-1.9h1.6l0.1,0.8l0,0c0.2-0.4,0.8-0.9,1.8-0.9c1.2,0,2.1,0.8,2.1,2.5v3.5h-1.8v-3.2
		c0-0.8-0.3-1.3-0.9-1.3c-0.5,0-0.8,0.3-0.9,0.7c0,0.1-0.1,0.3-0.1,0.5v3.4H752V351.5z"/>
	<path class="st0" d="M760.9,348c0,0.5-0.4,0.9-1,0.9s-1-0.4-0.9-0.9c0-0.5,0.4-0.9,1-0.9S760.9,347.5,760.9,348z M759,355.5v-5.9
		h1.8v5.9H759z"/>
	<path class="st0" d="M762.3,351.5c0-0.7,0-1.4,0-1.9h1.6l0.1,0.8l0,0c0.2-0.4,0.8-0.9,1.8-0.9c1.2,0,2.1,0.8,2.1,2.5v3.5H766v-3.2
		c0-0.8-0.3-1.3-0.9-1.3c-0.5,0-0.8,0.3-0.9,0.7c0,0.1-0.1,0.3-0.1,0.5v3.4h-1.8V351.5z"/>
</g>
<g class="st1">
	<path class="st0" d="M633.3,441.7h1.8v8.5h-1.8V441.7z"/>
	<path class="st0" d="M640,450.2l-0.1-0.6l0,0c-0.4,0.5-1,0.7-1.7,0.7c-1.2,0-1.9-0.9-1.9-1.8c0-1.5,1.4-2.3,3.4-2.2v-0.1
		c0-0.3-0.2-0.8-1.1-0.8c-0.6,0-1.2,0.2-1.6,0.4l-0.3-1.2c0.4-0.2,1.2-0.5,2.3-0.5c2,0,2.6,1.2,2.6,2.5v2c0,0.6,0,1.1,0.1,1.4H640
		V450.2z M639.8,447.4c-1,0-1.7,0.2-1.7,0.9c0,0.5,0.3,0.7,0.7,0.7c0.5,0,0.8-0.3,0.9-0.7c0-0.1,0-0.2,0-0.3L639.8,447.4
		L639.8,447.4z"/>
	<path class="st0" d="M649.8,450c-0.3,0.1-0.9,0.3-1.6,0.3c-1.9,0-3.1-1.2-3.1-3c0-1.7,1.2-3.1,3.4-3.1c0.5,0,1,0.1,1.4,0.2
		l-0.3,1.4c-0.2-0.1-0.5-0.2-1-0.2c-1,0-1.6,0.7-1.6,1.6c0,1.1,0.7,1.6,1.6,1.6c0.4,0,0.8-0.1,1-0.2L649.8,450z"/>
	<path class="st0" d="M656.5,447.2c0,2.1-1.5,3.1-3.1,3.1c-1.7,0-3-1.1-3-3s1.2-3.1,3.1-3.1C655.3,444.2,656.5,445.4,656.5,447.2z
		 M652.2,447.2c0,1,0.4,1.8,1.2,1.8c0.7,0,1.2-0.7,1.2-1.8c0-0.9-0.3-1.8-1.2-1.8C652.6,445.5,652.2,446.4,652.2,447.2z"/>
	<path class="st0" d="M657.6,446.2c0-0.9,0-1.4,0-1.9h1.6l0.1,1.1l0,0c0.3-0.9,1-1.2,1.6-1.2c0.2,0,0.3,0,0.4,0v1.7
		c-0.1,0-0.3,0-0.5,0c-0.7,0-1.1,0.4-1.2,0.9c0,0.1,0,0.3,0,0.4v3h-1.8v-4H657.6z"/>
	<path class="st0" d="M662.1,450.2c0-0.4,0-1.1,0-1.8v-6.8h1.8v3.3l0,0c0.3-0.5,1-0.8,1.8-0.8c1.4,0,2.4,1.2,2.4,3
		c0,2.1-1.3,3.2-2.7,3.2c-0.7,0-1.3-0.3-1.8-0.9l0,0l-0.1,0.8L662.1,450.2L662.1,450.2z M664,447.7c0,0.1,0,0.2,0,0.3
		c0.1,0.5,0.5,0.9,1.1,0.9c0.8,0,1.3-0.6,1.3-1.7c0-0.9-0.4-1.6-1.3-1.6c-0.5,0-0.9,0.4-1.1,0.9c0,0.1,0,0.2,0,0.3V447.7z"/>
	<path class="st0" d="M670.7,447.8c0.1,0.8,0.8,1.1,1.7,1.1c0.6,0,1.1-0.1,1.6-0.2l0.2,1.2c-0.6,0.2-1.3,0.4-2.1,0.4
		c-2,0-3.1-1.2-3.1-3c0-1.5,0.9-3.1,3-3.1c1.9,0,2.6,1.5,2.6,2.9c0,0.3,0,0.6-0.1,0.7H670.7z M672.9,446.6c0-0.4-0.2-1.2-1-1.2
		s-1.1,0.7-1.1,1.2H672.9z"/>
	<path class="st0" d="M677.6,442.7c0,0.5-0.4,0.9-1,0.9s-1-0.4-0.9-0.9c0-0.5,0.4-0.9,1-0.9S677.5,442.2,677.6,442.7z M675.7,450.2
		v-5.9h1.8v5.9H675.7z"/>
	<path class="st0" d="M679,441.7h1.8v8.5H679V441.7z"/>
	<path class="st0" d="M682.3,441.7h1.8v8.5h-1.8V441.7z"/>
	<path class="st0" d="M687,447.8c0.1,0.8,0.8,1.1,1.7,1.1c0.6,0,1.1-0.1,1.6-0.2l0.2,1.2c-0.6,0.2-1.3,0.4-2.1,0.4
		c-2,0-3.1-1.2-3.1-3c0-1.5,0.9-3.1,3-3.1c1.9,0,2.6,1.5,2.6,2.9c0,0.3,0,0.6-0.1,0.7H687z M689.1,446.6c0-0.4-0.2-1.2-1-1.2
		s-1.1,0.7-1.1,1.2H689.1z"/>
	<path class="st0" d="M691,451.6c0.4-1.1,0.7-2.3,0.9-3.4l1.9-0.1c-0.4,1.2-0.9,2.5-1.5,3.4L691,451.6z"/>
	<path class="st0" d="M701.7,450c-0.3,0.1-0.9,0.3-1.6,0.3c-1.9,0-3.1-1.2-3.1-3c0-1.7,1.2-3.1,3.4-3.1c0.5,0,1,0.1,1.4,0.2
		l-0.3,1.4c-0.2-0.1-0.5-0.2-1-0.2c-1,0-1.6,0.7-1.6,1.6c0,1.1,0.7,1.6,1.6,1.6c0.4,0,0.8-0.1,1-0.2L701.7,450z"/>
	<path class="st0" d="M705,442c-0.4,1.2-0.9,2.4-1.4,3.3l-1.1,0.1c0.4-1,0.7-2.2,0.8-3.2L705,442z"/>
	<path class="st0" d="M706.3,447.8c0.1,0.8,0.8,1.1,1.7,1.1c0.6,0,1.1-0.1,1.6-0.2l0.2,1.2c-0.6,0.2-1.3,0.4-2.1,0.4
		c-2,0-3.1-1.2-3.1-3c0-1.5,0.9-3.1,3-3.1c1.9,0,2.6,1.5,2.6,2.9c0,0.3,0,0.6-0.1,0.7H706.3z M708.4,446.6c0-0.4-0.2-1.2-1-1.2
		s-1.1,0.7-1.1,1.2H708.4z"/>
	<path class="st0" d="M711.2,448.6c0.3,0.2,1,0.4,1.6,0.4s0.8-0.2,0.8-0.5s-0.2-0.4-0.9-0.7c-1.2-0.4-1.7-1.1-1.7-1.8
		c0-1.1,0.9-1.9,2.4-1.9c0.7,0,1.3,0.2,1.7,0.3l-0.3,1.3c-0.3-0.1-0.8-0.3-1.3-0.3c-0.4,0-0.7,0.2-0.7,0.5s0.2,0.4,0.9,0.7
		c1.1,0.4,1.6,0.9,1.6,1.8c0,1.1-0.9,1.9-2.5,1.9c-0.8,0-1.5-0.2-1.9-0.4L711.2,448.6z"/>
	<path class="st0" d="M718.4,442.6v1.7h1.3v1.3h-1.3v2.1c0,0.7,0.2,1,0.7,1c0.2,0,0.4,0,0.5,0v1.4c-0.2,0.1-0.7,0.2-1.2,0.2
		c-0.6,0-1.1-0.2-1.4-0.5c-0.3-0.3-0.5-0.9-0.5-1.7v-2.4h-0.8v-1.3h0.8V443L718.4,442.6z"/>
	<path class="st0" d="M728.8,448.3c0,0.8,0,1.4,0,1.9h-1.6l-0.1-0.8l0,0c-0.2,0.4-0.8,1-1.8,1c-1.2,0-2.1-0.7-2.1-2.6v-3.4h1.8v3.2
		c0,0.9,0.3,1.4,0.9,1.4c0.5,0,0.8-0.3,0.9-0.6c0-0.1,0.1-0.3,0.1-0.4v-3.5h1.8L728.8,448.3L728.8,448.3z"/>
	<path class="st0" d="M730.2,446.2c0-0.7,0-1.4,0-1.9h1.6l0.1,0.8l0,0c0.2-0.4,0.8-0.9,1.8-0.9c1.2,0,2.1,0.8,2.1,2.5v3.5H734V447
		c0-0.8-0.3-1.3-0.9-1.3c-0.5,0-0.8,0.3-0.9,0.7c0,0.1-0.1,0.3-0.1,0.5v3.4h-1.8L730.2,446.2L730.2,446.2z"/>
	<path class="st0" d="M744.1,450c-0.3,0.1-0.9,0.3-1.6,0.3c-1.9,0-3.1-1.2-3.1-3c0-1.7,1.2-3.1,3.4-3.1c0.5,0,1,0.1,1.4,0.2
		l-0.3,1.4c-0.2-0.1-0.5-0.2-1-0.2c-1,0-1.6,0.7-1.6,1.6c0,1.1,0.7,1.6,1.6,1.6c0.4,0,0.8-0.1,1-0.2L744.1,450z"/>
	<path class="st0" d="M745.1,446.2c0-0.9,0-1.4,0-1.9h1.6l0.1,1.1l0,0c0.3-0.9,1-1.2,1.6-1.2c0.2,0,0.3,0,0.4,0v1.7
		c-0.1,0-0.3,0-0.5,0c-0.7,0-1.1,0.4-1.2,0.9c0,0.1,0,0.3,0,0.4v3h-1.8v-4H745.1z"/>
	<path class="st0" d="M751,447.8c0.1,0.8,0.8,1.1,1.7,1.1c0.6,0,1.1-0.1,1.6-0.2l0.2,1.2c-0.6,0.2-1.3,0.4-2.1,0.4
		c-2,0-3.1-1.2-3.1-3c0-1.5,0.9-3.1,3-3.1c1.9,0,2.6,1.5,2.6,2.9c0,0.3,0,0.6-0.1,0.7H751z M753.1,446.6c0-0.4-0.2-1.2-1-1.2
		s-1.1,0.7-1.1,1.2H753.1z"/>
	<path class="st0" d="M761.4,448.3c0,0.8,0,1.4,0,1.9h-1.6l-0.1-0.8l0,0c-0.2,0.4-0.8,1-1.8,1c-1.2,0-2.1-0.7-2.1-2.6v-3.4h1.8v3.2
		c0,0.9,0.3,1.4,0.9,1.4c0.5,0,0.8-0.3,0.9-0.6c0-0.1,0.1-0.3,0.1-0.4v-3.5h1.8L761.4,448.3L761.4,448.3z"/>
	<path class="st0" d="M764.3,444.3l0.6,1c0.2,0.3,0.3,0.6,0.5,0.9l0,0c0.2-0.3,0.3-0.6,0.5-0.9l0.5-0.9h2l-1.9,2.8l2,3.1h-2.1
		l-0.6-1.1c-0.2-0.3-0.3-0.6-0.5-0.9l0,0c-0.1,0.3-0.3,0.6-0.4,0.9l-0.6,1.1h-2l2-3l-1.9-2.9h1.9V444.3z"/>
	<path class="st0" d="M777.2,441.7v6.8c0,0.7,0,1.4,0,1.8h-1.6l-0.1-0.9l0,0c-0.4,0.7-1.1,1-1.8,1c-1.4,0-2.5-1.2-2.5-3
		c0-2,1.2-3.1,2.6-3.1c0.7,0,1.3,0.3,1.5,0.7l0,0v-3.2L777.2,441.7L777.2,441.7z M775.4,446.8c0-0.1,0-0.2,0-0.3
		c-0.1-0.5-0.5-0.9-1.1-0.9c-0.8,0-1.3,0.7-1.3,1.7s0.5,1.6,1.2,1.6c0.5,0,0.9-0.4,1.1-0.9c0-0.1,0-0.3,0-0.4L775.4,446.8
		L775.4,446.8z"/>
	<path class="st0" d="M782,450.2l-0.1-0.6l0,0c-0.4,0.5-1,0.7-1.7,0.7c-1.2,0-1.9-0.9-1.9-1.8c0-1.5,1.4-2.3,3.4-2.2v-0.1
		c0-0.3-0.2-0.8-1.1-0.8c-0.6,0-1.2,0.2-1.6,0.4l-0.3-1.2c0.4-0.2,1.2-0.5,2.3-0.5c2,0,2.6,1.2,2.6,2.5v2c0,0.6,0,1.1,0.1,1.4H782
		V450.2z M781.8,447.4c-1,0-1.7,0.2-1.7,0.9c0,0.5,0.3,0.7,0.7,0.7c0.5,0,0.8-0.3,0.9-0.7c0-0.1,0-0.2,0-0.3L781.8,447.4
		L781.8,447.4z"/>
	<path class="st0" d="M785,446.2c0-0.7,0-1.4,0-1.9h1.6l0.1,0.8l0,0c0.2-0.4,0.8-0.9,1.8-0.9c1.2,0,2.1,0.8,2.1,2.5v3.5h-1.8V447
		c0-0.8-0.3-1.3-0.9-1.3c-0.5,0-0.8,0.3-0.9,0.7c0,0.1-0.1,0.3-0.1,0.5v3.4H785V446.2z"/>
	<path class="st0" d="M792.1,448.6c0.3,0.2,1,0.4,1.6,0.4s0.8-0.2,0.8-0.5s-0.2-0.4-0.9-0.7c-1.2-0.4-1.7-1.1-1.7-1.8
		c0-1.1,0.9-1.9,2.4-1.9c0.7,0,1.3,0.2,1.7,0.3l-0.3,1.3c-0.3-0.1-0.8-0.3-1.3-0.3c-0.4,0-0.7,0.2-0.7,0.5s0.2,0.4,0.9,0.7
		c1.1,0.4,1.6,0.9,1.6,1.8c0,1.1-0.9,1.9-2.5,1.9c-0.8,0-1.5-0.2-1.9-0.4L792.1,448.6z"/>
	<path class="st0" d="M799.7,441.7h1.8v8.5h-1.8V441.7z"/>
	<path class="st0" d="M806.3,450.2l-0.1-0.6l0,0c-0.4,0.5-1,0.7-1.7,0.7c-1.2,0-1.9-0.9-1.9-1.8c0-1.5,1.4-2.3,3.4-2.2v-0.1
		c0-0.3-0.2-0.8-1.1-0.8c-0.6,0-1.2,0.2-1.6,0.4l-0.3-1.2c0.4-0.2,1.2-0.5,2.3-0.5c2,0,2.6,1.2,2.6,2.5v2c0,0.6,0,1.1,0.1,1.4h-1.7
		V450.2z M806.1,447.4c-1,0-1.7,0.2-1.7,0.9c0,0.5,0.3,0.7,0.7,0.7c0.5,0,0.8-0.3,0.9-0.7c0-0.1,0-0.2,0-0.3L806.1,447.4
		L806.1,447.4z"/>
	<path class="st0" d="M811.8,446.3c0-0.8,0-1.4,0-2h1.6l0.1,0.8l0,0c0.4-0.6,1.1-0.9,2-0.9c1.3,0,2.4,1.1,2.4,3
		c0,2.1-1.4,3.1-2.7,3.1c-0.7,0-1.3-0.3-1.5-0.7l0,0v2.9h-1.8L811.8,446.3L811.8,446.3z M813.6,447.7c0,0.1,0,0.3,0,0.4
		c0.1,0.5,0.5,0.9,1.1,0.9c0.8,0,1.3-0.7,1.3-1.7c0-0.9-0.4-1.6-1.2-1.6c-0.5,0-1,0.4-1.1,0.9c0,0.1,0,0.2,0,0.3L813.6,447.7
		L813.6,447.7z"/>
	<path class="st0" d="M822.3,450.2l-0.1-0.6l0,0c-0.4,0.5-1,0.7-1.7,0.7c-1.2,0-1.9-0.9-1.9-1.8c0-1.5,1.4-2.3,3.4-2.2v-0.1
		c0-0.3-0.2-0.8-1.1-0.8c-0.6,0-1.2,0.2-1.6,0.4l-0.3-1.2c0.4-0.2,1.2-0.5,2.3-0.5c2,0,2.6,1.2,2.6,2.5v2c0,0.6,0,1.1,0.1,1.4h-1.7
		V450.2z M822.1,447.4c-1,0-1.7,0.2-1.7,0.9c0,0.5,0.3,0.7,0.7,0.7c0.5,0,0.8-0.3,0.9-0.7c0-0.1,0-0.2,0-0.3L822.1,447.4
		L822.1,447.4z"/>
	<path class="st0" d="M827.2,442.6v1.7h1.3v1.3h-1.3v2.1c0,0.7,0.2,1,0.7,1c0.2,0,0.4,0,0.5,0v1.4c-0.2,0.1-0.7,0.2-1.2,0.2
		c-0.6,0-1.1-0.2-1.4-0.5c-0.3-0.3-0.5-0.9-0.5-1.7v-2.4h-0.8v-1.3h0.8V443L827.2,442.6z"/>
	<path class="st0" d="M831.6,442.6v1.7h1.3v1.3h-1.3v2.1c0,0.7,0.2,1,0.7,1c0.2,0,0.4,0,0.5,0v1.4c-0.2,0.1-0.7,0.2-1.2,0.2
		c-0.6,0-1.1-0.2-1.4-0.5c-0.3-0.3-0.5-0.9-0.5-1.7v-2.4H829v-1.3h0.8V443L831.6,442.6z"/>
	<path class="st0" d="M835.3,447.8c0.1,0.8,0.8,1.1,1.7,1.1c0.6,0,1.1-0.1,1.6-0.2l0.2,1.2c-0.6,0.2-1.3,0.4-2.1,0.4
		c-2,0-3.1-1.2-3.1-3c0-1.5,0.9-3.1,3-3.1c1.9,0,2.6,1.5,2.6,2.9c0,0.3,0,0.6-0.1,0.7H835.3z M837.5,446.6c0-0.4-0.2-1.2-1-1.2
		s-1.1,0.7-1.1,1.2H837.5z"/>
</g>
<g class="st1">
	<path class="st0" d="M637.2,463.9L637.2,463.9c-0.4,0.6-1,0.9-1.8,0.9c-1.3,0-2.4-1.1-2.4-3c0-2.1,1.3-3.1,2.6-3.1
		c0.8,0,1.3,0.3,1.6,0.8l0,0v-0.7h1.8c0,0.6,0,1.2,0,1.8v6.5h-1.8L637.2,463.9L637.2,463.9z M637.2,461.2c0-0.1,0-0.2,0-0.3
		c-0.1-0.5-0.5-0.9-1-0.9c-0.8,0-1.3,0.7-1.3,1.7s0.5,1.6,1.2,1.6c0.5,0,0.9-0.3,1.1-0.8c0-0.1,0-0.3,0-0.4V461.2z"/>
	<path class="st0" d="M646,462.7c0,0.8,0,1.4,0,1.9h-1.6l-0.1-0.8l0,0c-0.2,0.4-0.8,1-1.8,1c-1.2,0-2.1-0.7-2.1-2.6v-3.4h1.8v3.2
		c0,0.9,0.3,1.4,0.9,1.4c0.5,0,0.8-0.3,0.9-0.6c0-0.1,0.1-0.3,0.1-0.4v-3.5h1.8L646,462.7L646,462.7z"/>
	<path class="st0" d="M649.4,457.1c0,0.5-0.4,0.9-1,0.9s-1-0.4-0.9-0.9c0-0.5,0.4-0.9,1-0.9C649,456.2,649.4,456.6,649.4,457.1z
		 M647.5,464.6v-5.9h1.8v5.9H647.5z"/>
	<path class="st0" d="M653.2,460.7c0-0.8,0-1.4,0-2h1.6l0.1,0.8l0,0c0.4-0.6,1.1-0.9,2-0.9c1.3,0,2.4,1.1,2.4,3
		c0,2.1-1.4,3.1-2.7,3.1c-0.7,0-1.3-0.3-1.5-0.7l0,0v2.9h-1.8L653.2,460.7L653.2,460.7z M655,462.1c0,0.1,0,0.3,0,0.4
		c0.1,0.5,0.5,0.9,1.1,0.9c0.8,0,1.3-0.7,1.3-1.7c0-0.9-0.4-1.6-1.2-1.6c-0.5,0-1,0.4-1.1,0.9c0,0.1,0,0.2,0,0.3L655,462.1
		L655,462.1z"/>
	<path class="st0" d="M661.8,462.2c0.1,0.8,0.8,1.1,1.7,1.1c0.6,0,1.1-0.1,1.6-0.2l0.2,1.2c-0.6,0.2-1.3,0.4-2.1,0.4
		c-2,0-3.1-1.2-3.1-3c0-1.5,0.9-3.1,3-3.1c1.9,0,2.6,1.5,2.6,2.9c0,0.3,0,0.6-0.1,0.7H661.8z M664,461c0-0.4-0.2-1.2-1-1.2
		s-1.1,0.7-1.1,1.2H664z"/>
	<path class="st0" d="M666.7,460.6c0-0.9,0-1.4,0-1.9h1.6l0.1,1.1l0,0c0.3-0.9,1-1.2,1.6-1.2c0.2,0,0.3,0,0.4,0v1.7
		c-0.1,0-0.3,0-0.5,0c-0.7,0-1.1,0.4-1.2,0.9c0,0.1,0,0.3,0,0.4v3h-1.8v-4H666.7z"/>
	<path class="st0" d="M671.3,460.6c0-0.7,0-1.4,0-1.9h1.5l0.1,0.8l0,0c0.3-0.4,0.8-0.9,1.8-0.9c0.8,0,1.4,0.4,1.6,1l0,0
		c0.2-0.3,0.5-0.5,0.8-0.7s0.7-0.3,1.1-0.3c1.1,0,2,0.8,2,2.5v3.5h-1.8v-3.2c0-0.9-0.3-1.3-0.9-1.3c-0.4,0-0.7,0.3-0.8,0.6
		c0,0.1-0.1,0.3-0.1,0.5v3.4h-1.8v-3.3c0-0.7-0.3-1.2-0.8-1.2s-0.7,0.4-0.9,0.7c-0.1,0.1-0.1,0.3-0.1,0.5v3.4h-1.8v-4.1H671.3z"/>
	<path class="st0" d="M683,462.2c0.1,0.8,0.8,1.1,1.7,1.1c0.6,0,1.1-0.1,1.6-0.2l0.2,1.2c-0.6,0.2-1.3,0.4-2.1,0.4
		c-2,0-3.1-1.2-3.1-3c0-1.5,0.9-3.1,3-3.1c1.9,0,2.6,1.5,2.6,2.9c0,0.3,0,0.6-0.1,0.7H683z M685.2,461c0-0.4-0.2-1.2-1-1.2
		s-1.1,0.7-1.1,1.2H685.2z"/>
	<path class="st0" d="M690,457v1.7h1.3v1.3H690v2.1c0,0.7,0.2,1,0.7,1c0.2,0,0.4,0,0.5,0v1.4c-0.2,0.1-0.7,0.2-1.2,0.2
		c-0.6,0-1.1-0.2-1.4-0.5c-0.3-0.3-0.5-0.9-0.5-1.7v-2.4h-0.8v-1.3h0.8v-1.3L690,457z"/>
	<path class="st0" d="M700.5,456.1v6.8c0,0.7,0,1.4,0,1.8h-1.6l-0.1-0.9l0,0c-0.4,0.7-1.1,1-1.8,1c-1.4,0-2.5-1.2-2.5-3
		c0-2,1.2-3.1,2.6-3.1c0.7,0,1.3,0.3,1.5,0.7l0,0v-3.2L700.5,456.1L700.5,456.1z M698.6,461.2c0-0.1,0-0.2,0-0.3
		c-0.1-0.5-0.5-0.9-1.1-0.9c-0.8,0-1.3,0.7-1.3,1.7s0.5,1.6,1.2,1.6c0.5,0,0.9-0.4,1.1-0.9c0-0.1,0-0.3,0-0.4L698.6,461.2
		L698.6,461.2z"/>
	<path class="st0" d="M703.3,462.2c0.1,0.8,0.8,1.1,1.7,1.1c0.6,0,1.1-0.1,1.6-0.2l0.2,1.2c-0.6,0.2-1.3,0.4-2.1,0.4
		c-2,0-3.1-1.2-3.1-3c0-1.5,0.9-3.1,3-3.1c1.9,0,2.6,1.5,2.6,2.9c0,0.3,0,0.6-0.1,0.7H703.3z M705.5,461c0-0.4-0.2-1.2-1-1.2
		s-1.1,0.7-1.1,1.2H705.5z"/>
	<path class="st0" d="M710.7,463c0.3,0.2,1,0.4,1.6,0.4s0.8-0.2,0.8-0.5s-0.2-0.4-0.9-0.7c-1.2-0.4-1.7-1.1-1.7-1.8
		c0-1.1,0.9-1.9,2.4-1.9c0.7,0,1.3,0.2,1.7,0.3l-0.3,1.3c-0.3-0.1-0.8-0.3-1.3-0.3c-0.4,0-0.7,0.2-0.7,0.5s0.2,0.4,0.9,0.7
		c1.1,0.4,1.6,0.9,1.6,1.8c0,1.1-0.9,1.9-2.5,1.9c-0.8,0-1.5-0.2-1.9-0.4L710.7,463z"/>
	<path class="st0" d="M717.9,457v1.7h1.3v1.3h-1.3v2.1c0,0.7,0.2,1,0.7,1c0.2,0,0.4,0,0.5,0v1.4c-0.2,0.1-0.7,0.2-1.2,0.2
		c-0.6,0-1.1-0.2-1.4-0.5c-0.3-0.3-0.5-0.9-0.5-1.7v-2.4h-0.8v-1.3h0.8v-1.3L717.9,457z"/>
	<path class="st0" d="M726,461.6c0,2.1-1.5,3.1-3.1,3.1c-1.7,0-3-1.1-3-3s1.2-3.1,3.1-3.1C724.8,458.6,726,459.8,726,461.6z
		 M721.8,461.6c0,1,0.4,1.8,1.2,1.8c0.7,0,1.2-0.7,1.2-1.8c0-0.9-0.3-1.8-1.2-1.8C722.1,459.9,721.8,460.8,721.8,461.6z"/>
	<path class="st0" d="M731.6,464.4c-0.3,0.1-0.9,0.3-1.6,0.3c-1.9,0-3.1-1.2-3.1-3c0-1.7,1.2-3.1,3.4-3.1c0.5,0,1,0.1,1.4,0.2
		l-0.3,1.4c-0.2-0.1-0.5-0.2-1-0.2c-1,0-1.6,0.7-1.6,1.6c0,1.1,0.7,1.6,1.6,1.6c0.4,0,0.8-0.1,1-0.2L731.6,464.4z"/>
	<path class="st0" d="M734.4,461.2L734.4,461.2c0.2-0.2,0.3-0.5,0.4-0.7l1.2-1.8h2.2l-2.1,2.4l2.4,3.5h-2.2l-1.4-2.4l-0.5,0.6v1.8
		h-1.8v-8.5h1.8L734.4,461.2L734.4,461.2z"/>
	<path class="st0" d="M740.4,462.2c0.1,0.8,0.8,1.1,1.7,1.1c0.6,0,1.1-0.1,1.6-0.2l0.2,1.2c-0.6,0.2-1.3,0.4-2.1,0.4
		c-2,0-3.1-1.2-3.1-3c0-1.5,0.9-3.1,3-3.1c1.9,0,2.6,1.5,2.6,2.9c0,0.3,0,0.6-0.1,0.7H740.4z M742.5,461c0-0.4-0.2-1.2-1-1.2
		s-1.1,0.7-1.1,1.2H742.5z"/>
	<path class="st0" d="M745.3,460.6c0-0.9,0-1.4,0-1.9h1.6l0.1,1.1l0,0c0.3-0.9,1-1.2,1.6-1.2c0.2,0,0.3,0,0.4,0v1.7
		c-0.1,0-0.3,0-0.5,0c-0.7,0-1.1,0.4-1.2,0.9c0,0.1,0,0.3,0,0.4v3h-1.8v-4H745.3z"/>
	<path class="st0" d="M752.3,456.1h1.8v8.5h-1.8V456.1z"/>
	<path class="st0" d="M757,462.2c0.1,0.8,0.8,1.1,1.7,1.1c0.6,0,1.1-0.1,1.6-0.2l0.2,1.2c-0.6,0.2-1.3,0.4-2.1,0.4
		c-2,0-3.1-1.2-3.1-3c0-1.5,0.9-3.1,3-3.1c1.9,0,2.6,1.5,2.6,2.9c0,0.3,0,0.6-0.1,0.7H757z M759.1,461c0-0.4-0.2-1.2-1-1.2
		s-1.1,0.7-1.1,1.2H759.1z"/>
	<path class="st0" d="M764.3,460.7c0-0.8,0-1.4,0-2h1.6l0.1,0.8l0,0c0.4-0.6,1.1-0.9,2-0.9c1.3,0,2.4,1.1,2.4,3
		c0,2.1-1.4,3.1-2.7,3.1c-0.7,0-1.3-0.3-1.5-0.7l0,0v2.9h-1.8L764.3,460.7L764.3,460.7z M766.2,462.1c0,0.1,0,0.3,0,0.4
		c0.1,0.5,0.5,0.9,1.1,0.9c0.8,0,1.3-0.7,1.3-1.7c0-0.9-0.4-1.6-1.2-1.6c-0.5,0-1,0.4-1.1,0.9c0,0.1,0,0.2,0,0.3L766.2,462.1
		L766.2,462.1z"/>
	<path class="st0" d="M777.3,461.6c0,2.1-1.5,3.1-3.1,3.1c-1.7,0-3-1.1-3-3s1.2-3.1,3.1-3.1C776.1,458.6,777.3,459.8,777.3,461.6z
		 M773.1,461.6c0,1,0.4,1.8,1.2,1.8c0.7,0,1.2-0.7,1.2-1.8c0-0.9-0.3-1.8-1.2-1.8C773.4,459.9,773.1,460.8,773.1,461.6z"/>
	<path class="st0" d="M778.5,456.1h1.8v8.5h-1.8V456.1z"/>
	<path class="st0" d="M781.8,456.1h1.8v8.5h-1.8V456.1z"/>
	<path class="st0" d="M786.5,462.2c0.1,0.8,0.8,1.1,1.7,1.1c0.6,0,1.1-0.1,1.6-0.2l0.2,1.2c-0.6,0.2-1.3,0.4-2.1,0.4
		c-2,0-3.1-1.2-3.1-3c0-1.5,0.9-3.1,3-3.1c1.9,0,2.6,1.5,2.6,2.9c0,0.3,0,0.6-0.1,0.7H786.5z M788.6,461c0-0.4-0.2-1.2-1-1.2
		s-1.1,0.7-1.1,1.2H788.6z"/>
	<path class="st0" d="M791.4,460.6c0-0.7,0-1.4,0-1.9h1.6l0.1,0.8l0,0c0.2-0.4,0.8-0.9,1.8-0.9c1.2,0,2.1,0.8,2.1,2.5v3.5h-1.8v-3.2
		c0-0.8-0.3-1.3-0.9-1.3c-0.5,0-0.8,0.3-0.9,0.7c0,0.1-0.1,0.3-0.1,0.5v3.4h-1.8L791.4,460.6L791.4,460.6z"/>
</g>
<g class="st1">
	<path class="st0" d="M223.6,510.4h1.8v8.5h-1.8V510.4z"/>
	<path class="st0" d="M228.4,516.6c0.1,0.8,0.8,1.1,1.7,1.1c0.6,0,1.1-0.1,1.6-0.2l0.2,1.2c-0.6,0.2-1.3,0.4-2.1,0.4
		c-2,0-3.1-1.2-3.1-3c0-1.5,0.9-3.1,3-3.1c1.9,0,2.6,1.5,2.6,2.9c0,0.3,0,0.6-0.1,0.7L228.4,516.6L228.4,516.6z M230.5,515.3
		c0-0.4-0.2-1.2-1-1.2s-1.1,0.7-1.1,1.2H230.5z"/>
	<path class="st0" d="M233.3,517.3c0.3,0.2,1,0.4,1.6,0.4s0.8-0.2,0.8-0.5s-0.2-0.4-0.9-0.7c-1.2-0.4-1.7-1.1-1.7-1.8
		c0-1.1,0.9-1.9,2.4-1.9c0.7,0,1.3,0.2,1.7,0.3l-0.3,1.3c-0.3-0.1-0.8-0.3-1.3-0.3c-0.4,0-0.7,0.2-0.7,0.5s0.2,0.4,0.9,0.7
		c1.1,0.4,1.6,0.9,1.6,1.8c0,1.1-0.9,1.9-2.5,1.9c-0.8,0-1.5-0.2-1.9-0.4L233.3,517.3z"/>
	<path class="st0" d="M240.9,514.9c0-0.7,0-1.4,0-1.9h1.6l0.1,0.8l0,0c0.2-0.4,0.8-0.9,1.8-0.9c1.2,0,2.1,0.8,2.1,2.5v3.5h-1.8v-3.2
		c0-0.8-0.3-1.3-0.9-1.3c-0.5,0-0.8,0.3-0.9,0.7c0,0.1-0.1,0.3-0.1,0.5v3.4H241v-4.1H240.9z"/>
	<path class="st0" d="M249.4,516.6c0.1,0.8,0.8,1.1,1.7,1.1c0.6,0,1.1-0.1,1.6-0.2l0.2,1.2c-0.6,0.2-1.3,0.4-2.1,0.4
		c-2,0-3.1-1.2-3.1-3c0-1.5,0.9-3.1,3-3.1c1.9,0,2.6,1.5,2.6,2.9c0,0.3,0,0.6-0.1,0.7L249.4,516.6L249.4,516.6z M251.5,515.3
		c0-0.4-0.2-1.2-1-1.2s-1.1,0.7-1.1,1.2H251.5z"/>
	<path class="st0" d="M256.3,511.4v1.7h1.3v1.3h-1.3v2.1c0,0.7,0.2,1,0.7,1c0.2,0,0.4,0,0.5,0v1.4c-0.2,0.1-0.7,0.2-1.2,0.2
		c-0.6,0-1.1-0.2-1.4-0.5c-0.3-0.3-0.5-0.9-0.5-1.7v-2.4h-0.8v-1.3h0.8v-1.3L256.3,511.4z"/>
	<path class="st0" d="M260.7,511.4v1.7h1.3v1.3h-1.3v2.1c0,0.7,0.2,1,0.7,1c0.2,0,0.4,0,0.5,0v1.4c-0.2,0.1-0.7,0.2-1.2,0.2
		c-0.6,0-1.1-0.2-1.4-0.5s-0.5-0.9-0.5-1.7v-2.4H258v-1.3h0.8v-1.3L260.7,511.4z"/>
	<path class="st0" d="M268.8,515.9c0,2.1-1.5,3.1-3.1,3.1c-1.7,0-3-1.1-3-3s1.2-3.1,3.1-3.1C267.6,512.9,268.8,514.2,268.8,515.9z
		 M264.6,516c0,1,0.4,1.8,1.2,1.8c0.7,0,1.2-0.7,1.2-1.8c0-0.9-0.3-1.8-1.2-1.8S264.6,515.1,264.6,516z"/>
	<path class="st0" d="M271.2,513.1l0.9,2.9c0.1,0.3,0.2,0.8,0.3,1.1l0,0c0.1-0.3,0.2-0.8,0.3-1.1l0.7-2.9h2L274,517
		c-0.8,2.3-1.4,3.3-2.1,3.8c-0.6,0.6-1.3,0.7-1.8,0.8l-0.4-1.5c0.2,0,0.5-0.1,0.8-0.3c0.3-0.1,0.6-0.4,0.8-0.7
		c0.1-0.1,0.1-0.2,0.1-0.3s0-0.2-0.1-0.3l-2.1-5.4H271.2z"/>
	<path class="st0" d="M277.3,516.6c0.1,0.8,0.8,1.1,1.7,1.1c0.6,0,1.1-0.1,1.6-0.2l0.2,1.2c-0.6,0.2-1.3,0.4-2.1,0.4
		c-2,0-3.1-1.2-3.1-3c0-1.5,0.9-3.1,3-3.1c1.9,0,2.6,1.5,2.6,2.9c0,0.3,0,0.6-0.1,0.7L277.3,516.6L277.3,516.6z M279.5,515.3
		c0-0.4-0.2-1.2-1-1.2s-1.1,0.7-1.1,1.2H279.5z"/>
	<path class="st0" d="M287.8,517c0,0.8,0,1.4,0,1.9h-1.6l-0.1-0.8l0,0c-0.2,0.4-0.8,1-1.8,1c-1.2,0-2.1-0.7-2.1-2.6v-3.4h1.8v3.2
		c0,0.9,0.3,1.4,0.9,1.4c0.5,0,0.8-0.3,0.9-0.6c0-0.1,0.1-0.3,0.1-0.4v-3.5h1.8v3.8H287.8z"/>
	<path class="st0" d="M289.3,517.3c0.3,0.2,1,0.4,1.6,0.4s0.8-0.2,0.8-0.5s-0.2-0.4-0.9-0.7c-1.2-0.4-1.7-1.1-1.7-1.8
		c0-1.1,0.9-1.9,2.4-1.9c0.7,0,1.3,0.2,1.7,0.3l-0.3,1.3c-0.3-0.1-0.8-0.3-1.3-0.3c-0.4,0-0.7,0.2-0.7,0.5s0.2,0.4,0.9,0.7
		c1.1,0.4,1.6,0.9,1.6,1.8c0,1.1-0.9,1.9-2.5,1.9c-0.8,0-1.5-0.2-1.9-0.4L289.3,517.3z"/>
	<path class="st0" d="M295.9,516.6c0.1,0.8,0.8,1.1,1.7,1.1c0.6,0,1.1-0.1,1.6-0.2l0.2,1.2c-0.6,0.2-1.3,0.4-2.1,0.4
		c-2,0-3.1-1.2-3.1-3c0-1.5,0.9-3.1,3-3.1c1.9,0,2.6,1.5,2.6,2.9c0,0.3,0,0.6-0.1,0.7L295.9,516.6L295.9,516.6z M298,515.3
		c0-0.4-0.2-1.2-1-1.2s-1.1,0.7-1.1,1.2H298z"/>
	<path class="st0" d="M300.8,517.3c0.3,0.2,1,0.4,1.6,0.4s0.8-0.2,0.8-0.5s-0.2-0.4-0.9-0.7c-1.2-0.4-1.7-1.1-1.7-1.8
		c0-1.1,0.9-1.9,2.4-1.9c0.7,0,1.3,0.2,1.7,0.3l-0.3,1.3c-0.3-0.1-0.8-0.3-1.3-0.3c-0.4,0-0.7,0.2-0.7,0.5s0.2,0.4,0.9,0.7
		c1.1,0.4,1.6,0.9,1.6,1.8c0,1.1-0.9,1.9-2.5,1.9c-0.8,0-1.5-0.2-1.9-0.4L300.8,517.3z"/>
	<path class="st0" d="M314.1,510.4v6.8c0,0.7,0,1.4,0,1.8h-1.6l-0.1-0.9l0,0c-0.4,0.7-1.1,1-1.8,1c-1.4,0-2.5-1.2-2.5-3
		c0-2,1.2-3.1,2.6-3.1c0.7,0,1.3,0.3,1.5,0.7l0,0v-3.2h1.9V510.4z M312.3,515.5c0-0.1,0-0.2,0-0.3c-0.1-0.5-0.5-0.9-1.1-0.9
		c-0.8,0-1.3,0.7-1.3,1.7s0.5,1.6,1.2,1.6c0.5,0,0.9-0.4,1.1-0.9c0-0.1,0-0.3,0-0.4L312.3,515.5L312.3,515.5z"/>
	<path class="st0" d="M317.8,510.7c-0.4,1.2-0.9,2.4-1.4,3.3l-1.1,0.1c0.4-1,0.7-2.2,0.8-3.2L317.8,510.7z"/>
	<path class="st0" d="M321.7,518.9l-0.1-0.6l0,0c-0.4,0.5-1,0.7-1.7,0.7c-1.2,0-1.9-0.9-1.9-1.8c0-1.5,1.4-2.3,3.4-2.2v-0.1
		c0-0.3-0.2-0.8-1.1-0.8c-0.6,0-1.2,0.2-1.6,0.4l-0.3-1.2c0.4-0.2,1.2-0.5,2.3-0.5c2,0,2.6,1.2,2.6,2.5v2c0,0.6,0,1.1,0.1,1.4h-1.7
		V518.9z M321.5,516.2c-1,0-1.7,0.2-1.7,0.9c0,0.5,0.3,0.7,0.7,0.7c0.5,0,0.8-0.3,0.9-0.7c0-0.1,0-0.2,0-0.3v-0.6H321.5z"/>
	<path class="st0" d="M324.7,514.9c0-0.7,0-1.4,0-1.9h1.6l0.1,0.8l0,0c0.2-0.4,0.8-0.9,1.8-0.9c1.2,0,2.1,0.8,2.1,2.5v3.5h-1.8v-3.2
		c0-0.8-0.3-1.3-0.9-1.3c-0.5,0-0.8,0.3-0.9,0.7c0,0.1-0.1,0.3-0.1,0.5v3.4h-1.8v-4.1H324.7z"/>
	<path class="st0" d="M333.7,511.4v1.7h1.3v1.3h-1.3v2.1c0,0.7,0.2,1,0.7,1c0.2,0,0.4,0,0.5,0v1.4c-0.2,0.1-0.7,0.2-1.2,0.2
		c-0.6,0-1.1-0.2-1.4-0.5s-0.5-0.9-0.5-1.7v-2.4H331v-1.3h0.8v-1.3L333.7,511.4z"/>
	<path class="st0" d="M337.4,516.6c0.1,0.8,0.8,1.1,1.7,1.1c0.6,0,1.1-0.1,1.6-0.2l0.2,1.2c-0.6,0.2-1.3,0.4-2.1,0.4
		c-2,0-3.1-1.2-3.1-3c0-1.5,0.9-3.1,3-3.1c1.9,0,2.6,1.5,2.6,2.9c0,0.3,0,0.6-0.1,0.7L337.4,516.6L337.4,516.6z M339.6,515.3
		c0-0.4-0.2-1.2-1-1.2s-1.1,0.7-1.1,1.2H339.6z"/>
	<path class="st0" d="M342.3,514.9c0-0.7,0-1.4,0-1.9h1.6l0.1,0.8l0,0c0.2-0.4,0.8-0.9,1.8-0.9c1.2,0,2.1,0.8,2.1,2.5v3.5h-1.8v-3.2
		c0-0.8-0.3-1.3-0.9-1.3c-0.5,0-0.8,0.3-0.9,0.7c0,0.1-0.1,0.3-0.1,0.5v3.4h-1.8v-4.1H342.3z"/>
	<path class="st0" d="M349.4,514.9c0-0.7,0-1.4,0-1.9h1.6l0.1,0.8l0,0c0.2-0.4,0.8-0.9,1.8-0.9c1.2,0,2.1,0.8,2.1,2.5v3.5h-1.8v-3.2
		c0-0.8-0.3-1.3-0.9-1.3c-0.5,0-0.8,0.3-0.9,0.7c0,0.1-0.1,0.3-0.1,0.5v3.4h-1.8v-4.1H349.4z"/>
	<path class="st0" d="M357.8,516.6c0.1,0.8,0.8,1.1,1.7,1.1c0.6,0,1.1-0.1,1.6-0.2l0.2,1.2c-0.6,0.2-1.3,0.4-2.1,0.4
		c-2,0-3.1-1.2-3.1-3c0-1.5,0.9-3.1,3-3.1c1.9,0,2.6,1.5,2.6,2.9c0,0.3,0,0.6-0.1,0.7L357.8,516.6L357.8,516.6z M360,515.3
		c0-0.4-0.2-1.2-1-1.2s-1.1,0.7-1.1,1.2H360z"/>
	<path class="st0" d="M362.7,517.3c0.3,0.2,1,0.4,1.6,0.4s0.8-0.2,0.8-0.5s-0.2-0.4-0.9-0.7c-1.2-0.4-1.7-1.1-1.7-1.8
		c0-1.1,0.9-1.9,2.4-1.9c0.7,0,1.3,0.2,1.7,0.3l-0.3,1.3c-0.3-0.1-0.8-0.3-1.3-0.3c-0.4,0-0.7,0.2-0.7,0.5s0.2,0.4,0.9,0.7
		c1.1,0.4,1.6,0.9,1.6,1.8c0,1.1-0.9,1.9-2.5,1.9c-0.8,0-1.5-0.2-1.9-0.4L362.7,517.3z"/>
</g>
<g class="st1">
	<path class="st0" d="M27.2,364.5H29v8.5h-1.8V364.5z"/>
	<path class="st0" d="M33.9,373l-0.1-0.6l0,0c-0.4,0.5-1,0.7-1.7,0.7c-1.2,0-1.9-0.9-1.9-1.8c0-1.5,1.4-2.3,3.4-2.2V369
		c0-0.3-0.2-0.8-1.1-0.8c-0.6,0-1.2,0.2-1.6,0.4l-0.3-1.2c0.4-0.2,1.2-0.5,2.3-0.5c2,0,2.6,1.2,2.6,2.5v2c0,0.6,0,1.1,0.1,1.4h-1.7
		V373z M33.6,370.2c-1,0-1.7,0.2-1.7,0.9c0,0.5,0.3,0.7,0.7,0.7c0.5,0,0.8-0.3,0.9-0.7c0-0.1,0-0.2,0-0.3L33.6,370.2L33.6,370.2z"/>
	<path class="st0" d="M41.3,365.5v1.7h1.3v1.3h-1.3v2.1c0,0.7,0.2,1,0.7,1c0.2,0,0.4,0,0.5,0v1.4c-0.2,0.1-0.7,0.2-1.2,0.2
		c-0.6,0-1.1-0.2-1.4-0.5c-0.3-0.3-0.5-0.9-0.5-1.7v-2.4h-0.8v-1.3h0.8V366L41.3,365.5z"/>
	<path class="st0" d="M43.7,369.1c0-0.9,0-1.4,0-1.9h1.6l0.1,1.1l0,0c0.3-0.9,1-1.2,1.6-1.2c0.2,0,0.3,0,0.4,0v1.7
		c-0.1,0-0.3,0-0.5,0c-0.7,0-1.1,0.4-1.2,0.9c0,0.1,0,0.3,0,0.4v3h-1.8v-4H43.7z"/>
	<path class="st0" d="M53.9,370c0,2.1-1.5,3.1-3.1,3.1c-1.7,0-3-1.1-3-3s1.2-3.1,3.1-3.1C52.7,367,53.9,368.2,53.9,370z M49.7,370.1
		c0,1,0.4,1.8,1.2,1.8c0.7,0,1.2-0.7,1.2-1.8c0-0.9-0.3-1.8-1.2-1.8C50,368.3,49.7,369.2,49.7,370.1z"/>
	<path class="st0" d="M55.1,369c0-0.7,0-1.4,0-1.9h1.5l0.1,0.8l0,0c0.3-0.4,0.8-0.9,1.8-0.9c0.8,0,1.4,0.4,1.6,1l0,0
		c0.2-0.3,0.5-0.5,0.8-0.7s0.7-0.3,1.1-0.3c1.1,0,2,0.8,2,2.5v3.5h-1.8v-3.2c0-0.9-0.3-1.3-0.9-1.3c-0.4,0-0.7,0.3-0.8,0.6
		c0,0.1-0.1,0.3-0.1,0.5v3.4h-1.8v-3.3c0-0.7-0.3-1.2-0.8-1.2s-0.7,0.4-0.9,0.7c-0.1,0.1-0.1,0.3-0.1,0.5v3.4H55V369H55.1z"/>
	<path class="st0" d="M65.4,369.1c0-0.8,0-1.4,0-2H67v0.9l0,0c0.4-0.6,1.1-0.9,2-0.9c1.3,0,2.4,1.1,2.4,3c0,2.1-1.4,3.1-2.7,3.1
		c-0.7,0-1.3-0.3-1.5-0.7l0,0v2.9h-1.8V369.1z M67.2,370.5c0,0.1,0,0.3,0,0.4c0.1,0.5,0.5,0.9,1.1,0.9c0.8,0,1.3-0.7,1.3-1.7
		c0-0.9-0.4-1.6-1.2-1.6c-0.5,0-1,0.4-1.1,0.9c0,0.1,0,0.2,0,0.3v0.8H67.2z"/>
	<path class="st0" d="M74,370.7c0.1,0.8,0.8,1.1,1.7,1.1c0.6,0,1.1-0.1,1.6-0.2l0.2,1.2c-0.6,0.2-1.3,0.4-2.1,0.4
		c-2,0-3.1-1.2-3.1-3c0-1.5,0.9-3.1,3-3.1c1.9,0,2.6,1.5,2.6,2.9c0,0.3,0,0.6-0.1,0.7H74z M76.2,369.4c0-0.4-0.2-1.2-1-1.2
		s-1.1,0.7-1.1,1.2H76.2z"/>
	<path class="st0" d="M78,374.4c0.4-1.1,0.7-2.3,0.9-3.4l1.9-0.1c-0.4,1.2-0.9,2.5-1.5,3.4L78,374.4z"/>
	<path class="st0" d="M85.7,370.7c0.1,0.8,0.8,1.1,1.7,1.1c0.6,0,1.1-0.1,1.6-0.2l0.2,1.2c-0.6,0.2-1.3,0.4-2.1,0.4
		c-2,0-3.1-1.2-3.1-3c0-1.5,0.9-3.1,3-3.1c1.9,0,2.6,1.5,2.6,2.9c0,0.3,0,0.6-0.1,0.7H85.7z M87.8,369.4c0-0.4-0.2-1.2-1-1.2
		s-1.1,0.7-1.1,1.2H87.8z"/>
	<path class="st0" d="M90.6,364.5h1.8v8.5h-1.8V364.5z"/>
	<path class="st0" d="M93.9,364.5h1.8v8.5h-1.8V364.5z"/>
	<path class="st0" d="M98.6,370.7c0.1,0.8,0.8,1.1,1.7,1.1c0.6,0,1.1-0.1,1.6-0.2l0.2,1.2c-0.6,0.2-1.3,0.4-2.1,0.4
		c-2,0-3.1-1.2-3.1-3c0-1.5,0.9-3.1,3-3.1c1.9,0,2.6,1.5,2.6,2.9c0,0.3,0,0.6-0.1,0.7H98.6z M100.8,369.4c0-0.4-0.2-1.2-1-1.2
		s-1.1,0.7-1.1,1.2H100.8z"/>
	<path class="st0" d="M109.3,373l-0.1-0.6l0,0c-0.4,0.5-1,0.7-1.7,0.7c-1.2,0-1.9-0.9-1.9-1.8c0-1.5,1.4-2.3,3.4-2.2V369
		c0-0.3-0.2-0.8-1.1-0.8c-0.6,0-1.2,0.2-1.6,0.4l-0.3-1.2c0.4-0.2,1.2-0.5,2.3-0.5c2,0,2.6,1.2,2.6,2.5v2c0,0.6,0,1.1,0.1,1.4h-1.7
		V373z M109.1,370.2c-1,0-1.7,0.2-1.7,0.9c0,0.5,0.3,0.7,0.7,0.7c0.5,0,0.8-0.3,0.9-0.7c0-0.1,0-0.2,0-0.3L109.1,370.2L109.1,370.2z
		"/>
	<path class="st0" d="M112.3,373c0-0.4,0-1.1,0-1.8v-6.8h1.8v3.3l0,0c0.3-0.5,1-0.8,1.8-0.8c1.4,0,2.4,1.2,2.4,3
		c0,2.1-1.3,3.2-2.7,3.2c-0.7,0-1.3-0.3-1.8-0.9l0,0l-0.1,0.8L112.3,373L112.3,373z M114.1,370.5c0,0.1,0,0.2,0,0.3
		c0.1,0.5,0.5,0.9,1.1,0.9c0.8,0,1.3-0.6,1.3-1.7c0-0.9-0.4-1.6-1.3-1.6c-0.5,0-0.9,0.4-1.1,0.9c0,0.1,0,0.2,0,0.3V370.5z"/>
	<path class="st0" d="M119.5,369.1c0-0.9,0-1.4,0-1.9h1.6l0.1,1.1l0,0c0.3-0.9,1-1.2,1.6-1.2c0.2,0,0.3,0,0.4,0v1.7
		c-0.1,0-0.3,0-0.5,0c-0.7,0-1.1,0.4-1.2,0.9c0,0.1,0,0.3,0,0.4v3h-1.8v-4H119.5z"/>
	<path class="st0" d="M125.9,365.5c0,0.5-0.4,0.9-1,0.9s-1-0.4-0.9-0.9c0-0.5,0.4-0.9,1-0.9S125.9,365,125.9,365.5z M124.1,373v-5.9
		h1.8v5.9H124.1z"/>
	<path class="st0" d="M129.4,365.5v1.7h1.3v1.3h-1.3v2.1c0,0.7,0.2,1,0.7,1c0.2,0,0.4,0,0.5,0v1.4c-0.2,0.1-0.7,0.2-1.2,0.2
		c-0.6,0-1.1-0.2-1.4-0.5c-0.3-0.3-0.5-0.9-0.5-1.7v-2.4h-0.8v-1.3h0.8V366L129.4,365.5z"/>
	<path class="st0" d="M133.1,370.7c0.1,0.8,0.8,1.1,1.7,1.1c0.6,0,1.1-0.1,1.6-0.2l0.2,1.2c-0.6,0.2-1.3,0.4-2.1,0.4
		c-2,0-3.1-1.2-3.1-3c0-1.5,0.9-3.1,3-3.1c1.9,0,2.6,1.5,2.6,2.9c0,0.3,0,0.6-0.1,0.7H133.1z M135.2,369.4c0-0.4-0.2-1.2-1-1.2
		s-1.1,0.7-1.1,1.2H135.2z"/>
</g>
<g class="st1">
	<path class="st0" d="M32.7,385.5c0,0.8,0,1.4,0,1.9h-1.6l-0.1-0.8l0,0c-0.2,0.4-0.8,1-1.8,1c-1.2,0-2.1-0.7-2.1-2.6v-3.4H29v3.2
		c0,0.9,0.3,1.4,0.9,1.4c0.5,0,0.8-0.3,0.9-0.6c0-0.1,0.1-0.3,0.1-0.4v-3.5h1.8V385.5z"/>
	<path class="st0" d="M34.2,383.4c0-0.7,0-1.4,0-1.9h1.6l0.1,0.8l0,0c0.2-0.4,0.8-0.9,1.8-0.9c1.2,0,2.1,0.8,2.1,2.5v3.5H38v-3.2
		c0-0.8-0.3-1.3-0.9-1.3c-0.5,0-0.8,0.3-0.9,0.7c0,0.1-0.1,0.3-0.1,0.5v3.4h-1.8L34.2,383.4L34.2,383.4z"/>
	<path class="st0" d="M42.7,385.1c0.1,0.8,0.8,1.1,1.7,1.1c0.6,0,1.1-0.1,1.6-0.2l0.2,1.2c-0.6,0.2-1.3,0.4-2.1,0.4
		c-2,0-3.1-1.2-3.1-3c0-1.5,0.9-3.1,3-3.1c1.9,0,2.6,1.5,2.6,2.9c0,0.3,0,0.6-0.1,0.7H42.7z M44.8,383.8c0-0.4-0.2-1.2-1-1.2
		s-1.1,0.7-1.1,1.2H44.8z"/>
	<path class="st0" d="M50,378.9h1.8v8.5H50V378.9z"/>
	<path class="st0" d="M56.6,387.4l-0.1-0.6l0,0c-0.4,0.5-1,0.7-1.7,0.7c-1.2,0-1.9-0.9-1.9-1.8c0-1.5,1.4-2.3,3.4-2.2v-0.1
		c0-0.3-0.2-0.8-1.1-0.8c-0.6,0-1.2,0.2-1.6,0.4l-0.3-1.2c0.4-0.2,1.2-0.5,2.3-0.5c2,0,2.6,1.2,2.6,2.5v2c0,0.6,0,1.1,0.1,1.4h-1.7
		V387.4z M56.4,384.6c-1,0-1.7,0.2-1.7,0.9c0,0.5,0.3,0.7,0.7,0.7c0.5,0,0.8-0.3,0.9-0.7c0-0.1,0-0.2,0-0.3L56.4,384.6L56.4,384.6z"
		/>
	<path class="st0" d="M59.6,383.4c0-0.7,0-1.4,0-1.9h1.6l0.1,0.8l0,0c0.2-0.4,0.8-0.9,1.8-0.9c1.2,0,2.1,0.8,2.1,2.5v3.5h-1.8v-3.2
		c0-0.8-0.3-1.3-0.9-1.3c-0.5,0-0.8,0.3-0.9,0.7c0,0.1-0.1,0.3-0.1,0.5v3.4h-1.8L59.6,383.4L59.6,383.4z"/>
	<path class="st0" d="M72.3,381.5c0,0.4,0,0.9,0,1.7v3.3c0,1.1-0.2,2.1-0.9,2.6c-0.6,0.6-1.5,0.7-2.4,0.7c-0.8,0-1.6-0.2-2.1-0.5
		l0.4-1.4c0.4,0.2,1,0.4,1.7,0.4c0.9,0,1.5-0.5,1.5-1.5v-0.4l0,0c-0.3,0.5-0.9,0.8-1.6,0.8c-1.5,0-2.5-1.2-2.5-2.9
		c0-1.9,1.2-3.1,2.7-3.1c0.8,0,1.3,0.3,1.6,0.8l0,0l0.1-0.7h1.5V381.5z M70.4,383.9c0-0.1,0-0.2,0-0.3c-0.1-0.5-0.5-0.8-1-0.8
		c-0.7,0-1.2,0.6-1.2,1.7c0,0.9,0.4,1.6,1.2,1.6c0.5,0,0.8-0.3,1-0.7c0-0.1,0.1-0.3,0.1-0.5L70.4,383.9L70.4,383.9z"/>
	<path class="st0" d="M79.2,385.5c0,0.8,0,1.4,0,1.9h-1.6l-0.1-0.8l0,0c-0.2,0.4-0.8,1-1.8,1c-1.2,0-2.1-0.7-2.1-2.6v-3.4h1.8v3.2
		c0,0.9,0.3,1.4,0.9,1.4c0.5,0,0.8-0.3,0.9-0.6c0-0.1,0.1-0.3,0.1-0.4v-3.5h1.8L79.2,385.5L79.2,385.5z"/>
	<path class="st0" d="M82.1,385.1c0.1,0.8,0.8,1.1,1.7,1.1c0.6,0,1.1-0.1,1.6-0.2l0.2,1.2c-0.6,0.2-1.3,0.4-2.1,0.4
		c-2,0-3.1-1.2-3.1-3c0-1.5,0.9-3.1,3-3.1c1.9,0,2.6,1.5,2.6,2.9c0,0.3,0,0.6-0.1,0.7H82.1z M84.2,383.8c0-0.4-0.2-1.2-1-1.2
		s-1.1,0.7-1.1,1.2H84.2z"/>
	<path class="st0" d="M95.1,378.9v6.8c0,0.7,0,1.4,0,1.8h-1.6l-0.1-0.9l0,0c-0.4,0.7-1.1,1-1.8,1c-1.4,0-2.5-1.2-2.5-3
		c0-2,1.2-3.1,2.6-3.1c0.7,0,1.3,0.3,1.5,0.7l0,0V379L95.1,378.9L95.1,378.9z M93.3,384c0-0.1,0-0.2,0-0.3c-0.1-0.5-0.5-0.9-1.1-0.9
		c-0.8,0-1.3,0.7-1.3,1.7s0.5,1.6,1.2,1.6c0.5,0,0.9-0.4,1.1-0.9c0-0.1,0-0.3,0-0.4V384H93.3z"/>
	<path class="st0" d="M98,385.1c0.1,0.8,0.8,1.1,1.7,1.1c0.6,0,1.1-0.1,1.6-0.2l0.2,1.2c-0.6,0.2-1.3,0.4-2.1,0.4
		c-2,0-3.1-1.2-3.1-3c0-1.5,0.9-3.1,3-3.1c1.9,0,2.6,1.5,2.6,2.9c0,0.3,0,0.6-0.1,0.7H98z M100.2,383.8c0-0.4-0.2-1.2-1-1.2
		s-1.1,0.7-1.1,1.2H100.2z"/>
	<path class="st0" d="M105.1,387.4v-1.1l1-0.9c1.7-1.5,2.5-2.4,2.6-3.3c0-0.6-0.4-1.1-1.3-1.1c-0.7,0-1.3,0.3-1.7,0.6l-0.5-1.3
		c0.6-0.4,1.5-0.8,2.6-0.8c1.8,0,2.7,1,2.7,2.4c0,1.3-0.9,2.4-2.1,3.4l-0.7,0.6l0,0h2.9v1.5L105.1,387.4L105.1,387.4z"/>
	<path class="st0" d="M112,383.4c0-0.7,0-1.4,0-1.9h1.5l0.1,0.8l0,0c0.3-0.4,0.8-0.9,1.8-0.9c0.8,0,1.4,0.4,1.6,1l0,0
		c0.2-0.3,0.5-0.5,0.8-0.7s0.7-0.3,1.1-0.3c1.1,0,2,0.8,2,2.5v3.5h-1.8v-3.2c0-0.9-0.3-1.3-0.9-1.3c-0.4,0-0.7,0.3-0.8,0.6
		c0,0.1-0.1,0.3-0.1,0.5v3.4h-1.8v-3.3c0-0.7-0.3-1.2-0.8-1.2s-0.7,0.4-0.9,0.7c-0.1,0.1-0.1,0.3-0.1,0.5v3.4H112V383.4z"/>
	<path class="st0" d="M122.3,383.4c0-0.7,0-1.4,0-1.9h1.5l0.1,0.8l0,0c0.3-0.4,0.8-0.9,1.8-0.9c0.8,0,1.4,0.4,1.6,1l0,0
		c0.2-0.3,0.5-0.5,0.8-0.7s0.7-0.3,1.1-0.3c1.1,0,2,0.8,2,2.5v3.5h-1.8v-3.2c0-0.9-0.3-1.3-0.9-1.3c-0.4,0-0.7,0.3-0.8,0.6
		c0,0.1-0.1,0.3-0.1,0.5v3.4h-1.8v-3.3c0-0.7-0.3-1.2-0.8-1.2s-0.7,0.4-0.9,0.7c-0.1,0.1-0.1,0.3-0.1,0.5v3.4h-1.8L122.3,383.4
		L122.3,383.4z"/>
	<path class="st0" d="M132.5,386.4c0-0.6,0.4-1.1,1.1-1.1s1.1,0.5,1.1,1.1s-0.4,1.1-1.1,1.1C133,387.5,132.5,387.1,132.5,386.4z"/>
</g>
<g class="st1">
	<path class="st0" d="M17.3,182.5h1.8v8.5h-1.8V182.5z"/>
	<path class="st0" d="M22,188.6c0.1,0.8,0.8,1.1,1.7,1.1c0.6,0,1.1-0.1,1.6-0.2l0.2,1.2c-0.6,0.2-1.3,0.4-2.1,0.4
		c-2,0-3.1-1.2-3.1-3c0-1.5,0.9-3.1,3-3.1c1.9,0,2.6,1.5,2.6,2.9c0,0.3,0,0.6-0.1,0.7L22,188.6L22,188.6z M24.2,187.4
		c0-0.4-0.2-1.2-1-1.2s-1.1,0.7-1.1,1.2H24.2z"/>
	<path class="st0" d="M26.9,189.4c0.3,0.2,1,0.4,1.6,0.4s0.8-0.2,0.8-0.5s-0.2-0.4-0.9-0.7c-1.2-0.4-1.7-1.1-1.7-1.8
		c0-1.1,0.9-1.9,2.4-1.9c0.7,0,1.3,0.2,1.7,0.3l-0.3,1.3c-0.3-0.1-0.8-0.3-1.3-0.3c-0.4,0-0.7,0.2-0.7,0.5s0.2,0.4,0.9,0.7
		c1.1,0.4,1.6,0.9,1.6,1.8c0,1.1-0.9,1.9-2.5,1.9c-0.8,0-1.5-0.2-1.9-0.4L26.9,189.4z"/>
	<path class="st0" d="M37.9,191l-0.1-0.6l0,0c-0.4,0.5-1,0.7-1.7,0.7c-1.2,0-1.9-0.9-1.9-1.8c0-1.5,1.4-2.3,3.4-2.2V187
		c0-0.3-0.2-0.8-1.1-0.8c-0.6,0-1.2,0.2-1.6,0.4l-0.3-1.2c0.4-0.2,1.2-0.5,2.3-0.5c2,0,2.6,1.2,2.6,2.5v2c0,0.6,0,1.1,0.1,1.4h-1.7
		V191z M37.7,188.2c-1,0-1.7,0.2-1.7,0.9c0,0.5,0.3,0.7,0.7,0.7c0.5,0,0.8-0.3,0.9-0.7c0-0.1,0-0.2,0-0.3L37.7,188.2L37.7,188.2z"/>
	<path class="st0" d="M40.9,187c0-0.7,0-1.4,0-1.9h1.6l0.1,0.8l0,0c0.2-0.4,0.8-0.9,1.8-0.9c1.2,0,2.1,0.8,2.1,2.5v3.5h-1.8v-3.2
		c0-0.8-0.3-1.3-0.9-1.3c-0.5,0-0.8,0.3-0.9,0.7c0,0.1-0.1,0.3-0.1,0.5v3.4H41L40.9,187L40.9,187z"/>
	<path class="st0" d="M49.9,183.4v1.7h1.3v1.3h-1.3v2.1c0,0.7,0.2,1,0.7,1c0.2,0,0.4,0,0.5,0v1.4c-0.2,0.1-0.7,0.2-1.2,0.2
		c-0.6,0-1.1-0.2-1.4-0.5c-0.3-0.3-0.5-0.9-0.5-1.7v-2.4h-0.8v-1.3H48v-1.3L49.9,183.4z"/>
	<path class="st0" d="M53.6,188.6c0.1,0.8,0.8,1.1,1.7,1.1c0.6,0,1.1-0.1,1.6-0.2l0.2,1.2c-0.6,0.2-1.3,0.4-2.1,0.4
		c-2,0-3.1-1.2-3.1-3c0-1.5,0.9-3.1,3-3.1c1.9,0,2.6,1.5,2.6,2.9c0,0.3,0,0.6-0.1,0.7L53.6,188.6L53.6,188.6z M55.8,187.4
		c0-0.4-0.2-1.2-1-1.2s-1.1,0.7-1.1,1.2H55.8z"/>
	<path class="st0" d="M58.6,187c0-0.7,0-1.4,0-1.9h1.6l0.1,0.8l0,0c0.2-0.4,0.8-0.9,1.8-0.9c1.2,0,2.1,0.8,2.1,2.5v3.5h-1.8v-3.2
		c0-0.8-0.3-1.3-0.9-1.3c-0.5,0-0.8,0.3-0.9,0.7c0,0.1-0.1,0.3-0.1,0.5v3.4h-1.8L58.6,187L58.6,187z"/>
	<path class="st0" d="M65.6,187c0-0.7,0-1.4,0-1.9h1.6l0.1,0.8l0,0c0.2-0.4,0.8-0.9,1.8-0.9c1.2,0,2.1,0.8,2.1,2.5v3.5h-1.8v-3.2
		c0-0.8-0.3-1.3-0.9-1.3c-0.5,0-0.8,0.3-0.9,0.7c0,0.1-0.1,0.3-0.1,0.5v3.4h-1.8L65.6,187L65.6,187z"/>
	<path class="st0" d="M74,188.6c0.1,0.8,0.8,1.1,1.7,1.1c0.6,0,1.1-0.1,1.6-0.2l0.2,1.2c-0.6,0.2-1.3,0.4-2.1,0.4
		c-2,0-3.1-1.2-3.1-3c0-1.5,0.9-3.1,3-3.1c1.9,0,2.6,1.5,2.6,2.9c0,0.3,0,0.6-0.1,0.7L74,188.6L74,188.6z M76.2,187.4
		c0-0.4-0.2-1.2-1-1.2s-1.1,0.7-1.1,1.2H76.2z"/>
	<path class="st0" d="M78.9,189.4c0.3,0.2,1,0.4,1.6,0.4s0.8-0.2,0.8-0.5s-0.2-0.4-0.9-0.7c-1.2-0.4-1.7-1.1-1.7-1.8
		c0-1.1,0.9-1.9,2.4-1.9c0.7,0,1.3,0.2,1.7,0.3l-0.3,1.3c-0.3-0.1-0.8-0.3-1.3-0.3c-0.4,0-0.7,0.2-0.7,0.5s0.2,0.4,0.9,0.7
		c1.1,0.4,1.6,0.9,1.6,1.8c0,1.1-0.9,1.9-2.5,1.9c-0.8,0-1.5-0.2-1.9-0.4L78.9,189.4z"/>
	<path class="st0" d="M83.3,192.4c0.4-1.1,0.7-2.3,0.9-3.4l1.9-0.1c-0.4,1.2-0.9,2.5-1.5,3.4L83.3,192.4z"/>
	<path class="st0" d="M94,190.8c-0.3,0.1-0.9,0.3-1.6,0.3c-1.9,0-3.1-1.2-3.1-3c0-1.7,1.2-3.1,3.4-3.1c0.5,0,1,0.1,1.4,0.2l-0.3,1.4
		c-0.2-0.1-0.5-0.2-1-0.2c-1,0-1.6,0.7-1.6,1.6c0,1.1,0.7,1.6,1.6,1.6c0.4,0,0.8-0.1,1-0.2L94,190.8z"/>
	<path class="st0" d="M96.3,188.6c0.1,0.8,0.8,1.1,1.7,1.1c0.6,0,1.1-0.1,1.6-0.2l0.2,1.2c-0.6,0.2-1.3,0.4-2.1,0.4
		c-2,0-3.1-1.2-3.1-3c0-1.5,0.9-3.1,3-3.1c1.9,0,2.6,1.5,2.6,2.9c0,0.3,0,0.6-0.1,0.7L96.3,188.6L96.3,188.6z M98.4,187.4
		c0-0.4-0.2-1.2-1-1.2s-1.1,0.7-1.1,1.2H98.4z"/>
	<path class="st0" d="M103.6,189.4c0.3,0.2,1,0.4,1.6,0.4s0.8-0.2,0.8-0.5s-0.2-0.4-0.9-0.7c-1.2-0.4-1.7-1.1-1.7-1.8
		c0-1.1,0.9-1.9,2.4-1.9c0.7,0,1.3,0.2,1.7,0.3l-0.3,1.3c-0.3-0.1-0.8-0.3-1.3-0.3c-0.4,0-0.7,0.2-0.7,0.5s0.2,0.4,0.9,0.7
		c1.1,0.4,1.6,0.9,1.6,1.8c0,1.1-0.9,1.9-2.5,1.9c-0.8,0-1.5-0.2-1.9-0.4L103.6,189.4z"/>
	<path class="st0" d="M114.6,188c0,2.1-1.5,3.1-3.1,3.1c-1.7,0-3-1.1-3-3s1.2-3.1,3.1-3.1C113.4,185,114.6,186.2,114.6,188z
		 M110.4,188c0,1,0.4,1.8,1.2,1.8c0.7,0,1.2-0.7,1.2-1.8c0-0.9-0.3-1.8-1.2-1.8C110.7,186.3,110.4,187.2,110.4,188z"/>
	<path class="st0" d="M115.8,187c0-0.7,0-1.4,0-1.9h1.6l0.1,0.8l0,0c0.2-0.4,0.8-0.9,1.8-0.9c1.2,0,2.1,0.8,2.1,2.5v3.5h-1.8v-3.2
		c0-0.8-0.3-1.3-0.9-1.3c-0.5,0-0.8,0.3-0.9,0.7c0,0.1-0.1,0.3-0.1,0.5v3.4h-1.8L115.8,187L115.8,187z"/>
	<path class="st0" d="M124.8,183.4v1.7h1.3v1.3h-1.3v2.1c0,0.7,0.2,1,0.7,1c0.2,0,0.4,0,0.5,0v1.4c-0.2,0.1-0.7,0.2-1.2,0.2
		c-0.6,0-1.1-0.2-1.4-0.5s-0.5-0.9-0.5-1.7v-2.4h-0.8v-1.3h0.8v-1.3L124.8,183.4z"/>
</g>
<g class="st1">
	<path class="st0" d="M23,196.9v6.8c0,0.7,0,1.4,0,1.8h-1.6l-0.1-0.9l0,0c-0.4,0.7-1.1,1-1.8,1c-1.4,0-2.5-1.2-2.5-3
		c0-2,1.2-3.1,2.6-3.1c0.7,0,1.3,0.3,1.5,0.7l0,0V197H23V196.9z M21.2,202c0-0.1,0-0.2,0-0.3c-0.1-0.5-0.5-0.9-1.1-0.9
		c-0.8,0-1.3,0.7-1.3,1.7s0.5,1.6,1.2,1.6c0.5,0,0.9-0.4,1.1-0.9c0-0.1,0-0.3,0-0.4L21.2,202L21.2,202z"/>
	<path class="st0" d="M25.9,203c0.1,0.8,0.8,1.1,1.7,1.1c0.6,0,1.1-0.1,1.6-0.2l0.2,1.2c-0.6,0.2-1.3,0.4-2.1,0.4
		c-2,0-3.1-1.2-3.1-3c0-1.5,0.9-3.1,3-3.1c1.9,0,2.6,1.5,2.6,2.9c0,0.3,0,0.6-0.1,0.7L25.9,203L25.9,203z M28,201.8
		c0-0.4-0.2-1.2-1-1.2s-1.1,0.7-1.1,1.2H28z"/>
	<path class="st0" d="M30.8,203.8c0.3,0.2,1,0.4,1.6,0.4s0.8-0.2,0.8-0.5s-0.2-0.4-0.9-0.7c-1.2-0.4-1.7-1.1-1.7-1.8
		c0-1.1,0.9-1.9,2.4-1.9c0.7,0,1.3,0.2,1.7,0.3l-0.3,1.3c-0.3-0.1-0.8-0.3-1.3-0.3c-0.4,0-0.7,0.2-0.7,0.5s0.2,0.4,0.9,0.7
		c1.1,0.4,1.6,0.9,1.6,1.8c0,1.1-0.9,1.9-2.5,1.9c-0.8,0-1.5-0.2-1.9-0.4L30.8,203.8z"/>
	<path class="st0" d="M44.1,196.9v6.8c0,0.7,0,1.4,0,1.8h-1.6l-0.1-0.9l0,0c-0.4,0.7-1.1,1-1.8,1c-1.4,0-2.5-1.2-2.5-3
		c0-2,1.2-3.1,2.6-3.1c0.7,0,1.3,0.3,1.5,0.7l0,0V197h1.9V196.9z M42.3,202c0-0.1,0-0.2,0-0.3c-0.1-0.5-0.5-0.9-1.1-0.9
		c-0.8,0-1.3,0.7-1.3,1.7s0.5,1.6,1.2,1.6c0.5,0,0.9-0.4,1.1-0.9c0-0.1,0-0.3,0-0.4L42.3,202L42.3,202z"/>
	<path class="st0" d="M47,203c0.1,0.8,0.8,1.1,1.7,1.1c0.6,0,1.1-0.1,1.6-0.2l0.2,1.2c-0.6,0.2-1.3,0.4-2.1,0.4c-2,0-3.1-1.2-3.1-3
		c0-1.5,0.9-3.1,3-3.1c1.9,0,2.6,1.5,2.6,2.9c0,0.3,0,0.6-0.1,0.7L47,203L47,203z M49.1,201.8c0-0.4-0.2-1.2-1-1.2s-1.1,0.7-1.1,1.2
		H49.1z M50.1,197l-1.5,1.8h-1.3l1-1.8H50.1z"/>
	<path class="st0" d="M54,197.8v1.7h1.3v1.3H54v2.1c0,0.7,0.2,1,0.7,1c0.2,0,0.4,0,0.5,0v1.4c-0.2,0.1-0.7,0.2-1.2,0.2
		c-0.6,0-1.1-0.2-1.4-0.5c-0.3-0.3-0.5-0.9-0.5-1.7v-2.4h-0.8v-1.3h0.8v-1.3L54,197.8z"/>
	<path class="st0" d="M57.7,203c0.1,0.8,0.8,1.1,1.7,1.1c0.6,0,1.1-0.1,1.6-0.2l0.2,1.2c-0.6,0.2-1.3,0.4-2.1,0.4
		c-2,0-3.1-1.2-3.1-3c0-1.5,0.9-3.1,3-3.1c1.9,0,2.6,1.5,2.6,2.9c0,0.3,0,0.6-0.1,0.7L57.7,203L57.7,203z M59.8,201.8
		c0-0.4-0.2-1.2-1-1.2s-1.1,0.7-1.1,1.2H59.8z"/>
	<path class="st0" d="M67,205.2c-0.3,0.1-0.9,0.3-1.6,0.3c-1.9,0-3.1-1.2-3.1-3c0-1.7,1.2-3.1,3.4-3.1c0.5,0,1,0.1,1.4,0.2l-0.3,1.4
		c-0.2-0.1-0.5-0.2-1-0.2c-1,0-1.6,0.7-1.6,1.6c0,1.1,0.7,1.6,1.6,1.6c0.4,0,0.8-0.1,1-0.2L67,205.2z"/>
	<path class="st0" d="M70.2,197.8v1.7h1.3v1.3h-1.3v2.1c0,0.7,0.2,1,0.7,1c0.2,0,0.4,0,0.5,0v1.4c-0.2,0.1-0.7,0.2-1.2,0.2
		c-0.6,0-1.1-0.2-1.4-0.5s-0.5-0.9-0.5-1.7v-2.4h-0.8v-1.3h0.8v-1.3L70.2,197.8z"/>
	<path class="st0" d="M74,203c0.1,0.8,0.8,1.1,1.7,1.1c0.6,0,1.1-0.1,1.6-0.2l0.2,1.2c-0.6,0.2-1.3,0.4-2.1,0.4c-2,0-3.1-1.2-3.1-3
		c0-1.5,0.9-3.1,3-3.1c1.9,0,2.6,1.5,2.6,2.9c0,0.3,0,0.6-0.1,0.7L74,203L74,203z M76.1,201.8c0-0.4-0.2-1.2-1-1.2s-1.1,0.7-1.1,1.2
		H76.1z"/>
	<path class="st0" d="M84.4,203.5c0,0.8,0,1.4,0,1.9h-1.6l-0.1-0.8l0,0c-0.2,0.4-0.8,1-1.8,1c-1.2,0-2.1-0.7-2.1-2.6v-3.4h1.8v3.2
		c0,0.9,0.3,1.4,0.9,1.4c0.5,0,0.8-0.3,0.9-0.6c0-0.1,0.1-0.3,0.1-0.4v-3.5h1.8L84.4,203.5L84.4,203.5z"/>
	<path class="st0" d="M85.9,201.5c0-0.9,0-1.4,0-1.9h1.6l0.1,1.1l0,0c0.3-0.9,1-1.2,1.6-1.2c0.2,0,0.3,0,0.4,0v1.7
		c-0.1,0-0.3,0-0.5,0c-0.7,0-1.1,0.4-1.2,0.9c0,0.1,0,0.3,0,0.4v3h-1.8v-4H85.9z"/>
	<path class="st0" d="M90.4,203.8c0.3,0.2,1,0.4,1.6,0.4s0.8-0.2,0.8-0.5s-0.2-0.4-0.9-0.7c-1.2-0.4-1.7-1.1-1.7-1.8
		c0-1.1,0.9-1.9,2.4-1.9c0.7,0,1.3,0.2,1.7,0.3L94,201c-0.3-0.1-0.8-0.3-1.3-0.3c-0.4,0-0.7,0.2-0.7,0.5s0.2,0.4,0.9,0.7
		c1.1,0.4,1.6,0.9,1.6,1.8c0,1.1-0.9,1.9-2.5,1.9c-0.8,0-1.5-0.2-1.9-0.4L90.4,203.8z"/>
	<path class="st0" d="M103.8,196.9v6.8c0,0.7,0,1.4,0,1.8h-1.6l-0.1-0.9l0,0c-0.4,0.7-1.1,1-1.8,1c-1.4,0-2.5-1.2-2.5-3
		c0-2,1.2-3.1,2.6-3.1c0.7,0,1.3,0.3,1.5,0.7l0,0V197h1.9V196.9z M101.9,202c0-0.1,0-0.2,0-0.3c-0.1-0.5-0.5-0.9-1.1-0.9
		c-0.8,0-1.3,0.7-1.3,1.7s0.5,1.6,1.2,1.6c0.5,0,0.9-0.4,1.1-0.9c0-0.1,0-0.3,0-0.4V202H101.9z"/>
	<path class="st0" d="M107.4,197.2c-0.4,1.2-0.9,2.4-1.4,3.3l-1.1,0.1c0.4-1,0.7-2.2,0.8-3.2L107.4,197.2z"/>
	<path class="st0" d="M113.1,202.4c0,2.1-1.5,3.1-3.1,3.1c-1.7,0-3-1.1-3-3s1.2-3.1,3.1-3.1C111.9,199.4,113.1,200.6,113.1,202.4z
		 M108.8,202.4c0,1,0.4,1.8,1.2,1.8c0.7,0,1.2-0.7,1.2-1.8c0-0.9-0.3-1.8-1.2-1.8C109.1,200.7,108.8,201.6,108.8,202.4z"/>
	<path class="st0" d="M119.9,196.9v6.8c0,0.7,0,1.4,0,1.8h-1.6l-0.1-0.9l0,0c-0.4,0.7-1.1,1-1.8,1c-1.4,0-2.5-1.2-2.5-3
		c0-2,1.2-3.1,2.6-3.1c0.7,0,1.3,0.3,1.5,0.7l0,0V197h1.9V196.9z M118.1,202c0-0.1,0-0.2,0-0.3c-0.1-0.5-0.5-0.9-1.1-0.9
		c-0.8,0-1.3,0.7-1.3,1.7s0.5,1.6,1.2,1.6c0.5,0,0.9-0.4,1.1-0.9c0-0.1,0-0.3,0-0.4V202H118.1z"/>
	<path class="st0" d="M122.8,203c0.1,0.8,0.8,1.1,1.7,1.1c0.6,0,1.1-0.1,1.6-0.2l0.2,1.2c-0.6,0.2-1.3,0.4-2.1,0.4
		c-2,0-3.1-1.2-3.1-3c0-1.5,0.9-3.1,3-3.1c1.9,0,2.6,1.5,2.6,2.9c0,0.3,0,0.6-0.1,0.7L122.8,203L122.8,203z M124.9,201.8
		c0-0.4-0.2-1.2-1-1.2s-1.1,0.7-1.1,1.2H124.9z"/>
	<path class="st0" d="M133.3,203.5c0,0.8,0,1.4,0,1.9h-1.6l-0.1-0.8l0,0c-0.2,0.4-0.8,1-1.8,1c-1.2,0-2.1-0.7-2.1-2.6v-3.4h1.8v3.2
		c0,0.9,0.3,1.4,0.9,1.4c0.5,0,0.8-0.3,0.9-0.6c0-0.1,0.1-0.3,0.1-0.4v-3.5h1.8v3.8H133.3z"/>
	<path class="st0" d="M134.7,201.5c0-0.9,0-1.4,0-1.9h1.6l0.1,1.1l0,0c0.3-0.9,1-1.2,1.6-1.2c0.2,0,0.3,0,0.4,0v1.7
		c-0.1,0-0.3,0-0.5,0c-0.7,0-1.1,0.4-1.2,0.9c0,0.1,0,0.3,0,0.4v3h-1.8v-4H134.7z"/>
	<path class="st0" d="M139.3,203.8c0.3,0.2,1,0.4,1.6,0.4s0.8-0.2,0.8-0.5s-0.2-0.4-0.9-0.7c-1.2-0.4-1.7-1.1-1.7-1.8
		c0-1.1,0.9-1.9,2.4-1.9c0.7,0,1.3,0.2,1.7,0.3l-0.3,1.3c-0.3-0.1-0.8-0.3-1.3-0.3c-0.4,0-0.7,0.2-0.7,0.5s0.2,0.4,0.9,0.7
		c1.1,0.4,1.6,0.9,1.6,1.8c0,1.1-0.9,1.9-2.5,1.9c-0.8,0-1.5-0.2-1.9-0.4L139.3,203.8z"/>
</g>
<g class="st1">
	<path class="st0" d="M90.8,101.7h1.8v8.5h-1.8V101.7z"/>
	<path class="st0" d="M95.5,107.8c0.1,0.8,0.8,1.1,1.7,1.1c0.6,0,1.1-0.1,1.6-0.2L99,110c-0.6,0.2-1.3,0.4-2.1,0.4
		c-2,0-3.1-1.2-3.1-3c0-1.5,0.9-3.1,3-3.1c1.9,0,2.6,1.5,2.6,2.9c0,0.3,0,0.6-0.1,0.7L95.5,107.8L95.5,107.8z M97.7,106.6
		c0-0.4-0.2-1.2-1-1.2s-1.1,0.7-1.1,1.2H97.7z"/>
	<path class="st0" d="M100.4,108.6c0.3,0.2,1,0.4,1.6,0.4s0.8-0.2,0.8-0.5s-0.2-0.4-0.9-0.7c-1.2-0.4-1.7-1.1-1.7-1.8
		c0-1.1,0.9-1.9,2.4-1.9c0.7,0,1.3,0.2,1.7,0.3l-0.3,1.3c-0.3-0.1-0.8-0.3-1.3-0.3c-0.4,0-0.7,0.2-0.7,0.5s0.2,0.4,0.9,0.7
		c1.1,0.4,1.6,0.9,1.6,1.8c0,1.1-0.9,1.9-2.5,1.9c-0.8,0-1.5-0.2-1.9-0.4L100.4,108.6z"/>
	<path class="st0" d="M108.1,106.3c0-0.8,0-1.4,0-2h1.6l0.1,0.8l0,0c0.4-0.6,1.1-0.9,2-0.9c1.3,0,2.4,1.1,2.4,3
		c0,2.1-1.4,3.1-2.7,3.1c-0.7,0-1.3-0.3-1.5-0.7l0,0v2.9h-1.8L108.1,106.3L108.1,106.3z M109.9,107.7c0,0.1,0,0.3,0,0.4
		c0.1,0.5,0.5,0.9,1.1,0.9c0.8,0,1.3-0.7,1.3-1.7c0-0.9-0.4-1.6-1.2-1.6c-0.5,0-1,0.4-1.1,0.9c0,0.1,0,0.2,0,0.3v0.8H109.9z"/>
	<path class="st0" d="M116.7,107.8c0.1,0.8,0.8,1.1,1.7,1.1c0.6,0,1.1-0.1,1.6-0.2l0.2,1.2c-0.6,0.2-1.3,0.4-2.1,0.4
		c-2,0-3.1-1.2-3.1-3c0-1.5,0.9-3.1,3-3.1c1.9,0,2.6,1.5,2.6,2.9c0,0.3,0,0.6-0.1,0.7H116.7z M118.8,106.6c0-0.4-0.2-1.2-1-1.2
		s-1.1,0.7-1.1,1.2H118.8z"/>
	<path class="st0" d="M123.7,102.7v1.7h1.3v1.3h-1.3v2.1c0,0.7,0.2,1,0.7,1c0.2,0,0.4,0,0.5,0v1.4c-0.2,0.1-0.7,0.2-1.2,0.2
		c-0.6,0-1.1-0.2-1.4-0.5s-0.5-0.9-0.5-1.7v-2.4H121v-1.3h0.8v-1.3L123.7,102.7z"/>
	<path class="st0" d="M127.9,102.7c0,0.5-0.4,0.9-1,0.9s-1-0.4-0.9-0.9c0-0.5,0.4-0.9,1-0.9S127.9,102.2,127.9,102.7z M126,110.2
		v-5.9h1.8v5.9H126z"/>
	<path class="st0" d="M131.4,102.7v1.7h1.3v1.3h-1.3v2.1c0,0.7,0.2,1,0.7,1c0.2,0,0.4,0,0.5,0v1.4c-0.2,0.1-0.7,0.2-1.2,0.2
		c-0.6,0-1.1-0.2-1.4-0.5c-0.3-0.3-0.5-0.9-0.5-1.7v-2.4h-0.8v-1.3h0.8v-1.3L131.4,102.7z"/>
	<path class="st0" d="M133.7,108.6c0.3,0.2,1,0.4,1.6,0.4s0.8-0.2,0.8-0.5s-0.2-0.4-0.9-0.7c-1.2-0.4-1.7-1.1-1.7-1.8
		c0-1.1,0.9-1.9,2.4-1.9c0.7,0,1.3,0.2,1.7,0.3l-0.3,1.3c-0.3-0.1-0.8-0.3-1.3-0.3c-0.4,0-0.7,0.2-0.7,0.5s0.2,0.4,0.9,0.7
		c1.1,0.4,1.6,0.9,1.6,1.8c0,1.1-0.9,1.9-2.5,1.9c-0.8,0-1.5-0.2-1.9-0.4L133.7,108.6z"/>
	<path class="st0" d="M142.7,104.3l0.9,2.9c0.1,0.3,0.2,0.8,0.3,1.1l0,0c0.1-0.3,0.2-0.8,0.3-1.1l0.7-2.9h2l-1.4,3.9
		c-0.8,2.3-1.4,3.3-2.1,3.8c-0.6,0.6-1.3,0.7-1.8,0.8l-0.4-1.5c0.2,0,0.5-0.1,0.8-0.3c0.3-0.1,0.6-0.4,0.8-0.7
		c0.1-0.1,0.1-0.2,0.1-0.3c0-0.1,0-0.2-0.1-0.3l-2.1-5.4H142.7z"/>
	<path class="st0" d="M148.8,107.8c0.1,0.8,0.8,1.1,1.7,1.1c0.6,0,1.1-0.1,1.6-0.2l0.2,1.2c-0.6,0.2-1.3,0.4-2.1,0.4
		c-2,0-3.1-1.2-3.1-3c0-1.5,0.9-3.1,3-3.1c1.9,0,2.6,1.5,2.6,2.9c0,0.3,0,0.6-0.1,0.7H148.8z M151,106.6c0-0.4-0.2-1.2-1-1.2
		s-1.1,0.7-1.1,1.2H151z"/>
	<path class="st0" d="M159.3,108.3c0,0.8,0,1.4,0,1.9h-1.6l-0.1-0.8l0,0c-0.2,0.4-0.8,1-1.8,1c-1.2,0-2.1-0.7-2.1-2.6v-3.4h1.8v3.2
		c0,0.9,0.3,1.4,0.9,1.4c0.5,0,0.8-0.3,0.9-0.6c0-0.1,0.1-0.3,0.1-0.4v-3.5h1.8v3.8H159.3z"/>
	<path class="st0" d="M162.2,104.3l0.6,1c0.2,0.3,0.3,0.6,0.5,0.9l0,0c0.2-0.3,0.3-0.6,0.5-0.9l0.5-0.9h2l-1.9,2.8l2,3.1h-2.1
		l-0.6-1.1c-0.2-0.3-0.3-0.6-0.5-0.9l0,0c-0.1,0.3-0.3,0.6-0.4,0.9l-0.6,1.1h-2l2-3l-1.9-2.9L162.2,104.3L162.2,104.3z"/>
	<path class="st0" d="M166.3,111.6c0.4-1.1,0.7-2.3,0.9-3.4l1.9-0.1c-0.4,1.2-0.9,2.5-1.5,3.4L166.3,111.6z"/>
	<path class="st0" d="M176.9,110.1c-0.3,0.1-0.9,0.3-1.6,0.3c-1.9,0-3.1-1.2-3.1-3c0-1.7,1.2-3.1,3.4-3.1c0.5,0,1,0.1,1.4,0.2
		l-0.3,1.4c-0.2-0.1-0.5-0.2-1-0.2c-1,0-1.6,0.7-1.6,1.6c0,1.1,0.7,1.6,1.6,1.6c0.4,0,0.8-0.1,1-0.2L176.9,110.1z"/>
	<path class="st0" d="M179.2,107.8c0.1,0.8,0.8,1.1,1.7,1.1c0.6,0,1.1-0.1,1.6-0.2l0.2,1.2c-0.6,0.2-1.3,0.4-2.1,0.4
		c-2,0-3.1-1.2-3.1-3c0-1.5,0.9-3.1,3-3.1c1.9,0,2.6,1.5,2.6,2.9c0,0.3,0,0.6-0.1,0.7H179.2z M181.4,106.6c0-0.4-0.2-1.2-1-1.2
		s-1.1,0.7-1.1,1.2H181.4z"/>
	<path class="st0" d="M186.6,108.6c0.3,0.2,1,0.4,1.6,0.4s0.8-0.2,0.8-0.5s-0.2-0.4-0.9-0.7c-1.2-0.4-1.7-1.1-1.7-1.8
		c0-1.1,0.9-1.9,2.4-1.9c0.7,0,1.3,0.2,1.7,0.3l-0.3,1.3c-0.3-0.1-0.8-0.3-1.3-0.3c-0.4,0-0.7,0.2-0.7,0.5s0.2,0.4,0.9,0.7
		c1.1,0.4,1.6,0.9,1.6,1.8c0,1.1-0.9,1.9-2.5,1.9c-0.8,0-1.5-0.2-1.9-0.4L186.6,108.6z"/>
	<path class="st0" d="M197.6,107.2c0,2.1-1.5,3.1-3.1,3.1c-1.7,0-3-1.1-3-3s1.2-3.1,3.1-3.1C196.4,104.2,197.6,105.4,197.6,107.2z
		 M193.3,107.3c0,1,0.4,1.8,1.2,1.8c0.7,0,1.2-0.7,1.2-1.8c0-0.9-0.3-1.8-1.2-1.8C193.7,105.5,193.3,106.4,193.3,107.3z"/>
	<path class="st0" d="M198.7,106.2c0-0.7,0-1.4,0-1.9h1.6l0.1,0.8l0,0c0.2-0.4,0.8-0.9,1.8-0.9c1.2,0,2.1,0.8,2.1,2.5v3.5h-1.8V107
		c0-0.8-0.3-1.3-0.9-1.3c-0.5,0-0.8,0.3-0.9,0.7c0,0.1-0.1,0.3-0.1,0.5v3.4h-1.8v-4.1H198.7z"/>
	<path class="st0" d="M207.7,102.7v1.7h1.3v1.3h-1.3v2.1c0,0.7,0.2,1,0.7,1c0.2,0,0.4,0,0.5,0v1.4c-0.2,0.1-0.7,0.2-1.2,0.2
		c-0.6,0-1.1-0.2-1.4-0.5c-0.3-0.3-0.5-0.9-0.5-1.7v-2.4H205v-1.3h0.8v-1.3L207.7,102.7z"/>
</g>
<g class="st1">
	<path class="st0" d="M96.5,116.1v6.8c0,0.7,0,1.4,0,1.8h-1.6l-0.1-0.9l0,0c-0.4,0.7-1.1,1-1.8,1c-1.4,0-2.5-1.2-2.5-3
		c0-2,1.2-3.1,2.6-3.1c0.7,0,1.3,0.3,1.5,0.7l0,0v-3.2h1.9V116.1z M94.7,121.2c0-0.1,0-0.2,0-0.3c-0.1-0.5-0.5-0.9-1.1-0.9
		c-0.8,0-1.3,0.7-1.3,1.7s0.5,1.6,1.2,1.6c0.5,0,0.9-0.4,1.1-0.9c0-0.1,0-0.3,0-0.4v-0.8H94.7z"/>
	<path class="st0" d="M99.4,122.2c0.1,0.8,0.8,1.1,1.7,1.1c0.6,0,1.1-0.1,1.6-0.2l0.2,1.2c-0.6,0.2-1.3,0.4-2.1,0.4
		c-2,0-3.1-1.2-3.1-3c0-1.5,0.9-3.1,3-3.1c1.9,0,2.6,1.5,2.6,2.9c0,0.3,0,0.6-0.1,0.7H99.4z M101.5,121c0-0.4-0.2-1.2-1-1.2
		s-1.1,0.7-1.1,1.2H101.5z"/>
	<path class="st0" d="M104.3,123c0.3,0.2,1,0.4,1.6,0.4s0.8-0.2,0.8-0.5s-0.2-0.4-0.9-0.7c-1.2-0.4-1.7-1.1-1.7-1.8
		c0-1.1,0.9-1.9,2.4-1.9c0.7,0,1.3,0.2,1.7,0.3l-0.3,1.3c-0.3-0.1-0.8-0.3-1.3-0.3c-0.4,0-0.7,0.2-0.7,0.5s0.2,0.4,0.9,0.7
		c1.1,0.4,1.6,0.9,1.6,1.8c0,1.1-0.9,1.9-2.5,1.9c-0.8,0-1.5-0.2-1.9-0.4L104.3,123z"/>
	<path class="st0" d="M116.3,124.5c-0.3,0.1-0.9,0.3-1.6,0.3c-1.9,0-3.1-1.2-3.1-3c0-1.7,1.2-3.1,3.4-3.1c0.5,0,1,0.1,1.4,0.2
		l-0.3,1.4c-0.2-0.1-0.5-0.2-1-0.2c-1,0-1.6,0.7-1.6,1.6c0,1.1,0.7,1.6,1.6,1.6c0.4,0,0.8-0.1,1-0.2L116.3,124.5z"/>
	<path class="st0" d="M120.7,124.6l-0.1-0.6l0,0c-0.4,0.5-1,0.7-1.7,0.7c-1.2,0-1.9-0.9-1.9-1.8c0-1.5,1.4-2.3,3.4-2.2v-0.1
		c0-0.3-0.2-0.8-1.1-0.8c-0.6,0-1.2,0.2-1.6,0.4l-0.3-1.2c0.4-0.2,1.2-0.5,2.3-0.5c2,0,2.6,1.2,2.6,2.5v2c0,0.6,0,1.1,0.1,1.4h-1.7
		V124.6z M120.5,121.8c-1,0-1.7,0.2-1.7,0.9c0,0.5,0.3,0.7,0.7,0.7c0.5,0,0.8-0.3,0.9-0.7c0-0.1,0-0.2,0-0.3L120.5,121.8
		L120.5,121.8z"/>
	<path class="st0" d="M123.7,120.7c0-0.8,0-1.4,0-2h1.6l0.1,0.8l0,0c0.4-0.6,1.1-0.9,2-0.9c1.3,0,2.4,1.1,2.4,3
		c0,2.1-1.4,3.1-2.7,3.1c-0.7,0-1.3-0.3-1.5-0.7l0,0v2.9h-1.8L123.7,120.7L123.7,120.7z M125.5,122.1c0,0.1,0,0.3,0,0.4
		c0.1,0.5,0.5,0.9,1.1,0.9c0.8,0,1.3-0.7,1.3-1.7c0-0.9-0.4-1.6-1.2-1.6c-0.5,0-1,0.4-1.1,0.9c0,0.1,0,0.2,0,0.3v0.8H125.5z"/>
	<path class="st0" d="M132.9,117.1v1.7h1.3v1.3h-1.3v2.1c0,0.7,0.2,1,0.7,1c0.2,0,0.4,0,0.5,0v1.4c-0.2,0.1-0.7,0.2-1.2,0.2
		c-0.6,0-1.1-0.2-1.4-0.5c-0.3-0.3-0.5-0.9-0.5-1.7v-2.4h-0.8v-1.3h0.8v-1.3L132.9,117.1z"/>
	<path class="st0" d="M136.6,122.2c0.1,0.8,0.8,1.1,1.7,1.1c0.6,0,1.1-0.1,1.6-0.2l0.2,1.2c-0.6,0.2-1.3,0.4-2.1,0.4
		c-2,0-3.1-1.2-3.1-3c0-1.5,0.9-3.1,3-3.1c1.9,0,2.6,1.5,2.6,2.9c0,0.3,0,0.6-0.1,0.7H136.6z M138.8,121c0-0.4-0.2-1.2-1-1.2
		s-1.1,0.7-1.1,1.2H138.8z"/>
	<path class="st0" d="M147.1,122.7c0,0.8,0,1.4,0,1.9h-1.6l-0.1-0.8l0,0c-0.2,0.4-0.8,1-1.8,1c-1.2,0-2.1-0.7-2.1-2.6v-3.4h1.8v3.2
		c0,0.9,0.3,1.4,0.9,1.4c0.5,0,0.8-0.3,0.9-0.6c0-0.1,0.1-0.3,0.1-0.4v-3.5h1.8v3.8H147.1z"/>
	<path class="st0" d="M148.6,120.7c0-0.9,0-1.4,0-1.9h1.6l0.1,1.1l0,0c0.3-0.9,1-1.2,1.6-1.2c0.2,0,0.3,0,0.4,0v1.7
		c-0.1,0-0.3,0-0.5,0c-0.7,0-1.1,0.4-1.2,0.9c0,0.1,0,0.3,0,0.4v3h-1.8v-4H148.6z"/>
	<path class="st0" d="M153.1,123c0.3,0.2,1,0.4,1.6,0.4s0.8-0.2,0.8-0.5s-0.2-0.4-0.9-0.7c-1.2-0.4-1.7-1.1-1.7-1.8
		c0-1.1,0.9-1.9,2.4-1.9c0.7,0,1.3,0.2,1.7,0.3l-0.3,1.3c-0.3-0.1-0.8-0.3-1.3-0.3c-0.4,0-0.7,0.2-0.7,0.5s0.2,0.4,0.9,0.7
		c1.1,0.4,1.6,0.9,1.6,1.8c0,1.1-0.9,1.9-2.5,1.9c-0.8,0-1.5-0.2-1.9-0.4L153.1,123z"/>
	<path class="st0" d="M166.4,116.1v6.8c0,0.7,0,1.4,0,1.8h-1.6l-0.1-0.9l0,0c-0.4,0.7-1.1,1-1.8,1c-1.4,0-2.5-1.2-2.5-3
		c0-2,1.2-3.1,2.6-3.1c0.7,0,1.3,0.3,1.5,0.7l0,0v-3.2h1.9V116.1z M164.6,121.2c0-0.1,0-0.2,0-0.3c-0.1-0.5-0.5-0.9-1.1-0.9
		c-0.8,0-1.3,0.7-1.3,1.7s0.5,1.6,1.2,1.6c0.5,0,0.9-0.4,1.1-0.9c0-0.1,0-0.3,0-0.4v-0.8H164.6z"/>
	<path class="st0" d="M169.3,122.2c0.1,0.8,0.8,1.1,1.7,1.1c0.6,0,1.1-0.1,1.6-0.2l0.2,1.2c-0.6,0.2-1.3,0.4-2.1,0.4
		c-2,0-3.1-1.2-3.1-3c0-1.5,0.9-3.1,3-3.1c1.9,0,2.6,1.5,2.6,2.9c0,0.3,0,0.6-0.1,0.7H169.3z M171.5,121c0-0.4-0.2-1.2-1-1.2
		s-1.1,0.7-1.1,1.2H171.5z"/>
	<path class="st0" d="M176.7,116.1h1.8v8.5h-1.8V116.1z"/>
	<path class="st0" d="M185.5,122.7c0,0.8,0,1.4,0,1.9H184l-0.1-0.8l0,0c-0.2,0.4-0.8,1-1.8,1c-1.2,0-2.1-0.7-2.1-2.6v-3.4h1.8v3.2
		c0,0.9,0.3,1.4,0.9,1.4c0.5,0,0.8-0.3,0.9-0.6c0-0.1,0.1-0.3,0.1-0.4v-3.5h1.8L185.5,122.7L185.5,122.7z"/>
	<path class="st0" d="M187,120.6c0-0.7,0-1.4,0-1.9h1.5l0.1,0.8l0,0c0.3-0.4,0.8-0.9,1.8-0.9c0.8,0,1.4,0.4,1.6,1l0,0
		c0.2-0.3,0.5-0.5,0.8-0.7s0.7-0.3,1.1-0.3c1.1,0,2,0.8,2,2.5v3.5h-1.8v-3.2c0-0.9-0.3-1.3-0.9-1.3c-0.4,0-0.7,0.3-0.8,0.6
		c0,0.1-0.1,0.3-0.1,0.5v3.4h-1.8v-3.3c0-0.7-0.3-1.2-0.8-1.2s-0.7,0.4-0.9,0.7c-0.1,0.1-0.1,0.3-0.1,0.5v3.4H187V120.6z"/>
	<path class="st0" d="M199.2,117.1c0,0.5-0.4,0.9-1,0.9s-1-0.4-0.9-0.9c0-0.5,0.4-0.9,1-0.9S199.2,116.6,199.2,117.1z M197.3,124.6
		v-5.9h1.8v5.9H197.3z"/>
	<path class="st0" d="M202,122.2c0.1,0.8,0.8,1.1,1.7,1.1c0.6,0,1.1-0.1,1.6-0.2l0.2,1.2c-0.6,0.2-1.3,0.4-2.1,0.4
		c-2,0-3.1-1.2-3.1-3c0-1.5,0.9-3.1,3-3.1c1.9,0,2.6,1.5,2.6,2.9c0,0.3,0,0.6-0.1,0.7H202z M203,116.2l1,1.8h-1.2l-1.5-1.8H203z
		 M204.1,121c0-0.4-0.2-1.2-1-1.2s-1.1,0.7-1.1,1.2H204.1z"/>
	<path class="st0" d="M206.9,120.7c0-0.9,0-1.4,0-1.9h1.6l0.1,1.1l0,0c0.3-0.9,1-1.2,1.6-1.2c0.2,0,0.3,0,0.4,0v1.7
		c-0.1,0-0.3,0-0.5,0c-0.7,0-1.1,0.4-1.2,0.9c0,0.1,0,0.3,0,0.4v3h-1.8v-4H206.9z"/>
	<path class="st0" d="M212.8,122.2c0.1,0.8,0.8,1.1,1.7,1.1c0.6,0,1.1-0.1,1.6-0.2l0.2,1.2c-0.6,0.2-1.3,0.4-2.1,0.4
		c-2,0-3.1-1.2-3.1-3c0-1.5,0.9-3.1,3-3.1c1.9,0,2.6,1.5,2.6,2.9c0,0.3,0,0.6-0.1,0.7H212.8z M214.9,121c0-0.4-0.2-1.2-1-1.2
		s-1.1,0.7-1.1,1.2H214.9z"/>
	<path class="st0" d="M217.7,123c0.3,0.2,1,0.4,1.6,0.4s0.8-0.2,0.8-0.5s-0.2-0.4-0.9-0.7c-1.2-0.4-1.7-1.1-1.7-1.8
		c0-1.1,0.9-1.9,2.4-1.9c0.7,0,1.3,0.2,1.7,0.3l-0.3,1.3c-0.3-0.1-0.8-0.3-1.3-0.3c-0.4,0-0.7,0.2-0.7,0.5s0.2,0.4,0.9,0.7
		c1.1,0.4,1.6,0.9,1.6,1.8c0,1.1-0.9,1.9-2.5,1.9c-0.8,0-1.5-0.2-1.9-0.4L217.7,123z"/>
</g>
<g>
	
		<rect x="476.5" y="116.9" transform="matrix(0.9917 -0.1288 0.1288 0.9917 -10.6873 69.5961)" class="st0" width="112.5" height="1"/>
</g>
<g>
	
		<rect x="473.4" y="161.6" transform="matrix(0.8088 -0.5881 0.5881 0.8088 7.383 346.8528)" class="st0" width="127.4" height="1"/>
</g>
<g>
	<path class="st2" d="M588.3,349"/>
</g>
<g>
	<rect x="598.7" y="340.7" transform="matrix(0.9922 -0.125 0.125 0.9922 -37.7042 81.4831)" class="st0" width="63.5" height="1"/>
</g>
<g>
	
		<rect x="590.3" y="384.9" transform="matrix(0.4833 -0.8755 0.8755 0.4833 -66.7792 736.8121)" class="st0" width="1" height="80.1"/>
</g>
<g>
	
		<rect x="229.1" y="477.6" transform="matrix(0.8104 -0.5858 0.5858 0.8104 -227.3861 253.4333)" class="st0" width="97.7" height="1"/>
</g>
<g>
	
		<rect x="202.4" y="321.4" transform="matrix(0.1604 -0.9871 0.9871 0.1604 -214.576 527.7412)" class="st0" width="1" height="137.2"/>
</g>
<g>
	
		<rect x="167.7" y="181.4" transform="matrix(0.6216 -0.7833 0.7833 0.6216 -139.529 229.9083)" class="st0" width="1" height="155.9"/>
</g>
<g>
	
		<rect x="239.8" y="110.6" transform="matrix(0.7922 -0.6102 0.6102 0.7922 -73.6861 188.7098)" class="st0" width="1" height="184"/>
</g>
</svg>
