<?xml version="1.0" encoding="utf-8"?>
<!-- Generator: Adobe Illustrator 24.3.0, SVG Export Plug-In . SVG Version: 6.00 Build 0)  -->
<svg version="1.1" id="Calque_2_1_" xmlns="http://www.w3.org/2000/svg" xmlns:xlink="http://www.w3.org/1999/xlink" x="0px"
	 y="0px" viewBox="0 0 691.6 356.1" style="enable-background:new 0 0 691.6 356.1;" xml:space="preserve">
<style type="text/css">
	.st0{fill:#AC4B1C;}
	.st1{enable-background:new    ;}
</style>
<g>
	<g>
		<path class="st0" d="M393.3,43.2C384.4,30,369.8,31,356.9,31.8c-4.3,0.3-8.4,0.6-12.2,0.4c-3.5-0.2-6.9-0.9-10.2-1.5
			c-11.4-2.3-22.2-4.4-38.5,13.3c-20.5,22.5-20.6,54.8,0,84.3c10.5,15.1,17.7,30.8,23,44.9c0.5,1.5,1.1,2.9,1.6,4.3
			c1.3,3.8,2.5,7.4,3.6,10.8c0.8,2.4,1.5,4.7,2.1,6.9c-0.6-2.2-0.9-4.5-1.1-6.8c0-0.1,0-0.2,0-0.3c-0.4-1.2-0.8-2.4-1.2-3.6
			c-0.3-1-0.7-2-1-3c-0.5-1.5-1-2.9-1.5-4.4c-5.4-15.2-13-32.6-24.7-49.4c-20.2-29.1-20.3-60.9,0-83c15.9-17.3,26.4-15.2,37.5-13
			c3.3,0.7,6.7,1.3,10.3,1.5c3.9,0.2,8-0.1,12.3-0.4c13.2-0.9,26.8-1.8,35.5,11c10.6,15.6,9.1,39.1-4.8,73.9
			c-2.5,6.2-4.9,12.7-7.3,19.2c0,0.1-0.1,0.3-0.1,0.4c-3.9,10.9-7.6,22.1-10.8,32.4c-1,3.1-1.9,6.1-2.7,9c-1.3,4.3-2.4,8.4-3.4,12.1
			c-1,3.9-1.9,7.4-2.6,10.4l0,0c-0.3,1.4-0.6,2.8-0.8,4c-0.1,0.3-0.1,0.7-0.2,1c0.3,0.1,0.6,0.1,1,0.3c0-0.3,0.1-0.7,0.2-1
			c1.5-7.8,5-20.7,9.5-35.3c0.8-2.5,1.5-5,2.4-7.5c2.4-7.5,5-15.2,7.8-23c0.2-0.7,0.5-1.4,0.7-2c0-0.1,0-0.1,0.1-0.2
			c0.2-0.7,0.5-1.4,0.7-2c2.1-5.9,4.3-11.7,6.5-17.2C402.6,82.9,404.1,59.1,393.3,43.2z M330.6,205.6L330.6,205.6L330.6,205.6
			c-1.2-2.1-2.2-4.3-3-6.5c0.1,0.4,0.2,0.8,0.4,1.2c0.6,1.8,1.1,3.6,1.6,5.2c0,0.2,0.1,0.3,0.2,0.5l0,0v0.1l0,0l0.1,0.1
			c0,0,0.1,0.1,0.3,0.2c0.3,0,0.6,0,0.9,0c0.4,0,0.8,0,1.2,0.1C331.5,206.1,330.9,205.8,330.6,205.6z"/>
	</g>
</g>
<g>
	<g>
		<path class="st0" d="M506.3,104.8c-0.7-1-1.5-2.1-2.2-3.3c-1.7-2.6-2.2-4.9-2.7-7.1c-1.2-5.1-2.3-9.5-17.8-15.6
			c-21.8-8.6-44.2,9.1-78.7,39.3c-0.8,0.7-1.7,1.5-2.5,2.2c-0.3,0.3-0.7,0.6-1,0.9c-0.8,0.8-1.6,1.6-2.4,2.4
			c-0.3,0.3-0.6,0.6-0.9,0.9c-4.5,4.8-8.6,9.9-12.2,15.1c-0.1,0.1-0.2,0.2-0.2,0.4c-5.1,7.4-9.3,15-12.9,22.4
			c-1.2,2.4-2.2,4.8-3.3,7.1c-1,3.1-1.9,6.1-2.7,9c1.1-2.8,2.3-5.7,3.6-8.6c6.7-15,15.7-31.7,29.1-45.4c0.9-1,1.9-1.9,2.8-2.8
			c1-1,2.1-2,3.1-2.9c34.1-30,56.4-47.5,77.6-39.2c15.1,6,16,9.9,17.2,14.9c0.5,2.1,1.1,4.6,2.9,7.4c0.8,1.2,1.5,2.3,2.2,3.3
			c4.8,6.9,8,11.5-1.4,30.5c-11.5,23.2-25.7,38.6-57.4,38.6c-32.8,0-75,27.1-79.9,33.5c-0.2,0.3-0.4,0.5-0.6,0.7s-0.5,0.5-0.8,0.7
			c0.2,0.3,0.4,0.5,0.6,0.8c0.3-0.2,0.5-0.4,0.8-0.7s0.6-0.6,0.8-1c4.8-6.4,46.6-33.1,79.1-33.1c32.2,0,46.6-15.7,58.3-39.2
			C514.6,116.8,511.1,111.8,506.3,104.8z M355.2,205.1c-0.2,0.4-0.4,0.8-0.6,1.2c0.4-0.2,0.8-0.3,1.3-0.4c0.2-0.3,0.4-0.7,0.5-1.1
			C355.9,204.9,355.5,205,355.2,205.1z M363.4,187.1c0-0.8,0-1.7-0.1-2.5c-0.3,0.8-0.6,1.6-0.9,2.3c0,1,0,1.9,0,2.9
			C362.7,188.9,363.1,188,363.4,187.1z"/>
	</g>
</g>
<g>
	<g>
		<path class="st0" d="M321.5,177c-0.8-1.3-1.6-2.6-2.5-3.9c-5.4-8.3-11.8-16.8-19.3-24.7l-0.8-0.8c-0.4,0.1-0.8,0.2-1.2,0.2
			c0.3,0.3,0.6,0.6,0.9,0.9c8.8,9.2,16,19.2,22,28.7c0.8,1.3,1.7,2.7,2.5,4C322.6,180,322,178.5,321.5,177z M325.1,182.9
			c-0.3-0.5-0.6-1-0.9-1.5c0,0.6-0.1,1.2-0.1,1.8c0.3,0.6,0.7,1.1,1,1.7C325.1,184.2,325.1,183.5,325.1,182.9z M338.6,206.7
			c-0.1-0.1-0.2-0.3-0.2-0.4c-1.4-2.3-2.9-5-4.5-7.9c0.1,1.3,0.5,2.6,1.1,3.9c0.7,1.4,1.6,2.6,2.7,3.7c0.1,0.1,0.3,0.2,0.4,0.4
			c-0.3,0-0.6-0.1-0.9-0.1c0.2,0.4,0.4,0.7,0.6,1.1c0.4,0,0.9,0.1,1.3,0.1C338.9,207.1,338.8,206.9,338.6,206.7z M321.3,209.6
			c-14.1-7.2-42.9-17.9-67.8-17.9c-3.4,0-6.7,0.2-9.9,0.6c-32.2,4.4-48.7-9-63.5-30.4c-12.1-17.5-9.5-22.5-5.5-30
			c0.6-1.1,1.2-2.3,1.8-3.6c1.4-3,1.7-5.5,1.9-7.7c0.5-5.1,1-9.2,15.5-17.2c20.5-11.2,45.4,3.1,84.2,28.1
			c5.5,3.5,10.5,7.5,15.1,11.7c0.3,0.3,0.6,0.6,0.9,0.9V144c0-0.4,0.1-0.8,0.2-1.1c-0.3-0.2-0.5-0.5-0.8-0.7
			c-4.5-4.1-9.5-8-14.8-11.5c-39-25.2-64.2-39.7-85.2-28.2c-15,8.2-15.4,12.7-16,17.9c-0.2,2.2-0.5,4.5-1.8,7.4
			c-0.6,1.3-1.2,2.5-1.8,3.6c-4,7.6-6.9,13,5.6,31c15,21.7,31.7,35.2,64.5,30.8c26.5-3.6,61.2,9,77,17.1c0.3,0.2,0.6,0.3,0.9,0.5
			c0-0.1,0.1-0.2,0.1-0.3c0.1-0.2,0.2-0.4,0.4-0.5C322,209.9,321.7,209.8,321.3,209.6z"/>
	</g>
</g>
<g>
	<g>
		<path class="st0" d="M363.3,184.6c-0.2-3-0.7-5.8-1.3-8.1c-1.5-6.3-4-12.4-6.5-18.3c-0.8-1.9-1.5-3.8-2.3-5.7
			c-3-7.6-5.3-16.2-6-22.5c-0.8-6.7-0.3-19.5,4.4-27.4c1.2-2,3.3-5.6,0.4-7.9c-1-0.8-2.5-1.1-3.9-0.8l-7.2,1.6
			c-1.6,0.4-3.2,0.5-4.7,0.3c-1-0.1-1.9,0.2-2.5,1s-0.7,1.7-0.4,2.6c6.1,15.8,6.6,34.1,1.3,50.1c-1.1,3.4-2.6,6.9-3.9,10.2
			c-2.5,5.9-5,12-6,18.5c-0.2,1-0.4,2-0.5,3.1c0,0.6-0.1,1.2-0.1,1.8c0,0.4,0,0.8,0,1.3c0,1.2,0.1,2.4,0.2,3.8c0,0.1,0,0.1,0,0.2
			c0.5,6,2.3,11.9,5.1,17.2c0.1,0.2,0.2,0.4,0.3,0.6c0,0,0,0,0,0.1c0,0,0,0.1,0.1,0.1c0,0.1,0.1,0.2,0.1,0.2c0.1,0,0.2,0,0.3,0
			c0.3,0,0.6,0,0.9,0c-0.2-0.3-0.3-0.5-0.5-0.8c0-0.1-0.1-0.1-0.1-0.2c-1.2-2-2.1-4.2-2.9-6.4c-0.5-1.3-0.8-2.6-1.2-3.9
			c0,0,0,0,0-0.1c-0.6-2.2-0.9-4.5-1.1-6.8c0-0.1,0-0.2,0-0.3c-0.1-1.1-0.2-2.2-0.2-3.2c0-0.7,0-1.3,0-1.9c0-1.7,0.2-3.1,0.5-4.5
			l0,0c1-6.3,3.5-12.4,6-18.3c1.4-3.3,2.8-6.8,4-10.3c5.4-16.2,4.9-34.8-1.3-50.8c-0.2-0.6-0.1-1.2,0.2-1.6c0.3-0.4,0.8-0.6,1.4-0.6
			c0.1,0,0.2,0,0.3,0c1.6,0.2,3.2,0.1,5-0.3l7.2-1.6c1.1-0.2,2.3,0,3.1,0.6c2.1,1.6,0.8,4.1-0.6,6.6c-4.8,8.1-5.4,21.2-4.6,28
			c0.8,6.5,3.1,15,6.1,22.8c0.8,1.9,1.5,3.8,2.3,5.7c2.4,5.8,4.9,11.9,6.4,18.1c0.7,2.9,1.3,6.5,1.4,10.2c0,1,0,1.9,0,2.9
			c-0.2,3.8-1,7.7-2.8,11.4c-0.7,1.4-1.4,2.6-2.2,3.6c-0.3,0.4-0.6,0.7-0.9,1c0.4-0.1,0.9-0.1,1.4,0c0.2-0.3,0.5-0.6,0.7-0.9
			c0.7-1,1.3-2,1.9-3.2c0.1-0.2,0.2-0.3,0.2-0.5l0,0c1.5-3.4,2.3-6.9,2.6-10.4c0.1-1.2,0.1-2.5,0.1-3.7
			C363.4,186.2,363.4,185.4,363.3,184.6z"/>
	</g>
</g>
<g>
	<g>
		<path class="st0" d="M354.4,185.9c1.6,0.1,2.9,1.5,3,3l0.1,1.6l0.9-1.3c2.6-4.1,2.1-10-1.1-13.6l-0.4-0.4l-0.4,0.4
			c-1,1.2-2.9,2.4-4.8,2c-0.9-0.2-1.8-0.8-2.3-1.6c-0.4-0.7-0.6-1.4-0.3-2.1c0.4-1.4,2-2.1,3.2-2.2c1.4-0.1,2.8,0.3,4.4,0.9l1,0.3
			l-0.4-1c-1.2-3.2-2.7-5.8-4.6-7.7c-2.3-2.4-5.2-3.7-8.1-3.9c-3.4-0.2-6.9,1.3-9.3,4.1c-2.2,2.5-3.5,5.9-3.5,9.6v0.5l0.4,0.1
			c1.4,0.2,2.8,0.4,4,1c1,0.5,2.1,1.6,2.2,2.9c0.1,1.7-1.5,3.1-3,3.6c-1.8,0.5-3.7,0.2-5.5-0.1l-0.7-0.1l0.1,0.7
			c0.1,0.7,0.1,1.5,0.1,2.2c0,0.8,0,1.7,0.1,2.5c0.3,1.8,1.7,3.6,3.5,3.5c1.8,0,2.8-1.7,3.8-3.1l0.4-0.5c0.7-1,1.9-2.1,3-1.7
			c1,0.3,1.4,1.6,1.4,2.6c0,2.6-1.9,5.1-4.4,5.8c-0.2,0-0.3,0.1-0.5,0.1c-0.7,0.2-1.5,0.4-2.1,0.9c-0.6,0.6-0.8,1.5-0.8,2.8
			c0,0.2,0,0.4,0,0.5c0.1,1.3,0.5,2.6,1.1,3.9c0.7,1.4,1.6,2.6,2.7,3.7c0.1,0.1,0.3,0.2,0.4,0.4c0.2,0.2,0.4,0.3,0.6,0.5
			c0.4,0.3,0.8,0.5,1.2,0.8l0,0c0.5,0,0.9,0.1,1.3,0.1c1,0.1,1.8,0.2,2.6,0.3c-0.1,0-0.2,0-0.2-0.1l-0.6-0.2c-1-0.3-1.9-0.7-2.7-1.2
			c-0.7-0.4-1.2-0.8-1.8-1.3c-2.1-1.9-3.3-4.6-3.5-7.4c-0.1-1,0.1-1.7,0.5-2.1c0.4-0.4,1-0.5,1.6-0.7c0.2,0,0.4-0.1,0.5-0.1
			c2.9-0.8,5.1-3.7,5.2-6.7c0-1.5-0.6-3.1-2-3.6c-0.3-0.1-0.5-0.1-0.8-0.1c-1.4,0-2.6,1.1-3.4,2.2c-0.1,0.2-0.2,0.4-0.4,0.6
			c-0.8,1.3-1.7,2.6-3,2.6l0,0c-1.2,0-2.2-1.4-2.5-2.7c-0.1-0.8-0.1-1.5-0.1-2.3c0-0.6,0-1.1,0-1.7c1.7,0.3,3.5,0.5,5.2,0
			c1.9-0.6,3.9-2.4,3.7-4.6c-0.1-1.5-1.2-2.9-2.8-3.7c-1.2-0.6-2.6-0.9-3.9-1.1c0.2-3.3,1.3-6.3,3.3-8.5c2.2-2.5,5.5-3.9,8.5-3.8
			c2.6,0.1,5.3,1.5,7.5,3.6c1.6,1.6,3,3.8,4,6.4c-1.3-0.4-2.5-0.7-3.8-0.6c-1.6,0.1-3.5,1.1-4.1,2.9c-0.3,0.9-0.1,2,0.5,2.9
			c0.7,1.1,1.8,1.9,3,2.1c1.8,0.3,3.8-0.4,5.4-2c2.4,3,2.8,7.4,1.2,10.9c-0.6-1.4-2.1-2.5-3.6-2.6c-2-0.1-4,1.3-4.6,3.3
			c-0.5,1.9,0.3,4.2,2,5.3c1.4,0.9,3.4,1,4.9,0.3c0.1,3.2-0.9,6.4-2.7,9c-1.1,1.6-2.7,3.3-4.3,4.4c-0.7,0.5-1.5,0.9-2.2,1.1
			c1,0,1.8,0,2.6-0.1l0,0c0.8-0.5,1.6-1.2,2.3-1.9l0,0c1-1,1.9-2,2.5-2.9c2.1-3,3.1-6.8,2.9-10.4l-0.1-0.9l-0.7,0.5
			c-1.4,0.9-3.2,0.9-4.6,0.1c-1.3-0.9-2-2.7-1.6-4.2C351.3,186.9,352.9,185.8,354.4,185.9z"/>
	</g>
</g>
<g>
	<g>
		<path class="st0" d="M445.4,181.9c-1.9-2.3-13.8,5.5-19.8,9.9c-9.7,7.2-22.6,9.7-33.9,11.9c-7.2,1.4-13.4,2.6-17.8,4.8
			c-2.3,1.1-4.3,2.4-6,3.7c-0.3,0.2-0.6,0.4-0.8,0.7c0.1,0.3,0.2,0.7,0.2,1.1c0.3-0.2,0.6-0.5,0.9-0.7c1.7-1.3,3.8-2.6,6.2-3.9
			c4.2-2.1,10.4-3.3,17.5-4.8c11.4-2.2,24.4-4.8,34.3-12.1c9.8-7.2,16.3-10.2,18-10.2c0.2,0,0.3,0,0.4,0.1c0,0,1,1.4-9.3,10.9
			c-18.5,17.1-27,19.8-44.6,19.6c-11.7-0.2-17.7,0.1-22.1,2.4c-0.3,0.2-0.7,0.4-1,0.6c0,0.4,0,0.8-0.1,1.3c0.3-0.2,0.7-0.5,1-0.7
			c4.3-2.5,10.2-2.8,22.1-2.6c18,0.2,26.6-2.5,45.3-19.8C447,183.9,445.8,182.4,445.4,181.9z"/>
	</g>
</g>
<g>
	<g>
		<path class="st0" d="M245.1,210.5c10.2,3.2,26.3,0.3,36.9-3.2c8.4-2.7,27.6-0.8,38.3,4.3c0.3,0.1,0.6,0.3,0.9,0.4
			c0.1-0.3,0.2-0.6,0.4-0.9c-0.3-0.1-0.6-0.3-0.9-0.4c-11-5.2-30.4-7.1-39-4.4c-10.5,3.4-26.4,6.3-36.3,3.2c-2.6-0.8-16-4.9-17-2.4
			c-0.5,1.1,0.7,3,12.4,9.2c8.4,4.4,16.2,5.9,23.6,5.9c7.6,0,14.9-1.5,22-3c6.6-1.4,12.8-2.7,19.1-2.8c5.6-0.1,10.5,0.3,14.2,0.7
			c0.3,0,0.7,0.1,1,0.1c0-0.3-0.1-0.7-0.1-1c-0.3,0-0.6-0.1-1-0.1c-3.7-0.4-8.6-0.8-14.2-0.7c-6.4,0.1-12.6,1.4-19.3,2.8
			c-13.9,3-28.4,6-45-2.8c-11.5-6.1-12-7.6-12-7.9c0.1-0.2,0.5-0.2,1.2-0.2C232.8,207.3,238.4,208.3,245.1,210.5z"/>
	</g>
</g>
<g>
	<g>
		<path class="st0" d="M368.5,216.6c-0.1,2.4-0.7,5.2-2.2,8.7c-7.3,16.5-11.8,45.2-11.8,62.4h-1c0-17.2,4.5-46.2,11.9-62.8
			c1.2-2.8,1.9-5.3,2.1-7.6c0-0.4,0.1-0.9,0.1-1.3c0-0.7-0.1-1.4-0.2-2c-0.1-0.4-0.1-0.7-0.2-1.1c-0.3-1-0.7-1.8-1.2-2.6
			c-0.2-0.3-0.4-0.5-0.6-0.8c-0.3-0.3-0.5-0.6-0.9-0.9c-0.8-0.7-1.7-1.3-2.6-1.8c-0.3-0.1-0.6-0.3-1-0.4c-0.1,0-0.1,0-0.2-0.1
			c-0.3-0.1-0.6-0.2-1-0.3c-0.6-0.2-1.2-0.2-1.8-0.3c-0.5,0-0.9,0-1.4,0l0,0c-0.2,0-0.5,0.1-0.7,0.1c-0.5,0.1-0.9,0.2-1.3,0.4l0,0
			c-0.1,0-0.2,0.1-0.3,0.1c-1.7,0.9-2.8,1.4-4.1,1.7l0,0c-0.8,0.1-1.6,0.2-2.6,0.1l0,0c-1,0-2.3-0.2-3.9-0.4
			c-0.8-0.1-1.6-0.2-2.6-0.3c-0.4,0-0.8-0.1-1.3-0.1l0,0c-0.2,0-0.5,0-0.8-0.1l0,0c-0.4,0-0.8-0.1-1.3-0.1c-1.4-0.2-2.9-0.4-4.7-0.5
			c-0.3,0-0.5,0-0.8-0.1l0,0c-0.4,0-0.8-0.1-1.2-0.1c-0.3,0-0.6,0-0.9,0c-0.1,0-0.2,0-0.3,0c-1.5,0.1-2.8,0.3-4,0.7
			c-0.3,0.1-0.7,0.3-1,0.4c-1.1,0.6-2,1.3-2.7,2.3c-0.1,0.2-0.2,0.4-0.4,0.5c0,0.1-0.1,0.2-0.1,0.3s-0.1,0.1-0.1,0.2
			c-0.1,0.3-0.3,0.6-0.4,0.9c-0.4,1.2-0.6,2.6-0.5,4.1c0,0.3,0,0.7,0.1,1c0.4,4,2.2,8.6,5.3,12.8c9.6,13,12.2,44.2,12.8,57.1h-1
			c-1.4-27-6-47.6-12.7-56.5c-3.2-4.4-5.2-9.2-5.5-13.5c0-0.3,0-0.7,0-1c0-1.6,0.2-3.1,0.6-4.4c0.1-0.3,0.2-0.6,0.4-0.9
			c0-0.1,0.1-0.2,0.1-0.2c0-0.1,0.1-0.2,0.2-0.3c0.1-0.2,0.2-0.3,0.3-0.5c0.6-1,1.6-1.9,2.9-2.6c0.3-0.2,0.6-0.3,0.9-0.5
			c1.1-0.5,2.5-0.8,4.2-0.9h0.1c0.3,0,0.6,0,1,0h0.1c0.8,0,1.7,0.1,2.7,0.2c1.4,0.2,2.7,0.3,3.9,0.5c0.3,0,0.6,0.1,0.9,0.1h0.3
			c0.6,0.1,1.2,0.1,1.7,0.2c0.4,0,0.7,0.1,1.1,0.1c4.8,0.6,6.9,0.8,8.6,0.6c0.9-0.1,1.7-0.4,2.7-0.9l0,0c0.4-0.2,0.8-0.4,1.2-0.7
			c0.4-0.2,0.9-0.4,1.4-0.5c0.4-0.1,0.8-0.2,1.2-0.2c0.3,0,0.7,0,1,0c0.4,0,0.8,0,1.2,0.1c0.4,0,0.9,0.1,1.3,0.2
			c0.3,0.1,0.7,0.2,1,0.2c0.2,0.1,0.4,0.1,0.6,0.2c0.3,0.1,0.6,0.2,0.9,0.4c1,0.5,1.9,1.1,2.7,1.8c0.3,0.3,0.6,0.6,0.9,1
			c0.2,0.2,0.4,0.5,0.6,0.8c0.5,0.7,0.9,1.6,1.2,2.6c0.1,0.3,0.2,0.7,0.3,1c0.2,0.7,0.2,1.4,0.3,2.2
			C368.5,215.8,368.5,216.2,368.5,216.6z"/>
	</g>
</g>
<g>
	<g>
		<path class="st0" d="M397.4,143.4c-0.2,0.4-0.4,0.7-0.6,1c-0.9,1.1-2.2,2.6-3.5,4.4l0,0c-0.5,0.7-1,1.4-1.6,2.1l0,0
			c-0.4,0.6-0.8,1.2-1.3,1.8c-3.6,5.2-7.7,11.8-10.3,18.3c-6,15.1-12,26.8-17.8,34.9c-0.2,0.3-0.4,0.5-0.6,0.8
			c-0.3-0.1-0.6-0.3-1-0.4c0.2-0.3,0.4-0.6,0.6-0.8c5.8-8,11.8-19.7,17.8-34.8c2.7-6.8,7-13.7,10.8-19c2.8-4,5.4-7.2,6.8-8.8
			L397.4,143.4z"/>
	</g>
</g>
<g>
	<g>
		<path class="st0" d="M325.9,207.3c-0.3,0.1-0.7,0.3-1,0.4c-0.2-0.2-0.5-0.5-0.7-0.8c-0.1-0.1-0.2-0.2-0.3-0.4
			c-8.1-9-19.8-21.8-30.1-41.7c0-0.1-0.1-0.2-0.1-0.2c-0.6-1.1-1.1-2.2-1.7-3.4l0,0c-0.5-1.1-1-2.2-1.6-3.3l0,0
			c-0.5-1.1-1.1-2.3-1.6-3.5l0,0c0-0.1-0.1-0.1-0.1-0.2l0,0l0.8-0.3h0.1c0.1,0.1,0.1,0.2,0.2,0.3l0,0c0.5,1.1,1,2.2,1.5,3.3l0,0
			c0.5,1.2,1.1,2.4,1.7,3.5l0,0c0.6,1.1,1.1,2.2,1.7,3.3c0.2,0.5,0.5,1,0.7,1.4c10.1,19.1,21.4,31.6,29.3,40.3
			c0.2,0.2,0.4,0.4,0.5,0.6C325.5,206.8,325.7,207,325.9,207.3z"/>
	</g>
</g>
<g>
	<g>
		<path class="st0" d="M293.7,163.5c-0.2-1-0.6-1.9-1-2.8l-1.9-4.4l-0.6-1.4c0-0.1-0.1-0.2-0.1-0.2l0,0c-0.1-0.3-0.3-0.6-0.5-0.9
			c-0.2-0.3-0.3-0.6-0.6-0.8c-0.2-0.2-0.3-0.3-0.5-0.5c-0.7-0.5-1.4-0.7-1.9-0.8c-2.2-0.4-4.5,0.6-5.4,2.5c-0.7,1.4-0.7,3.3,0.2,5.2
			c0.5,1.1,1.3,2.2,2,3.1c0.2,0.3,0.5,0.7,0.7,1l0.4,0.6c0.6,0.8,1.2,1.7,1.9,2.4c0.9,0.9,2.6,1.6,4.1,1.6c0.2,0,0.3,0,0.5,0
			c0.9-0.1,1.7-0.6,2.2-1.3c0.3-0.5,0.5-1.2,0.6-1.9v-0.1C293.8,164.3,293.8,163.9,293.7,163.5z M292.3,166.1
			c-0.3,0.5-0.8,0.8-1.5,0.9c-1.3,0.2-2.9-0.6-3.8-1.4c-0.7-0.6-1.2-1.4-1.8-2.2l-0.4-0.6c-0.2-0.3-0.5-0.7-0.7-1
			c-0.7-1-1.4-1.9-1.9-3c-0.7-1.6-0.8-3.1-0.2-4.3c0.7-1.4,2.6-2.2,4.3-1.9c0.6,0.1,1.3,0.4,1.9,1c0.3,0.4,0.6,0.8,0.8,1.2
			c0,0,0,0.1,0.1,0.1c0,0.1,0.1,0.2,0.1,0.3l0.6,1.5l1.9,4.4c0.4,0.8,0.8,1.7,0.9,2.6C292.9,164.6,292.7,165.5,292.3,166.1z"/>
	</g>
</g>
<g>
	<g>
		<path class="st0" d="M298.8,161.8c-0.2-1-0.7-1.8-1.2-2.5c-0.2-0.3-0.5-0.7-0.8-1c-0.6-0.8-1.2-1.5-1.6-2.3
			c-0.5-1.1-0.6-2.3-0.7-3.6c-0.1-0.8-0.1-1.6-0.3-2.4c-0.1-0.5-0.2-1-0.7-1.4c-0.6-0.5-1.4-0.6-2-0.6s-1.4,0-2.1,0.5
			c-0.4,0.3-0.7,0.8-0.9,1.5c-0.2,0.8-0.3,1.6-0.2,2.6c0.1,0.5,0.2,1,0.3,1.6c0,0.1,0,0.2,0.1,0.2l0,0c0.1,0.2,0.1,0.4,0.2,0.5
			c0,0,0,0.1,0.1,0.1c0.1,0.4,0.3,0.7,0.4,1.1c0.1,0.2,0.2,0.5,0.3,0.7l0.6,1.1l0,0c0,0.1,0.1,0.1,0.1,0.2c0.5,1,1.1,2,1.5,3.1l0,0
			c0,0.1,0,0.1,0.1,0.2c0.1,0.2,0.1,0.4,0.2,0.6c0.3,0.9,0.6,1.8,1.3,2.6c0,0,0.1,0.1,0.2,0.1l0.1,0.1c0.4,0.3,1,0.6,1.5,0.8
			c0.3,0.1,0.5,0.1,0.8,0.1c0.4,0,0.8-0.1,1.2-0.3C298.5,164.7,299,163,298.8,161.8z M296.8,164.6c-0.5,0.3-1.5,0.1-2.2-0.4
			c-0.1-0.1-0.3-0.2-0.4-0.3l0,0c-0.5-0.6-0.8-1.4-1-2.2c-0.1-0.2-0.1-0.4-0.2-0.7c0-0.1,0-0.1-0.1-0.2l0,0c-0.4-1.2-1-2.2-1.5-3.3
			c0-0.1-0.1-0.1-0.1-0.2l0,0c-0.2-0.3-0.4-0.7-0.5-1c-0.1-0.2-0.2-0.4-0.3-0.7c-0.2-0.3-0.3-0.7-0.4-1l0,0
			c-0.1-0.2-0.2-0.4-0.2-0.6l0,0c-0.5-1.4-0.5-2.7-0.2-3.8c0.1-0.5,0.3-0.8,0.5-1c0.3-0.2,0.7-0.3,1.2-0.3c0.1,0,0.2,0,0.2,0
			c0.5,0,1,0,1.3,0.3c0.2,0.2,0.3,0.6,0.4,0.9c0.2,0.7,0.2,1.5,0.3,2.3c0.1,1.3,0.2,2.7,0.8,3.9c0.4,1,1.1,1.8,1.7,2.6
			c0.3,0.3,0.5,0.7,0.8,1c0.6,0.8,0.9,1.4,1,2C298,162.8,297.6,164.1,296.8,164.6z"/>
	</g>
</g>
<g>
	<g>
		<path class="st0" d="M402.5,143.2c-0.1-0.8-0.5-1.3-1-1.5c-0.4-0.2-0.8-0.2-1.1-0.2h-1.7c-0.1,0-0.3,0-0.5,0
			c0.3-1.1,0.1-2.4-0.8-3.3c-0.8-0.8-1.9-1-2.7-1c-0.7,0-1.5-0.1-2.3,0.2c-0.9,0.3-1.7,1-2.5,2.1c-0.3,0.4-0.5,0.8-0.8,1.2
			c-0.2,0.4-0.5,0.8-0.8,1.2c-0.3,0.5-0.7,0.9-1.1,1.3c-0.3,0.4-0.7,0.7-1,1.1c-0.8,1.1-1.3,2.1-1.3,3.1c-0.1,1.7,1,3.4,2.6,4
			c0.8,0.3,1.6,0.3,2.5,0.1c0.2,0,0.3-0.1,0.5-0.2c-0.1,0.4-0.1,0.9,0,1.3c0.1,0.5,0.2,1,0.5,1.4c0.4,0.6,1,1,1.6,1.1
			c0.2,0,0.3,0,0.5,0s0.4,0,0.6,0s0.3,0,0.5,0c1.3,0,2.6-0.1,3.7-0.9c1-0.8,1.5-1.9,2-3c0.1-0.2,0.2-0.4,0.3-0.6
			c0.2-0.5,0.5-1,0.8-1.5c0.3-0.6,0.7-1.3,1-2C402.5,145.7,402.8,144.4,402.5,143.2z M387.9,150.6c-1.2-0.5-2-1.7-1.9-3
			c0.1-0.8,0.4-1.7,1.1-2.6c0.3-0.4,0.6-0.7,0.9-1.1c0.4-0.4,0.8-0.9,1.1-1.4c0.3-0.4,0.6-0.9,0.8-1.3c0.2-0.4,0.5-0.8,0.8-1.2
			c0.6-0.9,1.3-1.5,2-1.7c0.4-0.1,0.8-0.2,1.3-0.2c0.2,0,0.4,0,0.6,0c1,0.1,1.7,0.3,2.1,0.7c0.7,0.7,0.7,1.9,0.4,2.8
			c-0.4,1-1.5,2.1-2,2.6c-0.3,0.3-0.8,1-1.2,1.8c-0.4,0.6-0.8,1.3-1.2,1.8c-0.1,0.2-0.3,0.4-0.5,0.6c-0.1,0.2-0.3,0.4-0.4,0.5
			s-0.2,0.2-0.3,0.3c-0.4,0.5-0.7,1-1.4,1.2C389.4,150.9,388.6,150.9,387.9,150.6z M401,146.8c-0.3,0.6-0.6,1.3-0.9,1.9
			c-0.3,0.5-0.6,1-0.8,1.6c-0.1,0.2-0.2,0.4-0.3,0.6c-0.5,1-0.9,2-1.7,2.6c-0.9,0.6-2,0.7-3.1,0.7c-0.2,0-0.4,0-0.6,0
			c-0.3,0-0.5,0.1-0.8,0c-0.4-0.1-0.8-0.4-1-0.7c-0.4-0.5-0.5-1.3-0.3-2.1c0-0.2,0.1-0.4,0.2-0.6l0,0c0.2-0.5,0.5-0.9,0.8-1.3
			l0.1-0.1c0.2-0.2,0.4-0.4,0.6-0.7l0,0c0.1-0.1,0.3-0.3,0.4-0.4c0.2-0.3,0.5-0.5,0.7-0.8c0.8-0.9,1.6-2,2.4-3.3
			c0.2-0.3,0.4-0.6,0.6-1v-0.1c0.1-0.3,0.3-0.5,0.5-0.7c0.2-0.1,0.5-0.1,0.9-0.2h1.7c0.2,0,0.5,0,0.6,0.1c0.3,0.1,0.4,0.6,0.4,0.8
			C401.7,144.3,401.5,145.5,401,146.8z"/>
	</g>
</g>
<g>
	<g>
		<path class="st0" d="M369.7,128.7c-1.7,0-3,1.4-3,3c0,1.7,1.4,3,3,3c1.7,0,3-1.4,3-3C372.8,130,371.4,128.7,369.7,128.7z
			 M369.7,133.7c-1.1,0-2-0.9-2-2s0.9-2,2-2s2,0.9,2,2C371.8,132.8,370.8,133.7,369.7,133.7z"/>
	</g>
</g>
<g>
	<g>
		<path class="st0" d="M389.4,124.1c-1.8,0-3.3,1.5-3.3,3.3c0,1.8,1.5,3.3,3.3,3.3s3.3-1.5,3.3-3.3S391.2,124.1,389.4,124.1z
			 M389.4,129.7c-1.3,0-2.3-1-2.3-2.3s1-2.3,2.3-2.3s2.3,1,2.3,2.3C391.7,128.7,390.7,129.7,389.4,129.7z"/>
	</g>
</g>
<g>
	<g>
		<path class="st0" d="M383.3,135c-0.4,0-0.8,0.1-1.2,0.2c-0.7,0.3-1.3,0.9-1.7,1.6c0,0.1-0.1,0.3-0.1,0.4c-0.1,0.3-0.1,0.5-0.1,0.8
			c0,0.5,0.1,1,0.4,1.5c0.5,1,1.5,1.6,2.7,1.6c1,0,1.8-0.4,2.4-1.1c0.1-0.1,0.2-0.2,0.2-0.4c0.3-0.5,0.5-1,0.5-1.6
			C386.4,136.4,385,135,383.3,135z M383.3,140.2c-1.2,0-2.1-0.9-2.1-2.1c0-0.2,0-0.4,0.1-0.6c0-0.1,0-0.1,0.1-0.2
			c0.3-0.8,1.1-1.3,1.9-1.3c1.1,0,2.1,0.9,2.1,2.1C385.4,139.2,384.4,140.2,383.3,140.2z"/>
	</g>
</g>
<g>
	<g>
		<path class="st0" d="M402.4,120.4c-0.3-1.8-1.8-3.1-3.7-3.1c-2,0-3.7,1.7-3.7,3.7c0,1.8,1.3,3.3,3,3.6c0.2,0,0.4,0.1,0.6,0.1
			c0.3,0,0.5,0,0.8-0.1c1.4-0.3,2.5-1.4,2.8-2.8c0.1-0.3,0.1-0.5,0.1-0.8C402.5,120.8,402.4,120.6,402.4,120.4z M399,123.7
			c-0.1,0-0.2,0-0.3,0c-1.5,0-2.7-1.2-2.7-2.7s1.2-2.7,2.7-2.7s2.7,1.2,2.7,2.7c0,0.1,0,0.2,0,0.3
			C401.3,122.5,400.3,123.5,399,123.7z"/>
	</g>
</g>
<g>
	<g>
		<path class="st0" d="M402,128.2c-1.3,0-2.4,1.1-2.4,2.4c0,1.3,1.1,2.4,2.4,2.4s2.4-1.1,2.4-2.4S403.3,128.2,402,128.2z M402,132.1
			c-0.8,0-1.4-0.6-1.4-1.4c0-0.8,0.6-1.4,1.4-1.4s1.4,0.6,1.4,1.4C403.4,131.4,402.7,132.1,402,132.1z"/>
	</g>
</g>
<g>
	<g>
		<path class="st0" d="M404.4,135.5c-1.4,0-2.6,1.2-2.6,2.6c0,1.4,1.2,2.6,2.6,2.6s2.6-1.2,2.6-2.6S405.9,135.5,404.4,135.5z
			 M404.4,139.7c-0.9,0-1.6-0.7-1.6-1.6s0.7-1.6,1.6-1.6s1.6,0.7,1.6,1.6S405.3,139.7,404.4,139.7z"/>
	</g>
</g>
<g>
	<g>
		<path class="st0" d="M408.1,149c-1.7,0-3.1,1.4-3.1,3.1c0,1.7,1.4,3.1,3.1,3.1s3.1-1.4,3.1-3.1S409.8,149,408.1,149z M408.1,154.2
			c-1.2,0-2.1-0.9-2.1-2.1c0-1.2,0.9-2.1,2.1-2.1s2.1,0.9,2.1,2.1S409.3,154.2,408.1,154.2z"/>
	</g>
</g>
<g>
	<g>
		<path class="st0" d="M413.2,124.7c-2.2,0-4,1.8-4,4s1.8,4,4,4s4-1.8,4-4S415.4,124.7,413.2,124.7z M413.2,131.7c-1.7,0-3-1.3-3-3
			s1.4-3,3-3c1.7,0,3,1.4,3,3C416.2,130.4,414.8,131.7,413.2,131.7z"/>
	</g>
</g>
<g>
	<g>
		<path class="st0" d="M277.1,146.4c-2.1,0-3.8,1.7-3.8,3.8s1.7,3.8,3.8,3.8c2.1,0,3.8-1.7,3.8-3.8
			C280.8,148,279.1,146.4,277.1,146.4z M277.1,152.9c-1.5,0-2.8-1.2-2.8-2.8c0-1.5,1.2-2.8,2.8-2.8c1.5,0,2.8,1.2,2.8,2.8
			C279.8,151.6,278.6,152.9,277.1,152.9z"/>
	</g>
</g>
<g>
	<g>
		<path class="st0" d="M274.5,162.4c-1.1,0-2,0.9-2,2s0.9,2,2,2s2-0.9,2-2C276.5,163.3,275.6,162.4,274.5,162.4z M274.5,165.4
			c-0.6,0-1-0.4-1-1c0-0.5,0.5-1,1-1s1,0.5,1,1C275.5,165,275.1,165.4,274.5,165.4z"/>
	</g>
</g>
<g>
	<g>
		<path class="st0" d="M280.3,167.2c-1.3,0-2.4,1.1-2.4,2.4c0,1.3,1.1,2.4,2.4,2.4s2.4-1.1,2.4-2.4
			C282.7,168.3,281.6,167.2,280.3,167.2z M280.3,171c-0.8,0-1.4-0.6-1.4-1.4c0-0.8,0.6-1.4,1.4-1.4s1.4,0.6,1.4,1.4
			C281.7,170.4,281.1,171,280.3,171z"/>
	</g>
</g>
<g>
	<g>
		<path class="st0" d="M297.8,139.4c-1.9,0-3.6,1.2-4.3,2.8c-0.2,0.3-0.3,0.7-0.3,1.1c0,0.3-0.1,0.5-0.1,0.8c0,2.6,2.1,4.7,4.7,4.7
			c0.3,0,0.6,0,0.9-0.1c0.4-0.1,0.7-0.2,1.1-0.3c1.6-0.7,2.8-2.4,2.8-4.3C302.5,141.5,300.4,139.4,297.8,139.4z M299,147.6
			c-0.4,0.1-0.8,0.2-1.2,0.2c-2,0-3.7-1.6-3.7-3.7V144c0-0.4,0.1-0.8,0.2-1.1c0.5-1.5,1.9-2.6,3.6-2.6c2,0,3.7,1.7,3.7,3.7
			C301.5,145.7,300.4,147.1,299,147.6z"/>
	</g>
</g>
<g>
	<g>
		<path class="st0" d="M283.3,141c-1.7,0-3.2,1.4-3.2,3.1c0,1.7,1.4,3.2,3.2,3.2c1.7,0,3.2-1.4,3.2-3.2
			C286.5,142.4,285.1,141,283.3,141z M283.3,146.3c-1.2,0-2.2-1-2.2-2.2s1-2.1,2.2-2.1s2.2,1,2.2,2.1S284.5,146.3,283.3,146.3z"/>
	</g>
</g>
<g>
	<g>
		<path class="st0" d="M291.5,128.9c-1.5,0-2.8,1.2-2.8,2.8s1.2,2.8,2.8,2.8c1.5,0,2.8-1.2,2.8-2.8S293,128.9,291.5,128.9z
			 M291.5,133.4c-1,0-1.8-0.8-1.8-1.8s0.8-1.8,1.8-1.8s1.8,0.8,1.8,1.8C293.3,132.7,292.5,133.4,291.5,133.4z"/>
	</g>
</g>
<g class="st1">
	<path class="st0" d="M544.2,40c0-1.2,0-2.3-0.1-3.1h2.5l0.1,1.3l0,0c0.7-1,1.7-1.5,3.1-1.5c2,0,3.9,1.8,3.9,4.7c0,3.4-2.1,5-4.2,5
		c-1.1,0-2-0.5-2.4-1.1l0,0v4.6h-2.9L544.2,40L544.2,40z M547.1,42.2c0,0.2,0,0.4,0.1,0.6c0.2,0.8,0.9,1.4,1.7,1.4c1.3,0,2-1,2-2.6
		c0-1.5-0.7-2.6-2-2.6c-0.8,0-1.5,0.6-1.7,1.5c0,0.2-0.1,0.3-0.1,0.5V42.2z"/>
	<path class="st0" d="M564.8,41.4c0,3.4-2.4,5-4.9,5c-2.7,0-4.8-1.8-4.8-4.8s2-4.9,5-4.9C562.9,36.7,564.8,38.6,564.8,41.4z
		 M558.1,41.5c0,1.6,0.7,2.8,1.9,2.8c1.1,0,1.8-1.1,1.8-2.8c0-1.4-0.5-2.8-1.8-2.8C558.6,38.7,558.1,40.1,558.1,41.5z"/>
	<path class="st0" d="M566.6,32.7h2.9v13.5h-2.9V32.7z"/>
	<path class="st0" d="M571.8,32.7h2.9v13.5h-2.9V32.7z"/>
	<path class="st0" d="M579.2,42.4c0.1,1.2,1.3,1.8,2.6,1.8c1,0,1.8-0.1,2.6-0.4l0.4,2c-0.9,0.4-2.1,0.6-3.4,0.6c-3.2,0-5-1.8-5-4.7
		c0-2.4,1.5-5,4.7-5c3,0,4.1,2.3,4.1,4.6c0,0.5-0.1,0.9-0.1,1.1C585.1,42.4,579.2,42.4,579.2,42.4z M582.6,40.5
		c0-0.7-0.3-1.9-1.6-1.9c-1.2,0-1.7,1.1-1.8,1.9H582.6z"/>
	<path class="st0" d="M587,39.8c0-1.2,0-2.1-0.1-3h2.5l0.1,1.3h0.1c0.4-0.6,1.3-1.5,2.9-1.5c1.9,0,3.3,1.3,3.3,4v5.5H593V41
		c0-1.2-0.4-2-1.5-2c-0.8,0-1.3,0.6-1.5,1.1c-0.1,0.2-0.1,0.5-0.1,0.7v5.4H587V39.8z"/>
</g>
<g class="st1">
	<path class="st0" d="M98.1,100.8c0.5,0.3,1.6,0.7,2.5,0.7s1.2-0.3,1.2-0.8s-0.3-0.7-1.4-1.1c-1.9-0.6-2.7-1.7-2.6-2.8
		c0-1.7,1.5-3,3.8-3c1.1,0,2.1,0.2,2.6,0.5l-0.5,2c-0.4-0.2-1.2-0.5-2-0.5c-0.7,0-1.1,0.3-1.1,0.8c0,0.4,0.4,0.7,1.5,1.1
		c1.8,0.6,2.5,1.5,2.5,2.9c0,1.7-1.4,3-4,3c-1.2,0-2.3-0.3-3-0.6L98.1,100.8z"/>
	<path class="st0" d="M109.6,91.4v2.7h2.1v2.1h-2.1v3.4c0,1.1,0.3,1.6,1.1,1.6c0.4,0,0.6,0,0.9-0.1v2.2c-0.4,0.2-1.1,0.2-1.9,0.2
		c-0.9,0-1.7-0.3-2.2-0.8c-0.5-0.6-0.8-1.4-0.8-2.8v-3.8h-1.2V94h1.2v-2L109.6,91.4z"/>
	<path class="st0" d="M116.3,91.5c0,0.8-0.6,1.4-1.6,1.4c-0.9,0-1.5-0.6-1.5-1.4s0.6-1.5,1.5-1.5C115.7,90,116.3,90.6,116.3,91.5z
		 M113.3,103.3V94h2.9v9.3H113.3z"/>
	<path class="st0" d="M127.4,94.1c0,0.6-0.1,1.4-0.1,2.8v5.2c0,1.8-0.4,3.2-1.4,4.2c-1,0.9-2.4,1.1-3.8,1.1c-1.2,0-2.5-0.2-3.3-0.7
		l0.6-2.2c0.6,0.3,1.6,0.7,2.7,0.7c1.4,0,2.4-0.7,2.4-2.5v-0.6l0,0c-0.6,0.8-1.4,1.2-2.5,1.2c-2.3,0-3.9-1.9-3.9-4.5
		c0-3,1.9-4.9,4.2-4.9c1.3,0,2.1,0.6,2.5,1.3l0,0l0.1-1.1H127.4z M124.4,97.8c0-0.2,0-0.4-0.1-0.5c-0.2-0.8-0.8-1.3-1.6-1.3
		c-1,0-1.9,0.9-1.9,2.6c0,1.4,0.7,2.5,1.9,2.5c0.7,0,1.3-0.5,1.5-1.2c0.1-0.2,0.1-0.5,0.1-0.8L124.4,97.8L124.4,97.8z"/>
	<path class="st0" d="M129.7,97c0-1.2,0-2.1-0.1-3h2.4l0.1,1.3h0.1c0.4-0.6,1.2-1.5,2.8-1.5c1.2,0,2.1,0.6,2.5,1.6l0,0
		c0.3-0.5,0.8-0.9,1.2-1.1c0.5-0.3,1.1-0.5,1.8-0.5c1.8,0,3.1,1.3,3.1,4v5.5h-2.8v-5.1c0-1.3-0.4-2.1-1.4-2.1c-0.7,0-1.1,0.5-1.3,1
		c-0.1,0.2-0.1,0.5-0.1,0.7v5.4h-2.8V98c0-1.2-0.4-2-1.3-2c-0.7,0-1.2,0.6-1.3,1c-0.1,0.2-0.1,0.5-0.1,0.7v5.4h-2.8L129.7,97
		L129.7,97z"/>
	<path class="st0" d="M151.3,103.3l-0.2-0.9H151c-0.6,0.7-1.6,1.1-2.7,1.1c-1.9,0-3-1.4-3-2.8c0-2.4,2.2-3.6,5.5-3.6V97
		c0-0.5-0.3-1.2-1.7-1.2c-1,0-2,0.3-2.6,0.7l-0.5-1.9c0.6-0.4,1.9-0.8,3.6-0.8c3.1,0,4.1,1.8,4.1,4v3.2c0,0.9,0,1.7,0.1,2.3
		C153.8,103.3,151.3,103.3,151.3,103.3z M150.9,99c-1.5,0-2.7,0.3-2.7,1.5c0,0.7,0.5,1.1,1.1,1.1c0.7,0,1.3-0.5,1.5-1.1
		c0-0.2,0.1-0.3,0.1-0.5L150.9,99L150.9,99z"/>
	<path class="st0" d="M159.1,91.4v2.7h2.1v2.1h-2.1v3.4c0,1.1,0.3,1.6,1.1,1.6c0.4,0,0.6,0,0.9-0.1v2.2c-0.4,0.2-1.1,0.2-1.9,0.2
		c-0.9,0-1.7-0.3-2.2-0.8c-0.5-0.6-0.8-1.4-0.8-2.8v-3.8H155V94h1.2v-2L159.1,91.4z"/>
	<path class="st0" d="M165,99.6c0.1,1.2,1.3,1.8,2.6,1.8c1,0,1.8-0.1,2.6-0.4l0.4,2c-0.9,0.4-2.1,0.6-3.4,0.6c-3.2,0-5-1.8-5-4.7
		c0-2.4,1.5-5,4.7-5c3,0,4.1,2.3,4.1,4.6c0,0.5-0.1,0.9-0.1,1.1H165z M168.4,97.6c0-0.7-0.3-1.9-1.6-1.9c-1.2,0-1.7,1.1-1.8,1.9
		H168.4z"/>
</g>
<g class="st1">
	<path class="st0" d="M26.8,136.6c0-1.2,0-2.3-0.1-3.1h2.5l0.1,1.3l0,0c0.7-1,1.7-1.5,3.1-1.5c2,0,3.9,1.8,3.9,4.7
		c0,3.4-2.1,5-4.2,5c-1.1,0-2-0.5-2.4-1.1l0,0v4.6h-2.9V136.6z M29.7,138.8c0,0.2,0,0.4,0.1,0.6c0.2,0.8,0.9,1.4,1.7,1.4
		c1.3,0,2-1,2-2.6c0-1.5-0.7-2.6-2-2.6c-0.8,0-1.5,0.6-1.7,1.5c0,0.2-0.1,0.3-0.1,0.5C29.7,137.6,29.7,138.8,29.7,138.8z"/>
	<path class="st0" d="M41.1,130.9c0,0.8-0.6,1.4-1.6,1.4c-0.9,0-1.5-0.6-1.5-1.4c0-0.8,0.6-1.5,1.5-1.5
		C40.5,129.4,41.1,130.1,41.1,130.9z M38.1,142.8v-9.3H41v9.3H38.1z"/>
	<path class="st0" d="M43.3,140.2c0.5,0.3,1.6,0.7,2.5,0.7s1.2-0.3,1.2-0.8s-0.3-0.7-1.4-1.1c-1.9-0.6-2.7-1.7-2.6-2.8
		c0-1.7,1.5-3,3.8-3c1.1,0,2.1,0.2,2.6,0.5l-0.5,2c-0.4-0.2-1.2-0.5-2-0.5c-0.7,0-1.1,0.3-1.1,0.8c0,0.4,0.4,0.7,1.5,1.1
		c1.8,0.6,2.5,1.5,2.5,2.9c0,1.7-1.4,3-4,3c-1.2,0-2.3-0.3-3-0.6L43.3,140.2z"/>
	<path class="st0" d="M54.8,130.8v2.7h2.1v2.1h-2.1v3.4c0,1.1,0.3,1.6,1.1,1.6c0.4,0,0.6,0,0.9-0.1v2.2c-0.4,0.2-1.1,0.2-1.9,0.2
		c-0.9,0-1.7-0.3-2.2-0.8c-0.5-0.6-0.8-1.4-0.8-2.8v-3.8h-1.2v-2.1H52v-2L54.8,130.8z"/>
	<path class="st0" d="M61.5,130.9c0,0.8-0.6,1.4-1.6,1.4c-0.9,0-1.5-0.6-1.5-1.4c0-0.8,0.6-1.5,1.5-1.5
		C60.9,129.4,61.5,130.1,61.5,130.9z M58.6,142.8v-9.3h2.9v9.3H58.6z"/>
	<path class="st0" d="M63.8,129.3h2.9v13.5h-2.9C63.8,142.8,63.8,129.3,63.8,129.3z"/>
</g>
<g class="st1">
	<path class="st0" d="M608.2,160.5c0.1,1.2,1.3,1.8,2.6,1.8c1,0,1.8-0.1,2.6-0.4l0.4,2c-1,0.4-2.1,0.6-3.4,0.6c-3.2,0-5-1.8-5-4.7
		c0-2.4,1.5-5,4.7-5c3,0,4.1,2.3,4.1,4.6c0,0.5-0.1,0.9-0.1,1.1L608.2,160.5L608.2,160.5z M611.6,158.5c0-0.7-0.3-1.9-1.6-1.9
		c-1.2,0-1.7,1.1-1.8,1.9H611.6z M613.2,150.9l-2.3,2.9h-2l1.6-2.9H613.2z"/>
	<path class="st0" d="M619.3,152.3v2.7h2.1v2.1h-2.1v3.4c0,1.1,0.3,1.6,1.1,1.6c0.4,0,0.6,0,0.9-0.1v2.2c-0.4,0.2-1.1,0.2-1.9,0.2
		c-0.9,0-1.7-0.3-2.2-0.8c-0.5-0.6-0.8-1.4-0.8-2.8V157h-1.2v-2.1h1.2v-2L619.3,152.3z"/>
	<path class="st0" d="M628.3,164.2l-0.2-0.9H628c-0.6,0.7-1.6,1.1-2.7,1.1c-1.9,0-3-1.4-3-2.8c0-2.4,2.2-3.6,5.5-3.6v-0.1
		c0-0.5-0.3-1.2-1.7-1.2c-1,0-2,0.3-2.6,0.7l-0.5-1.9c0.6-0.4,1.9-0.8,3.6-0.8c3.1,0,4.1,1.8,4.1,4v3.2c0,0.9,0,1.7,0.1,2.3H628.3z
		 M627.9,159.8c-1.5,0-2.7,0.3-2.7,1.5c0,0.7,0.5,1.1,1.1,1.1c0.7,0,1.3-0.5,1.5-1.1c0-0.2,0.1-0.3,0.1-0.5L627.9,159.8L627.9,159.8
		z"/>
	<path class="st0" d="M633,157.9c0-1.2,0-2.1-0.1-3h2.4l0.1,1.3h0.1c0.4-0.6,1.2-1.5,2.8-1.5c1.2,0,2.1,0.6,2.5,1.6l0,0
		c0.3-0.5,0.8-0.9,1.2-1.1c0.5-0.3,1.1-0.5,1.8-0.5c1.8,0,3.1,1.3,3.1,4v5.5h-2.8v-5.1c0-1.3-0.4-2.1-1.4-2.1c-0.7,0-1.1,0.5-1.3,1
		c-0.1,0.2-0.1,0.5-0.1,0.7v5.4h-2.8V159c0-1.2-0.4-2-1.3-2c-0.7,0-1.2,0.6-1.3,1c-0.1,0.2-0.1,0.5-0.1,0.7v5.4H633V157.9z"/>
	<path class="st0" d="M652.4,152.4c0,0.8-0.6,1.4-1.6,1.4c-0.9,0-1.5-0.6-1.5-1.4c0-0.8,0.6-1.5,1.5-1.5S652.3,151.5,652.4,152.4z
		 M649.4,164.2v-9.3h2.9v9.3H649.4z"/>
	<path class="st0" d="M654.6,157.9c0-1.2,0-2.1-0.1-3h2.5l0.1,1.3h0.1c0.4-0.6,1.3-1.5,2.9-1.5c1.9,0,3.3,1.3,3.3,4v5.5h-2.9v-5.1
		c0-1.2-0.4-2-1.5-2c-0.8,0-1.3,0.6-1.5,1.1c-0.1,0.2-0.1,0.5-0.1,0.7v5.4h-2.9v-6.4H654.6z"/>
	<path class="st0" d="M667.9,160.5c0.1,1.2,1.3,1.8,2.6,1.8c1,0,1.8-0.1,2.6-0.4l0.4,2c-0.9,0.4-2.1,0.6-3.4,0.6c-3.2,0-5-1.8-5-4.7
		c0-2.4,1.5-5,4.7-5c3,0,4.1,2.3,4.1,4.6c0,0.5-0.1,0.9-0.1,1.1L667.9,160.5L667.9,160.5z M671.3,158.5c0-0.7-0.3-1.9-1.6-1.9
		c-1.2,0-1.7,1.1-1.8,1.9H671.3z"/>
</g>
<g class="st1">
	<path class="st0" d="M98.1,140.2c0.5,0.3,1.6,0.7,2.5,0.7s1.2-0.3,1.2-0.8s-0.3-0.7-1.4-1.1c-1.9-0.6-2.7-1.7-2.6-2.8
		c0-1.7,1.5-3,3.8-3c1.1,0,2.1,0.2,2.6,0.5l-0.5,2c-0.4-0.2-1.2-0.5-2-0.5c-0.7,0-1.1,0.3-1.1,0.8c0,0.4,0.4,0.7,1.5,1.1
		c1.8,0.6,2.5,1.5,2.5,2.9c0,1.7-1.4,3-4,3c-1.2,0-2.3-0.3-3-0.6L98.1,140.2z"/>
	<path class="st0" d="M109.6,130.8v2.7h2.1v2.1h-2.1v3.4c0,1.1,0.3,1.6,1.1,1.6c0.4,0,0.6,0,0.9-0.1v2.2c-0.4,0.2-1.1,0.2-1.9,0.2
		c-0.9,0-1.7-0.3-2.2-0.8c-0.5-0.6-0.8-1.4-0.8-2.8v-3.8h-1.2v-2.1h1.2v-2L109.6,130.8z"/>
	<path class="st0" d="M115.6,133.5l1.4,4.6c0.2,0.6,0.3,1.2,0.5,1.7h0.1c0.1-0.5,0.3-1.2,0.4-1.7l1.1-4.6h3.1l-2.2,6.1
		c-1.3,3.7-2.2,5.2-3.3,6.1c-1,0.9-2.1,1.2-2.8,1.3l-0.6-2.5c0.4-0.1,0.8-0.2,1.3-0.5c0.4-0.2,0.9-0.7,1.2-1.2
		c0.1-0.1,0.2-0.3,0.2-0.4c0-0.1,0-0.2-0.1-0.5l-3.4-8.5L115.6,133.5L115.6,133.5z"/>
	<path class="st0" d="M123.4,129.3h2.9v13.5h-2.9V129.3z"/>
	<path class="st0" d="M130.8,139c0.1,1.2,1.3,1.8,2.6,1.8c1,0,1.8-0.1,2.6-0.4l0.4,2c-0.9,0.4-2.1,0.6-3.4,0.6c-3.2,0-5-1.8-5-4.7
		c0-2.4,1.5-5,4.7-5c3,0,4.1,2.3,4.1,4.6c0,0.5-0.1,0.9-0.1,1.1L130.8,139L130.8,139z M134.2,137.1c0-0.7-0.3-1.9-1.6-1.9
		c-1.2,0-1.7,1.1-1.8,1.9H134.2z"/>
</g>
<g class="st1">
	<path class="st0" d="M107.3,186.4c0,3.4-2.4,5-4.9,5c-2.7,0-4.8-1.8-4.8-4.8s2-4.9,5-4.9C105.4,181.7,107.3,183.6,107.3,186.4z
		 M100.6,186.5c0,1.6,0.7,2.8,1.9,2.8c1.1,0,1.8-1.1,1.8-2.8c0-1.4-0.5-2.8-1.8-2.8C101.1,183.7,100.6,185.1,100.6,186.5z"/>
	<path class="st0" d="M111.1,181.9l1.3,4.3c0.2,0.8,0.4,1.5,0.5,2.3h0.1c0.2-0.8,0.3-1.5,0.5-2.3l1.2-4.3h3l-3.5,9.3h-2.9l-3.4-9.3
		H111.1z"/>
	<path class="st0" d="M124.1,191.2l-0.2-0.9h-0.1c-0.6,0.7-1.6,1.1-2.7,1.1c-1.9,0-3-1.4-3-2.8c0-2.4,2.2-3.6,5.5-3.6v-0.1
		c0-0.5-0.3-1.2-1.7-1.2c-1,0-2,0.3-2.6,0.7l-0.5-1.9c0.6-0.4,1.9-0.8,3.6-0.8c3.1,0,4.1,1.8,4.1,4v3.2c0,0.9,0,1.7,0.1,2.3H124.1z
		 M123.8,186.8c-1.5,0-2.7,0.3-2.7,1.5c0,0.7,0.5,1.1,1.1,1.1c0.7,0,1.3-0.5,1.5-1.1c0-0.2,0.1-0.3,0.1-0.5V186.8z"/>
	<path class="st0" d="M131.9,179.3c0,0.8-0.6,1.4-1.6,1.4c-0.9,0-1.5-0.6-1.5-1.4c0-0.8,0.6-1.5,1.5-1.5
		C131.3,177.8,131.8,178.5,131.9,179.3z M128.9,191.2v-9.3h2.9v9.3H128.9z"/>
	<path class="st0" d="M134.1,184.9c0-1.4,0-2.3-0.1-3.1h2.5l0.1,1.7h0.1c0.5-1.3,1.6-1.9,2.5-1.9c0.3,0,0.4,0,0.6,0v2.7
		c-0.2,0-0.5-0.1-0.8-0.1c-1.1,0-1.8,0.6-2,1.5c0,0.2-0.1,0.4-0.1,0.6v4.7H134L134.1,184.9L134.1,184.9z"/>
	<path class="st0" d="M143.4,187.4c0.1,1.2,1.3,1.8,2.6,1.8c1,0,1.8-0.1,2.6-0.4l0.4,2c-0.9,0.4-2.1,0.6-3.4,0.6c-3.2,0-5-1.8-5-4.7
		c0-2.4,1.5-5,4.7-5c3,0,4.1,2.3,4.1,4.6c0,0.5-0.1,0.9-0.1,1.1L143.4,187.4L143.4,187.4z M146.8,185.5c0-0.7-0.3-1.9-1.6-1.9
		c-1.2,0-1.7,1.1-1.8,1.9H146.8z"/>
</g>
<g class="st1">
	<path class="st0" d="M130.4,253.5c0,3.4-2.4,5-4.9,5c-2.7,0-4.8-1.8-4.8-4.8c0-3,2-4.9,5-4.9C128.5,248.7,130.4,250.7,130.4,253.5z
		 M123.7,253.6c0,1.6,0.7,2.8,1.9,2.8c1.1,0,1.8-1.1,1.8-2.8c0-1.4-0.5-2.8-1.8-2.8C124.2,250.8,123.7,252.2,123.7,253.6z"/>
	<path class="st0" d="M134.2,249l1.3,4.3c0.2,0.8,0.4,1.5,0.5,2.3h0.1c0.2-0.8,0.3-1.5,0.5-2.3l1.2-4.3h3l-3.5,9.3h-2.9L131,249
		H134.2z"/>
	<path class="st0" d="M150.8,255.3c0,1.2,0,2.2,0.1,3h-2.5l-0.1-1.3h-0.1c-0.4,0.6-1.2,1.5-2.9,1.5c-1.9,0-3.3-1.2-3.3-4V249h2.9v5
		c0,1.3,0.4,2.2,1.4,2.2c0.8,0,1.3-0.6,1.4-1c0.1-0.2,0.1-0.4,0.1-0.6V249h2.9v6.3H150.8z"/>
	<path class="st0" d="M153.2,244.8h2.9v13.5h-2.9V244.8z"/>
	<path class="st0" d="M160.6,254.5c0.1,1.2,1.3,1.8,2.6,1.8c1,0,1.8-0.1,2.6-0.4l0.4,2c-0.9,0.4-2.1,0.6-3.4,0.6c-3.2,0-5-1.8-5-4.7
		c0-2.4,1.5-5,4.7-5c3,0,4.1,2.3,4.1,4.6c0,0.5-0.1,0.9-0.1,1.1L160.6,254.5L160.6,254.5z M164,252.5c0-0.7-0.3-1.9-1.6-1.9
		c-1.2,0-1.7,1.1-1.8,1.9H164z"/>
</g>
<g class="st1">
	<path class="st0" d="M168.1,277.4c0-1.2,0-2.1-0.1-3h2.5l0.1,1.3h0.1c0.4-0.6,1.3-1.5,2.9-1.5c1.9,0,3.3,1.3,3.3,4v5.5H174v-5.1
		c0-1.2-0.4-2-1.5-2c-0.8,0-1.3,0.6-1.5,1.1c-0.1,0.2-0.1,0.5-0.1,0.7v5.4H168v-6.4H168.1z"/>
	<path class="st0" d="M181.4,280c0.1,1.2,1.3,1.8,2.6,1.8c1,0,1.8-0.1,2.6-0.4l0.4,2c-0.9,0.4-2.1,0.6-3.4,0.6c-3.2,0-5-1.8-5-4.7
		c0-2.4,1.5-5,4.7-5c3,0,4.1,2.3,4.1,4.6c0,0.5-0.1,0.9-0.1,1.1H181.4z M184.8,278c0-0.7-0.3-1.9-1.6-1.9c-1.2,0-1.7,1.1-1.8,1.9
		H184.8z"/>
	<path class="st0" d="M196.2,283.5c-0.5,0.2-1.5,0.4-2.6,0.4c-3,0-4.9-1.8-4.9-4.8c0-2.7,1.9-4.9,5.3-4.9c0.8,0,1.6,0.1,2.2,0.4
		l-0.5,2.1c-0.3-0.2-0.9-0.3-1.6-0.3c-1.5,0-2.5,1.1-2.5,2.6c0,1.7,1.1,2.6,2.5,2.6c0.7,0,1.2-0.1,1.7-0.3L196.2,283.5z"/>
	<path class="st0" d="M201.3,271.8v2.7h2.1v2.1h-2.1v3.4c0,1.1,0.3,1.6,1.1,1.6c0.4,0,0.6,0,0.9-0.1v2.2c-0.4,0.2-1.1,0.2-1.9,0.2
		c-0.9,0-1.7-0.3-2.2-0.8c-0.5-0.6-0.8-1.4-0.8-2.8v-3.8h-1.2v-2.1h1.2v-2L201.3,271.8z"/>
	<path class="st0" d="M210.4,283.7l-0.2-0.9h-0.1c-0.6,0.7-1.6,1.1-2.7,1.1c-1.9,0-3-1.4-3-2.8c0-2.4,2.2-3.6,5.5-3.6v-0.1
		c0-0.5-0.3-1.2-1.7-1.2c-1,0-2,0.3-2.6,0.7l-0.5-1.9c0.6-0.4,1.9-0.8,3.6-0.8c3.1,0,4.1,1.8,4.1,4v3.2c0,0.9,0,1.7,0.1,2.3
		L210.4,283.7L210.4,283.7z M210,279.3c-1.5,0-2.7,0.3-2.7,1.5c0,0.7,0.5,1.1,1.1,1.1c0.7,0,1.3-0.5,1.5-1.1c0-0.2,0.1-0.3,0.1-0.5
		L210,279.3L210,279.3z"/>
	<path class="st0" d="M218.1,271.8c0,0.8-0.6,1.4-1.6,1.4c-0.9,0-1.5-0.6-1.5-1.4s0.6-1.5,1.5-1.5
		C217.5,270.4,218.1,271,218.1,271.8z M215.1,283.7v-9.3h2.9v9.3H215.1z"/>
	<path class="st0" d="M220.3,277.5c0-1.4,0-2.3-0.1-3.1h2.5l0.1,1.7h0.1c0.5-1.3,1.6-1.9,2.5-1.9c0.3,0,0.4,0,0.6,0v2.7
		c-0.2,0-0.5-0.1-0.8-0.1c-1.1,0-1.8,0.6-2,1.5c0,0.2-0.1,0.4-0.1,0.6v4.7h-2.9L220.3,277.5L220.3,277.5z"/>
	<path class="st0" d="M229.6,280c0.1,1.2,1.3,1.8,2.6,1.8c1,0,1.8-0.1,2.6-0.4l0.4,2c-0.9,0.4-2.1,0.6-3.4,0.6c-3.2,0-5-1.8-5-4.7
		c0-2.4,1.5-5,4.7-5c3,0,4.1,2.3,4.1,4.6c0,0.5-0.1,0.9-0.1,1.1H229.6z M233,278c0-0.7-0.3-1.9-1.6-1.9c-1.2,0-1.7,1.1-1.8,1.9H233z
		"/>
	<path class="st0" d="M237.4,281.2c0.5,0.3,1.6,0.7,2.5,0.7s1.2-0.3,1.2-0.8s-0.3-0.7-1.4-1.1c-1.9-0.6-2.7-1.7-2.6-2.8
		c0-1.7,1.5-3,3.8-3c1.1,0,2.1,0.2,2.6,0.5l-0.5,2c-0.4-0.2-1.2-0.5-2-0.5c-0.7,0-1.1,0.3-1.1,0.8c0,0.4,0.4,0.7,1.5,1.1
		c1.8,0.6,2.5,1.5,2.5,2.9c0,1.7-1.4,3-4,3c-1.2,0-2.3-0.3-3-0.6L237.4,281.2z"/>
</g>
<g>
	<g>
		<path class="st0" d="M231.3,323.9c-0.4,0.2-1.4,0.5-2.6,0.5c-2.8,0-4.6-1.9-4.6-4.7c0-2.8,1.9-4.9,4.9-4.9c1,0,1.9,0.2,2.3,0.5
			l-0.4,1.3c-0.4-0.2-1-0.4-1.9-0.4c-2.1,0-3.2,1.6-3.2,3.5c0,2.1,1.4,3.4,3.2,3.4c0.9,0,1.6-0.2,2.1-0.5L231.3,323.9z"/>
	</g>
	<g>
		<path class="st0" d="M241.5,319.6c0,3.4-2.4,4.9-4.6,4.9c-2.5,0-4.4-1.8-4.4-4.7c0-3.1,2-4.9,4.6-4.9
			C239.7,314.8,241.5,316.8,241.5,319.6z M234.2,319.7c0,2,1.2,3.5,2.8,3.5s2.8-1.5,2.8-3.6c0-1.6-0.8-3.5-2.8-3.5
			S234.2,317.9,234.2,319.7z"/>
	</g>
	<g>
		<path class="st0" d="M251.3,321.7c0,1,0,1.8,0.1,2.5h-1.5l-0.1-1.5l0,0c-0.4,0.7-1.4,1.7-3,1.7c-1.4,0-3.2-0.8-3.2-4V315h1.7v5.1
			c0,1.7,0.5,2.9,2.1,2.9c1.1,0,1.9-0.8,2.2-1.5c0.1-0.2,0.2-0.6,0.2-0.9V315h1.7v6.7H251.3z"/>
	</g>
	<g>
		<path class="st0" d="M254,318c0-1.2,0-2.1-0.1-3h1.5l0.1,1.6l0,0c0.7-1.1,1.8-1.8,3.3-1.8c2.2,0,3.9,1.9,3.9,4.7
			c0,3.3-2,4.9-4.2,4.9c-1.2,0-2.3-0.5-2.8-1.4l0,0v5H254V318z M255.7,320.5c0,0.2,0,0.5,0.1,0.7c0.3,1.2,1.3,2,2.5,2
			c1.8,0,2.8-1.4,2.8-3.6c0-1.8-1-3.4-2.7-3.4c-1.1,0-2.2,0.8-2.5,2.1c-0.1,0.2-0.1,0.5-0.1,0.7L255.7,320.5L255.7,320.5z"/>
	</g>
	<g>
		<path class="st0" d="M265.8,319.9c0,2.3,1.5,3.2,3.2,3.2c1.2,0,1.9-0.2,2.5-0.5l0.3,1.2c-0.6,0.3-1.6,0.6-3.1,0.6
			c-2.8,0-4.5-1.9-4.5-4.6s1.6-5,4.3-5c3,0,3.8,2.6,3.8,4.3c0,0.3,0,0.6-0.1,0.8H265.8z M270.7,318.7c0-1.1-0.4-2.7-2.3-2.7
			c-1.7,0-2.4,1.6-2.6,2.7H270.7z"/>
	</g>
	<g>
		<path class="st0" d="M278.2,322.5c0.5,0.3,1.4,0.7,2.2,0.7c1.2,0,1.8-0.6,1.8-1.4s-0.5-1.2-1.7-1.7c-1.7-0.6-2.4-1.5-2.4-2.6
			c0-1.5,1.2-2.7,3.2-2.7c0.9,0,1.7,0.3,2.3,0.6l-0.4,1.2c-0.4-0.2-1-0.5-1.9-0.5c-1,0-1.5,0.6-1.5,1.3c0,0.8,0.6,1.1,1.7,1.6
			c1.6,0.6,2.4,1.4,2.4,2.8c0,1.6-1.3,2.8-3.4,2.8c-1,0-1.9-0.2-2.6-0.6L278.2,322.5z"/>
	</g>
	<g>
		<path class="st0" d="M292.5,323.9c-0.4,0.2-1.4,0.5-2.6,0.5c-2.8,0-4.6-1.9-4.6-4.7c0-2.8,1.9-4.9,4.9-4.9c1,0,1.9,0.2,2.3,0.5
			l-0.4,1.3c-0.4-0.2-1-0.4-1.9-0.4c-2.1,0-3.2,1.6-3.2,3.5c0,2.1,1.4,3.4,3.2,3.4c0.9,0,1.6-0.2,2.1-0.5L292.5,323.9z"/>
	</g>
	<g>
		<path class="st0" d="M294.4,310.7h1.7v5.7l0,0c0.3-0.5,0.7-0.9,1.2-1.2c0.5-0.3,1.1-0.5,1.7-0.5c1.2,0,3.2,0.8,3.2,3.9v5.5h-1.7
			V319c0-1.5-0.6-2.7-2.1-2.7c-1.1,0-1.9,0.8-2.2,1.7c-0.1,0.2-0.1,0.5-0.1,0.8v5.5h-1.7V310.7z"/>
	</g>
	<g>
		<path class="st0" d="M305.9,319.9c0,2.3,1.5,3.2,3.2,3.2c1.2,0,1.9-0.2,2.5-0.5l0.3,1.2c-0.6,0.3-1.6,0.6-3.1,0.6
			c-2.8,0-4.5-1.9-4.5-4.6s1.6-5,4.3-5c3,0,3.8,2.6,3.8,4.3c0,0.3,0,0.6-0.1,0.8H305.9z M310.8,318.7c0-1.1-0.4-2.7-2.3-2.7
			c-1.7,0-2.4,1.6-2.6,2.7H310.8z M311.2,311.1l-2.3,2.7h-1.2l1.7-2.7H311.2z"/>
	</g>
	<g>
		<path class="st0" d="M314.5,317.5c0-0.9,0-1.7-0.1-2.5h1.5l0.1,1.5h0.1c0.5-0.9,1.4-1.7,2.9-1.7c1.3,0,2.2,0.8,2.6,1.8l0,0
			c0.3-0.5,0.6-0.9,1-1.2c0.6-0.4,1.2-0.6,2-0.6c1.2,0,3,0.8,3,4v5.4H326V319c0-1.8-0.6-2.8-2-2.8c-1,0-1.7,0.7-2,1.5
			c-0.1,0.2-0.1,0.5-0.1,0.8v5.7h-1.6v-5.5c0-1.5-0.6-2.5-1.9-2.5c-1,0-1.8,0.8-2.1,1.7c-0.1,0.2-0.1,0.5-0.1,0.8v5.5h-1.6
			L314.5,317.5L314.5,317.5z"/>
	</g>
	<g>
		<path class="st0" d="M335.4,324.2l-0.1-1.2h-0.1c-0.5,0.7-1.5,1.4-2.8,1.4c-1.9,0-2.8-1.3-2.8-2.6c0-2.2,2-3.4,5.5-3.4v-0.2
			c0-0.8-0.2-2.1-2.1-2.1c-0.9,0-1.7,0.3-2.4,0.7l-0.4-1.1c0.8-0.5,1.9-0.8,3-0.8c2.8,0,3.5,1.9,3.5,3.8v3.4c0,0.8,0,1.6,0.2,2.2
			L335.4,324.2L335.4,324.2z M335.2,319.5c-1.8,0-3.9,0.3-3.9,2.1c0,1.1,0.7,1.6,1.6,1.6c1.2,0,2-0.8,2.2-1.5
			c0.1-0.2,0.1-0.4,0.1-0.5L335.2,319.5L335.2,319.5z"/>
	</g>
	<g>
		<path class="st0" d="M341.4,312.4v2.6h2.4v1.3h-2.4v5c0,1.1,0.3,1.8,1.3,1.8c0.4,0,0.8-0.1,1-0.1l0.1,1.3
			c-0.3,0.1-0.8,0.2-1.5,0.2c-0.8,0-1.4-0.2-1.8-0.7c-0.5-0.5-0.6-1.3-0.6-2.4v-5h-1.4V315h1.4v-2.2L341.4,312.4z"/>
	</g>
	<g>
		<path class="st0" d="M347.6,312.5c0,0.6-0.4,1-1.1,1c-0.6,0-1-0.5-1-1c0-0.6,0.4-1,1-1C347.2,311.4,347.6,311.9,347.6,312.5z
			 M345.7,324.2V315h1.7v9.2H345.7z"/>
	</g>
	<g>
		<path class="st0" d="M356.4,322.8L356.4,322.8c-0.5,0.9-1.6,1.6-3,1.6c-2.1,0-3.9-1.9-3.9-4.7c0-3.4,2.2-5,4.2-5
			c1.4,0,2.4,0.7,2.8,1.6l0,0l0.1-1.4h1.6c0,0.8-0.1,1.6-0.1,2.5V328h-1.7V322.8z M356.4,318.8c0-0.2,0-0.5-0.1-0.7
			c-0.2-1-1.1-1.9-2.4-1.9c-1.7,0-2.8,1.5-2.8,3.5c0,1.8,0.9,3.4,2.7,3.4c1.1,0,2-0.7,2.4-1.8c0.1-0.2,0.1-0.6,0.1-0.8L356.4,318.8
			L356.4,318.8z"/>
	</g>
	<g>
		<path class="st0" d="M368.5,321.7c0,1,0,1.8,0.1,2.5h-1.5l-0.1-1.5l0,0c-0.4,0.7-1.4,1.7-3,1.7c-1.4,0-3.2-0.8-3.2-4V315h1.7v5.1
			c0,1.7,0.5,2.9,2.1,2.9c1.1,0,1.9-0.8,2.2-1.5c0.1-0.2,0.2-0.6,0.2-0.9V315h1.7v6.7H368.5z"/>
	</g>
	<g>
		<path class="st0" d="M372.2,319.9c0,2.3,1.5,3.2,3.2,3.2c1.2,0,1.9-0.2,2.5-0.5l0.3,1.2c-0.6,0.3-1.6,0.6-3.1,0.6
			c-2.8,0-4.5-1.9-4.5-4.6s1.6-5,4.3-5c3,0,3.8,2.6,3.8,4.3c0,0.3,0,0.6-0.1,0.8H372.2z M377.2,318.7c0-1.1-0.4-2.7-2.3-2.7
			c-1.7,0-2.4,1.6-2.6,2.7H377.2z"/>
	</g>
	<g>
		<path class="st0" d="M392.8,310.7v11.1c0,0.8,0,1.7,0.1,2.4h-1.5l-0.1-1.6l0,0c-0.5,1-1.6,1.8-3.1,1.8c-2.2,0-3.9-1.9-3.9-4.7
			c0-3.1,1.9-4.9,4.1-4.9c1.4,0,2.4,0.7,2.8,1.4l0,0v-5.5L392.8,310.7L392.8,310.7z M391.1,318.8c0-0.2,0-0.5-0.1-0.7
			c-0.2-1.1-1.2-1.9-2.4-1.9c-1.7,0-2.8,1.5-2.8,3.6c0,1.9,0.9,3.4,2.7,3.4c1.1,0,2.1-0.7,2.5-2c0.1-0.2,0.1-0.5,0.1-0.7
			L391.1,318.8L391.1,318.8z"/>
	</g>
	<g>
		<path class="st0" d="M397.8,311.2c-0.4,1.6-1.3,3.6-1.8,4.5l-1.1,0.1c0.4-1.1,0.9-3.1,1.1-4.5L397.8,311.2z"/>
	</g>
	<g>
		<path class="st0" d="M407.3,321.7c0,1,0,1.8,0.1,2.5h-1.5l-0.1-1.5l0,0c-0.4,0.7-1.4,1.7-3,1.7c-1.4,0-3.2-0.8-3.2-4V315h1.7v5.1
			c0,1.7,0.5,2.9,2.1,2.9c1.1,0,1.9-0.8,2.2-1.5c0.1-0.2,0.2-0.6,0.2-0.9V315h1.7v6.7H407.3z"/>
	</g>
	<g>
		<path class="st0" d="M410.1,317.5c0-0.9,0-1.7-0.1-2.5h1.5l0.1,1.5l0,0c0.5-0.9,1.5-1.7,3-1.7c1.3,0,3.2,0.8,3.2,3.9v5.5h-1.7
			v-5.3c0-1.5-0.6-2.7-2.1-2.7c-1.1,0-2,0.8-2.2,1.7c-0.1,0.2-0.1,0.5-0.1,0.8v5.5H410v-6.7L410.1,317.5L410.1,317.5z"/>
	</g>
	<g>
		<path class="st0" d="M421.6,319.9c0,2.3,1.5,3.2,3.2,3.2c1.2,0,1.9-0.2,2.5-0.5l0.3,1.2c-0.6,0.3-1.6,0.6-3.1,0.6
			c-2.8,0-4.5-1.9-4.5-4.6s1.6-5,4.3-5c3,0,3.8,2.6,3.8,4.3c0,0.3,0,0.6-0.1,0.8H421.6z M426.5,318.7c0-1.1-0.4-2.7-2.3-2.7
			c-1.7,0-2.4,1.6-2.6,2.7H426.5z"/>
	</g>
	<g>
		<path class="st0" d="M434.4,324.2v-7.9h-1.3V315h1.3v-0.4c0-1.3,0.4-2.4,1.3-3.2c0.7-0.6,1.7-0.9,2.9-0.9c1.1,0,2.1,0.2,2.8,0.6
			v13.1h-1.7V312c-0.3-0.2-0.7-0.2-1.4-0.2c-1.7,0-2.3,1.3-2.3,2.8v0.5h2.1v1.3H436v7.9L434.4,324.2L434.4,324.2z"/>
	</g>
	<g>
		<path class="st0" d="M445.1,319.9c0,2.3,1.5,3.2,3.2,3.2c1.2,0,1.9-0.2,2.5-0.5l0.3,1.2c-0.6,0.3-1.6,0.6-3.1,0.6
			c-2.8,0-4.5-1.9-4.5-4.6s1.6-5,4.3-5c3,0,3.8,2.6,3.8,4.3c0,0.3,0,0.6-0.1,0.8H445.1z M450,318.7c0-1.1-0.4-2.7-2.3-2.7
			c-1.7,0-2.4,1.6-2.6,2.7H450z"/>
	</g>
	<g>
		<path class="st0" d="M461.3,321.7c0,1,0,1.8,0.1,2.5h-1.5l-0.1-1.5l0,0c-0.4,0.7-1.4,1.7-3,1.7c-1.4,0-3.2-0.8-3.2-4V315h1.7v5.1
			c0,1.7,0.5,2.9,2.1,2.9c1.1,0,1.9-0.8,2.2-1.5c0.1-0.2,0.2-0.6,0.2-0.9V315h1.7v6.7H461.3z"/>
	</g>
	<g>
		<path class="st0" d="M464.1,317.9c0-1.1,0-2-0.1-2.9h1.5l0.1,1.8h0.1c0.4-1.2,1.4-2,2.5-2c0.2,0,0.3,0,0.5,0.1v1.6
			c-0.2,0-0.3-0.1-0.6-0.1c-1.2,0-2,0.9-2.2,2.1c0,0.2-0.1,0.5-0.1,0.8v4.9h-1.7L464.1,317.9L464.1,317.9z"/>
	</g>
</g>
<g class="st1">
	<path class="st0" d="M534.4,88.4c0-1.2,0-2.3-0.1-3.1h2.5l0.1,1.3l0,0c0.7-1,1.7-1.5,3.1-1.5c2,0,3.9,1.8,3.9,4.7
		c0,3.4-2.1,5-4.2,5c-1.1,0-2-0.5-2.4-1.1l0,0v4.6h-2.9L534.4,88.4L534.4,88.4z M537.3,90.6c0,0.2,0,0.4,0.1,0.6
		c0.2,0.8,0.9,1.4,1.7,1.4c1.3,0,2-1,2-2.6c0-1.5-0.7-2.6-2-2.6c-0.8,0-1.5,0.6-1.7,1.5c0,0.2-0.1,0.3-0.1,0.5V90.6z"/>
	<path class="st0" d="M548,90.9c0.1,1.2,1.3,1.8,2.6,1.8c1,0,1.8-0.1,2.6-0.4l0.4,2c-1,0.4-2.1,0.6-3.4,0.6c-3.2,0-5-1.8-5-4.7
		c0-2.4,1.5-5,4.7-5c3,0,4.1,2.3,4.1,4.6c0,0.5-0.1,0.9-0.1,1.1H548z M551.4,88.9c0-0.7-0.3-1.9-1.6-1.9c-1.2,0-1.7,1.1-1.8,1.9
		H551.4z M553,81.2l-2.3,2.9h-2l1.6-2.9H553z"/>
	<path class="st0" d="M559.1,82.6v2.7h2.1v2.1h-2.1v3.4c0,1.1,0.3,1.6,1.1,1.6c0.4,0,0.6,0,0.9-0.1v2.2c-0.4,0.2-1.1,0.2-1.9,0.2
		c-0.9,0-1.7-0.3-2.2-0.8c-0.5-0.6-0.8-1.4-0.8-2.8v-3.8H555v-2.1h1.2v-2L559.1,82.6z"/>
	<path class="st0" d="M568.1,94.6l-0.2-0.9h-0.1c-0.6,0.7-1.6,1.1-2.7,1.1c-1.9,0-3-1.4-3-2.8c0-2.4,2.2-3.6,5.5-3.6v-0.1
		c0-0.5-0.3-1.2-1.7-1.2c-1,0-2,0.3-2.6,0.7l-0.5-1.9c0.6-0.4,1.9-0.8,3.6-0.8c3.1,0,4.1,1.8,4.1,4v3.2c0,0.9,0,1.7,0.1,2.3
		C570.6,94.6,568.1,94.6,568.1,94.6z M567.8,90.2c-1.5,0-2.7,0.3-2.7,1.5c0,0.7,0.5,1.1,1.1,1.1c0.7,0,1.3-0.5,1.5-1.1
		c0-0.2,0.1-0.3,0.1-0.5L567.8,90.2L567.8,90.2z"/>
	<path class="st0" d="M572.9,81.1h2.9v13.5h-2.9V81.1z"/>
	<path class="st0" d="M580.3,90.9c0.1,1.2,1.3,1.8,2.6,1.8c1,0,1.8-0.1,2.6-0.4l0.4,2c-1,0.4-2.1,0.6-3.4,0.6c-3.2,0-5-1.8-5-4.7
		c0-2.4,1.5-5,4.7-5c3,0,4.1,2.3,4.1,4.6c0,0.5-0.1,0.9-0.1,1.1H580.3z M583.7,88.9c0-0.7-0.3-1.9-1.6-1.9c-1.2,0-1.7,1.1-1.8,1.9
		H583.7z"/>
</g>
<g class="st1">
	<path class="st0" d="M524,149.2l-0.2-0.9h-0.1c-0.6,0.7-1.6,1.1-2.7,1.1c-1.9,0-3-1.4-3-2.8c0-2.4,2.2-3.6,5.5-3.6v-0.1
		c0-0.5-0.3-1.2-1.7-1.2c-1,0-2,0.3-2.6,0.7l-0.5-1.9c0.6-0.4,1.9-0.8,3.6-0.8c3.1,0,4.1,1.8,4.1,4v3.2c0,0.9,0,1.7,0.1,2.3H524z
		 M523.6,144.8c-1.5,0-2.7,0.3-2.7,1.5c0,0.7,0.5,1.1,1.1,1.1c0.7,0,1.3-0.5,1.5-1.1c0-0.2,0.1-0.3,0.1-0.5L523.6,144.8L523.6,144.8
		z"/>
	<path class="st0" d="M528.7,142.9c0-1.2,0-2.1-0.1-3h2.5l0.1,1.3h0.1c0.4-0.6,1.3-1.5,2.9-1.5c1.9,0,3.3,1.3,3.3,4v5.5h-2.9v-5.1
		c0-1.2-0.4-2-1.5-2c-0.8,0-1.3,0.6-1.5,1.1c-0.1,0.2-0.1,0.5-0.1,0.7v5.4h-2.9v-6.4H528.7z"/>
	<path class="st0" d="M543,137.3v2.7h2.1v2.1H543v3.4c0,1.1,0.3,1.6,1.1,1.6c0.4,0,0.6,0,0.9-0.1v2.2c-0.4,0.2-1.1,0.2-1.9,0.2
		c-0.9,0-1.7-0.3-2.2-0.8c-0.5-0.6-0.8-1.4-0.8-2.8V142h-1.2v-2.1h1.2v-2L543,137.3z"/>
	<path class="st0" d="M546.7,135.7h2.9v5.3l0,0c0.3-0.4,0.7-0.7,1.1-1c0.4-0.2,1-0.4,1.5-0.4c1.8,0,3.2,1.3,3.2,4.1v5.4h-2.9V144
		c0-1.2-0.4-2.1-1.5-2.1c-0.8,0-1.2,0.5-1.4,1c-0.1,0.2-0.1,0.4-0.1,0.6v5.5h-2.9v-13.3H546.7z"/>
	<path class="st0" d="M560.1,145.5c0.1,1.2,1.3,1.8,2.6,1.8c1,0,1.8-0.1,2.6-0.4l0.4,2c-1,0.4-2.1,0.6-3.4,0.6c-3.2,0-5-1.8-5-4.7
		c0-2.4,1.5-5,4.7-5c3,0,4.1,2.3,4.1,4.6c0,0.5-0.1,0.9-0.1,1.1L560.1,145.5L560.1,145.5z M561.6,135.9l1.6,2.9h-2l-2.3-2.9H561.6z
		 M563.5,143.5c0-0.7-0.3-1.9-1.6-1.9c-1.2,0-1.7,1.1-1.8,1.9H563.5z"/>
	<path class="st0" d="M567.9,143c0-1.4,0-2.3-0.1-3.1h2.5l0.1,1.7h0.1c0.5-1.3,1.6-1.9,2.5-1.9c0.3,0,0.4,0,0.6,0v2.7
		c-0.2,0-0.5-0.1-0.8-0.1c-1.1,0-1.8,0.6-2,1.5c0,0.2-0.1,0.4-0.1,0.6v4.7h-2.9V143H567.9z"/>
	<path class="st0" d="M577.2,145.5c0.1,1.2,1.3,1.8,2.6,1.8c1,0,1.8-0.1,2.6-0.4l0.4,2c-0.9,0.4-2.1,0.6-3.4,0.6c-3.2,0-5-1.8-5-4.7
		c0-2.4,1.5-5,4.7-5c3,0,4.1,2.3,4.1,4.6c0,0.5-0.1,0.9-0.1,1.1L577.2,145.5L577.2,145.5z M580.6,143.5c0-0.7-0.3-1.9-1.6-1.9
		c-1.2,0-1.7,1.1-1.8,1.9H580.6z"/>
</g>
<g class="st1">
	<path class="st0" d="M519,182.3v-7.2h-1.2V173h1.2v-0.4c0-2.6,2-4,4.9-4c1,0,2.2,0.2,2.7,0.6l-0.6,2.2c-0.5-0.2-1.2-0.5-2.1-0.5
		c-1.5,0-2.1,0.8-2.1,1.8v0.3h5.6v9.3h-2.9v-7.2h-2.7v7.2L519,182.3L519,182.3z"/>
	<path class="st0" d="M529.9,168.8h2.9v13.5h-2.9V168.8z"/>
	<path class="st0" d="M537.3,178.5c0.1,1.2,1.3,1.8,2.6,1.8c1,0,1.8-0.1,2.6-0.4l0.4,2c-1,0.4-2.1,0.6-3.4,0.6c-3.2,0-5-1.8-5-4.7
		c0-2.4,1.5-5,4.7-5c3,0,4.1,2.3,4.1,4.6c0,0.5-0.1,0.9-0.1,1.1L537.3,178.5L537.3,178.5z M540.7,176.6c0-0.7-0.3-1.9-1.6-1.9
		c-1.2,0-1.7,1.1-1.8,1.9H540.7z"/>
	<path class="st0" d="M548.4,170.3v2.7h2.1v2.1h-2.1v3.4c0,1.1,0.3,1.6,1.1,1.6c0.4,0,0.6,0,0.9-0.1v2.2c-0.4,0.2-1.1,0.2-1.9,0.2
		c-0.9,0-1.7-0.3-2.2-0.8c-0.5-0.6-0.8-1.4-0.8-2.8V175h-1.2v-2h1.2v-2L548.4,170.3z"/>
</g>
<g class="st1">
	<path class="st0" d="M545.5,206.6c0.5,0.3,1.6,0.7,2.5,0.7s1.2-0.3,1.2-0.8s-0.3-0.7-1.4-1.1c-1.9-0.6-2.7-1.7-2.6-2.8
		c0-1.7,1.5-3,3.8-3c1.1,0,2.1,0.2,2.6,0.5l-0.5,2c-0.4-0.2-1.2-0.5-2-0.5c-0.7,0-1.1,0.3-1.1,0.8c0,0.4,0.4,0.7,1.5,1.1
		c1.8,0.6,2.5,1.5,2.5,2.9c0,1.7-1.4,3-4,3c-1.2,0-2.3-0.3-3-0.6L545.5,206.6z"/>
	<path class="st0" d="M556,205.4c0.1,1.2,1.3,1.8,2.6,1.8c1,0,1.8-0.1,2.6-0.4l0.4,2c-1,0.4-2.1,0.6-3.4,0.6c-3.2,0-5-1.8-5-4.7
		c0-2.4,1.5-5,4.7-5c3,0,4.1,2.3,4.1,4.6c0,0.5-0.1,0.9-0.1,1.1L556,205.4L556,205.4z M559.4,203.4c0-0.7-0.3-1.9-1.6-1.9
		c-1.2,0-1.7,1.1-1.8,1.9H559.4z M561,195.8l-2.3,2.9h-2l1.6-2.9H561z"/>
	<path class="st0" d="M563.8,202.9c0-1.2,0-2.3-0.1-3.1h2.5l0.1,1.3l0,0c0.7-1,1.7-1.5,3.1-1.5c2,0,3.9,1.8,3.9,4.7
		c0,3.4-2.1,5-4.2,5c-1.1,0-2-0.5-2.4-1.1l0,0v4.6h-2.9L563.8,202.9L563.8,202.9z M566.7,205.1c0,0.2,0,0.4,0.1,0.6
		c0.2,0.8,0.9,1.4,1.7,1.4c1.3,0,2-1,2-2.6c0-1.5-0.7-2.6-2-2.6c-0.8,0-1.5,0.6-1.7,1.5c0,0.2-0.1,0.3-0.1,0.5V205.1z"/>
	<path class="st0" d="M580.4,209.1l-0.2-0.9h-0.1c-0.6,0.7-1.6,1.1-2.7,1.1c-1.9,0-3-1.4-3-2.8c0-2.4,2.2-3.6,5.5-3.6v-0.1
		c0-0.5-0.3-1.2-1.7-1.2c-1,0-2,0.3-2.6,0.7l-0.5-1.9c0.6-0.4,1.9-0.8,3.6-0.8c3.1,0,4.1,1.8,4.1,4v3.2c0,0.9,0,1.7,0.1,2.3H580.4z
		 M580.1,204.7c-1.5,0-2.7,0.3-2.7,1.5c0,0.7,0.5,1.1,1.1,1.1c0.7,0,1.3-0.5,1.5-1.1c0-0.2,0.1-0.3,0.1-0.5L580.1,204.7L580.1,204.7
		z"/>
	<path class="st0" d="M585.2,195.6h2.9v13.5h-2.9V195.6z"/>
	<path class="st0" d="M592.6,205.4c0.1,1.2,1.3,1.8,2.6,1.8c1,0,1.8-0.1,2.6-0.4l0.4,2c-0.9,0.4-2.1,0.6-3.4,0.6c-3.2,0-5-1.8-5-4.7
		c0-2.4,1.5-5,4.7-5c3,0,4.1,2.3,4.1,4.6c0,0.5-0.1,0.9-0.1,1.1L592.6,205.4L592.6,205.4z M596,203.4c0-0.7-0.3-1.9-1.6-1.9
		c-1.2,0-1.7,1.1-1.8,1.9H596z"/>
</g>
<g class="st1">
	<path class="st0" d="M427.2,240.8c0-1.4,0-2.3-0.1-3.1h2.5l0.1,1.7h0.1c0.5-1.3,1.6-1.9,2.5-1.9c0.3,0,0.4,0,0.6,0v2.7
		c-0.2,0-0.5-0.1-0.8-0.1c-1.1,0-1.8,0.6-2,1.5c0,0.2-0.1,0.4-0.1,0.6v4.7h-2.9L427.2,240.8L427.2,240.8z"/>
	<path class="st0" d="M436.5,243.3c0.1,1.2,1.3,1.8,2.6,1.8c1,0,1.8-0.1,2.6-0.4l0.4,2c-0.9,0.4-2.1,0.6-3.4,0.6c-3.2,0-5-1.8-5-4.7
		c0-2.4,1.5-5,4.7-5c3,0,4.1,2.3,4.1,4.6c0,0.5-0.1,0.9-0.1,1.1L436.5,243.3L436.5,243.3z M439.9,241.4c0-0.7-0.3-1.9-1.6-1.9
		c-1.2,0-1.7,1.1-1.8,1.9H439.9z M441.5,233.7l-2.3,2.9h-2l1.6-2.9H441.5z"/>
	<path class="st0" d="M451.3,246.8c-0.5,0.2-1.5,0.4-2.6,0.4c-3,0-4.9-1.8-4.9-4.8c0-2.7,1.9-4.9,5.3-4.9c0.8,0,1.6,0.1,2.2,0.4
		l-0.5,2.1c-0.3-0.2-0.9-0.3-1.6-0.3c-1.5,0-2.5,1.1-2.5,2.6c0,1.7,1.1,2.6,2.5,2.6c0.7,0,1.2-0.1,1.7-0.3L451.3,246.8z"/>
	<path class="st0" d="M454.9,243.3c0.1,1.2,1.3,1.8,2.6,1.8c1,0,1.8-0.1,2.6-0.4l0.4,2c-1,0.4-2.1,0.6-3.4,0.6c-3.2,0-5-1.8-5-4.7
		c0-2.4,1.5-5,4.7-5c3,0,4.1,2.3,4.1,4.6c0,0.5-0.1,0.9-0.1,1.1L454.9,243.3L454.9,243.3z M458.3,241.4c0-0.7-0.3-1.9-1.6-1.9
		c-1.2,0-1.7,1.1-1.8,1.9H458.3z"/>
	<path class="st0" d="M462.7,240.9c0-1.2,0-2.3-0.1-3.1h2.5l0.1,1.3l0,0c0.7-1,1.7-1.5,3.1-1.5c2,0,3.9,1.8,3.9,4.7
		c0,3.4-2.1,5-4.2,5c-1.1,0-2-0.5-2.4-1.1l0,0v4.6h-2.9V240.9z M465.6,243.1c0,0.2,0,0.4,0.1,0.6c0.2,0.8,0.9,1.4,1.7,1.4
		c1.3,0,2-1,2-2.6c0-1.5-0.7-2.6-2-2.6c-0.8,0-1.5,0.6-1.7,1.5c0,0.2-0.1,0.3-0.1,0.5V243.1z"/>
	<path class="st0" d="M477.3,235.1v2.7h2.1v2.1h-2.1v3.4c0,1.1,0.3,1.6,1.1,1.6c0.4,0,0.6,0,0.9-0.1v2.2c-0.4,0.2-1.1,0.2-1.9,0.2
		c-0.9,0-1.7-0.3-2.2-0.8c-0.5-0.6-0.8-1.4-0.8-2.8v-3.8h-1.2v-2.1h1.2v-2L477.3,235.1z"/>
	<path class="st0" d="M486.3,247.1l-0.2-0.9H486c-0.6,0.7-1.6,1.1-2.7,1.1c-1.9,0-3-1.4-3-2.8c0-2.4,2.2-3.6,5.5-3.6v-0.1
		c0-0.5-0.3-1.2-1.7-1.2c-1,0-2,0.3-2.6,0.7l-0.5-1.9c0.6-0.4,1.9-0.8,3.6-0.8c3.1,0,4.1,1.8,4.1,4v3.2c0,0.9,0,1.7,0.1,2.3H486.3z
		 M486,242.7c-1.5,0-2.7,0.3-2.7,1.5c0,0.7,0.5,1.1,1.1,1.1c0.7,0,1.3-0.5,1.5-1.1c0-0.2,0.1-0.3,0.1-0.5V242.7z"/>
	<path class="st0" d="M498,246.8c-0.5,0.2-1.5,0.4-2.6,0.4c-3,0-4.9-1.8-4.9-4.8c0-2.7,1.9-4.9,5.3-4.9c0.8,0,1.6,0.1,2.2,0.4
		l-0.5,2.1c-0.3-0.2-0.9-0.3-1.6-0.3c-1.5,0-2.5,1.1-2.5,2.6c0,1.7,1.1,2.6,2.5,2.6c0.7,0,1.2-0.1,1.7-0.3L498,246.8z"/>
	<path class="st0" d="M499.6,233.6h2.9v13.5h-2.9V233.6z"/>
	<path class="st0" d="M507.1,243.3c0.1,1.2,1.3,1.8,2.6,1.8c1,0,1.8-0.1,2.6-0.4l0.4,2c-1,0.4-2.1,0.6-3.4,0.6c-3.2,0-5-1.8-5-4.7
		c0-2.4,1.5-5,4.7-5c3,0,4.1,2.3,4.1,4.6c0,0.5-0.1,0.9-0.1,1.1L507.1,243.3L507.1,243.3z M510.5,241.4c0-0.7-0.3-1.9-1.6-1.9
		c-1.2,0-1.7,1.1-1.8,1.9H510.5z"/>
	<path class="st0" d="M519.1,247.1v-7.2h-1.2v-2.1h1.2v-0.4c0-1,0.5-2.2,1.4-2.9s2.1-1,3.5-1s2.6,0.3,3.6,0.8v12.9h-2.9v-11.4
		c-0.2-0.1-0.6-0.2-1.1-0.2c-1.2,0-1.7,0.8-1.7,1.9v0.4h1.7v2.1H522v7.2h-2.9V247.1z"/>
	<path class="st0" d="M539.1,242.3c0,3.4-2.4,5-4.9,5c-2.7,0-4.8-1.8-4.8-4.8s2-4.9,5-4.9C537.2,237.6,539.1,239.5,539.1,242.3z
		 M532.4,242.4c0,1.6,0.7,2.8,1.9,2.8c1.1,0,1.8-1.1,1.8-2.8c0-1.4-0.5-2.8-1.8-2.8C532.9,239.6,532.4,241,532.4,242.4z"/>
	<path class="st0" d="M540.9,240.8c0-1.4,0-2.3-0.1-3.1h2.5l0.1,1.7h0.1c0.5-1.3,1.6-1.9,2.5-1.9c0.3,0,0.4,0,0.6,0v2.7
		c-0.2,0-0.5-0.1-0.8-0.1c-1.1,0-1.8,0.6-2,1.5c0,0.2-0.1,0.4-0.1,0.6v4.7h-2.9v-6.1H540.9z"/>
	<path class="st0" d="M553.2,247.1l-0.2-0.9h-0.1c-0.6,0.7-1.6,1.1-2.7,1.1c-1.9,0-3-1.4-3-2.8c0-2.4,2.2-3.6,5.5-3.6v-0.1
		c0-0.5-0.3-1.2-1.7-1.2c-1,0-2,0.3-2.6,0.7l-0.5-1.9c0.6-0.4,1.9-0.8,3.6-0.8c3.1,0,4.1,1.8,4.1,4v3.2c0,0.9,0,1.7,0.1,2.3H553.2z
		 M552.8,242.7c-1.5,0-2.7,0.3-2.7,1.5c0,0.7,0.5,1.1,1.1,1.1c0.7,0,1.3-0.5,1.5-1.1c0-0.2,0.1-0.3,0.1-0.5L552.8,242.7L552.8,242.7
		z"/>
	<path class="st0" d="M557.9,233.6h2.9v13.5h-2.9V233.6z"/>
</g>
<g class="st1">
	<path class="st0" d="M427.2,267.3c0-1.2,0-2.3-0.1-3.1h2.5l0.1,1.3l0,0c0.7-1,1.7-1.5,3.1-1.5c2,0,3.9,1.8,3.9,4.7
		c0,3.4-2.1,5-4.2,5c-1.1,0-2-0.5-2.4-1.1l0,0v4.6h-2.9V267.3z M430.1,269.5c0,0.2,0,0.4,0.1,0.6c0.2,0.8,0.9,1.4,1.7,1.4
		c1.3,0,2-1,2-2.6c0-1.5-0.7-2.6-2-2.6c-0.8,0-1.5,0.6-1.7,1.5c0,0.2-0.1,0.3-0.1,0.5V269.5z"/>
	<path class="st0" d="M440.8,269.7c0.1,1.2,1.3,1.8,2.6,1.8c1,0,1.8-0.1,2.6-0.4l0.4,2c-0.9,0.4-2.1,0.6-3.4,0.6c-3.2,0-5-1.8-5-4.7
		c0-2.4,1.5-5,4.7-5c3,0,4.1,2.3,4.1,4.6c0,0.5-0.1,0.9-0.1,1.1H440.8z M444.2,267.8c0-0.7-0.3-1.9-1.6-1.9c-1.2,0-1.7,1.1-1.8,1.9
		H444.2z M445.8,260.1l-2.3,2.9h-2l1.6-2.9H445.8z"/>
	<path class="st0" d="M457.7,260v10.7c0,1,0,2.1,0.1,2.8h-2.6l-0.1-1.4l0,0c-0.6,1-1.7,1.6-2.9,1.6c-2.2,0-4-1.9-4-4.8
		c0-3.1,1.9-4.9,4.2-4.9c1.1,0,2,0.4,2.5,1l0,0v-5L457.7,260L457.7,260z M454.8,268.1c0-0.2,0-0.4,0-0.5c-0.2-0.8-0.8-1.4-1.7-1.4
		c-1.3,0-2,1.2-2,2.6c0,1.6,0.8,2.6,2,2.6c0.8,0,1.5-0.6,1.7-1.4c0.1-0.2,0.1-0.4,0.1-0.7v-1.2H454.8z"/>
	<path class="st0" d="M469.2,268.7c0,3.4-2.4,5-4.9,5c-2.7,0-4.8-1.8-4.8-4.8s2-4.9,5-4.9C467.3,264,469.2,265.9,469.2,268.7z
		 M462.4,268.8c0,1.6,0.7,2.8,1.9,2.8c1.1,0,1.8-1.1,1.8-2.8c0-1.4-0.5-2.8-1.8-2.8C462.9,266,462.4,267.4,462.4,268.8z"/>
	<path class="st0" d="M470.9,267.1c0-1.2,0-2.1-0.1-3h2.5l0.1,1.3h0.1c0.4-0.6,1.3-1.5,2.9-1.5c1.9,0,3.3,1.3,3.3,4v5.5h-2.9v-5.1
		c0-1.2-0.4-2-1.5-2c-0.8,0-1.3,0.6-1.5,1.1c-0.1,0.2-0.1,0.5-0.1,0.7v5.4h-2.9v-6.4H470.9z"/>
	<path class="st0" d="M489.1,273.2c-0.5,0.2-1.5,0.4-2.6,0.4c-3,0-4.9-1.8-4.9-4.8c0-2.7,1.9-4.9,5.3-4.9c0.8,0,1.6,0.1,2.2,0.4
		l-0.5,2.1c-0.3-0.2-0.9-0.3-1.6-0.3c-1.5,0-2.5,1.1-2.5,2.6c0,1.7,1.1,2.6,2.5,2.6c0.7,0,1.2-0.1,1.7-0.3L489.1,273.2z"/>
	<path class="st0" d="M499.4,270.5c0,1.2,0,2.2,0.1,3H497l-0.1-1.3h-0.1c-0.4,0.6-1.2,1.5-2.9,1.5c-1.9,0-3.3-1.2-3.3-4v-5.5h2.9v5
		c0,1.3,0.4,2.2,1.4,2.2c0.8,0,1.3-0.6,1.4-1c0.1-0.2,0.1-0.4,0.1-0.6v-5.5h2.9v6.2H499.4z"/>
	<path class="st0" d="M501.7,260h2.9v13.5h-2.9V260z"/>
	<path class="st0" d="M509.2,269.7c0.1,1.2,1.3,1.8,2.6,1.8c1,0,1.8-0.1,2.6-0.4l0.4,2c-1,0.4-2.1,0.6-3.4,0.6c-3.2,0-5-1.8-5-4.7
		c0-2.4,1.5-5,4.7-5c3,0,4.1,2.3,4.1,4.6c0,0.5-0.1,0.9-0.1,1.1H509.2z M512.6,267.8c0-0.7-0.3-1.9-1.6-1.9c-1.2,0-1.7,1.1-1.8,1.9
		H512.6z"/>
	<path class="st0" d="M521.1,273.5v-7.2h-1.2v-2.1h1.2v-0.4c0-1,0.5-2.2,1.4-2.9s2.1-1,3.5-1s2.6,0.3,3.6,0.8v12.9h-2.9v-11.4
		c-0.2-0.1-0.6-0.2-1.1-0.2c-1.2,0-1.7,0.8-1.7,1.9v0.4h1.7v2.1H524v7.2L521.1,273.5L521.1,273.5z"/>
	<path class="st0" d="M541.2,268.7c0,3.4-2.4,5-4.9,5c-2.7,0-4.8-1.8-4.8-4.8s2-4.9,5-4.9C539.3,264,541.2,265.9,541.2,268.7z
		 M534.4,268.8c0,1.6,0.7,2.8,1.9,2.8c1.1,0,1.8-1.1,1.8-2.8c0-1.4-0.5-2.8-1.8-2.8C535,266,534.4,267.4,534.4,268.8z"/>
	<path class="st0" d="M543,267.2c0-1.4,0-2.3-0.1-3.1h2.5l0.1,1.7h0.1c0.5-1.3,1.6-1.9,2.5-1.9c0.3,0,0.4,0,0.6,0v2.7
		c-0.2,0-0.5-0.1-0.8-0.1c-1.1,0-1.8,0.6-2,1.5c0,0.2-0.1,0.4-0.1,0.6v4.7H543V267.2z"/>
	<path class="st0" d="M555.2,273.5l-0.2-0.9l0,0c-0.6,0.7-1.6,1.1-2.7,1.1c-1.9,0-3-1.4-3-2.8c0-2.4,2.2-3.6,5.5-3.6v-0.1
		c0-0.5-0.3-1.2-1.7-1.2c-1,0-2,0.3-2.6,0.7l-0.5-1.9c0.6-0.4,1.9-0.8,3.6-0.8c3.1,0,4.1,1.8,4.1,4v3.2c0,0.9,0,1.7,0.1,2.3
		L555.2,273.5L555.2,273.5z M554.9,269.1c-1.5,0-2.7,0.3-2.7,1.5c0,0.7,0.5,1.1,1.1,1.1c0.7,0,1.3-0.5,1.5-1.1
		c0-0.2,0.1-0.3,0.1-0.5L554.9,269.1L554.9,269.1z"/>
	<path class="st0" d="M560,260h2.9v13.5H560V260z"/>
</g>
<g>
	<polygon class="st0" points="402.9,115.5 402.1,114.9 449,41.8 539.7,41.8 539.7,42.8 449.6,42.8 	"/>
</g>
<g>
	<rect x="471.1" y="90" class="st0" width="56.2" height="1"/>
</g>
<g>
	<rect x="398.8" y="145.8" class="st0" width="112.3" height="1"/>
</g>
<g>
	<rect x="377.5" y="175.6" class="st0" width="132.6" height="1"/>
</g>
<g>
	<rect x="411.2" y="205.8" class="st0" width="123.4" height="1"/>
</g>
<g>
	<polygon class="st0" points="418.9,240.6 385.2,240.6 359.8,215.3 360.6,214.5 385.6,239.6 418.9,239.6 	"/>
</g>
<g>
	<rect x="348.1" y="268.6" class="st0" width="70.8" height="1"/>
</g>
<g>
	<polygon class="st0" points="301.8,279.9 244.9,279.9 244.9,278.9 301.2,278.9 333.5,230.5 334.3,231.1 	"/>
</g>
<g>
	<polygon class="st0" points="275.2,255.6 171.5,255.6 171.5,254.6 274.8,254.6 336.5,191.1 337.3,191.7 	"/>
</g>
<g>
	<rect x="152.7" y="187.7" class="st0" width="176.9" height="1"/>
</g>
<g>
	<rect x="152.7" y="136.7" class="st0" width="189.7" height="1"/>
</g>
<g>
	<rect x="175.2" y="98.1" class="st0" width="163.8" height="1"/>
</g>
<g>
	<path class="st0" d="M337.6,218c-1.7,0-3.1-1.4-3.1-3.1c0-1.7,1.4-3.1,3.1-3.1s3.1,1.4,3.1,3.1S339.3,218,337.6,218z M337.6,212.8
		c-1.2,0-2.1,0.9-2.1,2.1s0.9,2.1,2.1,2.1s2.1-0.9,2.1-2.1S338.8,212.8,337.6,212.8z"/>
</g>
<g>
	<path class="st0" d="M343.8,224.1c-1.7,0-3.1-1.4-3.1-3.1c0-1.7,1.4-3.1,3.1-3.1s3.1,1.4,3.1,3.1
		C346.9,222.7,345.5,224.1,343.8,224.1z M343.8,218.9c-1.2,0-2.1,0.9-2.1,2.1s0.9,2.1,2.1,2.1s2.1-0.9,2.1-2.1
		S345,218.9,343.8,218.9z"/>
</g>
<g>
	<path class="st0" d="M354.5,216.3c-1.5,0-2.7-1.2-2.7-2.7s1.2-2.7,2.7-2.7s2.7,1.2,2.7,2.7S356,216.3,354.5,216.3z M354.5,211.9
		c-0.9,0-1.7,0.8-1.7,1.7s0.8,1.7,1.7,1.7s1.7-0.8,1.7-1.7S355.4,211.9,354.5,211.9z"/>
</g>
<g>
	<path class="st0" d="M358.9,221.7c-1.4,0-2.6-1.2-2.6-2.6s1.2-2.6,2.6-2.6s2.6,1.2,2.6,2.6S360.3,221.7,358.9,221.7z M358.9,217.5
		c-0.9,0-1.6,0.7-1.6,1.6c0,0.9,0.7,1.6,1.6,1.6s1.6-0.7,1.6-1.6S359.8,217.5,358.9,217.5z"/>
</g>
<g>
	<path class="st0" d="M360.1,214.2c-1,0-1.9-0.9-1.9-1.9s0.9-1.9,1.9-1.9s1.9,0.9,1.9,1.9S361.1,214.2,360.1,214.2z M360.1,211.4
		c-0.5,0-0.9,0.4-0.9,0.9s0.4,0.9,0.9,0.9s0.9-0.4,0.9-0.9S360.6,211.4,360.1,211.4z"/>
</g>
<g>
	<path class="st0" d="M346,218.4c-2.2,0-4-1.8-4-4s1.8-4,4-4s4,1.8,4,4S348.2,218.4,346,218.4z M346,211.4c-1.7,0-3,1.3-3,3
		s1.3,3,3,3s3-1.3,3-3S347.7,211.4,346,211.4z"/>
</g>
<g>
	<path class="st0" d="M330.9,223.2c-1.2,0-2.2-1-2.2-2.2s1-2.2,2.2-2.2s2.2,1,2.2,2.2S332.1,223.2,330.9,223.2z M330.9,219.8
		c-0.7,0-1.2,0.5-1.2,1.2s0.5,1.2,1.2,1.2s1.2-0.5,1.2-1.2S331.6,219.8,330.9,219.8z"/>
</g>
<g>
	<path class="st0" d="M479.6,331.2H213.1v-23.8h266.5V331.2z M214.1,330.2h264.5v-21.8H214.1V330.2z"/>
</g>
<g>
	<rect x="594.2" y="133.7" class="st0" width="1" height="51.1"/>
</g>
<g>
	<rect x="80.7" y="86.8" class="st0" width="1" height="116.1"/>
</g>
<g>
	<rect x="68.4" y="136.7" class="st0" width="12.8" height="1"/>
</g>
<g>
	<rect x="594.7" y="159.8" class="st0" width="7.7" height="1"/>
</g>
</svg>
